<svg xmlns="http://www.w3.org/2000/svg" xmlns:xlink="http://www.w3.org/1999/xlink" version="1.1" width="600" height="600" viewBox="0 0 600 600" xml:space="preserve">
<desc>Created with Fabric.js 5.2.4</desc>
<defs>
</defs>
<rect x="0" y="0" width="100%" height="100%" fill="#fff"></rect>
<g transform="matrix(1 0 0 1 224 225.7)"  >
<path style="stroke: rgb(0,0,0); stroke-width: 7; stroke-dasharray: none; stroke-linecap: round; stroke-dashoffset: 0; stroke-linejoin: round; stroke-miterlimit: 10; fill: none; fill-rule: nonzero; opacity: 1;"  transform=" translate(-224, -225.7)" d="M 247 159.20700076293946 Q 247 159.20000076293945 247 158.70000076293945 Q 247 158.20000076293945 247 157.70000076293945 Q 247 157.20000076293945 247 156.70000076293945 Q 247 156.20000076293945 247 155.70000076293945 Q 247 155.20000076293945 247 154.70000076293945 Q 247 154.20000076293945 246.5 153.70000076293945 Q 246 153.20000076293945 246 152.70000076293945 Q 246 152.20000076293945 246 151.70000076293945 Q 246 151.20000076293945 245.5 150.70000076293945 Q 245 150.20000076293945 245 149.70000076293945 Q 245 149.20000076293945 245 148.70000076293945 Q 245 148.20000076293945 244.5 148.20000076293945 Q 244 148.20000076293945 244 147.20000076293945 Q 244 146.20000076293945 244 145.70000076293945 Q 244 145.20000076293945 243.5 145.20000076293945 Q 243 145.20000076293945 243 144.70000076293945 Q 243 144.20000076293945 242.5 143.20000076293945 Q 242 142.20000076293945 241.5 142.20000076293945 Q 241 142.20000076293945 240.5 141.70000076293945 Q 240 141.20000076293945 240 140.70000076293945 Q 240 140.20000076293945 239.5 140.20000076293945 Q 239 140.20000076293945 237.5 138.70000076293945 Q 236 137.20000076293945 235 136.70000076293945 Q 234 136.20000076293945 231 134.70000076293945 Q 228 133.20000076293945 227.5 132.70000076293945 Q 227 132.20000076293945 225 131.70000076293945 Q 223 131.20000076293945 220.5 129.70000076293945 Q 218 128.20000076293945 217 128.20000076293945 Q 216 128.20000076293945 215 127.20000076293945 Q 214 126.20000076293945 212.5 125.70000076293945 Q 211 125.20000076293945 210 125.20000076293945 Q 209 125.20000076293945 208.5 124.70000076293945 Q 208 124.20000076293945 206 123.70000076293945 Q 204 123.20000076293945 202.5 123.20000076293945 Q 201 123.20000076293945 200 122.70000076293945 Q 199 122.20000076293945 197.5 121.70000076293945 Q 196 121.20000076293945 194.5 120.70000076293945 Q 193 120.20000076293945 191.5 120.20000076293945 Q 190 120.20000076293945 188 119.70000076293945 Q 186 119.20000076293945 185 119.20000076293945 Q 184 119.20000076293945 182 118.70000076293945 Q 180 118.20000076293945 178 117.70000076293945 Q 176 117.20000076293945 175.5 117.20000076293945 Q 175 117.20000076293945 173.5 117.20000076293945 Q 172 117.20000076293945 171 116.70000076293945 Q 170 116.20000076293945 169.5 116.20000076293945 Q 169 116.20000076293945 168.5 116.20000076293945 Q 168 116.20000076293945 167.5 116.20000076293945 Q 167 116.20000076293945 166.5 116.20000076293945 Q 166 116.20000076293945 165 116.20000076293945 Q 164 116.20000076293945 163.5 116.20000076293945 Q 163 116.20000076293945 162.5 116.20000076293945 Q 162 116.20000076293945 161 116.20000076293945 Q 160 116.20000076293945 159 116.20000076293945 Q 158 116.20000076293945 156.5 116.20000076293945 Q 155 116.20000076293945 153.5 116.70000076293945 Q 152 117.20000076293945 150 117.70000076293945 Q 148 118.20000076293945 147.5 118.70000076293945 Q 147 119.20000076293945 145.5 119.70000076293945 Q 144 120.20000076293945 142.5 120.70000076293945 Q 141 121.20000076293945 140 122.20000076293945 Q 139 123.20000076293945 137.5 123.70000076293945 Q 136 124.20000076293945 135 124.20000076293945 Q 134 124.20000076293945 133 124.70000076293945 Q 132 125.20000076293945 130 126.20000076293945 Q 128 127.20000076293945 126.5 127.70000076293945 Q 125 128.20000076293945 124.5 129.20000076293945 Q 124 130.20000076293945 123.5 130.20000076293945 Q 123 130.20000076293945 121.5 131.20000076293945 Q 120 132.20000076293945 118 133.20000076293945 Q 116 134.20000076293945 115.5 134.70000076293945 Q 115 135.20000076293945 113.5 136.20000076293945 Q 112 137.20000076293945 110.5 138.70000076293945 Q 109 140.20000076293945 108.5 140.20000076293945 Q 108 140.20000076293945 106.5 141.70000076293945 Q 105 143.20000076293945 103.5 143.70000076293945 Q 102 144.20000076293945 102 144.70000076293945 Q 102 145.20000076293945 100.5 146.20000076293945 Q 99 147.20000076293945 98 147.70000076293945 Q 97 148.20000076293945 96.5 149.20000076293945 Q 96 150.20000076293945 95.5 151.20000076293945 Q 95 152.20000076293945 94.5 152.20000076293945 Q 94 152.20000076293945 93 153.70000076293945 Q 92 155.20000076293945 91.5 155.70000076293945 Q 91 156.20000076293945 90 158.20000076293945 Q 89 160.20000076293945 86.5 164.70000076293945 Q 84 169.20000076293945 84 170.70000076293945 Q 84 172.20000076293945 83 175.20000076293945 Q 82 178.20000076293945 81.5 180.20000076293945 Q 81 182.20000076293945 81 183.20000076293945 Q 81 184.20000076293945 80.5 186.20000076293945 Q 80 188.20000076293945 80 190.20000076293945 Q 80 192.20000076293945 80 192.70000076293945 Q 80 193.20000076293945 79.5 194.20000076293945 Q 79 195.20000076293945 79 197.20000076293945 Q 79 199.20000076293945 79 199.70000076293945 Q 79 200.20000076293945 78.5 202.20000076293945 Q 78 204.20000076293945 78 205.70000076293945 Q 78 207.20000076293945 78 209.20000076293945 Q 78 211.20000076293945 78 211.70000076293945 Q 78 212.20000076293945 78 213.70000076293945 Q 78 215.20000076293945 78 216.70000076293945 Q 78 218.20000076293945 78 219.20000076293945 Q 78 220.20000076293945 78 222.20000076293945 Q 78 224.20000076293945 78 225.70000076293945 Q 78 227.20000076293945 78 227.70000076293945 Q 78 228.20000076293945 78.5 230.20000076293945 Q 79 232.20000076293945 79 233.70000076293945 Q 79 235.20000076293945 79.5 235.70000076293945 Q 80 236.20000076293945 80 237.20000076293945 Q 80 238.20000076293945 80.5 239.70000076293945 Q 81 241.20000076293945 81 242.20000076293945 Q 81 243.20000076293945 81.5 244.20000076293945 Q 82 245.20000076293945 83 247.20000076293945 Q 84 249.20000076293945 84.5 251.20000076293945 Q 85 253.20000076293945 85.5 254.20000076293945 Q 86 255.20000076293945 87 257.20000076293945 Q 88 259.20000076293945 88 260.70000076293945 Q 88 262.20000076293945 89 263.20000076293945 Q 90 264.20000076293945 90.5 266.20000076293945 Q 91 268.20000076293945 91.5 270.20000076293945 Q 92 272.20000076293945 92.5 273.20000076293945 Q 93 274.20000076293945 93.5 275.20000076293945 Q 94 276.20000076293945 95 278.20000076293945 Q 96 280.20000076293945 96.5 281.20000076293945 Q 97 282.20000076293945 98 283.70000076293945 Q 99 285.20000076293945 101 289.20000076293945 Q 103 293.20000076293945 104 295.70000076293945 Q 105 298.20000076293945 105.5 299.20000076293945 Q 106 300.20000076293945 107.5 302.20000076293945 Q 109 304.20000076293945 110.5 306.20000076293945 Q 112 308.20000076293945 112.5 309.20000076293945 Q 113 310.20000076293945 114.5 312.20000076293945 Q 116 314.20000076293945 117 315.20000076293945 Q 118 316.20000076293945 118.5 316.70000076293945 Q 119 317.20000076293945 120 318.70000076293945 Q 121 320.20000076293945 122.5 321.20000076293945 Q 124 322.20000076293945 124 322.70000076293945 Q 124 323.20000076293945 125 323.70000076293945 Q 126 324.20000076293945 127 325.20000076293945 Q 128 326.20000076293945 128 326.70000076293945 Q 128 327.20000076293945 128.5 327.70000076293945 Q 129 328.20000076293945 130 328.70000076293945 Q 131 329.20000076293945 131.5 330.20000076293945 Q 132 331.20000076293945 133 331.70000076293945 Q 134 332.20000076293945 135 332.20000076293945 Q 136 332.20000076293945 136.5 332.70000076293945 Q 137 333.20000076293945 137.5 333.20000076293945 Q 138 333.20000076293945 138 333.70000076293945 Q 138 334.20000076293945 139 334.20000076293945 Q 140 334.20000076293945 140 334.70000076293945 Q 140 335.20000076293945 141 335.20000076293945 Q 142 335.20000076293945 142.5 335.20000076293945 Q 143 335.20000076293945 143.5 335.20000076293945 Q 144 335.20000076293945 145 335.20000076293945 Q 146 335.20000076293945 146.5 335.20000076293945 Q 147 335.20000076293945 148 335.20000076293945 Q 149 335.20000076293945 149.5 335.20000076293945 Q 150 335.20000076293945 151 335.20000076293945 Q 152 335.20000076293945 153 334.70000076293945 Q 154 334.20000076293945 154.5 334.20000076293945 Q 155 334.20000076293945 156.5 333.20000076293945 Q 158 332.20000076293945 160.5 331.20000076293945 Q 163 330.20000076293945 163.5 330.20000076293945 Q 164 330.20000076293945 166 329.20000076293945 Q 168 328.20000076293945 168.5 327.70000076293945 Q 169 327.20000076293945 170.5 326.20000076293945 Q 172 325.20000076293945 173.5 324.70000076293945 Q 175 324.20000076293945 176.5 323.20000076293945 Q 178 322.20000076293945 179 321.20000076293945 Q 180 320.20000076293945 180.5 320.20000076293945 Q 181 320.20000076293945 182 319.70000076293945 Q 183 319.20000076293945 184.5 318.20000076293945 Q 186 317.20000076293945 186.5 317.20000076293945 Q 187 317.20000076293945 187.5 316.70000076293945 Q 188 316.20000076293945 189 315.20000076293945 Q 190 314.20000076293945 191 313.70000076293945 Q 192 313.20000076293945 192.5 312.70000076293945 Q 193 312.20000076293945 194.5 310.70000076293945 Q 196 309.20000076293945 197 308.70000076293945 Q 198 308.20000076293945 199 307.20000076293945 Q 200 306.20000076293945 201.5 305.20000076293945 Q 203 304.20000076293945 204.5 302.70000076293945 Q 206 301.20000076293945 206 300.70000076293945 Q 206 300.20000076293945 207 299.20000076293945 Q 208 298.20000076293945 209.5 297.70000076293945 Q 211 297.20000076293945 211.5 296.70000076293945 Q 212 296.20000076293945 212.5 295.20000076293945 Q 213 294.20000076293945 214.5 293.20000076293945 Q 216 292.20000076293945 217.5 292.20000076293945 Q 219 292.20000076293945 219.5 290.70000076293945 Q 220 289.20000076293945 220.5 288.70000076293945 Q 221 288.20000076293945 222 287.70000076293945 Q 223 287.20000076293945 224 286.20000076293945 Q 225 285.20000076293945 226.5 284.70000076293945 Q 228 284.20000076293945 228.5 283.70000076293945 Q 229 283.20000076293945 230.5 282.20000076293945 Q 232 281.20000076293945 233.5 280.20000076293945 Q 235 279.20000076293945 235.5 278.20000076293945 Q 236 277.20000076293945 237.5 276.70000076293945 Q 239 276.20000076293945 240 274.70000076293945 Q 241 273.20000076293945 242 273.20000076293945 Q 243 273.20000076293945 244 272.20000076293945 Q 245 271.20000076293945 246 270.20000076293945 Q 247 269.20000076293945 247.5 268.70000076293945 Q 248 268.20000076293945 249.5 267.20000076293945 Q 251 266.20000076293945 251.5 265.70000076293945 Q 252 265.20000076293945 252 264.70000076293945 Q 252 264.20000076293945 254 263.70000076293945 Q 256 263.20000076293945 256.5 261.70000076293945 Q 257 260.20000076293945 258.5 259.70000076293945 Q 260 259.20000076293945 260.5 258.20000076293945 Q 261 257.20000076293945 262 256.70000076293945 Q 263 256.20000076293945 263.5 255.20000076293945 Q 264 254.20000076293945 264 253.70000076293945 Q 264 253.20000076293945 264.5 253.20000076293945 Q 265 253.20000076293945 265.5 252.70000076293945 Q 266 252.20000076293945 266.5 251.70000076293945 Q 267 251.20000076293945 267.5 251.20000076293945 Q 268 251.20000076293945 268 250.70000076293945 Q 268 250.20000076293945 268.5 249.20000076293945 Q 269 248.20000076293945 269.5 248.20000076293945 Q 270 248.20000076293945 271 248.20000076293945 Q 272 248.20000076293945 272 247.20000076293945 Q 272 246.20000076293945 272.5 245.20000076293945 Q 273 244.20000076293945 274.5 244.20000076293945 Q 276 244.20000076293945 276.5 243.20000076293945 Q 277 242.20000076293945 278 241.20000076293945 Q 279 240.20000076293945 280 239.20000076293945 Q 281 238.20000076293945 281.5 237.20000076293945 Q 282 236.20000076293945 283 235.70000076293945 Q 284 235.20000076293945 285 234.20000076293945 Q 286 233.20000076293945 287 232.20000076293945 Q 288 231.20000076293945 288.5 230.70000076293945 Q 289 230.20000076293945 289 229.70000076293945 Q 289 229.20000076293945 290.5 228.70000076293945 Q 292 228.20000076293945 293 226.20000076293945 Q 294 224.20000076293945 294.5 224.20000076293945 Q 295 224.20000076293945 295.5 222.70000076293945 Q 296 221.20000076293945 297 220.70000076293945 Q 298 220.20000076293945 299 219.20000076293945 Q 300 218.20000076293945 301 217.20000076293945 Q 302 216.20000076293945 303 215.20000076293945 Q 304 214.20000076293945 304 213.20000076293945 Q 304 212.20000076293945 305 211.70000076293945 Q 306 211.20000076293945 307 210.20000076293945 Q 308 209.20000076293945 308.5 208.70000076293945 Q 309 208.20000076293945 310 207.20000076293945 Q 311 206.20000076293945 311.5 205.20000076293945 Q 312 204.20000076293945 312.5 203.70000076293945 Q 313 203.20000076293945 314 202.20000076293945 Q 315 201.20000076293945 315.5 200.70000076293945 Q 316 200.20000076293945 316.5 199.70000076293945 Q 317 199.20000076293945 318 198.20000076293945 Q 319 197.20000076293945 319.5 196.70000076293945 Q 320 196.20000076293945 320.5 196.20000076293945 Q 321 196.20000076293945 321 195.70000076293945 Q 321 195.20000076293945 323 194.20000076293945 Q 325 193.20000076293945 325.5 192.70000076293945 Q 326 192.20000076293945 326.5 191.70000076293945 Q 327 191.20000076293945 327.5 190.70000076293945 Q 328 190.20000076293945 329.5 189.70000076293945 Q 331 189.20000076293945 331.5 188.70000076293945 Q 332 188.20000076293945 332 187.70000076293945 Q 332 187.20000076293945 333.5 186.20000076293945 Q 335 185.20000076293945 335.5 184.70000076293945 Q 336 184.20000076293945 336.5 184.20000076293945 Q 337 184.20000076293945 338 183.20000076293945 Q 339 182.20000076293945 340 181.20000076293945 Q 341 180.20000076293945 341.5 180.20000076293945 Q 342 180.20000076293945 342.5 179.70000076293945 Q 343 179.20000076293945 343.5 178.20000076293945 Q 344 177.20000076293945 345 176.70000076293945 Q 346 176.20000076293945 347 175.70000076293945 Q 348 175.20000076293945 348 174.70000076293945 Q 348 174.20000076293945 348.5 173.70000076293945 Q 349 173.20000076293945 349.5 173.20000076293945 Q 350 173.20000076293945 350 172.70000076293945 Q 350 172.20000076293945 350.5 172.20000076293945 Q 351 172.20000076293945 351.5 171.70000076293945 Q 352 171.20000076293945 352 171.70000076293945 Q 352 172.20000076293945 352.5 172.70000076293945 Q 353 173.20000076293945 353.5 174.70000076293945 Q 354 176.20000076293945 355 177.20000076293945 Q 356 178.20000076293945 356 179.20000076293945 Q 356 180.20000076293945 356 181.20000076293945 Q 356 182.20000076293945 356.5 183.70000076293945 Q 357 185.20000076293945 357.5 185.70000076293945 Q 358 186.20000076293945 358.5 187.20000076293945 Q 359 188.20000076293945 359.5 189.20000076293945 Q 360 190.20000076293945 360 191.70000076293945 Q 360 193.20000076293945 360 193.70000076293945 Q 360 194.20000076293945 360.5 195.20000076293945 Q 361 196.20000076293945 361.5 197.70000076293945 Q 362 199.20000076293945 362 199.70000076293945 Q 362 200.20000076293945 362.5 201.70000076293945 Q 363 203.20000076293945 363.5 204.20000076293945 Q 364 205.20000076293945 364 205.70000076293945 Q 364 206.20000076293945 364 207.20000076293945 Q 364 208.20000076293945 364 209.70000076293945 Q 364 211.20000076293945 364 211.70000076293945 Q 364 212.20000076293945 364.5 213.20000076293945 Q 365 214.20000076293945 365 215.20000076293945 Q 365 216.20000076293945 365 216.70000076293945 Q 365 217.20000076293945 365 218.20000076293945 Q 365 219.20000076293945 365 219.70000076293945 Q 365 220.20000076293945 365.5 220.70000076293945 Q 366 221.20000076293945 366 221.70000076293945 Q 366 222.20000076293945 366 223.20000076293945 Q 366 224.20000076293945 366.5 224.20000076293945 Q 367 224.20000076293945 367 224.70000076293945 Q 367 225.20000076293945 367 226.20000076293945 Q 367 227.20000076293945 367 227.70000076293945 Q 367 228.20000076293945 367 228.70000076293945 Q 367 229.20000076293945 367 230.20000076293945 Q 367 231.20000076293945 367.5 231.70000076293945 Q 368 232.20000076293945 368 233.70000076293945 Q 368 235.20000076293945 368 236.20000076293945 Q 368 237.20000076293945 368 238.20000076293945 Q 368 239.20000076293945 368 239.70000076293945 Q 368 240.20000076293945 368 240.70000076293945 Q 368 241.20000076293945 368 242.20000076293945 Q 368 243.20000076293945 368 243.70000076293945 Q 368 244.20000076293945 368 244.70000076293945 Q 368 245.20000076293945 368 246.20000076293945 Q 368 247.20000076293945 368 247.70000076293945 Q 368 248.20000076293945 368 249.70000076293945 Q 368 251.20000076293945 368 251.70000076293945 Q 368 252.20000076293945 368 253.20000076293945 Q 368 254.20000076293945 368 254.70000076293945 Q 368 255.20000076293945 368 255.70000076293945 Q 368 256.20000076293945 368 257.20000076293945 Q 368 258.20000076293945 368 258.70000076293945 Q 368 259.20000076293945 368 259.70000076293945 Q 368 260.20000076293945 368 260.70000076293945 Q 368 261.20000076293945 368 261.70000076293945 Q 368 262.20000076293945 368 262.70000076293945 Q 368 263.20000076293945 368 263.70000076293945 Q 368 264.20000076293945 368 265.20000076293945 Q 368 266.20000076293945 368 266.70000076293945 Q 368 267.20000076293945 368 267.70000076293945 Q 368 268.20000076293945 368 269.20000076293945 Q 368 270.20000076293945 368 270.70000076293945 Q 368 271.20000076293945 368 271.70000076293945 Q 368 272.20000076293945 368 272.70000076293945 Q 368 273.20000076293945 368.5 273.70000076293945 Q 369 274.20000076293945 369 274.70000076293945 Q 369 275.20000076293945 369 275.70000076293945 Q 369 276.20000076293945 369 276.70000076293945 Q 369 277.20000076293945 369 277.70000076293945 Q 369 278.20000076293945 369 278.70000076293945 Q 369 279.20000076293945 369 279.70000076293945 Q 369 280.20000076293945 369.5 280.20000076293945 Q 370 280.20000076293945 370 280.70000076293945 Q 370 281.20000076293945 370 282.70000076293945 Q 370 284.20000076293945 370 285.20000076293945 Q 370 286.20000076293945 370 287.20000076293945 Q 370 288.20000076293945 370 288.70000076293945 Q 370 289.20000076293945 370 289.70000076293945 Q 370 290.20000076293945 370 290.70000076293945 Q 370 291.20000076293945 370 291.70000076293945 Q 370 292.20000076293945 369 292.20000076293945 Q 368 292.20000076293945 367 291.20000076293945 Q 366 290.20000076293945 365.5 289.70000076293945 Q 365 289.20000076293945 364 288.70000076293945 Q 363 288.20000076293945 361.5 287.70000076293945 Q 360 287.20000076293945 359 286.70000076293945 Q 358 286.20000076293945 355.5 284.70000076293945 Q 353 283.20000076293945 351.5 282.20000076293945 Q 350 281.20000076293945 347.5 280.70000076293945 Q 345 280.20000076293945 344 279.70000076293945 Q 343 279.20000076293945 341 278.20000076293945 Q 339 277.20000076293945 337.5 276.20000076293945 Q 336 275.20000076293945 335 275.20000076293945 Q 334 275.20000076293945 333 274.20000076293945 Q 332 273.20000076293945 330 272.20000076293945 Q 328 271.20000076293945 327.5 271.20000076293945 Q 327 271.20000076293945 325.5 270.20000076293945 Q 324 269.20000076293945 323 268.70000076293945 Q 322 268.20000076293945 321.5 267.70000076293945 Q 321 267.20000076293945 319.5 266.20000076293945 Q 318 265.20000076293945 317 265.20000076293945 Q 316 265.20000076293945 315 264.20000076293945 Q 314 263.20000076293945 313.5 263.20000076293945 Q 313 263.20000076293945 312.5 262.20000076293945 Q 312 261.20000076293945 311 260.70000076293945 Q 310 260.20000076293945 309.5 260.20000076293945 Q 309 260.20000076293945 308 259.20000076293945 Q 307 258.20000076293945 306.5 257.70000076293945 Q 306 257.20000076293945 305 256.70000076293945 Q 304 256.20000076293945 303.5 255.70000076293945 Q 303 255.20000076293945 301.5 254.20000076293945 Q 300 253.20000076293945 299.5 252.70000076293945 Q 299 252.20000076293945 298 250.70000076293945 Q 297 249.20000076293945 296.5 248.70000076293945 Q 296 248.20000076293945 295.5 248.20000076293945 Q 295 248.20000076293945 294.5 247.20000076293945 Q 294 246.20000076293945 293.5 245.70000076293945 Q 293 245.20000076293945 292.5 244.70000076293945 Q 292 244.20000076293945 291.5 243.70000076293945 Q 291 243.20000076293945 290.5 243.20000076293945 Q 290 243.20000076293945 290 242.70000076293945 Q 290 242.20000076293945 290 241.70000076293945 Q 290 241.20000076293945 289.5 241.20000076293945 Q 289 241.20000076293945 288.5 240.70000076293945 Q 288 240.20000076293945 287.5 239.70000076293945 Q 287 239.20000076293945 287 238.70000076293945 Q 287 238.20000076293945 287 237.70000076293945 Q 287 237.20000076293945 286 237.20000076293945 Q 285 237.20000076293945 285 236.70000076293945 Q 285 236.20000076293945 284.5 235.70000076293945 Q 284 235.20000076293945 284 234.70000076293945 Q 284 234.20000076293945 283.5 233.70000076293945 Q 283 233.20000076293945 283 232.70000076293945 Q 283 232.20000076293945 282 231.70000076293945 Q 281 231.20000076293945 280.5 230.20000076293945 Q 280 229.20000076293945 280 228.70000076293945 Q 280 228.20000076293945 279.5 227.70000076293945 Q 279 227.20000076293945 279 226.70000076293945 Q 279 226.20000076293945 278 225.20000076293945 Q 277 224.20000076293945 276.5 223.70000076293945 Q 276 223.20000076293945 276 222.70000076293945 Q 276 222.20000076293945 275.5 221.20000076293945 Q 275 220.20000076293945 274 219.20000076293945 Q 273 218.20000076293945 272.5 218.20000076293945 Q 272 218.20000076293945 272 217.20000076293945 Q 272 216.20000076293945 271.5 215.70000076293945 Q 271 215.20000076293945 270 214.20000076293945 Q 269 213.20000076293945 268.5 213.20000076293945 Q 268 213.20000076293945 268 212.20000076293945 Q 268 211.20000076293945 267.5 210.20000076293945 Q 267 209.20000076293945 266.5 208.70000076293945 Q 266 208.20000076293945 265.5 207.70000076293945 Q 265 207.20000076293945 264.5 206.20000076293945 Q 264 205.20000076293945 264 204.70000076293945 Q 264 204.20000076293945 263.5 204.20000076293945 Q 263 204.20000076293945 262.5 203.20000076293945 Q 262 202.20000076293945 261.5 201.20000076293945 Q 261 200.20000076293945 260.5 200.20000076293945 Q 260 200.20000076293945 259.5 199.70000076293945 Q 259 199.20000076293945 259 198.20000076293945 Q 259 197.20000076293945 258.5 197.20000076293945 Q 258 197.20000076293945 257.5 196.70000076293945 Q 257 196.20000076293945 256.5 195.20000076293945 Q 256 194.20000076293945 256 193.20000076293945 Q 256 192.20000076293945 255.5 192.20000076293945 Q 255 192.20000076293945 254.5 191.70000076293945 Q 254 191.20000076293945 254 190.20000076293945 Q 254 189.20000076293945 253.5 189.20000076293945 Q 253 189.20000076293945 253 188.70000076293945 Q 253 188.20000076293945 252.5 188.20000076293945 Q 252 188.20000076293945 252 187.70000076293945 Q 252 187.20000076293945 252 186.70000076293945 Q 252 186.20000076293945 252 185.70000076293945 Q 252 185.20000076293945 251.5 185.20000076293945 Q 251 185.20000076293945 251 184.70000076293945 Q 251 184.20000076293945 250.5 183.70000076293945 Q 250 183.20000076293945 250 182.70000076293945 Q 250 182.20000076293945 250 181.70000076293945 Q 250 181.20000076293945 250 180.70000076293945 Q 250 180.20000076293945 250 179.20000076293945 Q 250 178.20000076293945 250 177.70000076293945 Q 250 177.20000076293945 250 176.70000076293945 Q 250 176.20000076293945 250 175.70000076293945 Q 250 175.20000076293945 250 174.70000076293945 Q 250 174.20000076293945 250 173.70000076293945 Q 250 173.20000076293945 250 172.70000076293945 Q 250 172.20000076293945 250 171.20000076293945 Q 250 170.20000076293945 250 169.70000076293945 Q 250 169.20000076293945 250 168.70000076293945 Q 250 168.20000076293945 250 167.70000076293945 Q 250 167.20000076293945 250 166.70000076293945 Q 250 166.20000076293945 250 165.70000076293945 Q 250 165.20000076293945 250 164.70000076293945 Q 250 164.20000076293945 250 163.70000076293945 Q 250 163.20000076293945 250 162.70000076293945 Q 250 162.20000076293945 250 161.70000076293945 Q 250 161.20000076293945 250 160.70000076293945 Q 250 160.20000076293945 249.5 160.20000076293945 Q 249 160.20000076293945 249 159.20000076293945 L 249 158.19300076293945" stroke-linecap="round" />
</g>
<g transform="matrix(1 0 0 1 249 158.2)"  >
<path style="stroke: rgb(0,0,0); stroke-width: 7; stroke-dasharray: none; stroke-linecap: round; stroke-dashoffset: 0; stroke-linejoin: round; stroke-miterlimit: 10; fill: none; fill-rule: nonzero; opacity: 1;"  transform=" translate(-249, -158.2)" d="M 248.993 158.20000076293945 L 249.007 158.20000076293945" stroke-linecap="round" />
</g>
<g transform="matrix(1 0 0 1 157 153.7)"  >
<path style="stroke: rgb(0,0,0); stroke-width: 7; stroke-dasharray: none; stroke-linecap: round; stroke-dashoffset: 0; stroke-linejoin: round; stroke-miterlimit: 10; fill: none; fill-rule: nonzero; opacity: 1;"  transform=" translate(-157, -153.7)" d="M 160 123.19300076293945 Q 160 123.20000076293945 160 123.70000076293945 Q 160 124.20000076293945 160 124.70000076293945 Q 160 125.20000076293945 160 125.70000076293945 Q 160 126.20000076293945 160 126.70000076293945 Q 160 127.20000076293945 160 127.70000076293945 Q 160 128.20000076293945 160 129.20000076293945 Q 160 130.20000076293945 160 130.70000076293945 Q 160 131.20000076293945 160 131.70000076293945 Q 160 132.20000076293945 159.5 133.70000076293945 Q 159 135.20000076293945 159 135.70000076293945 Q 159 136.20000076293945 159 137.20000076293945 Q 159 138.20000076293945 158.5 139.70000076293945 Q 158 141.20000076293945 158 142.70000076293945 Q 158 144.20000076293945 158 145.20000076293945 Q 158 146.20000076293945 157.5 147.70000076293945 Q 157 149.20000076293945 156.5 152.20000076293945 Q 156 155.20000076293945 156 156.20000076293945 Q 156 157.20000076293945 156 158.70000076293945 Q 156 160.20000076293945 156 161.70000076293945 Q 156 163.20000076293945 156 164.20000076293945 Q 156 165.20000076293945 156 166.70000076293945 Q 156 168.20000076293945 156 168.70000076293945 Q 156 169.20000076293945 155.5 170.70000076293945 Q 155 172.20000076293945 155 173.20000076293945 Q 155 174.20000076293945 155 175.20000076293945 Q 155 176.20000076293945 155 177.20000076293945 Q 155 178.20000076293945 155 178.70000076293945 Q 155 179.20000076293945 155 179.70000076293945 Q 155 180.20000076293945 155 180.70000076293945 Q 155 181.20000076293945 154.5 181.70000076293945 Q 154 182.20000076293945 154 183.20000076293945 L 154 184.20700076293946" stroke-linecap="round" />
</g>
<g transform="matrix(1 0 0 1 149 252.7)"  >
<path style="stroke: rgb(0,0,0); stroke-width: 7; stroke-dasharray: none; stroke-linecap: round; stroke-dashoffset: 0; stroke-linejoin: round; stroke-miterlimit: 10; fill: none; fill-rule: nonzero; opacity: 1;"  transform=" translate(-149, -252.7)" d="M 82.007 240.19300076293945 Q 82 240.20000076293945 82 240.70000076293945 Q 82 241.20000076293945 81.5 241.70000076293945 Q 81 242.20000076293945 81 243.20000076293945 Q 81 244.20000076293945 81 244.70000076293945 Q 81 245.20000076293945 81 245.70000076293945 Q 81 246.20000076293945 81 246.70000076293945 Q 81 247.20000076293945 81 247.70000076293945 Q 81 248.20000076293945 81 248.70000076293945 Q 81 249.20000076293945 81 250.20000076293945 Q 81 251.20000076293945 81 251.70000076293945 Q 81 252.20000076293945 82 252.20000076293945 Q 83 252.20000076293945 83.5 252.70000076293945 Q 84 253.20000076293945 84 253.70000076293945 Q 84 254.20000076293945 84.5 254.70000076293945 Q 85 255.20000076293945 86 255.70000076293945 Q 87 256.20000076293945 87.5 256.20000076293945 Q 88 256.20000076293945 88 256.70000076293945 Q 88 257.20000076293945 89 258.20000076293945 Q 90 259.20000076293945 90.5 259.20000076293945 Q 91 259.20000076293945 91.5 259.70000076293945 Q 92 260.20000076293945 94 260.70000076293945 Q 96 261.20000076293945 97 261.70000076293945 Q 98 262.20000076293945 99 262.20000076293945 Q 100 262.20000076293945 101 262.70000076293945 Q 102 263.20000076293945 103.5 263.70000076293945 Q 105 264.20000076293945 106 264.20000076293945 Q 107 264.20000076293945 109 264.20000076293945 Q 111 264.20000076293945 112.5 264.20000076293945 Q 114 264.20000076293945 115 264.70000076293945 Q 116 265.20000076293945 118.5 265.20000076293945 Q 121 265.20000076293945 123 265.20000076293945 Q 125 265.20000076293945 126.5 265.20000076293945 Q 128 265.20000076293945 131 265.20000076293945 Q 134 265.20000076293945 136 265.20000076293945 Q 138 265.20000076293945 139 265.20000076293945 Q 140 265.20000076293945 142 265.20000076293945 Q 144 265.20000076293945 146 265.20000076293945 Q 148 265.20000076293945 148.5 265.20000076293945 Q 149 265.20000076293945 150.5 265.20000076293945 Q 152 265.20000076293945 154 265.20000076293945 Q 156 265.20000076293945 157.5 265.20000076293945 Q 159 265.20000076293945 160.5 265.20000076293945 Q 162 265.20000076293945 163.5 265.20000076293945 Q 165 265.20000076293945 166 265.20000076293945 Q 167 265.20000076293945 167.5 265.20000076293945 Q 168 265.20000076293945 169.5 264.70000076293945 Q 171 264.20000076293945 172.5 264.20000076293945 Q 174 264.20000076293945 174.5 263.70000076293945 Q 175 263.20000076293945 175.5 263.20000076293945 Q 176 263.20000076293945 176.5 262.70000076293945 Q 177 262.20000076293945 178.5 261.20000076293945 Q 180 260.20000076293945 180.5 260.20000076293945 Q 181 260.20000076293945 182.5 260.20000076293945 Q 184 260.20000076293945 185 259.70000076293945 Q 186 259.20000076293945 186.5 259.20000076293945 Q 187 259.20000076293945 188 259.20000076293945 Q 189 259.20000076293945 190.5 258.20000076293945 Q 192 257.20000076293945 193 257.20000076293945 Q 194 257.20000076293945 195 256.70000076293945 Q 196 256.20000076293945 197 256.20000076293945 Q 198 256.20000076293945 199 255.70000076293945 Q 200 255.20000076293945 201.5 254.70000076293945 Q 203 254.20000076293945 203.5 253.20000076293945 Q 204 252.20000076293945 205.5 252.20000076293945 Q 207 252.20000076293945 207.5 251.70000076293945 Q 208 251.20000076293945 208.5 250.70000076293945 Q 209 250.20000076293945 209.5 249.70000076293945 Q 210 249.20000076293945 210.5 248.70000076293945 Q 211 248.20000076293945 211.5 248.20000076293945 Q 212 248.20000076293945 212.5 248.20000076293945 Q 213 248.20000076293945 213 247.70000076293945 Q 213 247.20000076293945 213.5 246.70000076293945 Q 214 246.20000076293945 214.5 246.20000076293945 Q 215 246.20000076293945 215.5 246.20000076293945 Q 216 246.20000076293945 216 245.70000076293945 Q 216 245.20000076293945 216.5 244.70000076293945 L 217.007 244.19300076293945" stroke-linecap="round" />
</g>
<g transform="matrix(1 0 0 1 126 177.2)"  >
<path style="stroke: rgb(0,0,0); stroke-width: 7; stroke-dasharray: none; stroke-linecap: round; stroke-dashoffset: 0; stroke-linejoin: round; stroke-miterlimit: 10; fill: none; fill-rule: nonzero; opacity: 1;"  transform=" translate(-126, -177.2)" d="M 128 156.19300076293945 Q 128 156.20000076293945 127.5 157.20000076293945 Q 127 158.20000076293945 127 158.70000076293945 Q 127 159.20000076293945 127 159.70000076293945 Q 127 160.20000076293945 127 160.70000076293945 Q 127 161.20000076293945 127 162.70000076293945 Q 127 164.20000076293945 126.5 165.20000076293945 Q 126 166.20000076293945 126 167.20000076293945 Q 126 168.20000076293945 126 169.70000076293945 Q 126 171.20000076293945 126 171.70000076293945 Q 126 172.20000076293945 125.5 174.20000076293945 Q 125 176.20000076293945 125 177.70000076293945 Q 125 179.20000076293945 125 180.20000076293945 Q 125 181.20000076293945 125 181.70000076293945 Q 125 182.20000076293945 125 182.70000076293945 Q 125 183.20000076293945 125 184.20000076293945 Q 125 185.20000076293945 125 186.20000076293945 Q 125 187.20000076293945 125 187.70000076293945 Q 125 188.20000076293945 125 189.20000076293945 Q 125 190.20000076293945 125 190.70000076293945 Q 125 191.20000076293945 125 191.70000076293945 Q 125 192.20000076293945 125 192.70000076293945 Q 125 193.20000076293945 125 193.70000076293945 Q 125 194.20000076293945 125 194.70000076293945 Q 125 195.20000076293945 125 195.70000076293945 Q 125 196.20000076293945 125 196.70000076293945 Q 125 197.20000076293945 124.5 197.70000076293945 L 123.993 198.20700076293946" stroke-linecap="round" />
</g>
<g transform="matrix(1 0 0 1 409 186.2)"  >
<path style="stroke: rgb(0,0,0); stroke-width: 7; stroke-dasharray: none; stroke-linecap: round; stroke-dashoffset: 0; stroke-linejoin: round; stroke-miterlimit: 10; fill: none; fill-rule: nonzero; opacity: 1;"  transform=" translate(-409, -186.2)" d="M 376.993 192.20000076293945 Q 377 192.20000076293945 377.5 191.70000076293945 Q 378 191.20000076293945 378.5 191.20000076293945 Q 379 191.20000076293945 379.5 190.70000076293945 Q 380 190.20000076293945 380 189.70000076293945 Q 380 189.20000076293945 380.5 189.20000076293945 Q 381 189.20000076293945 381.5 189.20000076293945 Q 382 189.20000076293945 383 189.20000076293945 Q 384 189.20000076293945 384.5 189.20000076293945 Q 385 189.20000076293945 385.5 189.20000076293945 Q 386 189.20000076293945 387 189.20000076293945 Q 388 189.20000076293945 388.5 189.20000076293945 Q 389 189.20000076293945 389.5 189.20000076293945 Q 390 189.20000076293945 391 189.20000076293945 Q 392 189.20000076293945 393 189.20000076293945 Q 394 189.20000076293945 394.5 189.20000076293945 Q 395 189.20000076293945 395.5 189.20000076293945 Q 396 189.20000076293945 397 189.20000076293945 Q 398 189.20000076293945 398.5 189.20000076293945 Q 399 189.20000076293945 399.5 189.20000076293945 Q 400 189.20000076293945 400.5 189.20000076293945 Q 401 189.20000076293945 401.5 189.20000076293945 Q 402 189.20000076293945 403 189.20000076293945 Q 404 189.20000076293945 405 189.20000076293945 Q 406 189.20000076293945 407 189.20000076293945 Q 408 189.20000076293945 408.5 189.20000076293945 Q 409 189.20000076293945 409.5 189.20000076293945 Q 410 189.20000076293945 410.5 189.20000076293945 Q 411 189.20000076293945 411.5 189.20000076293945 Q 412 189.20000076293945 412.5 189.20000076293945 Q 413 189.20000076293945 413.5 189.20000076293945 Q 414 189.20000076293945 415 188.70000076293945 Q 416 188.20000076293945 416.5 188.20000076293945 Q 417 188.20000076293945 418.5 187.70000076293945 Q 420 187.20000076293945 421 187.20000076293945 Q 422 187.20000076293945 423 186.70000076293945 Q 424 186.20000076293945 424 185.70000076293945 Q 424 185.20000076293945 425 184.70000076293945 Q 426 184.20000076293945 427 184.20000076293945 Q 428 184.20000076293945 428 183.70000076293945 Q 428 183.20000076293945 428.5 183.20000076293945 Q 429 183.20000076293945 430 183.20000076293945 Q 431 183.20000076293945 431 182.70000076293945 Q 431 182.20000076293945 431.5 182.20000076293945 Q 432 182.20000076293945 432 181.70000076293945 Q 432 181.20000076293945 432.5 181.20000076293945 Q 433 181.20000076293945 433.5 181.20000076293945 Q 434 181.20000076293945 434.5 181.20000076293945 Q 435 181.20000076293945 435.5 181.20000076293945 Q 436 181.20000076293945 436.5 180.70000076293945 Q 437 180.20000076293945 437.5 180.20000076293945 Q 438 180.20000076293945 438.5 180.20000076293945 Q 439 180.20000076293945 440 180.20000076293945 L 441.007 180.20000076293945" stroke-linecap="round" />
</g>
<g transform="matrix(1 0 0 1 422.5 228.7)"  >
<path style="stroke: rgb(0,0,0); stroke-width: 7; stroke-dasharray: none; stroke-linecap: round; stroke-dashoffset: 0; stroke-linejoin: round; stroke-miterlimit: 10; fill: none; fill-rule: nonzero; opacity: 1;"  transform=" translate(-422.5, -228.7)" d="M 382.993 232.20700076293946 Q 383 232.20000076293945 383.5 232.20000076293945 Q 384 232.20000076293945 384.5 231.70000076293945 Q 385 231.20000076293945 386.5 230.70000076293945 Q 388 230.20000076293945 388 229.70000076293945 Q 388 229.20000076293945 389 229.20000076293945 Q 390 229.20000076293945 390.5 228.70000076293945 Q 391 228.20000076293945 391.5 228.20000076293945 Q 392 228.20000076293945 392.5 228.20000076293945 Q 393 228.20000076293945 393.5 227.70000076293945 Q 394 227.20000076293945 395 227.20000076293945 Q 396 227.20000076293945 397.5 227.20000076293945 Q 399 227.20000076293945 399.5 226.70000076293945 Q 400 226.20000076293945 400.5 226.20000076293945 Q 401 226.20000076293945 402.5 225.70000076293945 Q 404 225.20000076293945 405 225.20000076293945 Q 406 225.20000076293945 406.5 225.20000076293945 Q 407 225.20000076293945 407.5 225.20000076293945 Q 408 225.20000076293945 408.5 225.20000076293945 Q 409 225.20000076293945 409.5 225.20000076293945 Q 410 225.20000076293945 410.5 225.20000076293945 Q 411 225.20000076293945 411.5 225.20000076293945 Q 412 225.20000076293945 412.5 225.20000076293945 Q 413 225.20000076293945 413.5 225.20000076293945 Q 414 225.20000076293945 415 225.20000076293945 Q 416 225.20000076293945 416.5 225.20000076293945 Q 417 225.20000076293945 418 225.70000076293945 Q 419 226.20000076293945 419.5 226.70000076293945 Q 420 227.20000076293945 420.5 227.20000076293945 Q 421 227.20000076293945 421.5 227.20000076293945 Q 422 227.20000076293945 423 227.20000076293945 Q 424 227.20000076293945 424 227.70000076293945 Q 424 228.20000076293945 425 228.20000076293945 Q 426 228.20000076293945 426.5 228.20000076293945 Q 427 228.20000076293945 428 228.70000076293945 Q 429 229.20000076293945 430.5 229.20000076293945 Q 432 229.20000076293945 433.5 229.70000076293945 Q 435 230.20000076293945 435.5 230.70000076293945 Q 436 231.20000076293945 437 231.20000076293945 Q 438 231.20000076293945 439.5 231.70000076293945 Q 441 232.20000076293945 441.5 232.20000076293945 Q 442 232.20000076293945 443 232.20000076293945 Q 444 232.20000076293945 445 232.20000076293945 Q 446 232.20000076293945 447 232.20000076293945 Q 448 232.20000076293945 448.5 232.20000076293945 Q 449 232.20000076293945 449.5 232.20000076293945 Q 450 232.20000076293945 450.5 232.20000076293945 Q 451 232.20000076293945 451.5 232.20000076293945 Q 452 232.20000076293945 452.5 232.20000076293945 Q 453 232.20000076293945 453.5 232.20000076293945 Q 454 232.20000076293945 455 232.20000076293945 Q 456 232.20000076293945 456.5 232.20000076293945 Q 457 232.20000076293945 458 231.70000076293945 Q 459 231.20000076293945 459.5 230.70000076293945 Q 460 230.20000076293945 461 229.70000076293945 L 462.007 229.19300076293945" stroke-linecap="round" />
</g>
<g transform="matrix(1 0 0 1 437.5 268.7)"  >
<path style="stroke: rgb(0,0,0); stroke-width: 7; stroke-dasharray: none; stroke-linecap: round; stroke-dashoffset: 0; stroke-linejoin: round; stroke-miterlimit: 10; fill: none; fill-rule: nonzero; opacity: 1;"  transform=" translate(-437.5, -268.7)" d="M 398.993 270.20000076293945 Q 399 270.20000076293945 399.5 269.70000076293945 Q 400 269.20000076293945 400.5 269.20000076293945 Q 401 269.20000076293945 402 269.20000076293945 Q 403 269.20000076293945 404 268.70000076293945 Q 405 268.20000076293945 406.5 267.70000076293945 Q 408 267.20000076293945 410 266.70000076293945 Q 412 266.20000076293945 413 265.70000076293945 Q 414 265.20000076293945 415 265.20000076293945 Q 416 265.20000076293945 418 264.70000076293945 Q 420 264.20000076293945 421 264.20000076293945 Q 422 264.20000076293945 423 264.20000076293945 Q 424 264.20000076293945 426 263.70000076293945 Q 428 263.20000076293945 429 262.70000076293945 Q 430 262.20000076293945 430.5 262.20000076293945 Q 431 262.20000076293945 431.5 262.20000076293945 Q 432 262.20000076293945 432.5 262.20000076293945 Q 433 262.20000076293945 433.5 262.20000076293945 Q 434 262.20000076293945 434.5 262.20000076293945 Q 435 262.20000076293945 435.5 262.20000076293945 Q 436 262.20000076293945 436.5 262.20000076293945 Q 437 262.20000076293945 438 262.20000076293945 Q 439 262.20000076293945 439.5 262.70000076293945 Q 440 263.20000076293945 441 263.70000076293945 Q 442 264.20000076293945 442.5 264.20000076293945 Q 443 264.20000076293945 443.5 264.70000076293945 Q 444 265.20000076293945 445 265.70000076293945 Q 446 266.20000076293945 446.5 266.70000076293945 Q 447 267.20000076293945 447.5 267.20000076293945 Q 448 267.20000076293945 448.5 267.70000076293945 Q 449 268.20000076293945 449.5 268.20000076293945 Q 450 268.20000076293945 451 268.70000076293945 Q 452 269.20000076293945 452.5 269.70000076293945 Q 453 270.20000076293945 453.5 270.20000076293945 Q 454 270.20000076293945 455 270.70000076293945 Q 456 271.20000076293945 456.5 271.70000076293945 Q 457 272.20000076293945 457.5 272.20000076293945 Q 458 272.20000076293945 458.5 272.20000076293945 Q 459 272.20000076293945 459.5 272.20000076293945 Q 460 272.20000076293945 461 272.70000076293945 Q 462 273.20000076293945 463 273.20000076293945 Q 464 273.20000076293945 464.5 273.70000076293945 Q 465 274.20000076293945 465.5 274.20000076293945 Q 466 274.20000076293945 467 274.20000076293945 Q 468 274.20000076293945 469 274.70000076293945 Q 470 275.20000076293945 470.5 275.20000076293945 Q 471 275.20000076293945 471.5 275.20000076293945 Q 472 275.20000076293945 472.5 275.20000076293945 Q 473 275.20000076293945 473.5 275.20000076293945 Q 474 275.20000076293945 475 275.20000076293945 L 476.007 275.20000076293945" stroke-linecap="round" />
</g>
</svg>