<svg xmlns="http://www.w3.org/2000/svg" xmlns:xlink="http://www.w3.org/1999/xlink" version="1.1" width="600" height="600" viewBox="0 0 600 600" xml:space="preserve">
<desc>Created with Fabric.js 5.2.4</desc>
<defs>
</defs>
<rect x="0" y="0" width="100%" height="100%" fill="#fff"></rect>
<g transform="matrix(1 0 0 1 212 307.7)"  >
<path style="stroke: rgb(0,0,0); stroke-width: 7; stroke-dasharray: none; stroke-linecap: round; stroke-dashoffset: 0; stroke-linejoin: round; stroke-miterlimit: 10; fill: none; fill-rule: nonzero; opacity: 1;"  transform=" translate(-212, -307.7)" d="M 311 250.20700076293946 Q 311 250.20000076293945 310.5 249.70000076293945 Q 310 249.20000076293945 310 248.70000076293945 Q 310 248.20000076293945 309.5 248.20000076293945 Q 309 248.20000076293945 308.5 248.20000076293945 Q 308 248.20000076293945 307.5 247.70000076293945 Q 307 247.20000076293945 306.5 247.20000076293945 Q 306 247.20000076293945 305 247.20000076293945 Q 304 247.20000076293945 303.5 246.70000076293945 Q 303 246.20000076293945 302.5 245.70000076293945 Q 302 245.20000076293945 301 244.70000076293945 Q 300 244.20000076293945 299 244.20000076293945 Q 298 244.20000076293945 297 243.70000076293945 Q 296 243.20000076293945 294 242.70000076293945 Q 292 242.20000076293945 291.5 242.20000076293945 Q 291 242.20000076293945 290 241.70000076293945 Q 289 241.20000076293945 287 240.70000076293945 Q 285 240.20000076293945 284.5 240.20000076293945 Q 284 240.20000076293945 282 240.20000076293945 Q 280 240.20000076293945 278 239.70000076293945 Q 276 239.20000076293945 273 238.70000076293945 Q 270 238.20000076293945 269 237.70000076293945 Q 268 237.20000076293945 266 237.20000076293945 Q 264 237.20000076293945 262 236.70000076293945 Q 260 236.20000076293945 259 236.20000076293945 Q 258 236.20000076293945 255.5 236.20000076293945 Q 253 236.20000076293945 250.5 236.20000076293945 Q 248 236.20000076293945 247.5 236.20000076293945 Q 247 236.20000076293945 245.5 236.20000076293945 Q 244 236.20000076293945 242.5 236.20000076293945 Q 241 236.20000076293945 240.5 236.20000076293945 Q 240 236.20000076293945 238.5 236.20000076293945 Q 237 236.20000076293945 235.5 236.20000076293945 Q 234 236.20000076293945 233 236.20000076293945 Q 232 236.20000076293945 230.5 236.20000076293945 Q 229 236.20000076293945 228 236.20000076293945 Q 227 236.20000076293945 225 236.20000076293945 Q 223 236.20000076293945 222.5 236.20000076293945 Q 222 236.20000076293945 221 236.20000076293945 Q 220 236.20000076293945 218 236.20000076293945 Q 216 236.20000076293945 215 236.20000076293945 Q 214 236.20000076293945 212 236.20000076293945 Q 210 236.20000076293945 208.5 236.70000076293945 Q 207 237.20000076293945 206.5 237.20000076293945 Q 206 237.20000076293945 205 237.20000076293945 Q 204 237.20000076293945 203 237.70000076293945 Q 202 238.20000076293945 200.5 238.70000076293945 Q 199 239.20000076293945 198 239.20000076293945 Q 197 239.20000076293945 196.5 239.70000076293945 Q 196 240.20000076293945 195 240.20000076293945 Q 194 240.20000076293945 193.5 240.20000076293945 Q 193 240.20000076293945 191.5 241.20000076293945 Q 190 242.20000076293945 189 242.20000076293945 Q 188 242.20000076293945 187 242.20000076293945 Q 186 242.20000076293945 184.5 243.20000076293945 Q 183 244.20000076293945 182.5 244.20000076293945 Q 182 244.20000076293945 181 244.70000076293945 Q 180 245.20000076293945 179 245.70000076293945 Q 178 246.20000076293945 177.5 247.20000076293945 Q 177 248.20000076293945 176.5 248.20000076293945 Q 176 248.20000076293945 174.5 249.20000076293945 Q 173 250.20000076293945 172.5 250.20000076293945 Q 172 250.20000076293945 170 251.20000076293945 Q 168 252.20000076293945 166.5 252.70000076293945 Q 165 253.20000076293945 164.5 253.70000076293945 Q 164 254.20000076293945 163 255.20000076293945 Q 162 256.20000076293945 159.5 256.70000076293945 Q 157 257.20000076293945 156.5 258.20000076293945 Q 156 259.20000076293945 155 259.70000076293945 Q 154 260.20000076293945 153 260.70000076293945 Q 152 261.20000076293945 150 262.20000076293945 Q 148 263.20000076293945 147.5 263.70000076293945 Q 147 264.20000076293945 145.5 264.20000076293945 Q 144 264.20000076293945 143 265.70000076293945 Q 142 267.20000076293945 141 267.70000076293945 Q 140 268.20000076293945 139 268.70000076293945 Q 138 269.20000076293945 137 270.20000076293945 Q 136 271.20000076293945 136 271.70000076293945 Q 136 272.20000076293945 134.5 272.20000076293945 Q 133 272.20000076293945 132 273.20000076293945 Q 131 274.20000076293945 130.5 274.70000076293945 Q 130 275.20000076293945 129 275.70000076293945 Q 128 276.20000076293945 128 276.70000076293945 Q 128 277.20000076293945 127 278.20000076293945 Q 126 279.20000076293945 125 279.70000076293945 Q 124 280.20000076293945 123.5 280.70000076293945 Q 123 281.20000076293945 122 281.70000076293945 Q 121 282.20000076293945 121 282.70000076293945 Q 121 283.20000076293945 120.5 283.70000076293945 Q 120 284.20000076293945 119 285.20000076293945 Q 118 286.20000076293945 117.5 287.20000076293945 Q 117 288.20000076293945 116.5 288.70000076293945 Q 116 289.20000076293945 116 289.70000076293945 Q 116 290.20000076293945 115.5 291.20000076293945 Q 115 292.20000076293945 114.5 292.70000076293945 Q 114 293.20000076293945 113.5 293.70000076293945 Q 113 294.20000076293945 113 294.70000076293945 Q 113 295.20000076293945 113 295.70000076293945 Q 113 296.20000076293945 113 297.20000076293945 Q 113 298.20000076293945 113 299.20000076293945 Q 113 300.20000076293945 113 301.70000076293945 Q 113 303.20000076293945 113 303.70000076293945 Q 113 304.20000076293945 113 304.70000076293945 Q 113 305.20000076293945 113 306.70000076293945 Q 113 308.20000076293945 113 308.70000076293945 Q 113 309.20000076293945 113 310.20000076293945 Q 113 311.20000076293945 113 312.20000076293945 Q 113 313.20000076293945 113 313.70000076293945 Q 113 314.20000076293945 113 315.20000076293945 Q 113 316.20000076293945 113 316.70000076293945 Q 113 317.20000076293945 113 317.70000076293945 Q 113 318.20000076293945 113 319.20000076293945 Q 113 320.20000076293945 113 320.70000076293945 Q 113 321.20000076293945 113 321.70000076293945 Q 113 322.20000076293945 113 323.20000076293945 Q 113 324.20000076293945 113.5 324.70000076293945 Q 114 325.20000076293945 114 326.20000076293945 Q 114 327.20000076293945 114.5 327.70000076293945 Q 115 328.20000076293945 115.5 329.20000076293945 Q 116 330.20000076293945 116 331.20000076293945 Q 116 332.20000076293945 116.5 333.20000076293945 Q 117 334.20000076293945 117.5 335.20000076293945 Q 118 336.20000076293945 118.5 337.20000076293945 Q 119 338.20000076293945 119.5 339.70000076293945 Q 120 341.20000076293945 121 342.70000076293945 Q 122 344.20000076293945 122.5 344.70000076293945 Q 123 345.20000076293945 123.5 345.70000076293945 Q 124 346.20000076293945 125 347.20000076293945 Q 126 348.20000076293945 126.5 349.70000076293945 Q 127 351.20000076293945 128 352.20000076293945 Q 129 353.20000076293945 129.5 353.70000076293945 Q 130 354.20000076293945 131 355.20000076293945 Q 132 356.20000076293945 133 357.20000076293945 Q 134 358.20000076293945 134.5 358.70000076293945 Q 135 359.20000076293945 136 359.70000076293945 Q 137 360.20000076293945 138.5 361.70000076293945 Q 140 363.20000076293945 140.5 363.70000076293945 Q 141 364.20000076293945 143.5 366.20000076293945 Q 146 368.20000076293945 146.5 368.20000076293945 Q 147 368.20000076293945 147.5 368.70000076293945 Q 148 369.20000076293945 149.5 370.20000076293945 Q 151 371.20000076293945 152 371.70000076293945 Q 153 372.20000076293945 153.5 372.20000076293945 Q 154 372.20000076293945 155.5 373.20000076293945 Q 157 374.20000076293945 158.5 374.70000076293945 Q 160 375.20000076293945 161 375.70000076293945 Q 162 376.20000076293945 163 376.20000076293945 Q 164 376.20000076293945 166 376.70000076293945 Q 168 377.20000076293945 169.5 377.70000076293945 Q 171 378.20000076293945 171.5 378.20000076293945 Q 172 378.20000076293945 173 378.70000076293945 Q 174 379.20000076293945 175.5 379.20000076293945 Q 177 379.20000076293945 177.5 379.20000076293945 Q 178 379.20000076293945 179 379.20000076293945 Q 180 379.20000076293945 181.5 379.20000076293945 Q 183 379.20000076293945 183.5 379.20000076293945 Q 184 379.20000076293945 185.5 379.20000076293945 Q 187 379.20000076293945 188.5 379.20000076293945 Q 190 379.20000076293945 191 379.20000076293945 Q 192 379.20000076293945 194.5 379.20000076293945 Q 197 379.20000076293945 200 378.70000076293945 Q 203 378.20000076293945 204 378.20000076293945 Q 205 378.20000076293945 207 377.70000076293945 Q 209 377.20000076293945 211.5 377.20000076293945 Q 214 377.20000076293945 215.5 376.70000076293945 Q 217 376.20000076293945 218.5 376.20000076293945 Q 220 376.20000076293945 221.5 375.70000076293945 Q 223 375.20000076293945 224.5 374.70000076293945 Q 226 374.20000076293945 226.5 374.20000076293945 Q 227 374.20000076293945 228 373.70000076293945 Q 229 373.20000076293945 230.5 372.70000076293945 Q 232 372.20000076293945 233 372.20000076293945 Q 234 372.20000076293945 235 372.20000076293945 Q 236 372.20000076293945 237.5 371.20000076293945 Q 239 370.20000076293945 239.5 370.20000076293945 Q 240 370.20000076293945 240.5 369.20000076293945 Q 241 368.20000076293945 242.5 368.20000076293945 Q 244 368.20000076293945 244.5 368.20000076293945 Q 245 368.20000076293945 245.5 368.20000076293945 Q 246 368.20000076293945 247 367.70000076293945 Q 248 367.20000076293945 248 366.70000076293945 Q 248 366.20000076293945 250 365.70000076293945 Q 252 365.20000076293945 253 365.20000076293945 Q 254 365.20000076293945 255 364.70000076293945 Q 256 364.20000076293945 257.5 363.70000076293945 Q 259 363.20000076293945 259.5 362.70000076293945 Q 260 362.20000076293945 260.5 361.70000076293945 Q 261 361.20000076293945 262 361.20000076293945 Q 263 361.20000076293945 263.5 360.70000076293945 Q 264 360.20000076293945 264.5 360.20000076293945 Q 265 360.20000076293945 266 359.70000076293945 Q 267 359.20000076293945 268 358.70000076293945 Q 269 358.20000076293945 270.5 357.20000076293945 Q 272 356.20000076293945 273.5 356.20000076293945 Q 275 356.20000076293945 276 355.70000076293945 Q 277 355.20000076293945 277.5 354.70000076293945 Q 278 354.20000076293945 278.5 354.20000076293945 Q 279 354.20000076293945 279.5 353.70000076293945 Q 280 353.20000076293945 280.5 353.20000076293945 Q 281 353.20000076293945 281.5 353.20000076293945 Q 282 353.20000076293945 282.5 353.20000076293945 Q 283 353.20000076293945 283 352.70000076293945 Q 283 352.20000076293945 283.5 352.20000076293945 Q 284 352.20000076293945 284.5 351.70000076293945 Q 285 351.20000076293945 286 351.20000076293945 Q 287 351.20000076293945 287.5 350.70000076293945 Q 288 350.20000076293945 288 349.70000076293945 Q 288 349.20000076293945 288.5 349.20000076293945 Q 289 349.20000076293945 289.5 349.20000076293945 Q 290 349.20000076293945 290.5 349.20000076293945 Q 291 349.20000076293945 291.5 348.70000076293945 Q 292 348.20000076293945 292.5 347.70000076293945 Q 293 347.20000076293945 293.5 347.20000076293945 Q 294 347.20000076293945 294.5 347.20000076293945 Q 295 347.20000076293945 295.5 347.20000076293945 Q 296 347.20000076293945 296 346.70000076293945 Q 296 346.20000076293945 296 345.70000076293945 Q 296 345.20000076293945 296.5 345.20000076293945 Q 297 345.20000076293945 297.5 345.20000076293945 Q 298 345.20000076293945 299 344.70000076293945 L 300.007 344.19300076293945" stroke-linecap="round" />
</g>
<g transform="matrix(1 0 0 1 347 296.64)"  >
<path style="stroke: rgb(0,0,0); stroke-width: 7; stroke-dasharray: none; stroke-linecap: round; stroke-dashoffset: 0; stroke-linejoin: round; stroke-miterlimit: 10; fill: none; fill-rule: nonzero; opacity: 1;"  transform=" translate(-347, -296.64)" d="M 299.993 344.19300076293945 Q 300 344.20000076293945 300 344.70000076293945 Q 300 345.20000076293945 300.5 346.20000076293945 Q 301 347.20000076293945 301 347.70000076293945 Q 301 348.20000076293945 301 349.70000076293945 Q 301 351.20000076293945 301 351.70000076293945 Q 301 352.20000076293945 301 352.70000076293945 Q 301 353.20000076293945 301.5 354.70000076293945 Q 302 356.20000076293945 302 356.70000076293945 Q 302 357.20000076293945 302.5 358.70000076293945 Q 303 360.20000076293945 304 362.70000076293945 Q 305 365.20000076293945 305.5 367.20000076293945 Q 306 369.20000076293945 307 370.70000076293945 Q 308 372.20000076293945 308.5 374.20000076293945 Q 309 376.20000076293945 310 378.20000076293945 Q 311 380.20000076293945 311.5 381.70000076293945 Q 312 383.20000076293945 313 384.70000076293945 Q 314 386.20000076293945 315 388.70000076293945 Q 316 391.20000076293945 316 392.20000076293945 Q 316 393.20000076293945 316.5 394.20000076293945 Q 317 395.20000076293945 318 396.20000076293945 Q 319 397.20000076293945 319 398.20000076293945 Q 319 399.20000076293945 319.5 399.70000076293945 Q 320 400.20000076293945 320.5 401.20000076293945 Q 321 402.20000076293945 321.5 403.20000076293945 Q 322 404.20000076293945 322 405.70000076293945 Q 322 407.20000076293945 323 408.70000076293945 Q 324 410.20000076293945 324 410.70000076293945 Q 324 411.20000076293945 324.5 411.70000076293945 Q 325 412.20000076293945 325.5 414.20000076293945 Q 326 416.20000076293945 327 417.20000076293945 Q 328 418.20000076293945 328 419.20000076293945 Q 328 420.20000076293945 328 421.20000076293945 Q 328 422.20000076293945 328.5 423.20000076293945 Q 329 424.20000076293945 329.5 424.70000076293945 Q 330 425.20000076293945 330 426.20000076293945 Q 330 427.20000076293945 330 427.70000076293945 Q 330 428.20000076293945 330 429.20000076293945 Q 330 430.20000076293945 331 431.20000076293945 Q 332 432.20000076293945 332 432.70000076293945 Q 332 433.20000076293945 332.5 434.70000076293945 Q 333 436.20000076293945 334 437.70000076293945 Q 335 439.20000076293945 335.5 439.70000076293945 Q 336 440.20000076293945 336 441.70000076293945 Q 336 443.20000076293945 336 443.70000076293945 Q 336 444.20000076293945 336.5 445.20000076293945 Q 337 446.20000076293945 337.5 447.20000076293945 Q 338 448.20000076293945 338.5 448.70000076293945 Q 339 449.20000076293945 339.5 449.70000076293945 Q 340 450.20000076293945 340 451.20000076293945 Q 340 452.20000076293945 340.5 453.70000076293945 Q 341 455.20000076293945 341 455.70000076293945 Q 341 456.20000076293945 341.5 457.70000076293945 Q 342 459.20000076293945 343 460.20000076293945 Q 344 461.20000076293945 344.5 462.70000076293945 Q 345 464.20000076293945 345.5 466.20000076293945 Q 346 468.20000076293945 347 468.70000076293945 Q 348 469.20000076293945 348 471.20000076293945 Q 348 473.20000076293945 349.5 475.20000076293945 Q 351 477.20000076293945 351.5 478.70000076293945 Q 352 480.20000076293945 352.5 481.20000076293945 Q 353 482.20000076293945 354 483.20000076293945 Q 355 484.20000076293945 355.5 485.20000076293945 Q 356 486.20000076293945 356.5 487.20000076293945 Q 357 488.20000076293945 357.5 489.20000076293945 Q 358 490.20000076293945 358.5 491.20000076293945 Q 359 492.20000076293945 359 492.70000076293945 Q 359 493.20000076293945 359.5 493.70000076293945 Q 360 494.20000076293945 360.5 495.20000076293945 Q 361 496.20000076293945 361.5 496.70000076293945 Q 362 497.20000076293945 362.5 497.70000076293945 Q 363 498.20000076293945 363 498.70000076293945 Q 363 499.20000076293945 363.5 499.70000076293945 Q 364 500.20000076293945 364 500.70000076293945 Q 364 501.20000076293945 365 500.70000076293945 Q 366 500.20000076293945 366.5 499.20000076293945 Q 367 498.20000076293945 367.5 497.20000076293945 Q 368 496.20000076293945 368.5 494.70000076293945 Q 369 493.20000076293945 369 492.70000076293945 Q 369 492.20000076293945 369 491.20000076293945 Q 369 490.20000076293945 370.5 488.70000076293945 Q 372 487.20000076293945 372.5 484.20000076293945 Q 373 481.20000076293945 373 480.70000076293945 Q 373 480.20000076293945 374.5 477.70000076293945 Q 376 475.20000076293945 376 473.70000076293945 Q 376 472.20000076293945 376.5 470.20000076293945 Q 377 468.20000076293945 378 465.70000076293945 Q 379 463.20000076293945 379.5 460.70000076293945 Q 380 458.20000076293945 380.5 457.20000076293945 Q 381 456.20000076293945 381.5 453.70000076293945 Q 382 451.20000076293945 382.5 449.20000076293945 Q 383 447.20000076293945 383.5 445.70000076293945 Q 384 444.20000076293945 384 442.20000076293945 Q 384 440.20000076293945 384.5 438.20000076293945 Q 385 436.20000076293945 385.5 435.70000076293945 Q 386 435.20000076293945 386.5 433.70000076293945 Q 387 432.20000076293945 387.5 430.20000076293945 Q 388 428.20000076293945 388 426.70000076293945 Q 388 425.20000076293945 388 424.70000076293945 Q 388 424.20000076293945 388.5 422.70000076293945 Q 389 421.20000076293945 389.5 420.20000076293945 Q 390 419.20000076293945 390 418.20000076293945 Q 390 417.20000076293945 390 415.70000076293945 Q 390 414.20000076293945 390.5 412.20000076293945 Q 391 410.20000076293945 391 409.20000076293945 Q 391 408.20000076293945 391 406.70000076293945 Q 391 405.20000076293945 391.5 404.20000076293945 Q 392 403.20000076293945 392 401.20000076293945 Q 392 399.20000076293945 392 397.70000076293945 Q 392 396.20000076293945 392 394.20000076293945 Q 392 392.20000076293945 392.5 390.20000076293945 Q 393 388.20000076293945 393 387.70000076293945 Q 393 387.20000076293945 393 385.20000076293945 Q 393 383.20000076293945 393 381.70000076293945 Q 393 380.20000076293945 393 379.70000076293945 Q 393 379.20000076293945 393 377.20000076293945 Q 393 375.20000076293945 393 373.70000076293945 Q 393 372.20000076293945 393 371.70000076293945 Q 393 371.20000076293945 393 369.20000076293945 Q 393 367.20000076293945 393 365.20000076293945 Q 393 363.20000076293945 393 362.20000076293945 Q 393 361.20000076293945 393 359.20000076293945 Q 393 357.20000076293945 393 356.20000076293945 Q 393 355.20000076293945 393 353.20000076293945 Q 393 351.20000076293945 393 350.20000076293945 Q 393 349.20000076293945 393 347.70000076293945 Q 393 346.20000076293945 393 344.20000076293945 Q 393 342.20000076293945 393 341.20000076293945 Q 393 340.20000076293945 393 338.70000076293945 Q 393 337.20000076293945 393 335.20000076293945 Q 393 333.20000076293945 393 332.70000076293945 Q 393 332.20000076293945 393 329.70000076293945 Q 393 327.20000076293945 393 324.70000076293945 Q 393 322.20000076293945 393 321.70000076293945 Q 393 321.20000076293945 393 318.70000076293945 Q 393 316.20000076293945 393 314.20000076293945 Q 393 312.20000076293945 393 311.20000076293945 Q 393 310.20000076293945 393 308.70000076293945 Q 393 307.20000076293945 393 304.70000076293945 Q 393 302.20000076293945 393 301.20000076293945 Q 393 300.20000076293945 393 298.20000076293945 Q 393 296.20000076293945 393 294.20000076293945 Q 393 292.20000076293945 393 290.70000076293945 Q 393 289.20000076293945 393 288.70000076293945 Q 393 288.20000076293945 393 287.20000076293945 Q 393 286.20000076293945 393 285.20000076293945 Q 393 284.20000076293945 393 283.70000076293945 Q 393 283.20000076293945 393 281.20000076293945 Q 393 279.20000076293945 393 277.70000076293945 Q 393 276.20000076293945 393 275.70000076293945 Q 393 275.20000076293945 393 273.70000076293945 Q 393 272.20000076293945 393.5 270.20000076293945 Q 394 268.20000076293945 394 266.70000076293945 Q 394 265.20000076293945 394 264.70000076293945 Q 394 264.20000076293945 394 262.20000076293945 Q 394 260.20000076293945 394 258.20000076293945 Q 394 256.20000076293945 394 255.70000076293945 Q 394 255.20000076293945 394 253.70000076293945 Q 394 252.20000076293945 394 249.70000076293945 Q 394 247.20000076293945 394 245.70000076293945 Q 394 244.20000076293945 394 243.70000076293945 Q 394 243.20000076293945 394 241.70000076293945 Q 394 240.20000076293945 394 238.70000076293945 Q 394 237.20000076293945 394 235.70000076293945 Q 394 234.20000076293945 394 233.20000076293945 Q 394 232.20000076293945 394 230.20000076293945 Q 394 228.20000076293945 394 227.70000076293945 Q 394 227.20000076293945 394 225.70000076293945 Q 394 224.20000076293945 394 222.70000076293945 Q 394 221.20000076293945 394 220.70000076293945 Q 394 220.20000076293945 394 218.20000076293945 Q 394 216.20000076293945 394 214.20000076293945 Q 394 212.20000076293945 394 210.20000076293945 Q 394 208.20000076293945 394 206.70000076293945 Q 394 205.20000076293945 394 204.70000076293945 Q 394 204.20000076293945 394 203.20000076293945 Q 394 202.20000076293945 393.5 200.20000076293945 Q 393 198.20000076293945 393 197.20000076293945 Q 393 196.20000076293945 393 194.70000076293945 Q 393 193.20000076293945 393 192.20000076293945 Q 393 191.20000076293945 392.5 189.20000076293945 Q 392 187.20000076293945 392 186.20000076293945 Q 392 185.20000076293945 392 183.70000076293945 Q 392 182.20000076293945 392 181.20000076293945 Q 392 180.20000076293945 392 179.20000076293945 Q 392 178.20000076293945 392 176.70000076293945 Q 392 175.20000076293945 391.5 173.70000076293945 Q 391 172.20000076293945 391 170.20000076293945 Q 391 168.20000076293945 391 166.70000076293945 Q 391 165.20000076293945 391 164.70000076293945 Q 391 164.20000076293945 391 163.20000076293945 Q 391 162.20000076293945 391 161.70000076293945 Q 391 161.20000076293945 391 160.20000076293945 Q 391 159.20000076293945 391 158.20000076293945 Q 391 157.20000076293945 391 156.70000076293945 Q 391 156.20000076293945 391 155.70000076293945 Q 391 155.20000076293945 390.5 154.20000076293945 Q 390 153.20000076293945 390 152.20000076293945 Q 390 151.20000076293945 389.5 149.70000076293945 Q 389 148.20000076293945 389 147.20000076293945 Q 389 146.20000076293945 389 145.70000076293945 Q 389 145.20000076293945 389 144.70000076293945 Q 389 144.20000076293945 388.5 142.70000076293945 Q 388 141.20000076293945 388 140.70000076293945 Q 388 140.20000076293945 388 139.70000076293945 Q 388 139.20000076293945 388 138.20000076293945 Q 388 137.20000076293945 388 136.70000076293945 Q 388 136.20000076293945 387.5 135.20000076293945 Q 387 134.20000076293945 387 133.20000076293945 Q 387 132.20000076293945 387 131.70000076293945 Q 387 131.20000076293945 387 130.70000076293945 Q 387 130.20000076293945 386.5 129.20000076293945 Q 386 128.20000076293945 386 127.20000076293945 Q 386 126.20000076293945 386 125.70000076293945 Q 386 125.20000076293945 386 124.70000076293945 Q 386 124.20000076293945 386 122.70000076293945 Q 386 121.20000076293945 386 120.70000076293945 Q 386 120.20000076293945 386 119.70000076293945 Q 386 119.20000076293945 386 118.20000076293945 Q 386 117.20000076293945 386 116.70000076293945 Q 386 116.20000076293945 386 115.70000076293945 Q 386 115.20000076293945 386 114.70000076293945 Q 386 114.20000076293945 386 113.20000076293945 Q 386 112.20000076293945 386 111.20000076293945 Q 386 110.20000076293945 386 109.70000076293945 Q 386 109.20000076293945 386 108.20000076293945 Q 386 107.20000076293945 386 106.20000076293945 Q 386 105.20000076293945 386 104.70000076293945 Q 386 104.20000076293945 386 103.20000076293945 Q 386 102.20000076293945 386 101.70000076293945 Q 386 101.20000076293945 386 100.70000076293945 Q 386 100.20000076293945 386 98.70000076293945 Q 386 97.20000076293945 386 96.70000076293945 Q 386 96.20000076293945 386 95.70000076293945 Q 386 95.20000076293945 386 94.70000076293945 Q 386 94.20000076293945 386 93.70000076293945 Q 386 93.20000076293945 386 92.70000076293945 Q 386 92.20000076293945 385.5 92.20000076293945 Q 385 92.20000076293945 384.5 93.70000076293945 Q 384 95.20000076293945 384 95.70000076293945 Q 384 96.20000076293945 383 96.70000076293945 Q 382 97.20000076293945 381 98.70000076293945 Q 380 100.20000076293945 379.5 101.20000076293945 Q 379 102.20000076293945 379 103.20000076293945 Q 379 104.20000076293945 378.5 104.20000076293945 Q 378 104.20000076293945 377.5 105.70000076293945 Q 377 107.20000076293945 376.5 107.70000076293945 Q 376 108.20000076293945 376 108.70000076293945 Q 376 109.20000076293945 376 109.70000076293945 Q 376 110.20000076293945 376 110.70000076293945 Q 376 111.20000076293945 376 111.70000076293945 Q 376 112.20000076293945 375.5 112.20000076293945 Q 375 112.20000076293945 375 112.70000076293945 Q 375 113.20000076293945 374.5 114.20000076293945 Q 374 115.20000076293945 373.5 115.70000076293945 Q 373 116.20000076293945 373 116.70000076293945 Q 373 117.20000076293945 372.5 118.20000076293945 Q 372 119.20000076293945 372 119.70000076293945 Q 372 120.20000076293945 372 121.20000076293945 Q 372 122.20000076293945 372 123.20000076293945 Q 372 124.20000076293945 371.5 124.70000076293945 Q 371 125.20000076293945 371 126.20000076293945 Q 371 127.20000076293945 370.5 127.20000076293945 Q 370 127.20000076293945 369.5 127.70000076293945 Q 369 128.20000076293945 369 128.70000076293945 Q 369 129.20000076293945 368.5 129.70000076293945 Q 368 130.20000076293945 368 130.70000076293945 Q 368 131.20000076293945 368 131.70000076293945 Q 368 132.20000076293945 367.5 132.70000076293945 Q 367 133.20000076293945 367 133.70000076293945 Q 367 134.20000076293945 367 135.20000076293945 Q 367 136.20000076293945 366.5 136.20000076293945 Q 366 136.20000076293945 365.5 136.70000076293945 Q 365 137.20000076293945 364.5 138.70000076293945 Q 364 140.20000076293945 364 141.20000076293945 Q 364 142.20000076293945 363 143.20000076293945 Q 362 144.20000076293945 361.5 145.70000076293945 Q 361 147.20000076293945 360.5 147.70000076293945 Q 360 148.20000076293945 360 149.20000076293945 Q 360 150.20000076293945 359.5 151.20000076293945 Q 359 152.20000076293945 358 153.70000076293945 Q 357 155.20000076293945 356.5 155.70000076293945 Q 356 156.20000076293945 356 157.20000076293945 Q 356 158.20000076293945 356 159.20000076293945 Q 356 160.20000076293945 355 161.20000076293945 Q 354 162.20000076293945 353.5 162.70000076293945 Q 353 163.20000076293945 353 163.70000076293945 Q 353 164.20000076293945 352.5 165.20000076293945 Q 352 166.20000076293945 352 167.20000076293945 Q 352 168.20000076293945 351 168.70000076293945 Q 350 169.20000076293945 349.5 170.70000076293945 Q 349 172.20000076293945 348.5 172.70000076293945 Q 348 173.20000076293945 348 174.20000076293945 Q 348 175.20000076293945 348 175.70000076293945 Q 348 176.20000076293945 347.5 177.70000076293945 Q 347 179.20000076293945 346.5 179.70000076293945 Q 346 180.20000076293945 345 180.70000076293945 Q 344 181.20000076293945 344 182.70000076293945 Q 344 184.20000076293945 343.5 184.70000076293945 Q 343 185.20000076293945 342.5 186.20000076293945 Q 342 187.20000076293945 341 188.20000076293945 Q 340 189.20000076293945 340 190.20000076293945 Q 340 191.20000076293945 339 192.20000076293945 Q 338 193.20000076293945 337 194.70000076293945 Q 336 196.20000076293945 335.5 197.70000076293945 Q 335 199.20000076293945 334.5 200.20000076293945 Q 334 201.20000076293945 333.5 202.20000076293945 Q 333 203.20000076293945 333 203.70000076293945 Q 333 204.20000076293945 332.5 204.70000076293945 Q 332 205.20000076293945 331.5 206.20000076293945 Q 331 207.20000076293945 331 207.70000076293945 Q 331 208.20000076293945 330.5 208.20000076293945 Q 330 208.20000076293945 330 208.70000076293945 Q 330 209.20000076293945 329.5 209.70000076293945 Q 329 210.20000076293945 329 210.70000076293945 Q 329 211.20000076293945 328.5 211.20000076293945 Q 328 211.20000076293945 328 211.70000076293945 Q 328 212.20000076293945 328 212.70000076293945 Q 328 213.20000076293945 328 213.70000076293945 Q 328 214.20000076293945 327.5 215.20000076293945 Q 327 216.20000076293945 326.5 216.20000076293945 Q 326 216.20000076293945 325.5 217.20000076293945 Q 325 218.20000076293945 324.5 219.20000076293945 Q 324 220.20000076293945 324 220.70000076293945 Q 324 221.20000076293945 324 221.70000076293945 Q 324 222.20000076293945 323.5 223.20000076293945 Q 323 224.20000076293945 323 224.70000076293945 Q 323 225.20000076293945 322.5 225.70000076293945 Q 322 226.20000076293945 322 226.70000076293945 Q 322 227.20000076293945 322 227.70000076293945 Q 322 228.20000076293945 321.5 228.20000076293945 Q 321 228.20000076293945 321 229.20000076293945 Q 321 230.20000076293945 321 230.70000076293945 Q 321 231.20000076293945 320.5 231.20000076293945 Q 320 231.20000076293945 320 231.70000076293945 Q 320 232.20000076293945 320 232.70000076293945 Q 320 233.20000076293945 320 233.70000076293945 Q 320 234.20000076293945 320 234.70000076293945 Q 320 235.20000076293945 320 235.70000076293945 Q 320 236.20000076293945 319.5 236.20000076293945 Q 319 236.20000076293945 319 236.70000076293945 Q 319 237.20000076293945 319 237.70000076293945 Q 319 238.20000076293945 319 239.20000076293945 Q 319 240.20000076293945 319 240.70000076293945 Q 319 241.20000076293945 318.5 241.70000076293945 Q 318 242.20000076293945 318 243.20000076293945 Q 318 244.20000076293945 317.5 244.70000076293945 Q 317 245.20000076293945 316.5 245.70000076293945 Q 316 246.20000076293945 316 247.20000076293945 L 316 248.20700076293946" stroke-linecap="round" />
</g>
<g transform="matrix(1 0 0 1 150 329.7)"  >
<path style="stroke: rgb(0,0,0); stroke-width: 7; stroke-dasharray: none; stroke-linecap: round; stroke-dashoffset: 0; stroke-linejoin: round; stroke-miterlimit: 10; fill: none; fill-rule: nonzero; opacity: 1;"  transform=" translate(-150, -329.7)" d="M 115.993 328.20000076293945 Q 116 328.20000076293945 118 328.20000076293945 Q 120 328.20000076293945 121 328.20000076293945 Q 122 328.20000076293945 123.5 328.70000076293945 Q 125 329.20000076293945 127 329.70000076293945 Q 129 330.20000076293945 130 330.20000076293945 Q 131 330.20000076293945 133 331.20000076293945 Q 135 332.20000076293945 136.5 332.20000076293945 Q 138 332.20000076293945 139 332.20000076293945 Q 140 332.20000076293945 142 332.70000076293945 Q 144 333.20000076293945 145 333.70000076293945 Q 146 334.20000076293945 147 334.20000076293945 Q 148 334.20000076293945 149 334.20000076293945 Q 150 334.20000076293945 151 334.20000076293945 Q 152 334.20000076293945 153 334.20000076293945 Q 154 334.20000076293945 155 334.20000076293945 Q 156 334.20000076293945 156.5 334.20000076293945 Q 157 334.20000076293945 158.5 334.20000076293945 Q 160 334.20000076293945 160.5 334.20000076293945 Q 161 334.20000076293945 162.5 334.20000076293945 Q 164 334.20000076293945 165 334.20000076293945 Q 166 334.20000076293945 166.5 333.70000076293945 Q 167 333.20000076293945 167.5 333.20000076293945 Q 168 333.20000076293945 169.5 333.20000076293945 Q 171 333.20000076293945 171 332.70000076293945 Q 171 332.20000076293945 171.5 332.20000076293945 Q 172 332.20000076293945 172.5 332.20000076293945 Q 173 332.20000076293945 174 331.70000076293945 Q 175 331.20000076293945 175.5 331.20000076293945 Q 176 331.20000076293945 176 330.70000076293945 Q 176 330.20000076293945 177 330.20000076293945 Q 178 330.20000076293945 178 329.70000076293945 Q 178 329.20000076293945 178.5 329.20000076293945 Q 179 329.20000076293945 179.5 328.70000076293945 Q 180 328.20000076293945 181 327.70000076293945 Q 182 327.20000076293945 183 326.20000076293945 L 184.007 325.19300076293945" stroke-linecap="round" />
</g>
<g transform="matrix(1 0 0 1 186.5 276.2)"  >
<path style="stroke: rgb(0,0,0); stroke-width: 7; stroke-dasharray: none; stroke-linecap: round; stroke-dashoffset: 0; stroke-linejoin: round; stroke-miterlimit: 10; fill: none; fill-rule: nonzero; opacity: 1;"  transform=" translate(-186.5, -276.2)" d="M 193 263.19300076293945 Q 193 263.20000076293945 192.5 263.20000076293945 Q 192 263.20000076293945 192 263.70000076293945 Q 192 264.20000076293945 192 264.70000076293945 Q 192 265.20000076293945 191.5 265.20000076293945 Q 191 265.20000076293945 190.5 265.70000076293945 Q 190 266.20000076293945 190 266.70000076293945 Q 190 267.20000076293945 189.5 267.70000076293945 Q 189 268.20000076293945 188.5 268.70000076293945 Q 188 269.20000076293945 188 269.70000076293945 Q 188 270.20000076293945 187.5 270.70000076293945 Q 187 271.20000076293945 187 271.70000076293945 Q 187 272.20000076293945 186.5 273.20000076293945 Q 186 274.20000076293945 185.5 275.20000076293945 Q 185 276.20000076293945 184.5 276.70000076293945 Q 184 277.20000076293945 184 277.70000076293945 Q 184 278.20000076293945 184 279.20000076293945 Q 184 280.20000076293945 183.5 280.20000076293945 Q 183 280.20000076293945 183 280.70000076293945 Q 183 281.20000076293945 182.5 281.70000076293945 Q 182 282.20000076293945 182 283.20000076293945 Q 182 284.20000076293945 181.5 284.70000076293945 Q 181 285.20000076293945 180.5 285.70000076293945 Q 180 286.20000076293945 180 286.70000076293945 Q 180 287.20000076293945 180 288.20000076293945 L 180 289.20700076293946" stroke-linecap="round" />
</g>
<g transform="matrix(1 0 0 1 228 338.7)"  >
<path style="stroke: rgb(0,0,0); stroke-width: 7; stroke-dasharray: none; stroke-linecap: round; stroke-dashoffset: 0; stroke-linejoin: round; stroke-miterlimit: 10; fill: none; fill-rule: nonzero; opacity: 1;"  transform=" translate(-228, -338.7)" d="M 219.993 313.19300076293945 Q 220 313.20000076293945 221 314.20000076293945 Q 222 315.20000076293945 223 315.70000076293945 Q 224 316.20000076293945 224 317.20000076293945 Q 224 318.20000076293945 224.5 318.70000076293945 Q 225 319.20000076293945 226 319.70000076293945 Q 227 320.20000076293945 227.5 320.20000076293945 Q 228 320.20000076293945 228 321.20000076293945 Q 228 322.20000076293945 228.5 323.20000076293945 Q 229 324.20000076293945 229.5 324.20000076293945 Q 230 324.20000076293945 230.5 324.70000076293945 Q 231 325.20000076293945 231.5 325.70000076293945 Q 232 326.20000076293945 232 326.70000076293945 Q 232 327.20000076293945 232 327.70000076293945 Q 232 328.20000076293945 232.5 328.20000076293945 Q 233 328.20000076293945 233.5 328.70000076293945 Q 234 329.20000076293945 234 330.20000076293945 Q 234 331.20000076293945 234 331.70000076293945 Q 234 332.20000076293945 234.5 333.70000076293945 Q 235 335.20000076293945 235.5 335.70000076293945 Q 236 336.20000076293945 236 336.70000076293945 Q 236 337.20000076293945 236 337.70000076293945 Q 236 338.20000076293945 236 338.70000076293945 Q 236 339.20000076293945 236 339.70000076293945 Q 236 340.20000076293945 236 341.20000076293945 Q 236 342.20000076293945 236 342.70000076293945 Q 236 343.20000076293945 236 343.70000076293945 Q 236 344.20000076293945 236 344.70000076293945 Q 236 345.20000076293945 236 345.70000076293945 Q 236 346.20000076293945 236 346.70000076293945 Q 236 347.20000076293945 236 347.70000076293945 Q 236 348.20000076293945 235.5 349.20000076293945 Q 235 350.20000076293945 235 350.70000076293945 Q 235 351.20000076293945 235 351.70000076293945 Q 235 352.20000076293945 235 352.70000076293945 Q 235 353.20000076293945 234.5 354.20000076293945 Q 234 355.20000076293945 233.5 355.70000076293945 Q 233 356.20000076293945 232.5 356.20000076293945 Q 232 356.20000076293945 232 356.70000076293945 Q 232 357.20000076293945 232 357.70000076293945 Q 232 358.20000076293945 232 358.70000076293945 Q 232 359.20000076293945 232 359.70000076293945 Q 232 360.20000076293945 231.5 360.20000076293945 Q 231 360.20000076293945 231 360.70000076293945 Q 231 361.20000076293945 230.5 361.20000076293945 Q 230 361.20000076293945 229.5 361.70000076293945 Q 229 362.20000076293945 229 362.70000076293945 Q 229 363.20000076293945 228.5 363.20000076293945 Q 228 363.20000076293945 227.5 363.70000076293945 L 226.993 364.20700076293946" stroke-linecap="round" />
</g>
<g transform="matrix(1 0 0 1 254 334.2)"  >
<path style="stroke: rgb(0,0,0); stroke-width: 7; stroke-dasharray: none; stroke-linecap: round; stroke-dashoffset: 0; stroke-linejoin: round; stroke-miterlimit: 10; fill: none; fill-rule: nonzero; opacity: 1;"  transform=" translate(-254, -334.2)" d="M 245.993 312.19300076293945 Q 246 312.20000076293945 246.5 312.20000076293945 Q 247 312.20000076293945 247.5 312.70000076293945 Q 248 313.20000076293945 248 313.70000076293945 Q 248 314.20000076293945 248.5 314.70000076293945 Q 249 315.20000076293945 249.5 315.70000076293945 Q 250 316.20000076293945 251 316.70000076293945 Q 252 317.20000076293945 252 317.70000076293945 Q 252 318.20000076293945 252 318.70000076293945 Q 252 319.20000076293945 253 319.70000076293945 Q 254 320.20000076293945 254 320.70000076293945 Q 254 321.20000076293945 254.5 321.70000076293945 Q 255 322.20000076293945 255.5 322.70000076293945 Q 256 323.20000076293945 256 323.70000076293945 Q 256 324.20000076293945 256.5 324.70000076293945 Q 257 325.20000076293945 257 325.70000076293945 Q 257 326.20000076293945 257.5 326.70000076293945 Q 258 327.20000076293945 258 327.70000076293945 Q 258 328.20000076293945 258.5 328.20000076293945 Q 259 328.20000076293945 259.5 328.20000076293945 Q 260 328.20000076293945 260 328.70000076293945 Q 260 329.20000076293945 260 330.20000076293945 Q 260 331.20000076293945 260 331.70000076293945 Q 260 332.20000076293945 260.5 332.20000076293945 Q 261 332.20000076293945 261 332.70000076293945 Q 261 333.20000076293945 261 333.70000076293945 Q 261 334.20000076293945 261.5 334.20000076293945 Q 262 334.20000076293945 262 334.70000076293945 Q 262 335.20000076293945 262 335.70000076293945 Q 262 336.20000076293945 262 336.70000076293945 Q 262 337.20000076293945 262 337.70000076293945 Q 262 338.20000076293945 262 338.70000076293945 Q 262 339.20000076293945 262 339.70000076293945 Q 262 340.20000076293945 262 340.70000076293945 Q 262 341.20000076293945 262 341.70000076293945 Q 262 342.20000076293945 262 342.70000076293945 Q 262 343.20000076293945 262 343.70000076293945 Q 262 344.20000076293945 262 344.70000076293945 Q 262 345.20000076293945 262 345.70000076293945 Q 262 346.20000076293945 261.5 346.20000076293945 Q 261 346.20000076293945 261 346.70000076293945 Q 261 347.20000076293945 261 347.70000076293945 Q 261 348.20000076293945 260.5 348.20000076293945 Q 260 348.20000076293945 260 348.70000076293945 Q 260 349.20000076293945 260 349.70000076293945 Q 260 350.20000076293945 259.5 350.20000076293945 Q 259 350.20000076293945 258.5 350.70000076293945 Q 258 351.20000076293945 258 351.70000076293945 Q 258 352.20000076293945 257.5 352.20000076293945 Q 257 352.20000076293945 256.5 352.20000076293945 Q 256 352.20000076293945 256 352.70000076293945 Q 256 353.20000076293945 256 353.70000076293945 Q 256 354.20000076293945 255.5 354.20000076293945 Q 255 354.20000076293945 255 354.70000076293945 Q 255 355.20000076293945 254 355.70000076293945 L 252.993 356.20700076293946" stroke-linecap="round" />
</g>
<g transform="matrix(1 0 0 1 276 324.2)"  >
<path style="stroke: rgb(0,0,0); stroke-width: 7; stroke-dasharray: none; stroke-linecap: round; stroke-dashoffset: 0; stroke-linejoin: round; stroke-miterlimit: 10; fill: none; fill-rule: nonzero; opacity: 1;"  transform=" translate(-276, -324.2)" d="M 270 301.19300076293945 Q 270 301.20000076293945 271 301.20000076293945 Q 272 301.20000076293945 272 301.70000076293945 Q 272 302.20000076293945 272 302.70000076293945 Q 272 303.20000076293945 272.5 303.20000076293945 Q 273 303.20000076293945 273.5 303.70000076293945 Q 274 304.20000076293945 274 304.70000076293945 Q 274 305.20000076293945 274.5 305.20000076293945 Q 275 305.20000076293945 275.5 305.70000076293945 Q 276 306.20000076293945 276 306.70000076293945 Q 276 307.20000076293945 276 307.70000076293945 Q 276 308.20000076293945 276.5 308.20000076293945 Q 277 308.20000076293945 277 308.70000076293945 Q 277 309.20000076293945 277.5 309.20000076293945 Q 278 309.20000076293945 278 309.70000076293945 Q 278 310.20000076293945 278 310.70000076293945 Q 278 311.20000076293945 278.5 311.70000076293945 Q 279 312.20000076293945 279 312.70000076293945 Q 279 313.20000076293945 279 314.20000076293945 Q 279 315.20000076293945 279.5 315.20000076293945 Q 280 315.20000076293945 280 315.70000076293945 Q 280 316.20000076293945 280 317.20000076293945 Q 280 318.20000076293945 280 318.70000076293945 Q 280 319.20000076293945 280 319.70000076293945 Q 280 320.20000076293945 280 320.70000076293945 Q 280 321.20000076293945 280 321.70000076293945 Q 280 322.20000076293945 280 322.70000076293945 Q 280 323.20000076293945 280 323.70000076293945 Q 280 324.20000076293945 280 325.20000076293945 Q 280 326.20000076293945 280 326.70000076293945 Q 280 327.20000076293945 280 327.70000076293945 Q 280 328.20000076293945 280.5 328.20000076293945 Q 281 328.20000076293945 281 328.70000076293945 Q 281 329.20000076293945 281 329.70000076293945 Q 281 330.20000076293945 281 330.70000076293945 Q 281 331.20000076293945 281.5 331.70000076293945 Q 282 332.20000076293945 282 332.70000076293945 Q 282 333.20000076293945 282 333.70000076293945 Q 282 334.20000076293945 282 334.70000076293945 Q 282 335.20000076293945 282 335.70000076293945 Q 282 336.20000076293945 282 336.70000076293945 Q 282 337.20000076293945 282 337.70000076293945 Q 282 338.20000076293945 282 338.70000076293945 Q 282 339.20000076293945 282 339.70000076293945 Q 282 340.20000076293945 282 340.70000076293945 Q 282 341.20000076293945 282 341.70000076293945 Q 282 342.20000076293945 281.5 342.20000076293945 Q 281 342.20000076293945 281 342.70000076293945 Q 281 343.20000076293945 281 343.70000076293945 Q 281 344.20000076293945 281 344.70000076293945 Q 281 345.20000076293945 281 346.20000076293945 L 281 347.20700076293946" stroke-linecap="round" />
</g>
</svg>