<svg xmlns="http://www.w3.org/2000/svg" xmlns:xlink="http://www.w3.org/1999/xlink" version="1.1" width="600" height="600" viewBox="0 0 600 600" xml:space="preserve">
<desc>Created with Fabric.js 5.2.4</desc>
<defs>
</defs>
<rect x="0" y="0" width="100%" height="100%" fill="#fff"></rect>
<g transform="matrix(1 0 0 1 282 270.61)"  >
<path style="stroke: rgb(0,0,0); stroke-width: 7; stroke-dasharray: none; stroke-linecap: round; stroke-dashoffset: 0; stroke-linejoin: round; stroke-miterlimit: 10; fill: none; fill-rule: nonzero; opacity: 1;"  transform=" translate(-282, -270.61)" d="M 135.007 184.19300076293945 Q 135 184.20000076293945 135 186.70000076293945 Q 135 189.20000076293945 134.5 189.70000076293945 Q 134 190.20000076293945 134 193.20000076293945 Q 134 196.20000076293945 133.5 198.70000076293945 Q 133 201.20000076293945 132.5 202.70000076293945 Q 132 204.20000076293945 131.5 208.20000076293945 Q 131 212.20000076293945 131 216.20000076293945 Q 131 220.20000076293945 130.5 224.20000076293945 Q 130 228.20000076293945 130 229.20000076293945 Q 130 230.20000076293945 129.5 233.20000076293945 Q 129 236.20000076293945 129 239.20000076293945 Q 129 242.20000076293945 129 243.70000076293945 Q 129 245.20000076293945 128.5 247.70000076293945 Q 128 250.20000076293945 128 254.20000076293945 Q 128 258.20000076293945 128 259.70000076293945 Q 128 261.20000076293945 128 264.70000076293945 Q 128 268.20000076293945 128 269.70000076293945 Q 128 271.20000076293945 128 271.70000076293945 Q 128 272.20000076293945 127.5 276.70000076293945 Q 127 281.20000076293945 127 283.20000076293945 Q 127 285.20000076293945 127 286.70000076293945 Q 127 288.20000076293945 127 290.20000076293945 Q 127 292.20000076293945 127 295.70000076293945 Q 127 299.20000076293945 127 301.20000076293945 Q 127 303.20000076293945 127 303.70000076293945 Q 127 304.20000076293945 126.5 306.70000076293945 Q 126 309.20000076293945 126 310.70000076293945 Q 126 312.20000076293945 126 312.70000076293945 Q 126 313.20000076293945 125.5 314.20000076293945 Q 125 315.20000076293945 125 317.20000076293945 Q 125 319.20000076293945 124.5 319.70000076293945 Q 124 320.20000076293945 124 322.20000076293945 Q 124 324.20000076293945 124 325.20000076293945 Q 124 326.20000076293945 124 327.20000076293945 Q 124 328.20000076293945 124 329.20000076293945 Q 124 330.20000076293945 124 332.70000076293945 Q 124 335.20000076293945 123.5 335.70000076293945 Q 123 336.20000076293945 123 337.20000076293945 Q 123 338.20000076293945 123 339.20000076293945 Q 123 340.20000076293945 123 341.70000076293945 Q 123 343.20000076293945 123 344.20000076293945 Q 123 345.20000076293945 123 346.20000076293945 Q 123 347.20000076293945 123 347.70000076293945 Q 123 348.20000076293945 123 348.70000076293945 Q 123 349.20000076293945 123 350.70000076293945 Q 123 352.20000076293945 123 353.20000076293945 Q 123 354.20000076293945 123 354.70000076293945 Q 123 355.20000076293945 123 355.70000076293945 Q 123 356.20000076293945 123 356.70000076293945 Q 123 357.20000076293945 123.5 356.20000076293945 Q 124 355.20000076293945 125 354.20000076293945 Q 126 353.20000076293945 129 350.70000076293945 Q 132 348.20000076293945 134 345.70000076293945 Q 136 343.20000076293945 138 341.70000076293945 Q 140 340.20000076293945 143.5 336.20000076293945 Q 147 332.20000076293945 151 328.70000076293945 Q 155 325.20000076293945 156 324.20000076293945 Q 157 323.20000076293945 160.5 319.20000076293945 Q 164 315.20000076293945 170 311.70000076293945 Q 176 308.20000076293945 178 306.20000076293945 Q 180 304.20000076293945 184.5 301.20000076293945 Q 189 298.20000076293945 193.5 295.20000076293945 Q 198 292.20000076293945 202.5 288.70000076293945 Q 207 285.20000076293945 209 283.70000076293945 Q 211 282.20000076293945 214 280.20000076293945 Q 217 278.20000076293945 220.5 276.20000076293945 Q 224 274.20000076293945 224.5 273.20000076293945 Q 225 272.20000076293945 228.5 270.20000076293945 Q 232 268.20000076293945 234 266.20000076293945 Q 236 264.20000076293945 237.5 263.70000076293945 Q 239 263.20000076293945 241.5 261.70000076293945 Q 244 260.20000076293945 246.5 257.20000076293945 Q 249 254.20000076293945 252.5 252.20000076293945 Q 256 250.20000076293945 257 249.20000076293945 Q 258 248.20000076293945 260 246.70000076293945 Q 262 245.20000076293945 264.5 243.20000076293945 Q 267 241.20000076293945 267.5 240.70000076293945 Q 268 240.20000076293945 270 239.20000076293945 Q 272 238.20000076293945 274.5 236.70000076293945 Q 277 235.20000076293945 278 234.70000076293945 Q 279 234.20000076293945 281 233.20000076293945 Q 283 232.20000076293945 284.5 231.70000076293945 Q 286 231.20000076293945 287 230.20000076293945 Q 288 229.20000076293945 291.5 227.70000076293945 Q 295 226.20000076293945 297.5 225.20000076293945 Q 300 224.20000076293945 301 223.20000076293945 Q 302 222.20000076293945 304 221.20000076293945 Q 306 220.20000076293945 307.5 218.70000076293945 Q 309 217.20000076293945 311 216.70000076293945 Q 313 216.20000076293945 314 216.20000076293945 Q 315 216.20000076293945 316.5 214.20000076293945 Q 318 212.20000076293945 320 211.20000076293945 Q 322 210.20000076293945 322.5 209.70000076293945 Q 323 209.20000076293945 324 208.20000076293945 Q 325 207.20000076293945 327 205.70000076293945 Q 329 204.20000076293945 330.5 203.70000076293945 Q 332 203.20000076293945 332.5 202.70000076293945 Q 333 202.20000076293945 333.5 201.20000076293945 Q 334 200.20000076293945 335 199.70000076293945 Q 336 199.20000076293945 337.5 198.70000076293945 Q 339 198.20000076293945 339.5 198.20000076293945 Q 340 198.20000076293945 340.5 197.70000076293945 Q 341 197.20000076293945 342 196.70000076293945 Q 343 196.20000076293945 343.5 196.20000076293945 Q 344 196.20000076293945 345.5 195.70000076293945 Q 347 195.20000076293945 347.5 195.20000076293945 Q 348 195.20000076293945 349 195.20000076293945 Q 350 195.20000076293945 351 195.20000076293945 Q 352 195.20000076293945 352.5 194.70000076293945 Q 353 194.20000076293945 354.5 194.20000076293945 Q 356 194.20000076293945 357 193.70000076293945 Q 358 193.20000076293945 358.5 193.20000076293945 Q 359 193.20000076293945 360 192.70000076293945 Q 361 192.20000076293945 362.5 192.20000076293945 Q 364 192.20000076293945 365 192.20000076293945 Q 366 192.20000076293945 367 192.20000076293945 Q 368 192.20000076293945 369 192.20000076293945 Q 370 192.20000076293945 370.5 192.20000076293945 Q 371 192.20000076293945 371.5 192.20000076293945 Q 372 192.20000076293945 372 191.70000076293945 Q 372 191.20000076293945 373 191.20000076293945 Q 374 191.20000076293945 375 191.20000076293945 Q 376 191.20000076293945 376.5 191.20000076293945 Q 377 191.20000076293945 377.5 191.20000076293945 Q 378 191.20000076293945 379 192.20000076293945 Q 380 193.20000076293945 381.5 194.20000076293945 Q 383 195.20000076293945 385.5 196.20000076293945 Q 388 197.20000076293945 390.5 199.20000076293945 Q 393 201.20000076293945 394.5 202.70000076293945 Q 396 204.20000076293945 399.5 206.20000076293945 Q 403 208.20000076293945 405.5 210.20000076293945 Q 408 212.20000076293945 410 213.70000076293945 Q 412 215.20000076293945 414 216.70000076293945 Q 416 218.20000076293945 418 220.20000076293945 Q 420 222.20000076293945 422 223.70000076293945 Q 424 225.20000076293945 424.5 226.20000076293945 Q 425 227.20000076293945 426.5 228.20000076293945 Q 428 229.20000076293945 429 230.70000076293945 Q 430 232.20000076293945 430.5 233.20000076293945 Q 431 234.20000076293945 432 235.20000076293945 Q 433 236.20000076293945 434 237.70000076293945 Q 435 239.20000076293945 435 239.70000076293945 Q 435 240.20000076293945 435.5 241.20000076293945 Q 436 242.20000076293945 437 243.70000076293945 Q 438 245.20000076293945 438 246.70000076293945 Q 438 248.20000076293945 439 249.70000076293945 Q 440 251.20000076293945 440 253.20000076293945 Q 440 255.20000076293945 440 255.70000076293945 Q 440 256.20000076293945 440.5 258.20000076293945 Q 441 260.20000076293945 441 262.20000076293945 Q 441 264.20000076293945 441 266.20000076293945 Q 441 268.20000076293945 441 269.20000076293945 Q 441 270.20000076293945 441 271.20000076293945 Q 441 272.20000076293945 441 274.20000076293945 Q 441 276.20000076293945 441 276.70000076293945 Q 441 277.20000076293945 441 279.20000076293945 Q 441 281.20000076293945 441 282.70000076293945 Q 441 284.20000076293945 441 285.20000076293945 Q 441 286.20000076293945 441 288.20000076293945 Q 441 290.20000076293945 440.5 292.70000076293945 Q 440 295.20000076293945 440 295.70000076293945 Q 440 296.20000076293945 438.5 298.70000076293945 Q 437 301.20000076293945 436.5 302.70000076293945 Q 436 304.20000076293945 436 304.70000076293945 Q 436 305.20000076293945 435 306.70000076293945 Q 434 308.20000076293945 433 309.20000076293945 Q 432 310.20000076293945 431.5 310.70000076293945 Q 431 311.20000076293945 431 311.70000076293945 Q 431 312.20000076293945 430 312.70000076293945 Q 429 313.20000076293945 428 313.70000076293945 Q 427 314.20000076293945 425.5 314.70000076293945 Q 424 315.20000076293945 423.5 315.70000076293945 Q 423 316.20000076293945 421.5 316.20000076293945 Q 420 316.20000076293945 419 316.20000076293945 Q 418 316.20000076293945 416 316.20000076293945 Q 414 316.20000076293945 412.5 316.20000076293945 Q 411 316.20000076293945 410 316.20000076293945 Q 409 316.20000076293945 407.5 316.70000076293945 Q 406 317.20000076293945 404.5 317.20000076293945 Q 403 317.20000076293945 402.5 317.20000076293945 Q 402 317.20000076293945 400 317.20000076293945 Q 398 317.20000076293945 395.5 317.20000076293945 Q 393 317.20000076293945 392 317.20000076293945 Q 391 317.20000076293945 389.5 317.20000076293945 Q 388 317.20000076293945 386 317.20000076293945 Q 384 317.20000076293945 382 316.70000076293945 Q 380 316.20000076293945 378.5 316.20000076293945 Q 377 316.20000076293945 374.5 315.70000076293945 Q 372 315.20000076293945 368 314.70000076293945 Q 364 314.20000076293945 362.5 313.70000076293945 Q 361 313.20000076293945 357.5 312.70000076293945 Q 354 312.20000076293945 351 310.70000076293945 Q 348 309.20000076293945 346 309.20000076293945 Q 344 309.20000076293945 340 307.70000076293945 Q 336 306.20000076293945 332 304.70000076293945 Q 328 303.20000076293945 326.5 302.70000076293945 Q 325 302.20000076293945 322 301.20000076293945 Q 319 300.20000076293945 315.5 298.70000076293945 Q 312 297.20000076293945 310 296.70000076293945 Q 308 296.20000076293945 306.5 295.70000076293945 Q 305 295.20000076293945 302 293.70000076293945 Q 299 292.20000076293945 297.5 291.70000076293945 Q 296 291.20000076293945 295 290.70000076293945 Q 294 290.20000076293945 292.5 289.20000076293945 Q 291 288.20000076293945 287.5 286.70000076293945 Q 284 285.20000076293945 283 284.70000076293945 Q 282 284.20000076293945 280.5 283.70000076293945 Q 279 283.20000076293945 277.5 281.70000076293945 Q 276 280.20000076293945 274.5 279.70000076293945 Q 273 279.20000076293945 272.5 278.20000076293945 Q 272 277.20000076293945 270 276.20000076293945 Q 268 275.20000076293945 265.5 273.20000076293945 Q 263 271.20000076293945 262.5 270.70000076293945 Q 262 270.20000076293945 260 268.70000076293945 Q 258 267.20000076293945 257.5 266.20000076293945 Q 257 265.20000076293945 256 264.70000076293945 Q 255 264.20000076293945 253.5 262.20000076293945 Q 252 260.20000076293945 251 259.70000076293945 Q 250 259.20000076293945 249 258.70000076293945 Q 248 258.20000076293945 247 257.20000076293945 Q 246 256.20000076293945 245 255.20000076293945 Q 244 254.20000076293945 243 253.20000076293945 Q 242 252.20000076293945 241 251.70000076293945 Q 240 251.20000076293945 239 250.20000076293945 Q 238 249.20000076293945 237 248.20000076293945 Q 236 247.20000076293945 235 247.20000076293945 Q 234 247.20000076293945 233 245.70000076293945 Q 232 244.20000076293945 230.5 243.70000076293945 Q 229 243.20000076293945 228.5 242.70000076293945 Q 228 242.20000076293945 226.5 241.20000076293945 Q 225 240.20000076293945 224.5 239.70000076293945 Q 224 239.20000076293945 223 238.70000076293945 Q 222 238.20000076293945 220.5 237.20000076293945 Q 219 236.20000076293945 217.5 235.70000076293945 Q 216 235.20000076293945 215.5 234.70000076293945 Q 215 234.20000076293945 214 233.70000076293945 Q 213 233.20000076293945 211.5 232.70000076293945 Q 210 232.20000076293945 209.5 231.70000076293945 Q 209 231.20000076293945 208 230.20000076293945 Q 207 229.20000076293945 205.5 228.70000076293945 Q 204 228.20000076293945 203 227.70000076293945 Q 202 227.20000076293945 201 226.70000076293945 Q 200 226.20000076293945 198.5 225.20000076293945 Q 197 224.20000076293945 195.5 223.70000076293945 Q 194 223.20000076293945 193 222.70000076293945 Q 192 222.20000076293945 190 221.20000076293945 Q 188 220.20000076293945 187 220.20000076293945 Q 186 220.20000076293945 185 219.70000076293945 Q 184 219.20000076293945 182 218.20000076293945 Q 180 217.20000076293945 178.5 217.20000076293945 Q 177 217.20000076293945 176.5 216.70000076293945 Q 176 216.20000076293945 175 216.20000076293945 Q 174 216.20000076293945 173 215.70000076293945 Q 172 215.20000076293945 171.5 214.70000076293945 Q 171 214.20000076293945 169.5 213.70000076293945 Q 168 213.20000076293945 167.5 212.70000076293945 Q 167 212.20000076293945 166 212.20000076293945 Q 165 212.20000076293945 164.5 212.20000076293945 Q 164 212.20000076293945 163.5 212.20000076293945 Q 163 212.20000076293945 162 211.70000076293945 Q 161 211.20000076293945 160.5 210.70000076293945 Q 160 210.20000076293945 160 209.70000076293945 Q 160 209.20000076293945 159 209.20000076293945 Q 158 209.20000076293945 157.5 209.20000076293945 Q 157 209.20000076293945 156.5 208.70000076293945 Q 156 208.20000076293945 155.5 208.20000076293945 Q 155 208.20000076293945 154.5 208.20000076293945 Q 154 208.20000076293945 154 207.70000076293945 Q 154 207.20000076293945 153.5 206.70000076293945 Q 153 206.20000076293945 152.5 206.20000076293945 Q 152 206.20000076293945 152 205.70000076293945 Q 152 205.20000076293945 151.5 205.20000076293945 Q 151 205.20000076293945 150.5 204.70000076293945 Q 150 204.20000076293945 149.5 204.20000076293945 Q 149 204.20000076293945 148.5 203.70000076293945 Q 148 203.20000076293945 147.5 203.20000076293945 Q 147 203.20000076293945 146.5 202.70000076293945 Q 146 202.20000076293945 145.5 201.70000076293945 Q 145 201.20000076293945 144.5 201.20000076293945 Q 144 201.20000076293945 143.5 200.70000076293945 Q 143 200.20000076293945 142.5 200.20000076293945 Q 142 200.20000076293945 141 199.70000076293945 L 139.993 199.19300076293945" stroke-linecap="round" />
</g>
</svg>