<svg width="304" height="185" viewBox="0 0 304 185" fill="none" xmlns="http://www.w3.org/2000/svg">
<path d="M101.905 167.811V167.693L101.853 167.587L101.425 166.731C99.0746 162.032 97.8512 156.849 97.8512 151.595V151.498L97.8155 151.409L97.5835 150.829C95.6179 145.915 94.608 140.671 94.608 135.378V135.282L94.5722 135.193L94.3403 134.613C92.3746 129.699 91.3647 124.455 91.3647 119.162V118.229C91.3647 113.034 92.455 107.896 94.5649 103.149L94.608 103.052V102.946C94.608 97.6534 95.6179 92.4095 97.5835 87.4954L97.8155 86.9155L97.8512 86.8261V86.7298C97.8512 81.4753 99.0746 76.293 101.425 71.5932L101.853 70.7372L101.905 70.6316V70.5136V65.5116C101.905 63.5697 102.433 61.6644 103.432 59.9992L104.428 58.3393C105.747 56.1419 108.121 54.7974 110.684 54.7974H115.386C118.649 54.7974 120.771 58.2311 119.312 61.1495C118.938 61.8978 118.743 62.723 118.743 63.5597V70.3751L118.121 71.4118C115.361 76.0113 113.896 81.2704 113.878 86.6331L113.682 87.124C111.682 92.1234 110.649 97.4562 110.635 102.84C108.497 107.688 107.392 112.929 107.392 118.229V119.162C107.392 124.582 108.426 129.952 110.439 134.984L110.635 135.475C110.647 140.862 111.681 146.198 113.682 151.2L113.878 151.691C113.896 157.054 115.361 162.313 118.121 166.913L118.743 167.95C118.765 173.312 120.023 178.598 122.422 183.395L122.488 183.527H116H106.553L106.006 182.614C103.323 178.143 101.905 173.026 101.905 167.811Z" fill="#785D1F" stroke="#574315"/>
<path d="M73.3287 22.5335C72.3112 22.1879 72.4806 20.6997 73.5498 20.5917L85.0229 19.4328C100.229 17.8969 115.298 23.4293 125.897 34.4396C126.051 34.5996 126.255 34.7036 126.475 34.7348L140.944 36.7909C150.591 38.1616 159.627 42.3211 166.941 48.7579L173.324 54.3747C174.083 55.0425 173.485 56.2859 172.489 56.1102L139.906 50.3603C138.816 50.1679 138.268 51.6265 139.214 52.2002L147.341 57.1271C154.957 61.744 161.202 68.3113 165.429 76.1501L169.632 83.942C170.096 84.8021 169.177 85.7485 168.304 85.3107L131.172 66.7025C130.223 66.2267 129.335 67.4434 130.079 68.2019C135.733 73.97 139.806 81.097 141.906 88.8961L143.443 94.6067C143.706 95.5852 142.515 96.2899 141.784 95.5876L109.696 64.7429C109.353 64.4142 108.827 64.371 108.436 64.6396L78.5189 85.1855C77.7512 85.7127 76.743 84.9965 76.988 84.098L79.3716 75.3582C82.0682 65.4708 88.4129 56.9735 97.1269 51.5791C97.8807 51.1125 97.4447 49.9479 96.5697 50.091L58.8575 56.2621C57.9199 56.4156 57.3168 55.2978 57.9599 54.5984L61.4139 50.8423C70.8821 40.546 84.2304 34.6866 98.2183 34.6866H103.055C104.186 34.6866 104.447 33.1035 103.376 32.7397L73.3287 22.5335Z" fill="#139748"/>
<g filter="url(#filter0_i_77_679)">
<path d="M227 184H77C77 156.386 99.3858 134 127 134H152H177C204.614 134 227 156.386 227 184Z" fill="#FBE9BF"/>
</g>
<defs>
<filter id="filter0_i_77_679" x="77" y="134" width="150" height="54" filterUnits="userSpaceOnUse" color-interpolation-filters="sRGB">
<feFlood flood-opacity="0" result="BackgroundImageFix"/>
<feBlend mode="normal" in="SourceGraphic" in2="BackgroundImageFix" result="shape"/>
<feColorMatrix in="SourceAlpha" type="matrix" values="0 0 0 0 0 0 0 0 0 0 0 0 0 0 0 0 0 0 127 0" result="hardAlpha"/>
<feOffset dy="4"/>
<feGaussianBlur stdDeviation="25"/>
<feComposite in2="hardAlpha" operator="arithmetic" k2="-1" k3="1"/>
<feColorMatrix type="matrix" values="0 0 0 0 1 0 0 0 0 0.819608 0 0 0 0 0.4 0 0 0 0.5 0"/>
<feBlend mode="normal" in2="shape" result="effect1_innerShadow_77_679"/>
</filter>
</defs>
</svg>
