<svg width="325" height="216" viewBox="0 0 325 216" fill="none" xmlns="http://www.w3.org/2000/svg">
<path d="M115.34 134.613C113.437 129.854 112.429 124.785 112.368 119.662H128.395C128.456 124.874 129.473 130.032 131.397 134.878H115.447L115.34 134.613ZM128.392 118.662H112.365V118.229C112.365 113.142 113.41 108.11 115.434 103.446H131.374C129.407 108.124 128.392 113.149 128.392 118.229V118.662ZM115.611 135.878H131.638C131.699 141.09 132.716 146.248 134.64 151.095H118.69L118.584 150.829C116.68 146.07 115.673 141.001 115.611 135.878ZM118.855 152.095H134.882C134.97 157.317 136.431 162.429 139.121 166.913L139.36 167.311H122.714L122.425 166.731C120.149 162.181 118.93 157.178 118.855 152.095ZM122.91 168.311H139.747C139.822 173.549 141.077 178.705 143.422 183.395L143.488 183.527H137H127.553L127.006 182.614C124.408 178.286 122.997 173.352 122.91 168.311ZM131.638 102.446H115.611C115.673 97.3234 116.68 92.2547 118.584 87.4954L118.69 87.2298H134.64C132.716 92.0765 131.699 97.2341 131.638 102.446ZM134.882 86.2298H118.855C118.93 81.1469 120.149 76.1438 122.425 71.5932L122.714 71.0136H139.36L139.121 71.4118C136.431 75.8959 134.97 81.007 134.882 86.2298ZM139.743 70.0136H122.905V65.5116C122.905 63.5697 123.433 61.6644 124.432 59.9992L125.428 58.3393C126.747 56.1419 129.121 54.7974 131.684 54.7974H136.386C139.649 54.7974 141.771 58.2311 140.312 61.1495C139.938 61.8978 139.743 62.723 139.743 63.5597V70.0136Z" fill="#785D1F" stroke="#574315"/>
<path d="M94.3287 22.5335C93.3112 22.1879 93.4806 20.6997 94.5498 20.5917L106.023 19.4328C121.229 17.8969 136.298 23.4293 146.897 34.4396V34.4396C147.051 34.5996 147.255 34.7036 147.475 34.7348L161.944 36.7909C171.591 38.1616 180.627 42.3211 187.941 48.7579L194.324 54.3747C195.083 55.0425 194.485 56.2859 193.489 56.1102L160.906 50.3603C159.816 50.1679 159.268 51.6265 160.214 52.2002L168.341 57.1271C175.957 61.744 182.202 68.3113 186.429 76.1501L190.632 83.942C191.096 84.8021 190.177 85.7485 189.304 85.3107L152.172 66.7025C151.223 66.2267 150.335 67.4434 151.079 68.2019V68.2019C156.733 73.97 160.806 81.097 162.906 88.8961L164.443 94.6067C164.706 95.5852 163.515 96.2899 162.784 95.5876L130.696 64.7429C130.353 64.4142 129.827 64.371 129.436 64.6396L99.5189 85.1855C98.7512 85.7127 97.743 84.9965 97.988 84.098L100.372 75.3582C103.068 65.4708 109.413 56.9735 118.127 51.5791V51.5791C118.881 51.1125 118.445 49.9479 117.57 50.0911L79.8575 56.2621C78.9199 56.4156 78.3168 55.2978 78.9599 54.5984L82.4139 50.8423C91.8821 40.546 105.23 34.6866 119.218 34.6866H124.055C125.186 34.6866 125.447 33.1035 124.376 32.7397L94.3287 22.5335Z" fill="#139748"/>
<g filter="url(#filter0_i_77_679)">
<path d="M248 184H98C98 156.386 120.386 134 148 134H173H198C225.614 134 248 156.386 248 184Z" fill="#FBE9BF"/>
</g>
<path d="M95.0138 157.643C104.821 156.19 114.839 157.685 123.794 161.939L147 172.962L125.227 141.936C115.313 127.807 101.637 116.74 85.7525 109.989L73.1146 104.618L77.1966 118.678C79.9546 128.178 79.8327 138.282 76.8464 147.713L72.6529 160.955L95.0138 157.643Z" fill="#EEEEEE"/>
<path d="M47.2548 124.936V124.936C47.5582 132.825 45.9622 140.671 42.6012 147.815V147.815L36.4183 160.955H67.3885L63.319 147.39C61.3273 140.751 62.3004 133.576 65.9883 127.707V127.707L47.2548 124.936Z" fill="#EEEEEE"/>
<path d="M68.4968 116.624V100.924L65.7541 100.532C63.3649 100.19 60.9361 100.783 58.9722 102.185V102.185C56.8048 103.734 54.0466 104.28 51.4466 103.702V103.702C48.8014 103.114 45.9953 103.67 43.7904 105.245L40.7898 107.389L44.9326 107.98V107.98C46.4733 108.2 47.9762 108.633 49.3984 109.265V109.265L53.1929 110.951C54.7168 111.629 56.4429 111.694 58.0134 111.133V111.133C60.4525 110.261 63.1761 110.923 64.9433 112.817V112.817L68.4968 116.624Z" fill="#EF476F"/>
<path fill-rule="evenodd" clip-rule="evenodd" d="M42.0799 214.522H74.9618H101.762C107.039 214.522 112.063 212.266 115.568 208.323L119.293 204.132L128.529 193.742L137.764 183.352L73.8073 186.584L9.85032 186.123L17.7006 195.589L25.551 205.056L27.8614 207.842C31.3706 212.074 36.5824 214.522 42.0799 214.522ZM68.4968 164.65V175.15L72.6529 174.809V160.955L73.1146 104.618V100.924H68.4968V116.624V124.936V164.65ZM68.4968 164.65L67.3885 160.955H36.4183L35.2484 164.65H68.4968ZM51.4466 103.702C54.0466 104.28 56.8049 103.734 58.9722 102.185V102.185C56.8048 103.734 54.0466 104.28 51.4466 103.702V103.702ZM49.3984 109.265C47.9761 108.633 46.4733 108.2 44.9326 107.98V107.98C46.4733 108.2 47.9762 108.633 49.3984 109.265V109.265ZM64.9433 112.817C63.1761 110.923 60.4525 110.261 58.0134 111.133V111.133C60.4525 110.261 63.1761 110.923 64.9433 112.817V112.817ZM65.9883 127.707L47.2548 124.936V120.318L68.0997 124.85L65.9883 127.707ZM47.2548 124.936C47.5582 132.825 45.9622 140.671 42.6012 147.815V147.815C45.9622 140.671 47.5582 132.825 47.2548 124.936V124.936Z" fill="#785D1F"/>
<path d="M147 172.962L72.6529 174.809L68.4968 175.15L2 176.656L9.85032 186.123L73.8073 186.584L137.764 183.352L147 172.962Z" fill="#785D1F"/>
<path d="M147 172.962L72.6529 174.809M147 172.962L123.794 161.939C114.839 157.685 104.821 156.19 95.0138 157.643L72.6529 160.955M147 172.962L137.764 183.352M147 172.962L125.227 141.936C115.313 127.807 101.637 116.74 85.7525 109.989L73.1146 104.618M72.6529 174.809L68.4968 175.15M72.6529 174.809V160.955M68.4968 100.924H73.1146V104.618M68.4968 100.924V116.624M68.4968 100.924L65.7541 100.532M68.4968 175.15L2 176.656L9.85032 186.123M68.4968 175.15V164.65M68.4968 116.624V124.936M68.4968 116.624L64.9433 112.817M73.1146 104.618L72.6529 160.955M73.1146 104.618L77.1966 118.678C79.9546 128.178 79.8327 138.282 76.8464 147.713L72.6529 160.955M68.4968 124.936V164.65M68.4968 124.936L68.0997 124.85M68.4968 164.65H35.2484L36.4183 160.955M68.4968 164.65L67.3885 160.955M47.2548 124.936V120.318L68.0997 124.85M47.2548 124.936V124.936C47.5582 132.825 45.9622 140.671 42.6012 147.815V147.815M47.2548 124.936L65.9883 127.707M47.2548 124.936C47.5582 132.825 45.9622 140.671 42.6012 147.815M68.0997 124.85L65.9883 127.707M65.9883 127.707V127.707C62.3004 133.576 61.3273 140.751 63.319 147.39L67.3885 160.955M36.4183 160.955H67.3885M36.4183 160.955L42.6012 147.815M17.7006 195.589L9.85032 186.123M17.7006 195.589L25.551 205.056M17.7006 195.589L73.1146 196.513L128.529 193.742M128.529 193.742L137.764 183.352M128.529 193.742L119.293 204.132M137.764 183.352L73.8073 186.584L9.85032 186.123M25.551 205.056L72.422 206.441L119.293 204.132M25.551 205.056L27.8614 207.842M119.293 204.132L115.568 208.323M42.0799 214.522H74.9618H101.762M42.0799 214.522C36.5824 214.522 31.3706 212.074 27.8614 207.842M42.0799 214.522H38.0997C35.1235 214.522 32.3019 213.197 30.4021 210.906L27.8614 207.842M64.9433 112.817C63.1761 110.923 60.4525 110.261 58.0134 111.133M64.9433 112.817V112.817C63.1761 110.923 60.4525 110.261 58.0134 111.133V111.133M58.0134 111.133C56.4429 111.694 54.7168 111.629 53.1929 110.951M58.0134 111.133V111.133C56.4429 111.694 54.7168 111.629 53.1929 110.951V110.951M53.1929 110.951L49.3984 109.265M49.3984 109.265C47.9761 108.633 46.4733 108.2 44.9326 107.98M49.3984 109.265V109.265C47.9762 108.633 46.4733 108.2 44.9326 107.98V107.98M44.9326 107.98L40.7898 107.389L43.7904 105.245M43.7904 105.245C45.9953 103.67 48.8014 103.114 51.4466 103.702M43.7904 105.245V105.245C45.9953 103.67 48.8014 103.114 51.4466 103.702V103.702M51.4466 103.702C54.0466 104.28 56.8049 103.734 58.9722 102.185M51.4466 103.702V103.702C54.0466 104.28 56.8048 103.734 58.9722 102.185V102.185M58.9722 102.185C60.9361 100.783 63.3649 100.19 65.7541 100.532M58.9722 102.185V102.185C60.9361 100.783 63.3649 100.19 65.7541 100.532V100.532M115.568 208.323C112.063 212.266 107.039 214.522 101.762 214.522M115.568 208.323L113.041 211.166C111.143 213.301 108.423 214.522 105.567 214.522H101.762" stroke="#574315"/>
<path d="M92.6667 130C91.1939 130 90 128.806 90 127.333V127.333C90 126.597 90.597 126 91.3333 126V126C92.8061 126 94 127.194 94 128.667V129.636C94 129.837 93.8372 130 93.6364 130H92.6667Z" fill="#EEEEEE"/>
<path d="M102 127.333C102 126.597 101.403 126 100.667 126V126C99.1939 126 98 127.194 98 128.667V129.636C98 129.837 98.1628 130 98.3636 130H99.3333C100.806 130 102 128.806 102 127.333V127.333Z" fill="#EEEEEE"/>
<path d="M96.8 133.6C96.4704 132.941 95.5296 132.941 95.2 133.6L94.5455 134.909C94.2442 135.512 94.4884 136.244 95.0909 136.545V136.545C95.6632 136.832 96.3368 136.832 96.9091 136.545V136.545C97.5116 136.244 97.7558 135.512 97.4545 134.909L96.8 133.6Z" fill="#EEEEEE"/>
<path d="M91 139L91.9564 136.131C91.9816 136.055 91.949 135.972 91.8789 135.934V135.934C86.7084 133.114 86.0775 125.938 90.6766 122.259L90.9435 122.045C93.9202 119.664 98.1308 119.598 101.18 121.885L101.381 122.036C106.26 125.695 105.582 133.209 100.127 135.936V135.936C100.054 135.973 100.019 136.058 100.045 136.135L101 139M91 139L90.3162 141.051C90.1416 141.575 90.4247 142.142 90.9487 142.316L95.6838 143.895C95.889 143.963 96.111 143.963 96.3162 143.895L101.051 142.316C101.575 142.142 101.858 141.575 101.684 141.051L101 139M91 139L94 140.2M101 139L98 140.2M94 138V140.2M94 141V140.2M98 138V140.2M98 141V140.2M96 138V142M94 140.2V140.2C95.2839 140.714 96.7161 140.714 98 140.2V140.2M96 147L85.5 143.5C84.9465 143.315 84.4462 143.892 84.7071 144.414V144.414C84.8915 144.783 84.8915 145.217 84.7071 145.586L84.5856 145.829C84.2998 146.4 84.6651 147.083 85.2994 147.162L91.2062 147.901C91.323 147.915 91.323 148.085 91.2062 148.099L85.2994 148.838C84.6651 148.917 84.2998 149.6 84.5856 150.171L84.7071 150.414C84.8915 150.783 84.8915 151.217 84.7071 151.586V151.586C84.4462 152.108 84.9465 152.685 85.5 152.5L96 149L106.5 152.5C107.054 152.685 107.554 152.108 107.293 151.586V151.586C107.109 151.217 107.109 150.783 107.293 150.414L107.414 150.171C107.7 149.6 107.335 148.917 106.701 148.838L100.794 148.099C100.677 148.085 100.677 147.915 100.794 147.901L106.701 147.162C107.335 147.083 107.7 146.4 107.414 145.829L107.293 145.586C107.109 145.217 107.109 144.783 107.293 144.414V144.414C107.554 143.892 107.054 143.315 106.5 143.5L96 147ZM95.0909 136.545V136.545C94.4884 136.244 94.2442 135.512 94.5455 134.909L95.2 133.6C95.5296 132.941 96.4704 132.941 96.8 133.6L97.4545 134.909C97.7558 135.512 97.5116 136.244 96.9091 136.545V136.545C96.3368 136.832 95.6632 136.832 95.0909 136.545ZM99.3333 130H98.3636C98.1628 130 98 129.837 98 129.636V128.667C98 127.194 99.1939 126 100.667 126V126C101.403 126 102 126.597 102 127.333V127.333C102 128.806 100.806 130 99.3333 130ZM91.3333 126V126C90.597 126 90 126.597 90 127.333V127.333C90 128.806 91.1939 130 92.6667 130H93.6364C93.8372 130 94 129.837 94 129.636V128.667C94 127.194 92.8061 126 91.3333 126Z" stroke="#202020"/>
<defs>
<filter id="filter0_i_77_679" x="98" y="134" width="150" height="54" filterUnits="userSpaceOnUse" color-interpolation-filters="sRGB">
<feFlood flood-opacity="0" result="BackgroundImageFix"/>
<feBlend mode="normal" in="SourceGraphic" in2="BackgroundImageFix" result="shape"/>
<feColorMatrix in="SourceAlpha" type="matrix" values="0 0 0 0 0 0 0 0 0 0 0 0 0 0 0 0 0 0 127 0" result="hardAlpha"/>
<feOffset dy="4"/>
<feGaussianBlur stdDeviation="25"/>
<feComposite in2="hardAlpha" operator="arithmetic" k2="-1" k3="1"/>
<feColorMatrix type="matrix" values="0 0 0 0 1 0 0 0 0 0.819608 0 0 0 0 0.4 0 0 0 0.5 0"/>
<feBlend mode="normal" in2="shape" result="effect1_innerShadow_77_679"/>
</filter>
</defs>
</svg>
