<svg xmlns="http://www.w3.org/2000/svg" xmlns:xlink="http://www.w3.org/1999/xlink" version="1.1" width="600" height="600" viewBox="0 0 600 600" xml:space="preserve">
<desc>Created with Fabric.js 5.2.4</desc>
<defs>
</defs>
<rect x="0" y="0" width="100%" height="100%" fill="#fff"></rect>
<g transform="matrix(1 0 0 1 285.5 335.7)"  >
<path style="stroke: rgb(0,0,0); stroke-width: 7; stroke-dasharray: none; stroke-linecap: round; stroke-dashoffset: 0; stroke-linejoin: round; stroke-miterlimit: 10; fill: none; fill-rule: nonzero; opacity: 1;"  transform=" translate(-285.5, -335.7)" d="M 204 415.20700076293946 Q 204 415.20000076293945 204 414.20000076293945 Q 204 413.20000076293945 204 412.70000076293945 Q 204 412.20000076293945 204 411.20000076293945 Q 204 410.20000076293945 204.5 409.20000076293945 Q 205 408.20000076293945 205 407.70000076293945 Q 205 407.20000076293945 205 405.70000076293945 Q 205 404.20000076293945 205 402.20000076293945 Q 205 400.20000076293945 205 399.20000076293945 Q 205 398.20000076293945 205 396.20000076293945 Q 205 394.20000076293945 205 392.20000076293945 Q 205 390.20000076293945 205 388.20000076293945 Q 205 386.20000076293945 205 385.20000076293945 Q 205 384.20000076293945 205 383.20000076293945 Q 205 382.20000076293945 205 379.70000076293945 Q 205 377.20000076293945 205 376.70000076293945 Q 205 376.20000076293945 206.5 372.70000076293945 Q 208 369.20000076293945 208.5 366.70000076293945 Q 209 364.20000076293945 209 362.20000076293945 Q 209 360.20000076293945 209 358.20000076293945 Q 209 356.20000076293945 209 355.70000076293945 Q 209 355.20000076293945 209 353.70000076293945 Q 209 352.20000076293945 209 350.70000076293945 Q 209 349.20000076293945 209 348.70000076293945 Q 209 348.20000076293945 209 347.70000076293945 Q 209 347.20000076293945 209 346.20000076293945 Q 209 345.20000076293945 209 344.70000076293945 Q 209 344.20000076293945 209 343.70000076293945 Q 209 343.20000076293945 209 342.20000076293945 Q 209 341.20000076293945 209 340.70000076293945 Q 209 340.20000076293945 209.5 339.70000076293945 Q 210 339.20000076293945 210 338.70000076293945 Q 210 338.20000076293945 210 337.20000076293945 Q 210 336.20000076293945 210.5 335.70000076293945 Q 211 335.20000076293945 211.5 333.70000076293945 Q 212 332.20000076293945 212 330.20000076293945 Q 212 328.20000076293945 212 327.70000076293945 Q 212 327.20000076293945 212.5 325.70000076293945 Q 213 324.20000076293945 213.5 323.20000076293945 Q 214 322.20000076293945 214.5 321.20000076293945 Q 215 320.20000076293945 215.5 319.20000076293945 Q 216 318.20000076293945 216 316.70000076293945 Q 216 315.20000076293945 216.5 315.20000076293945 Q 217 315.20000076293945 217.5 313.70000076293945 Q 218 312.20000076293945 218.5 311.20000076293945 Q 219 310.20000076293945 219.5 309.70000076293945 Q 220 309.20000076293945 221 308.20000076293945 Q 222 307.20000076293945 222.5 305.70000076293945 Q 223 304.20000076293945 223.5 303.70000076293945 Q 224 303.20000076293945 224.5 302.70000076293945 Q 225 302.20000076293945 226.5 300.20000076293945 Q 228 298.20000076293945 228 297.70000076293945 Q 228 297.20000076293945 228 296.70000076293945 Q 228 296.20000076293945 229.5 294.70000076293945 Q 231 293.20000076293945 232 291.70000076293945 Q 233 290.20000076293945 233.5 289.70000076293945 Q 234 289.20000076293945 235 288.20000076293945 Q 236 287.20000076293945 237 285.70000076293945 Q 238 284.20000076293945 238.5 284.20000076293945 Q 239 284.20000076293945 240 283.20000076293945 Q 241 282.20000076293945 242 281.20000076293945 Q 243 280.20000076293945 243.5 279.20000076293945 Q 244 278.20000076293945 244.5 277.20000076293945 Q 245 276.20000076293945 246 275.70000076293945 Q 247 275.20000076293945 247.5 274.20000076293945 Q 248 273.20000076293945 248 272.70000076293945 Q 248 272.20000076293945 249 271.70000076293945 Q 250 271.20000076293945 251 270.70000076293945 Q 252 270.20000076293945 252 269.70000076293945 Q 252 269.20000076293945 253 268.20000076293945 Q 254 267.20000076293945 255 266.70000076293945 Q 256 266.20000076293945 256.5 265.70000076293945 Q 257 265.20000076293945 258 264.70000076293945 Q 259 264.20000076293945 260 262.70000076293945 Q 261 261.20000076293945 261.5 261.20000076293945 Q 262 261.20000076293945 263 260.70000076293945 Q 264 260.20000076293945 265 259.70000076293945 Q 266 259.20000076293945 266.5 258.70000076293945 Q 267 258.20000076293945 267.5 258.20000076293945 Q 268 258.20000076293945 269 257.70000076293945 Q 270 257.20000076293945 271 256.70000076293945 Q 272 256.20000076293945 273 256.20000076293945 Q 274 256.20000076293945 274.5 256.20000076293945 Q 275 256.20000076293945 275.5 256.20000076293945 Q 276 256.20000076293945 276.5 256.20000076293945 Q 277 256.20000076293945 278.5 256.20000076293945 Q 280 256.20000076293945 280.5 256.20000076293945 Q 281 256.20000076293945 282 256.20000076293945 Q 283 256.20000076293945 283.5 256.20000076293945 Q 284 256.20000076293945 284.5 256.20000076293945 Q 285 256.20000076293945 286 256.20000076293945 Q 287 256.20000076293945 287.5 256.20000076293945 Q 288 256.20000076293945 288.5 256.20000076293945 Q 289 256.20000076293945 289.5 256.20000076293945 Q 290 256.20000076293945 290.5 256.20000076293945 Q 291 256.20000076293945 291.5 256.20000076293945 Q 292 256.20000076293945 292.5 256.20000076293945 Q 293 256.20000076293945 294 256.20000076293945 Q 295 256.20000076293945 295.5 256.70000076293945 Q 296 257.20000076293945 296.5 257.70000076293945 Q 297 258.20000076293945 298.5 259.20000076293945 Q 300 260.20000076293945 301 260.70000076293945 Q 302 261.20000076293945 303 262.70000076293945 Q 304 264.20000076293945 306 265.20000076293945 Q 308 266.20000076293945 309 267.20000076293945 Q 310 268.20000076293945 311 269.20000076293945 Q 312 270.20000076293945 313 271.20000076293945 Q 314 272.20000076293945 315 272.70000076293945 Q 316 273.20000076293945 317 273.20000076293945 Q 318 273.20000076293945 318 273.70000076293945 Q 318 274.20000076293945 318.5 274.20000076293945 Q 319 274.20000076293945 320 275.70000076293945 Q 321 277.20000076293945 321.5 277.70000076293945 Q 322 278.20000076293945 323 278.70000076293945 Q 324 279.20000076293945 325.5 281.20000076293945 Q 327 283.20000076293945 329.5 284.20000076293945 Q 332 285.20000076293945 332.5 286.20000076293945 Q 333 287.20000076293945 335 288.20000076293945 Q 337 289.20000076293945 339.5 291.20000076293945 Q 342 293.20000076293945 343 293.70000076293945 Q 344 294.20000076293945 345.5 295.20000076293945 Q 347 296.20000076293945 347.5 296.70000076293945 Q 348 297.20000076293945 349.5 298.70000076293945 Q 351 300.20000076293945 351.5 300.20000076293945 Q 352 300.20000076293945 352.5 300.70000076293945 Q 353 301.20000076293945 353.5 301.70000076293945 Q 354 302.20000076293945 354.5 303.20000076293945 Q 355 304.20000076293945 355.5 304.20000076293945 Q 356 304.20000076293945 356 305.20000076293945 Q 356 306.20000076293945 356.5 307.20000076293945 Q 357 308.20000076293945 357.5 308.20000076293945 Q 358 308.20000076293945 359 309.70000076293945 Q 360 311.20000076293945 360 312.20000076293945 Q 360 313.20000076293945 360 313.70000076293945 Q 360 314.20000076293945 360.5 315.20000076293945 Q 361 316.20000076293945 361 316.70000076293945 Q 361 317.20000076293945 361.5 318.20000076293945 Q 362 319.20000076293945 362 319.70000076293945 Q 362 320.20000076293945 362.5 321.70000076293945 Q 363 323.20000076293945 363.5 324.70000076293945 Q 364 326.20000076293945 364 326.70000076293945 Q 364 327.20000076293945 364 328.70000076293945 Q 364 330.20000076293945 364.5 331.20000076293945 Q 365 332.20000076293945 365.5 334.20000076293945 Q 366 336.20000076293945 366 337.20000076293945 Q 366 338.20000076293945 366.5 338.70000076293945 Q 367 339.20000076293945 367 340.20000076293945 Q 367 341.20000076293945 367 342.70000076293945 Q 367 344.20000076293945 367 345.20000076293945 Q 367 346.20000076293945 367 346.70000076293945 Q 367 347.20000076293945 367 347.70000076293945 Q 367 348.20000076293945 367 349.70000076293945 Q 367 351.20000076293945 367 351.70000076293945 Q 367 352.20000076293945 367 353.20000076293945 Q 367 354.20000076293945 367 355.20000076293945 Q 367 356.20000076293945 367 357.20000076293945 Q 367 358.20000076293945 367 359.20000076293945 Q 367 360.20000076293945 367 360.70000076293945 Q 367 361.20000076293945 367 361.70000076293945 Q 367 362.20000076293945 367 363.20000076293945 Q 367 364.20000076293945 367 364.70000076293945 Q 367 365.20000076293945 367 365.70000076293945 Q 367 366.20000076293945 367 366.70000076293945 Q 367 367.20000076293945 367 367.70000076293945 Q 367 368.20000076293945 367 369.20000076293945 Q 367 370.20000076293945 367 371.20000076293945 Q 367 372.20000076293945 367 373.70000076293945 Q 367 375.20000076293945 367 375.70000076293945 Q 367 376.20000076293945 367 376.70000076293945 Q 367 377.20000076293945 367 378.20000076293945 Q 367 379.20000076293945 367 379.70000076293945 Q 367 380.20000076293945 367 380.70000076293945 Q 367 381.20000076293945 367 381.70000076293945 Q 367 382.20000076293945 367 383.20000076293945 Q 367 384.20000076293945 367 385.20000076293945 Q 367 386.20000076293945 367 386.70000076293945 Q 367 387.20000076293945 366.5 387.70000076293945 Q 366 388.20000076293945 366 388.70000076293945 Q 366 389.20000076293945 366 389.70000076293945 Q 366 390.20000076293945 366 390.70000076293945 Q 366 391.20000076293945 365.5 391.70000076293945 Q 365 392.20000076293945 365 393.20000076293945 L 365 394.20700076293946" stroke-linecap="round" />
</g>
<g transform="matrix(1 0 0 1 313.5 365.2)"  >
<path style="stroke: rgb(0,0,0); stroke-width: 7; stroke-dasharray: none; stroke-linecap: round; stroke-dashoffset: 0; stroke-linejoin: round; stroke-miterlimit: 10; fill: none; fill-rule: nonzero; opacity: 1;"  transform=" translate(-313.5, -365.2)" d="M 202.993 410.20700076293946 Q 203 410.20000076293945 203.5 410.20000076293945 Q 204 410.20000076293945 204.5 409.20000076293945 Q 205 408.20000076293945 206 406.20000076293945 Q 207 404.20000076293945 207.5 403.20000076293945 Q 208 402.20000076293945 209 401.20000076293945 Q 210 400.20000076293945 210.5 399.20000076293945 Q 211 398.20000076293945 211.5 396.70000076293945 Q 212 395.20000076293945 213 393.70000076293945 Q 214 392.20000076293945 215 392.20000076293945 Q 216 392.20000076293945 216.5 390.20000076293945 Q 217 388.20000076293945 217.5 387.20000076293945 Q 218 386.20000076293945 218.5 385.20000076293945 Q 219 384.20000076293945 219.5 383.20000076293945 Q 220 382.20000076293945 220.5 381.20000076293945 Q 221 380.20000076293945 221.5 380.20000076293945 Q 222 380.20000076293945 223 378.70000076293945 Q 224 377.20000076293945 224 376.70000076293945 Q 224 376.20000076293945 224 375.70000076293945 Q 224 375.20000076293945 224 374.20000076293945 Q 224 373.20000076293945 225 372.70000076293945 Q 226 372.20000076293945 226 371.70000076293945 Q 226 371.20000076293945 227 370.20000076293945 Q 228 369.20000076293945 228 368.20000076293945 Q 228 367.20000076293945 228 366.70000076293945 Q 228 366.20000076293945 229 365.20000076293945 Q 230 364.20000076293945 230.5 363.20000076293945 Q 231 362.20000076293945 231.5 361.20000076293945 Q 232 360.20000076293945 232.5 359.70000076293945 Q 233 359.20000076293945 234 357.70000076293945 Q 235 356.20000076293945 235.5 355.20000076293945 Q 236 354.20000076293945 236.5 353.20000076293945 Q 237 352.20000076293945 238 351.70000076293945 Q 239 351.20000076293945 239.5 350.70000076293945 Q 240 350.20000076293945 240.5 349.20000076293945 Q 241 348.20000076293945 242 347.20000076293945 Q 243 346.20000076293945 243.5 345.20000076293945 Q 244 344.20000076293945 244.5 343.20000076293945 Q 245 342.20000076293945 245.5 341.20000076293945 Q 246 340.20000076293945 246.5 339.70000076293945 Q 247 339.20000076293945 247.5 337.70000076293945 Q 248 336.20000076293945 249 335.20000076293945 Q 250 334.20000076293945 251 333.20000076293945 Q 252 332.20000076293945 252.5 330.70000076293945 Q 253 329.20000076293945 253.5 328.20000076293945 Q 254 327.20000076293945 254.5 326.70000076293945 Q 255 326.20000076293945 255.5 325.20000076293945 Q 256 324.20000076293945 256 323.70000076293945 Q 256 323.20000076293945 256.5 322.20000076293945 Q 257 321.20000076293945 257.5 320.70000076293945 Q 258 320.20000076293945 258 319.70000076293945 Q 258 319.20000076293945 258 318.70000076293945 Q 258 318.20000076293945 259 318.20000076293945 Q 260 318.20000076293945 262 318.20000076293945 Q 264 318.20000076293945 267 318.20000076293945 Q 270 318.20000076293945 273 318.20000076293945 Q 276 318.20000076293945 277.5 317.70000076293945 Q 279 317.20000076293945 281.5 317.20000076293945 Q 284 317.20000076293945 286.5 317.20000076293945 Q 289 317.20000076293945 290.5 317.20000076293945 Q 292 317.20000076293945 294.5 317.20000076293945 Q 297 317.20000076293945 301 317.20000076293945 Q 305 317.20000076293945 308 316.70000076293945 Q 311 316.20000076293945 312.5 316.20000076293945 Q 314 316.20000076293945 316.5 316.20000076293945 Q 319 316.20000076293945 321.5 316.20000076293945 Q 324 316.20000076293945 325.5 315.70000076293945 Q 327 315.20000076293945 329.5 315.20000076293945 Q 332 315.20000076293945 333.5 315.20000076293945 Q 335 315.20000076293945 335.5 315.20000076293945 Q 336 315.20000076293945 337 315.20000076293945 Q 338 315.20000076293945 339 315.20000076293945 Q 340 315.20000076293945 341 315.20000076293945 Q 342 315.20000076293945 343 314.70000076293945 Q 344 314.20000076293945 346 314.20000076293945 Q 348 314.20000076293945 349 314.20000076293945 Q 350 314.20000076293945 351.5 314.20000076293945 Q 353 314.20000076293945 356 314.20000076293945 Q 359 314.20000076293945 361.5 314.20000076293945 Q 364 314.20000076293945 365.5 314.20000076293945 Q 367 314.20000076293945 369.5 314.20000076293945 Q 372 314.20000076293945 374.5 314.20000076293945 Q 377 314.20000076293945 378 314.20000076293945 Q 379 314.20000076293945 381 314.20000076293945 Q 383 314.20000076293945 384 314.20000076293945 Q 385 314.20000076293945 386 314.20000076293945 Q 387 314.20000076293945 387.5 314.20000076293945 Q 388 314.20000076293945 389 314.20000076293945 Q 390 314.20000076293945 390.5 314.20000076293945 Q 391 314.20000076293945 392.5 314.20000076293945 Q 394 314.20000076293945 397 314.20000076293945 Q 400 314.20000076293945 401 314.20000076293945 Q 402 314.20000076293945 403.5 314.20000076293945 Q 405 314.20000076293945 408.5 314.20000076293945 Q 412 314.20000076293945 414 314.20000076293945 Q 416 314.20000076293945 417.5 314.20000076293945 Q 419 314.20000076293945 421 314.20000076293945 Q 423 314.20000076293945 424.5 314.20000076293945 Q 426 314.20000076293945 426.5 314.20000076293945 Q 427 314.20000076293945 427.5 314.20000076293945 Q 428 314.20000076293945 428 315.20000076293945 Q 428 316.20000076293945 427.5 317.70000076293945 Q 427 319.20000076293945 426.5 319.70000076293945 Q 426 320.20000076293945 425 321.20000076293945 Q 424 322.20000076293945 424 323.70000076293945 Q 424 325.20000076293945 423.5 326.70000076293945 Q 423 328.20000076293945 422 328.20000076293945 Q 421 328.20000076293945 421 329.20000076293945 Q 421 330.20000076293945 420.5 331.20000076293945 Q 420 332.20000076293945 419.5 332.70000076293945 Q 419 333.20000076293945 418.5 334.70000076293945 Q 418 336.20000076293945 417.5 336.20000076293945 Q 417 336.20000076293945 416.5 336.70000076293945 Q 416 337.20000076293945 415.5 338.70000076293945 Q 415 340.20000076293945 414.5 340.70000076293945 Q 414 341.20000076293945 413.5 341.70000076293945 Q 413 342.20000076293945 412.5 343.20000076293945 Q 412 344.20000076293945 411.5 344.70000076293945 Q 411 345.20000076293945 410.5 346.20000076293945 Q 410 347.20000076293945 409.5 347.70000076293945 Q 409 348.20000076293945 408.5 349.70000076293945 Q 408 351.20000076293945 407 351.70000076293945 Q 406 352.20000076293945 405 353.20000076293945 Q 404 354.20000076293945 404 355.20000076293945 Q 404 356.20000076293945 403.5 357.20000076293945 Q 403 358.20000076293945 402.5 358.70000076293945 Q 402 359.20000076293945 401.5 359.70000076293945 Q 401 360.20000076293945 400.5 361.70000076293945 Q 400 363.20000076293945 399.5 363.70000076293945 Q 399 364.20000076293945 398.5 364.20000076293945 Q 398 364.20000076293945 397.5 365.20000076293945 Q 397 366.20000076293945 397 366.70000076293945 Q 397 367.20000076293945 396.5 367.20000076293945 Q 396 367.20000076293945 396 367.70000076293945 Q 396 368.20000076293945 395.5 368.70000076293945 Q 395 369.20000076293945 394.5 370.20000076293945 Q 394 371.20000076293945 393.5 371.70000076293945 Q 393 372.20000076293945 392.5 372.20000076293945 Q 392 372.20000076293945 392 372.70000076293945 Q 392 373.20000076293945 391.5 374.20000076293945 Q 391 375.20000076293945 390 375.20000076293945 Q 389 375.20000076293945 389 375.70000076293945 Q 389 376.20000076293945 388.5 377.20000076293945 Q 388 378.20000076293945 388 378.70000076293945 Q 388 379.20000076293945 387 379.70000076293945 Q 386 380.20000076293945 386 380.70000076293945 Q 386 381.20000076293945 385.5 381.70000076293945 Q 385 382.20000076293945 384.5 382.70000076293945 Q 384 383.20000076293945 384 383.70000076293945 Q 384 384.20000076293945 383.5 384.20000076293945 Q 383 384.20000076293945 382.5 384.70000076293945 Q 382 385.20000076293945 382 385.70000076293945 Q 382 386.20000076293945 381.5 386.20000076293945 Q 381 386.20000076293945 380.5 387.20000076293945 Q 380 388.20000076293945 380 388.70000076293945 Q 380 389.20000076293945 379.5 389.20000076293945 Q 379 389.20000076293945 379 389.70000076293945 Q 379 390.20000076293945 378.5 390.70000076293945 Q 378 391.20000076293945 377.5 391.20000076293945 Q 377 391.20000076293945 376.5 391.70000076293945 Q 376 392.20000076293945 375.5 392.20000076293945 Q 375 392.20000076293945 374.5 392.20000076293945 Q 374 392.20000076293945 373.5 392.20000076293945 Q 373 392.20000076293945 372.5 392.20000076293945 Q 372 392.20000076293945 371.5 392.20000076293945 Q 371 392.20000076293945 370.5 392.20000076293945 Q 370 392.20000076293945 369.5 392.20000076293945 Q 369 392.20000076293945 368.5 392.20000076293945 Q 368 392.20000076293945 367.5 392.20000076293945 Q 367 392.20000076293945 364.5 392.20000076293945 Q 362 392.20000076293945 361 392.20000076293945 Q 360 392.20000076293945 358.5 392.70000076293945 Q 357 393.20000076293945 356.5 393.20000076293945 Q 356 393.20000076293945 355.5 393.20000076293945 Q 355 393.20000076293945 353.5 393.20000076293945 Q 352 393.20000076293945 351 393.20000076293945 Q 350 393.20000076293945 349 393.20000076293945 Q 348 393.20000076293945 346.5 393.20000076293945 Q 345 393.20000076293945 344.5 393.20000076293945 Q 344 393.20000076293945 342 393.20000076293945 Q 340 393.20000076293945 338.5 393.20000076293945 Q 337 393.20000076293945 336.5 393.70000076293945 Q 336 394.20000076293945 334.5 394.20000076293945 Q 333 394.20000076293945 331.5 394.70000076293945 Q 330 395.20000076293945 328.5 395.20000076293945 Q 327 395.20000076293945 326.5 395.20000076293945 Q 326 395.20000076293945 324.5 395.70000076293945 Q 323 396.20000076293945 321.5 396.20000076293945 Q 320 396.20000076293945 319 396.20000076293945 Q 318 396.20000076293945 317 396.70000076293945 Q 316 397.20000076293945 315.5 397.20000076293945 Q 315 397.20000076293945 314.5 397.20000076293945 Q 314 397.20000076293945 313.5 397.20000076293945 Q 313 397.20000076293945 312.5 397.20000076293945 Q 312 397.20000076293945 311.5 397.70000076293945 Q 311 398.20000076293945 310 398.20000076293945 Q 309 398.20000076293945 308.5 398.70000076293945 Q 308 399.20000076293945 307.5 399.20000076293945 Q 307 399.20000076293945 306 399.20000076293945 Q 305 399.20000076293945 304.5 399.20000076293945 Q 304 399.20000076293945 303.5 399.20000076293945 Q 303 399.20000076293945 302 399.20000076293945 Q 301 399.20000076293945 300.5 399.20000076293945 Q 300 399.20000076293945 298.5 399.20000076293945 Q 297 399.20000076293945 296.5 399.20000076293945 Q 296 399.20000076293945 295.5 399.20000076293945 Q 295 399.20000076293945 293.5 399.20000076293945 Q 292 399.20000076293945 291 399.20000076293945 Q 290 399.20000076293945 288 399.20000076293945 Q 286 399.20000076293945 284.5 399.20000076293945 Q 283 399.20000076293945 281.5 399.20000076293945 Q 280 399.20000076293945 278.5 399.20000076293945 Q 277 399.20000076293945 276 399.20000076293945 Q 275 399.20000076293945 273 399.70000076293945 Q 271 400.20000076293945 269.5 400.20000076293945 Q 268 400.20000076293945 266.5 400.20000076293945 Q 265 400.20000076293945 264 400.20000076293945 Q 263 400.20000076293945 262 400.20000076293945 Q 261 400.20000076293945 260.5 400.20000076293945 Q 260 400.20000076293945 259.5 400.20000076293945 Q 259 400.20000076293945 258.5 400.20000076293945 Q 258 400.20000076293945 257 400.20000076293945 Q 256 400.20000076293945 255.5 400.70000076293945 Q 255 401.20000076293945 254 401.70000076293945 Q 253 402.20000076293945 252.5 402.70000076293945 Q 252 403.20000076293945 251.5 403.20000076293945 Q 251 403.20000076293945 250 403.70000076293945 Q 249 404.20000076293945 248 404.20000076293945 Q 247 404.20000076293945 246.5 404.20000076293945 Q 246 404.20000076293945 245 404.20000076293945 Q 244 404.20000076293945 243.5 404.20000076293945 Q 243 404.20000076293945 242.5 404.20000076293945 Q 242 404.20000076293945 241.5 404.20000076293945 Q 241 404.20000076293945 240.5 404.70000076293945 Q 240 405.20000076293945 240 405.70000076293945 Q 240 406.20000076293945 239.5 406.20000076293945 Q 239 406.20000076293945 238 406.20000076293945 Q 237 406.20000076293945 237 406.70000076293945 Q 237 407.20000076293945 236.5 407.20000076293945 Q 236 407.20000076293945 235.5 407.20000076293945 Q 235 407.20000076293945 235 407.70000076293945 Q 235 408.20000076293945 234.5 408.20000076293945 Q 234 408.20000076293945 233.5 408.20000076293945 Q 233 408.20000076293945 232.5 408.20000076293945 Q 232 408.20000076293945 231.5 408.70000076293945 Q 231 409.20000076293945 230 409.70000076293945 Q 229 410.20000076293945 228.5 410.20000076293945 Q 228 410.20000076293945 228 410.70000076293945 Q 228 411.20000076293945 227 411.20000076293945 Q 226 411.20000076293945 225.5 411.20000076293945 Q 225 411.20000076293945 224.5 411.70000076293945 Q 224 412.20000076293945 223.5 412.20000076293945 Q 223 412.20000076293945 222.5 412.20000076293945 Q 222 412.20000076293945 221 412.20000076293945 Q 220 412.20000076293945 219.5 412.20000076293945 Q 219 412.20000076293945 218.5 412.70000076293945 Q 218 413.20000076293945 217.5 413.20000076293945 Q 217 413.20000076293945 216.5 413.20000076293945 Q 216 413.20000076293945 215.5 413.20000076293945 Q 215 413.20000076293945 214.5 413.20000076293945 Q 214 413.20000076293945 213.5 413.20000076293945 Q 213 413.20000076293945 212.5 413.70000076293945 Q 212 414.20000076293945 211.5 414.70000076293945 Q 211 415.20000076293945 210.5 415.20000076293945 Q 210 415.20000076293945 209.5 415.20000076293945 Q 209 415.20000076293945 208.5 415.20000076293945 Q 208 415.20000076293945 207.5 415.20000076293945 Q 207 415.20000076293945 206.5 415.20000076293945 Q 206 415.20000076293945 205.5 415.20000076293945 Q 205 415.20000076293945 204.5 415.70000076293945 Q 204 416.20000076293945 203.5 416.20000076293945 Q 203 416.20000076293945 202.5 416.20000076293945 Q 202 416.20000076293945 201.5 416.20000076293945 Q 201 416.20000076293945 200 416.20000076293945 L 198.993 416.20000076293945" stroke-linecap="round" />
</g>
</svg>