<svg xmlns="http://www.w3.org/2000/svg" xmlns:xlink="http://www.w3.org/1999/xlink" version="1.1" width="600" height="600" viewBox="0 0 600 600" xml:space="preserve">
<desc>Created with Fabric.js 5.2.4</desc>
<defs>
</defs>
<rect x="0" y="0" width="100%" height="100%" fill="#fff"></rect>
<g transform="matrix(1 0 0 1 307.5 481.2)"  >
<path style="stroke: rgb(0,0,0); stroke-width: 7; stroke-dasharray: none; stroke-linecap: round; stroke-dashoffset: 0; stroke-linejoin: round; stroke-miterlimit: 10; fill: none; fill-rule: nonzero; opacity: 1;"  transform=" translate(-307.5, -481.2)" d="M 111.993 484.20000076293945 Q 112 484.20000076293945 113 484.20000076293945 Q 114 484.20000076293945 116.5 484.20000076293945 Q 119 484.20000076293945 119.5 484.20000076293945 Q 120 484.20000076293945 122 484.20000076293945 Q 124 484.20000076293945 127 484.20000076293945 Q 130 484.20000076293945 132 484.20000076293945 Q 134 484.20000076293945 135 484.20000076293945 Q 136 484.20000076293945 138 484.20000076293945 Q 140 484.20000076293945 142 484.20000076293945 Q 144 484.20000076293945 144.5 484.20000076293945 Q 145 484.20000076293945 147 484.20000076293945 Q 149 484.20000076293945 150.5 484.20000076293945 Q 152 484.20000076293945 153 484.20000076293945 Q 154 484.20000076293945 155 484.20000076293945 Q 156 484.20000076293945 158 484.20000076293945 Q 160 484.20000076293945 161 484.20000076293945 Q 162 484.20000076293945 163.5 484.20000076293945 Q 165 484.20000076293945 166.5 484.20000076293945 Q 168 484.20000076293945 169 484.20000076293945 Q 170 484.20000076293945 172.5 484.20000076293945 Q 175 484.20000076293945 177.5 483.70000076293945 Q 180 483.20000076293945 183 483.20000076293945 Q 186 483.20000076293945 187 483.20000076293945 Q 188 483.20000076293945 190.5 483.20000076293945 Q 193 483.20000076293945 196 483.20000076293945 Q 199 483.20000076293945 200 483.20000076293945 Q 201 483.20000076293945 203 482.70000076293945 Q 205 482.20000076293945 207 482.20000076293945 Q 209 482.20000076293945 209.5 482.20000076293945 Q 210 482.20000076293945 212 482.20000076293945 Q 214 482.20000076293945 216.5 482.20000076293945 Q 219 482.20000076293945 221 482.20000076293945 Q 223 482.20000076293945 223.5 482.20000076293945 Q 224 482.20000076293945 226 482.20000076293945 Q 228 482.20000076293945 232.5 481.70000076293945 Q 237 481.20000076293945 238.5 481.20000076293945 Q 240 481.20000076293945 242 481.20000076293945 Q 244 481.20000076293945 246.5 481.20000076293945 Q 249 481.20000076293945 250 481.20000076293945 Q 251 481.20000076293945 252 481.20000076293945 Q 253 481.20000076293945 254.5 481.20000076293945 Q 256 481.20000076293945 257.5 481.20000076293945 Q 259 481.20000076293945 260.5 481.20000076293945 Q 262 481.20000076293945 263 481.20000076293945 Q 264 481.20000076293945 266 481.20000076293945 Q 268 481.20000076293945 268.5 481.20000076293945 Q 269 481.20000076293945 270.5 481.20000076293945 Q 272 481.20000076293945 273.5 481.20000076293945 Q 275 481.20000076293945 276 481.20000076293945 Q 277 481.20000076293945 280.5 481.20000076293945 Q 284 481.20000076293945 286 481.20000076293945 Q 288 481.20000076293945 290 481.20000076293945 Q 292 481.20000076293945 294.5 481.20000076293945 Q 297 481.20000076293945 298 481.20000076293945 Q 299 481.20000076293945 300.5 481.20000076293945 Q 302 481.20000076293945 304 481.20000076293945 Q 306 481.20000076293945 308 481.20000076293945 Q 310 481.20000076293945 311 481.20000076293945 Q 312 481.20000076293945 314 481.20000076293945 Q 316 481.20000076293945 318 481.20000076293945 Q 320 481.20000076293945 320.5 481.20000076293945 Q 321 481.20000076293945 324 481.20000076293945 Q 327 481.20000076293945 329.5 481.20000076293945 Q 332 481.20000076293945 333 481.20000076293945 Q 334 481.20000076293945 337 481.20000076293945 Q 340 481.20000076293945 342 481.20000076293945 Q 344 481.20000076293945 344.5 481.20000076293945 Q 345 481.20000076293945 346.5 481.20000076293945 Q 348 481.20000076293945 350.5 481.20000076293945 Q 353 481.20000076293945 355.5 481.20000076293945 Q 358 481.20000076293945 359 481.20000076293945 Q 360 481.20000076293945 362 481.20000076293945 Q 364 481.20000076293945 366.5 481.20000076293945 Q 369 481.20000076293945 370.5 481.20000076293945 Q 372 481.20000076293945 374 481.20000076293945 Q 376 481.20000076293945 379 481.20000076293945 Q 382 481.20000076293945 383 481.20000076293945 Q 384 481.20000076293945 386 481.20000076293945 Q 388 481.20000076293945 391.5 481.20000076293945 Q 395 481.20000076293945 397 481.20000076293945 Q 399 481.20000076293945 400 481.20000076293945 Q 401 481.20000076293945 402.5 481.20000076293945 Q 404 481.20000076293945 404.5 481.20000076293945 Q 405 481.20000076293945 406.5 481.20000076293945 Q 408 481.20000076293945 410 481.20000076293945 Q 412 481.20000076293945 412.5 481.20000076293945 Q 413 481.20000076293945 415 481.20000076293945 Q 417 481.20000076293945 420 481.20000076293945 Q 423 481.20000076293945 424 481.20000076293945 Q 425 481.20000076293945 426.5 481.20000076293945 Q 428 481.20000076293945 430 481.20000076293945 Q 432 481.20000076293945 432.5 481.20000076293945 Q 433 481.20000076293945 433.5 481.20000076293945 Q 434 481.20000076293945 435 481.20000076293945 Q 436 481.20000076293945 436.5 481.20000076293945 Q 437 481.20000076293945 438.5 481.20000076293945 Q 440 481.20000076293945 440.5 481.20000076293945 Q 441 481.20000076293945 441.5 481.20000076293945 Q 442 481.20000076293945 444 481.20000076293945 Q 446 481.20000076293945 447.5 481.20000076293945 Q 449 481.20000076293945 450.5 481.20000076293945 Q 452 481.20000076293945 452.5 481.20000076293945 Q 453 481.20000076293945 455 481.20000076293945 Q 457 481.20000076293945 458 481.20000076293945 Q 459 481.20000076293945 460 481.20000076293945 Q 461 481.20000076293945 461.5 481.20000076293945 Q 462 481.20000076293945 462.5 480.70000076293945 Q 463 480.20000076293945 463.5 480.20000076293945 Q 464 480.20000076293945 465 480.20000076293945 Q 466 480.20000076293945 467 480.20000076293945 Q 468 480.20000076293945 469.5 480.20000076293945 Q 471 480.20000076293945 472 480.20000076293945 Q 473 480.20000076293945 474 480.20000076293945 Q 475 480.20000076293945 475.5 480.20000076293945 Q 476 480.20000076293945 476.5 480.20000076293945 Q 477 480.20000076293945 477.5 480.20000076293945 Q 478 480.20000076293945 479 480.20000076293945 Q 480 480.20000076293945 482 480.20000076293945 Q 484 480.20000076293945 484.5 480.20000076293945 Q 485 480.20000076293945 486.5 479.70000076293945 Q 488 479.20000076293945 489.5 479.20000076293945 Q 491 479.20000076293945 491.5 479.20000076293945 Q 492 479.20000076293945 494.5 479.20000076293945 Q 497 479.20000076293945 498.5 479.20000076293945 Q 500 479.20000076293945 500.5 478.70000076293945 Q 501 478.20000076293945 502 478.20000076293945 L 503.007 478.20000076293945" stroke-linecap="round" />
</g>
<g transform="matrix(1 0 0 1 315 374.2)"  >
<path style="stroke: rgb(0,0,0); stroke-width: 7; stroke-dasharray: none; stroke-linecap: round; stroke-dashoffset: 0; stroke-linejoin: round; stroke-miterlimit: 10; fill: none; fill-rule: nonzero; opacity: 1;"  transform=" translate(-315, -374.2)" d="M 437 480.20700076293946 Q 437 480.20000076293945 437 479.20000076293945 Q 437 478.20000076293945 437 477.20000076293945 Q 437 476.20000076293945 437 474.70000076293945 Q 437 473.20000076293945 437 472.70000076293945 Q 437 472.20000076293945 437 470.20000076293945 Q 437 468.20000076293945 437 467.20000076293945 Q 437 466.20000076293945 436.5 463.70000076293945 Q 436 461.20000076293945 436 460.70000076293945 Q 436 460.20000076293945 436 458.20000076293945 Q 436 456.20000076293945 435.5 454.20000076293945 Q 435 452.20000076293945 435 451.20000076293945 Q 435 450.20000076293945 435 448.20000076293945 Q 435 446.20000076293945 434.5 443.70000076293945 Q 434 441.20000076293945 434 439.20000076293945 Q 434 437.20000076293945 433.5 436.20000076293945 Q 433 435.20000076293945 433 432.70000076293945 Q 433 430.20000076293945 433 428.70000076293945 Q 433 427.20000076293945 432.5 426.70000076293945 Q 432 426.20000076293945 432 424.70000076293945 Q 432 423.20000076293945 432 421.70000076293945 Q 432 420.20000076293945 432 419.20000076293945 Q 432 418.20000076293945 432 417.20000076293945 Q 432 416.20000076293945 431.5 414.70000076293945 Q 431 413.20000076293945 431 412.70000076293945 Q 431 412.20000076293945 431 410.70000076293945 Q 431 409.20000076293945 431 408.20000076293945 Q 431 407.20000076293945 431 406.20000076293945 Q 431 405.20000076293945 431 404.20000076293945 Q 431 403.20000076293945 431 401.70000076293945 Q 431 400.20000076293945 430.5 399.70000076293945 Q 430 399.20000076293945 430 398.20000076293945 Q 430 397.20000076293945 430 396.70000076293945 Q 430 396.20000076293945 430 394.70000076293945 Q 430 393.20000076293945 430 392.70000076293945 Q 430 392.20000076293945 429.5 391.70000076293945 Q 429 391.20000076293945 429 389.70000076293945 Q 429 388.20000076293945 429 387.20000076293945 Q 429 386.20000076293945 428.5 385.20000076293945 Q 428 384.20000076293945 428 383.20000076293945 Q 428 382.20000076293945 428 381.20000076293945 Q 428 380.20000076293945 428 378.70000076293945 Q 428 377.20000076293945 428 376.70000076293945 Q 428 376.20000076293945 428 374.70000076293945 Q 428 373.20000076293945 428 372.20000076293945 Q 428 371.20000076293945 428 369.70000076293945 Q 428 368.20000076293945 428 367.20000076293945 Q 428 366.20000076293945 428 365.20000076293945 Q 428 364.20000076293945 428 363.70000076293945 Q 428 363.20000076293945 428 361.70000076293945 Q 428 360.20000076293945 428 359.20000076293945 Q 428 358.20000076293945 428 357.20000076293945 Q 428 356.20000076293945 428 354.70000076293945 Q 428 353.20000076293945 428 352.70000076293945 Q 428 352.20000076293945 428 351.20000076293945 Q 428 350.20000076293945 428 349.20000076293945 Q 428 348.20000076293945 428 346.70000076293945 Q 428 345.20000076293945 428 344.70000076293945 Q 428 344.20000076293945 428 342.70000076293945 Q 428 341.20000076293945 428 340.20000076293945 Q 428 339.20000076293945 428 337.70000076293945 Q 428 336.20000076293945 428 335.70000076293945 Q 428 335.20000076293945 428 333.70000076293945 Q 428 332.20000076293945 428 331.70000076293945 Q 428 331.20000076293945 428 330.20000076293945 Q 428 329.20000076293945 428 328.70000076293945 Q 428 328.20000076293945 428 326.70000076293945 Q 428 325.20000076293945 428 324.70000076293945 Q 428 324.20000076293945 428 323.70000076293945 Q 428 323.20000076293945 428 321.70000076293945 Q 428 320.20000076293945 428 319.70000076293945 Q 428 319.20000076293945 428 318.20000076293945 Q 428 317.20000076293945 427.5 316.20000076293945 Q 427 315.20000076293945 427 313.70000076293945 Q 427 312.20000076293945 426.5 310.70000076293945 Q 426 309.20000076293945 426 308.20000076293945 Q 426 307.20000076293945 426 306.70000076293945 Q 426 306.20000076293945 425.5 304.70000076293945 Q 425 303.20000076293945 425 301.70000076293945 Q 425 300.20000076293945 424.5 299.70000076293945 Q 424 299.20000076293945 424 297.70000076293945 Q 424 296.20000076293945 424 294.70000076293945 Q 424 293.20000076293945 424 292.70000076293945 Q 424 292.20000076293945 424 289.70000076293945 Q 424 287.20000076293945 423.5 285.70000076293945 Q 423 284.20000076293945 422.5 283.70000076293945 Q 422 283.20000076293945 421.5 282.20000076293945 Q 421 281.20000076293945 421 280.70000076293945 Q 421 280.20000076293945 421 279.70000076293945 Q 421 279.20000076293945 420.5 278.70000076293945 Q 420 278.20000076293945 420 277.70000076293945 Q 420 277.20000076293945 420 276.70000076293945 Q 420 276.20000076293945 420 275.70000076293945 Q 420 275.20000076293945 420 274.70000076293945 Q 420 274.20000076293945 420 273.70000076293945 Q 420 273.20000076293945 420 272.70000076293945 Q 420 272.20000076293945 419.5 272.20000076293945 Q 419 272.20000076293945 418.5 272.20000076293945 Q 418 272.20000076293945 417.5 272.20000076293945 Q 417 272.20000076293945 416 271.70000076293945 Q 415 271.20000076293945 413.5 271.20000076293945 Q 412 271.20000076293945 410.5 270.70000076293945 Q 409 270.20000076293945 408 270.20000076293945 Q 407 270.20000076293945 405.5 269.70000076293945 Q 404 269.20000076293945 403 269.20000076293945 Q 402 269.20000076293945 400 268.70000076293945 Q 398 268.20000076293945 396 268.20000076293945 Q 394 268.20000076293945 393 268.20000076293945 Q 392 268.20000076293945 390.5 268.20000076293945 Q 389 268.20000076293945 386.5 268.20000076293945 Q 384 268.20000076293945 381.5 268.20000076293945 Q 379 268.20000076293945 376.5 268.20000076293945 Q 374 268.20000076293945 371.5 268.20000076293945 Q 369 268.20000076293945 366 268.20000076293945 Q 363 268.20000076293945 358 268.20000076293945 Q 353 268.20000076293945 349 268.20000076293945 Q 345 268.20000076293945 344.5 268.20000076293945 Q 344 268.20000076293945 342 268.20000076293945 Q 340 268.20000076293945 338 268.70000076293945 Q 336 269.20000076293945 335 269.20000076293945 Q 334 269.20000076293945 331.5 269.20000076293945 Q 329 269.20000076293945 326.5 269.20000076293945 Q 324 269.20000076293945 322.5 269.70000076293945 Q 321 270.20000076293945 318 270.20000076293945 Q 315 270.20000076293945 310.5 270.70000076293945 Q 306 271.20000076293945 304.5 271.20000076293945 Q 303 271.20000076293945 299.5 271.70000076293945 Q 296 272.20000076293945 290 272.20000076293945 Q 284 272.20000076293945 283 272.20000076293945 Q 282 272.20000076293945 279 272.20000076293945 Q 276 272.20000076293945 272 272.20000076293945 Q 268 272.20000076293945 266.5 272.20000076293945 Q 265 272.20000076293945 262.5 272.20000076293945 Q 260 272.20000076293945 258 272.20000076293945 Q 256 272.20000076293945 254.5 272.20000076293945 Q 253 272.20000076293945 252.5 272.20000076293945 Q 252 272.20000076293945 251 272.20000076293945 Q 250 272.20000076293945 249 272.20000076293945 Q 248 272.20000076293945 247.5 272.20000076293945 Q 247 272.20000076293945 245.5 272.20000076293945 Q 244 272.20000076293945 242.5 272.20000076293945 Q 241 272.20000076293945 240.5 272.20000076293945 Q 240 272.20000076293945 238 272.20000076293945 Q 236 272.20000076293945 234.5 272.20000076293945 Q 233 272.20000076293945 232.5 272.20000076293945 Q 232 272.20000076293945 230.5 272.20000076293945 Q 229 272.20000076293945 227.5 272.20000076293945 Q 226 272.20000076293945 225 272.20000076293945 Q 224 272.20000076293945 223 272.20000076293945 Q 222 272.20000076293945 221 272.20000076293945 Q 220 272.20000076293945 219.5 272.20000076293945 Q 219 272.20000076293945 218 272.20000076293945 Q 217 272.20000076293945 216.5 272.20000076293945 Q 216 272.20000076293945 214.5 272.20000076293945 Q 213 272.20000076293945 212.5 272.20000076293945 Q 212 272.20000076293945 211.5 272.20000076293945 Q 211 272.20000076293945 209.5 272.20000076293945 Q 208 272.20000076293945 207.5 272.20000076293945 Q 207 272.20000076293945 205.5 272.20000076293945 Q 204 272.20000076293945 202.5 272.20000076293945 Q 201 272.20000076293945 200.5 272.20000076293945 Q 200 272.20000076293945 199 272.20000076293945 Q 198 272.20000076293945 197 272.20000076293945 Q 196 272.20000076293945 195.5 272.20000076293945 Q 195 272.20000076293945 194 272.20000076293945 Q 193 272.20000076293945 193 272.70000076293945 Q 193 273.20000076293945 193 273.70000076293945 Q 193 274.20000076293945 193 275.20000076293945 Q 193 276.20000076293945 193 276.70000076293945 Q 193 277.20000076293945 193 277.70000076293945 Q 193 278.20000076293945 193 279.20000076293945 Q 193 280.20000076293945 193 280.70000076293945 Q 193 281.20000076293945 193 281.70000076293945 Q 193 282.20000076293945 193 283.20000076293945 Q 193 284.20000076293945 193 285.20000076293945 Q 193 286.20000076293945 193 286.70000076293945 Q 193 287.20000076293945 193 288.20000076293945 Q 193 289.20000076293945 193 291.20000076293945 Q 193 293.20000076293945 193 293.70000076293945 Q 193 294.20000076293945 193 295.70000076293945 Q 193 297.20000076293945 193 299.20000076293945 Q 193 301.20000076293945 193 302.20000076293945 Q 193 303.20000076293945 193 305.20000076293945 Q 193 307.20000076293945 193 308.20000076293945 Q 193 309.20000076293945 193 310.20000076293945 Q 193 311.20000076293945 193 312.70000076293945 Q 193 314.20000076293945 193 315.70000076293945 Q 193 317.20000076293945 193 318.70000076293945 Q 193 320.20000076293945 193 320.70000076293945 Q 193 321.20000076293945 193 322.70000076293945 Q 193 324.20000076293945 193.5 325.70000076293945 Q 194 327.20000076293945 194 327.70000076293945 Q 194 328.20000076293945 194 329.20000076293945 Q 194 330.20000076293945 194 331.20000076293945 Q 194 332.20000076293945 194 333.70000076293945 Q 194 335.20000076293945 194 335.70000076293945 Q 194 336.20000076293945 194 336.70000076293945 Q 194 337.20000076293945 194 338.20000076293945 Q 194 339.20000076293945 194 339.70000076293945 Q 194 340.20000076293945 194.5 340.70000076293945 Q 195 341.20000076293945 195 342.70000076293945 Q 195 344.20000076293945 195 345.20000076293945 Q 195 346.20000076293945 195 347.20000076293945 Q 195 348.20000076293945 195 349.20000076293945 Q 195 350.20000076293945 195 350.70000076293945 Q 195 351.20000076293945 195 352.20000076293945 Q 195 353.20000076293945 195 354.20000076293945 Q 195 355.20000076293945 195 355.70000076293945 Q 195 356.20000076293945 195 357.70000076293945 Q 195 359.20000076293945 195 360.20000076293945 Q 195 361.20000076293945 195 362.20000076293945 Q 195 363.20000076293945 195 364.20000076293945 Q 195 365.20000076293945 195 366.70000076293945 Q 195 368.20000076293945 195 369.20000076293945 Q 195 370.20000076293945 195 372.20000076293945 Q 195 374.20000076293945 195 377.20000076293945 Q 195 380.20000076293945 195 381.70000076293945 Q 195 383.20000076293945 195 383.70000076293945 Q 195 384.20000076293945 195 386.20000076293945 Q 195 388.20000076293945 195.5 390.20000076293945 Q 196 392.20000076293945 196 394.20000076293945 Q 196 396.20000076293945 196 397.70000076293945 Q 196 399.20000076293945 196 399.70000076293945 Q 196 400.20000076293945 196 401.20000076293945 Q 196 402.20000076293945 196 403.70000076293945 Q 196 405.20000076293945 196 406.20000076293945 Q 196 407.20000076293945 196 407.70000076293945 Q 196 408.20000076293945 196 410.20000076293945 Q 196 412.20000076293945 196 413.20000076293945 Q 196 414.20000076293945 196 414.70000076293945 Q 196 415.20000076293945 196 415.70000076293945 Q 196 416.20000076293945 196 417.20000076293945 Q 196 418.20000076293945 196 418.70000076293945 Q 196 419.20000076293945 196 419.70000076293945 Q 196 420.20000076293945 196 420.70000076293945 Q 196 421.20000076293945 196 421.70000076293945 Q 196 422.20000076293945 196 422.70000076293945 Q 196 423.20000076293945 196 423.70000076293945 Q 196 424.20000076293945 196 424.70000076293945 Q 196 425.20000076293945 196 425.70000076293945 Q 196 426.20000076293945 196 426.70000076293945 Q 196 427.20000076293945 196 427.70000076293945 Q 196 428.20000076293945 196 429.20000076293945 Q 196 430.20000076293945 196 431.20000076293945 Q 196 432.20000076293945 196 432.70000076293945 Q 196 433.20000076293945 196 433.70000076293945 Q 196 434.20000076293945 196 434.70000076293945 Q 196 435.20000076293945 196 435.70000076293945 Q 196 436.20000076293945 196 436.70000076293945 Q 196 437.20000076293945 196 437.70000076293945 Q 196 438.20000076293945 196 438.70000076293945 Q 196 439.20000076293945 196 439.70000076293945 Q 196 440.20000076293945 196 440.70000076293945 Q 196 441.20000076293945 196 442.20000076293945 Q 196 443.20000076293945 196 443.70000076293945 Q 196 444.20000076293945 196 445.20000076293945 Q 196 446.20000076293945 196 446.70000076293945 Q 196 447.20000076293945 196 447.70000076293945 Q 196 448.20000076293945 196 448.70000076293945 Q 196 449.20000076293945 196 449.70000076293945 Q 196 450.20000076293945 196 451.20000076293945 Q 196 452.20000076293945 196 452.70000076293945 Q 196 453.20000076293945 196 453.70000076293945 Q 196 454.20000076293945 196 454.70000076293945 Q 196 455.20000076293945 196 456.20000076293945 Q 196 457.20000076293945 196 458.20000076293945 Q 196 459.20000076293945 196 460.20000076293945 Q 196 461.20000076293945 196 461.70000076293945 Q 196 462.20000076293945 196 462.70000076293945 Q 196 463.20000076293945 196 463.70000076293945 Q 196 464.20000076293945 196 464.70000076293945 Q 196 465.20000076293945 196 465.70000076293945 Q 196 466.20000076293945 196 466.70000076293945 Q 196 467.20000076293945 196 467.70000076293945 Q 196 468.20000076293945 196 468.70000076293945 Q 196 469.20000076293945 196 469.70000076293945 Q 196 470.20000076293945 196 470.70000076293945 Q 196 471.20000076293945 196 471.70000076293945 Q 196 472.20000076293945 196 472.70000076293945 Q 196 473.20000076293945 196 473.70000076293945 Q 196 474.20000076293945 196 474.70000076293945 Q 196 475.20000076293945 196 475.70000076293945 Q 196 476.20000076293945 196 476.70000076293945 Q 196 477.20000076293945 196 478.20000076293945 L 196 479.20700076293946" stroke-linecap="round" />
</g>
<g transform="matrix(1 0 0 1 315.5 437.2)"  >
<path style="stroke: rgb(0,0,0); stroke-width: 7; stroke-dasharray: none; stroke-linecap: round; stroke-dashoffset: 0; stroke-linejoin: round; stroke-miterlimit: 10; fill: none; fill-rule: nonzero; opacity: 1;"  transform=" translate(-315.5, -437.2)" d="M 195.993 434.20000076293945 Q 196 434.20000076293945 199.5 434.70000076293945 Q 203 435.20000076293945 203.5 435.20000076293945 Q 204 435.20000076293945 206 435.70000076293945 Q 208 436.20000076293945 209.5 436.20000076293945 Q 211 436.20000076293945 211.5 436.20000076293945 Q 212 436.20000076293945 214 436.20000076293945 Q 216 436.20000076293945 217.5 436.20000076293945 Q 219 436.20000076293945 219.5 436.20000076293945 Q 220 436.20000076293945 222 436.70000076293945 Q 224 437.20000076293945 226 437.20000076293945 Q 228 437.20000076293945 230 437.70000076293945 Q 232 438.20000076293945 234 438.70000076293945 Q 236 439.20000076293945 237 439.20000076293945 Q 238 439.20000076293945 239 439.20000076293945 Q 240 439.20000076293945 240.5 439.20000076293945 Q 241 439.20000076293945 242.5 439.20000076293945 Q 244 439.20000076293945 244.5 439.20000076293945 Q 245 439.20000076293945 246 439.20000076293945 Q 247 439.20000076293945 248.5 439.20000076293945 Q 250 439.20000076293945 251 439.20000076293945 Q 252 439.20000076293945 254 439.20000076293945 Q 256 439.20000076293945 258 439.20000076293945 Q 260 439.20000076293945 262.5 439.20000076293945 Q 265 439.20000076293945 266.5 439.20000076293945 Q 268 439.20000076293945 269.5 439.20000076293945 Q 271 439.20000076293945 273 439.70000076293945 Q 275 440.20000076293945 276 440.20000076293945 Q 277 440.20000076293945 278.5 440.20000076293945 Q 280 440.20000076293945 280.5 440.20000076293945 Q 281 440.20000076293945 283 440.20000076293945 Q 285 440.20000076293945 286.5 440.20000076293945 Q 288 440.20000076293945 288.5 440.20000076293945 Q 289 440.20000076293945 292 440.20000076293945 Q 295 440.20000076293945 297.5 440.20000076293945 Q 300 440.20000076293945 301.5 440.20000076293945 Q 303 440.20000076293945 304.5 440.20000076293945 Q 306 440.20000076293945 309.5 440.20000076293945 Q 313 440.20000076293945 314.5 440.20000076293945 Q 316 440.20000076293945 318 440.20000076293945 Q 320 440.20000076293945 322 440.20000076293945 Q 324 440.20000076293945 325.5 440.20000076293945 Q 327 440.20000076293945 329.5 440.20000076293945 Q 332 440.20000076293945 334 440.20000076293945 Q 336 440.20000076293945 337 440.20000076293945 Q 338 440.20000076293945 338.5 440.20000076293945 Q 339 440.20000076293945 340 440.20000076293945 Q 341 440.20000076293945 342.5 440.20000076293945 Q 344 440.20000076293945 346 440.20000076293945 Q 348 440.20000076293945 349.5 440.20000076293945 Q 351 440.20000076293945 351.5 440.20000076293945 Q 352 440.20000076293945 353.5 440.20000076293945 Q 355 440.20000076293945 356.5 440.20000076293945 Q 358 440.20000076293945 359 440.20000076293945 Q 360 440.20000076293945 360.5 440.20000076293945 Q 361 440.20000076293945 362.5 440.20000076293945 Q 364 440.20000076293945 365 440.20000076293945 Q 366 440.20000076293945 368.5 440.20000076293945 Q 371 440.20000076293945 371.5 440.20000076293945 Q 372 440.20000076293945 374 440.20000076293945 Q 376 440.20000076293945 378.5 440.20000076293945 Q 381 440.20000076293945 381.5 440.20000076293945 Q 382 440.20000076293945 384 440.20000076293945 Q 386 440.20000076293945 388.5 440.20000076293945 Q 391 440.20000076293945 391.5 440.20000076293945 Q 392 440.20000076293945 394 440.20000076293945 Q 396 440.20000076293945 397.5 440.20000076293945 Q 399 440.20000076293945 399.5 440.20000076293945 Q 400 440.20000076293945 400.5 440.20000076293945 Q 401 440.20000076293945 402 440.20000076293945 Q 403 440.20000076293945 403.5 440.20000076293945 Q 404 440.20000076293945 404.5 440.20000076293945 Q 405 440.20000076293945 406 440.20000076293945 Q 407 440.20000076293945 408 440.20000076293945 Q 409 440.20000076293945 410.5 440.20000076293945 Q 412 440.20000076293945 413 440.20000076293945 Q 414 440.20000076293945 415 440.20000076293945 Q 416 440.20000076293945 417 440.20000076293945 Q 418 440.20000076293945 419 440.20000076293945 Q 420 440.20000076293945 421 440.20000076293945 Q 422 440.20000076293945 422.5 440.20000076293945 Q 423 440.20000076293945 423.5 440.20000076293945 Q 424 440.20000076293945 424 439.70000076293945 Q 424 439.20000076293945 424.5 439.20000076293945 Q 425 439.20000076293945 425.5 439.20000076293945 Q 426 439.20000076293945 426.5 439.20000076293945 Q 427 439.20000076293945 427 438.70000076293945 Q 427 438.20000076293945 427.5 438.20000076293945 Q 428 438.20000076293945 428.5 438.20000076293945 Q 429 438.20000076293945 429.5 438.20000076293945 Q 430 438.20000076293945 430.5 438.20000076293945 Q 431 438.20000076293945 431.5 438.20000076293945 Q 432 438.20000076293945 433.5 438.20000076293945 L 435.007 438.20000076293945" stroke-linecap="round" />
</g>
</svg>