<svg xmlns="http://www.w3.org/2000/svg" xmlns:xlink="http://www.w3.org/1999/xlink" version="1.1" width="600" height="600" viewBox="0 0 600 600" xml:space="preserve">
<desc>Created with Fabric.js 5.2.4</desc>
<defs>
</defs>
<rect x="0" y="0" width="100%" height="100%" fill="#fff"></rect>
<g transform="matrix(1 0 0 1 307 441.2)"  >
<path style="stroke: rgb(0,0,0); stroke-width: 7; stroke-dasharray: none; stroke-linecap: round; stroke-dashoffset: 0; stroke-linejoin: round; stroke-miterlimit: 10; fill: none; fill-rule: nonzero; opacity: 1;"  transform=" translate(-307, -441.2)" d="M 102.993 432.19300076293945 Q 103 432.20000076293945 103.5 432.20000076293945 Q 104 432.20000076293945 106 433.70000076293945 Q 108 435.20000076293945 109.5 435.70000076293945 Q 111 436.20000076293945 111.5 437.20000076293945 Q 112 438.20000076293945 114.5 439.20000076293945 Q 117 440.20000076293945 118.5 440.70000076293945 Q 120 441.20000076293945 121.5 441.70000076293945 Q 123 442.20000076293945 125 443.20000076293945 Q 127 444.20000076293945 128.5 444.70000076293945 Q 130 445.20000076293945 131 445.70000076293945 Q 132 446.20000076293945 134 446.70000076293945 Q 136 447.20000076293945 138 447.70000076293945 Q 140 448.20000076293945 142 448.70000076293945 Q 144 449.20000076293945 144.5 449.20000076293945 Q 145 449.20000076293945 147.5 449.70000076293945 Q 150 450.20000076293945 153 450.70000076293945 Q 156 451.20000076293945 156.5 451.70000076293945 Q 157 452.20000076293945 159 452.20000076293945 Q 161 452.20000076293945 164.5 453.20000076293945 Q 168 454.20000076293945 168.5 454.20000076293945 Q 169 454.20000076293945 173 454.20000076293945 Q 177 454.20000076293945 181.5 455.20000076293945 Q 186 456.20000076293945 189 456.20000076293945 Q 192 456.20000076293945 192 456.70000076293945 Q 192 457.20000076293945 195 457.20000076293945 Q 198 457.20000076293945 201 457.70000076293945 Q 204 458.20000076293945 205.5 458.70000076293945 Q 207 459.20000076293945 211 460.20000076293945 Q 215 461.20000076293945 219 461.70000076293945 Q 223 462.20000076293945 227.5 462.20000076293945 Q 232 462.20000076293945 234 462.70000076293945 Q 236 463.20000076293945 239 463.20000076293945 Q 242 463.20000076293945 245 463.70000076293945 Q 248 464.20000076293945 249.5 464.20000076293945 Q 251 464.20000076293945 254.5 464.70000076293945 Q 258 465.20000076293945 261 465.20000076293945 Q 264 465.20000076293945 265.5 465.70000076293945 Q 267 466.20000076293945 270 466.70000076293945 Q 273 467.20000076293945 276 467.20000076293945 Q 279 467.20000076293945 280 467.20000076293945 Q 281 467.20000076293945 283.5 467.20000076293945 Q 286 467.20000076293945 290 467.20000076293945 Q 294 467.20000076293945 295 467.20000076293945 Q 296 467.20000076293945 298 467.70000076293945 Q 300 468.20000076293945 303 468.20000076293945 Q 306 468.20000076293945 310 468.20000076293945 Q 314 468.20000076293945 315 468.20000076293945 Q 316 468.20000076293945 318.5 468.20000076293945 Q 321 468.20000076293945 324.5 468.20000076293945 Q 328 468.20000076293945 329.5 468.20000076293945 Q 331 468.20000076293945 333 468.20000076293945 Q 335 468.20000076293945 338.5 468.20000076293945 Q 342 468.20000076293945 343 468.20000076293945 Q 344 468.20000076293945 347 468.20000076293945 Q 350 468.20000076293945 353 468.20000076293945 Q 356 468.20000076293945 357 468.20000076293945 Q 358 468.20000076293945 360.5 468.20000076293945 Q 363 468.20000076293945 365.5 468.20000076293945 Q 368 468.20000076293945 369.5 468.20000076293945 Q 371 468.20000076293945 373 467.70000076293945 Q 375 467.20000076293945 377.5 466.20000076293945 Q 380 465.20000076293945 381.5 464.70000076293945 Q 383 464.20000076293945 383.5 464.20000076293945 Q 384 464.20000076293945 385 464.20000076293945 Q 386 464.20000076293945 387.5 464.20000076293945 Q 389 464.20000076293945 389.5 463.70000076293945 Q 390 463.20000076293945 391 463.20000076293945 Q 392 463.20000076293945 393.5 463.20000076293945 Q 395 463.20000076293945 395.5 463.20000076293945 Q 396 463.20000076293945 397.5 463.20000076293945 Q 399 463.20000076293945 400 462.70000076293945 Q 401 462.20000076293945 401.5 462.20000076293945 Q 402 462.20000076293945 405 461.70000076293945 Q 408 461.20000076293945 409 461.20000076293945 Q 410 461.20000076293945 410 460.70000076293945 Q 410 460.20000076293945 411 460.20000076293945 Q 412 460.20000076293945 412.5 460.20000076293945 Q 413 460.20000076293945 414.5 459.70000076293945 Q 416 459.20000076293945 416.5 458.70000076293945 Q 417 458.20000076293945 418 458.20000076293945 Q 419 458.20000076293945 420.5 457.20000076293945 Q 422 456.20000076293945 423 456.20000076293945 Q 424 456.20000076293945 425.5 456.20000076293945 Q 427 456.20000076293945 428.5 456.20000076293945 Q 430 456.20000076293945 431 456.20000076293945 Q 432 456.20000076293945 433 455.70000076293945 Q 434 455.20000076293945 435 455.20000076293945 Q 436 455.20000076293945 436.5 454.70000076293945 Q 437 454.20000076293945 438 454.20000076293945 Q 439 454.20000076293945 439.5 454.20000076293945 Q 440 454.20000076293945 440 453.70000076293945 Q 440 453.20000076293945 440.5 452.70000076293945 Q 441 452.20000076293945 441.5 452.20000076293945 Q 442 452.20000076293945 442.5 452.20000076293945 Q 443 452.20000076293945 443.5 452.20000076293945 Q 444 452.20000076293945 445 452.20000076293945 Q 446 452.20000076293945 446.5 452.20000076293945 Q 447 452.20000076293945 447.5 452.20000076293945 Q 448 452.20000076293945 448 451.70000076293945 Q 448 451.20000076293945 449 450.70000076293945 Q 450 450.20000076293945 450.5 450.20000076293945 Q 451 450.20000076293945 451.5 450.20000076293945 Q 452 450.20000076293945 453 449.70000076293945 Q 454 449.20000076293945 454.5 449.20000076293945 Q 455 449.20000076293945 455 448.70000076293945 Q 455 448.20000076293945 455.5 448.20000076293945 Q 456 448.20000076293945 457 448.20000076293945 Q 458 448.20000076293945 459 448.20000076293945 Q 460 448.20000076293945 460 447.70000076293945 Q 460 447.20000076293945 460.5 447.20000076293945 Q 461 447.20000076293945 461.5 446.70000076293945 Q 462 446.20000076293945 462.5 446.20000076293945 Q 463 446.20000076293945 463.5 445.70000076293945 Q 464 445.20000076293945 464.5 445.20000076293945 Q 465 445.20000076293945 465.5 444.70000076293945 Q 466 444.20000076293945 466.5 444.20000076293945 Q 467 444.20000076293945 467.5 444.20000076293945 Q 468 444.20000076293945 468.5 443.20000076293945 Q 469 442.20000076293945 469.5 442.20000076293945 Q 470 442.20000076293945 471 442.20000076293945 Q 472 442.20000076293945 472 441.70000076293945 Q 472 441.20000076293945 473 440.70000076293945 Q 474 440.20000076293945 475 440.20000076293945 Q 476 440.20000076293945 477.5 439.20000076293945 Q 479 438.20000076293945 480 437.70000076293945 Q 481 437.20000076293945 481.5 436.70000076293945 Q 482 436.20000076293945 482.5 436.20000076293945 Q 483 436.20000076293945 484 436.20000076293945 Q 485 436.20000076293945 485 435.20000076293945 Q 485 434.20000076293945 486 433.70000076293945 Q 487 433.20000076293945 487.5 433.20000076293945 Q 488 433.20000076293945 488 432.70000076293945 Q 488 432.20000076293945 488.5 432.20000076293945 Q 489 432.20000076293945 489.5 432.20000076293945 Q 490 432.20000076293945 490.5 431.70000076293945 Q 491 431.20000076293945 491.5 430.70000076293945 Q 492 430.20000076293945 492.5 430.20000076293945 Q 493 430.20000076293945 493.5 430.20000076293945 Q 494 430.20000076293945 495 429.70000076293945 Q 496 429.20000076293945 496 428.70000076293945 Q 496 428.20000076293945 496.5 428.20000076293945 Q 497 428.20000076293945 497.5 428.20000076293945 Q 498 428.20000076293945 498 427.70000076293945 Q 498 427.20000076293945 499 427.20000076293945 Q 500 427.20000076293945 500.5 426.20000076293945 Q 501 425.20000076293945 501.5 425.20000076293945 Q 502 425.20000076293945 502.5 424.70000076293945 Q 503 424.20000076293945 503.5 424.20000076293945 Q 504 424.20000076293945 504 423.70000076293945 Q 504 423.20000076293945 504.5 422.70000076293945 Q 505 422.20000076293945 505.5 422.20000076293945 Q 506 422.20000076293945 506.5 421.70000076293945 Q 507 421.20000076293945 507 420.70000076293945 Q 507 420.20000076293945 507.5 420.20000076293945 Q 508 420.20000076293945 508 419.70000076293945 Q 508 419.20000076293945 508 418.70000076293945 Q 508 418.20000076293945 508 417.70000076293945 Q 508 417.20000076293945 508.5 417.20000076293945 Q 509 417.20000076293945 509.5 416.70000076293945 Q 510 416.20000076293945 510.5 415.20000076293945 L 511.007 414.19300076293945" stroke-linecap="round" />
</g>
<g transform="matrix(1 0 0 1 311 376.2)"  >
<path style="stroke: rgb(0,0,0); stroke-width: 7; stroke-dasharray: none; stroke-linecap: round; stroke-dashoffset: 0; stroke-linejoin: round; stroke-miterlimit: 10; fill: none; fill-rule: nonzero; opacity: 1;"  transform=" translate(-311, -376.2)" d="M 502.007 419.20000076293945 Q 502 419.20000076293945 501.5 419.20000076293945 Q 501 419.20000076293945 500.5 419.20000076293945 Q 500 419.20000076293945 500 418.20000076293945 Q 500 417.20000076293945 500 416.70000076293945 Q 500 416.20000076293945 499.5 415.20000076293945 Q 499 414.20000076293945 498 413.20000076293945 Q 497 412.20000076293945 496.5 412.20000076293945 Q 496 412.20000076293945 496 411.20000076293945 Q 496 410.20000076293945 495.5 409.20000076293945 Q 495 408.20000076293945 494.5 408.20000076293945 Q 494 408.20000076293945 493.5 407.20000076293945 Q 493 406.20000076293945 492.5 405.20000076293945 Q 492 404.20000076293945 492 403.70000076293945 Q 492 403.20000076293945 491 402.70000076293945 Q 490 402.20000076293945 489.5 401.20000076293945 Q 489 400.20000076293945 488.5 400.20000076293945 Q 488 400.20000076293945 488 399.20000076293945 Q 488 398.20000076293945 487.5 397.20000076293945 Q 487 396.20000076293945 486 396.20000076293945 Q 485 396.20000076293945 484.5 394.70000076293945 Q 484 393.20000076293945 483.5 392.70000076293945 Q 483 392.20000076293945 481.5 391.70000076293945 Q 480 391.20000076293945 480 390.70000076293945 Q 480 390.20000076293945 479 389.20000076293945 Q 478 388.20000076293945 477 388.20000076293945 Q 476 388.20000076293945 476 387.70000076293945 Q 476 387.20000076293945 475 386.20000076293945 Q 474 385.20000076293945 473 384.70000076293945 Q 472 384.20000076293945 471 383.70000076293945 Q 470 383.20000076293945 469.5 382.70000076293945 Q 469 382.20000076293945 468.5 381.70000076293945 Q 468 381.20000076293945 467.5 380.70000076293945 Q 467 380.20000076293945 466.5 380.20000076293945 Q 466 380.20000076293945 465.5 379.70000076293945 Q 465 379.20000076293945 464.5 378.70000076293945 Q 464 378.20000076293945 463 377.20000076293945 Q 462 376.20000076293945 461 375.70000076293945 Q 460 375.20000076293945 460 374.70000076293945 Q 460 374.20000076293945 459 373.70000076293945 Q 458 373.20000076293945 457 372.70000076293945 Q 456 372.20000076293945 455.5 372.20000076293945 Q 455 372.20000076293945 454.5 371.20000076293945 Q 454 370.20000076293945 453 369.20000076293945 Q 452 368.20000076293945 451.5 368.20000076293945 Q 451 368.20000076293945 450 367.70000076293945 Q 449 367.20000076293945 448.5 366.70000076293945 Q 448 366.20000076293945 447.5 365.20000076293945 Q 447 364.20000076293945 446 364.20000076293945 Q 445 364.20000076293945 444 363.20000076293945 Q 443 362.20000076293945 443 361.70000076293945 Q 443 361.20000076293945 442 360.70000076293945 Q 441 360.20000076293945 440 359.20000076293945 Q 439 358.20000076293945 438 357.70000076293945 Q 437 357.20000076293945 436.5 356.70000076293945 Q 436 356.20000076293945 435.5 355.20000076293945 Q 435 354.20000076293945 434 354.20000076293945 Q 433 354.20000076293945 432 353.20000076293945 Q 431 352.20000076293945 431 351.70000076293945 Q 431 351.20000076293945 430.5 350.20000076293945 Q 430 349.20000076293945 429 349.20000076293945 Q 428 349.20000076293945 427.5 348.70000076293945 Q 427 348.20000076293945 427 347.70000076293945 Q 427 347.20000076293945 426 346.70000076293945 Q 425 346.20000076293945 424.5 345.20000076293945 Q 424 344.20000076293945 423.5 344.20000076293945 Q 423 344.20000076293945 422.5 343.70000076293945 Q 422 343.20000076293945 421 342.70000076293945 Q 420 342.20000076293945 419 341.20000076293945 Q 418 340.20000076293945 417.5 340.20000076293945 Q 417 340.20000076293945 416.5 340.20000076293945 Q 416 340.20000076293945 416 339.70000076293945 Q 416 339.20000076293945 415 338.70000076293945 Q 414 338.20000076293945 413 337.20000076293945 Q 412 336.20000076293945 411.5 336.20000076293945 Q 411 336.20000076293945 410 336.20000076293945 Q 409 336.20000076293945 408 335.20000076293945 Q 407 334.20000076293945 405.5 333.70000076293945 Q 404 333.20000076293945 404 332.70000076293945 Q 404 332.20000076293945 403 332.20000076293945 Q 402 332.20000076293945 401 331.70000076293945 Q 400 331.20000076293945 399 330.70000076293945 Q 398 330.20000076293945 397 329.70000076293945 Q 396 329.20000076293945 396 328.70000076293945 Q 396 328.20000076293945 394.5 328.20000076293945 Q 393 328.20000076293945 392.5 328.20000076293945 Q 392 328.20000076293945 390 327.70000076293945 Q 388 327.20000076293945 386 326.70000076293945 Q 384 326.20000076293945 383 325.70000076293945 Q 382 325.20000076293945 380.5 325.20000076293945 Q 379 325.20000076293945 378 324.70000076293945 Q 377 324.20000076293945 375 324.20000076293945 Q 373 324.20000076293945 371 324.20000076293945 Q 369 324.20000076293945 368.5 324.20000076293945 Q 368 324.20000076293945 366 324.20000076293945 Q 364 324.20000076293945 363 324.20000076293945 Q 362 324.20000076293945 361 324.20000076293945 Q 360 324.20000076293945 359 323.70000076293945 Q 358 323.20000076293945 357 323.20000076293945 Q 356 323.20000076293945 355 322.70000076293945 Q 354 322.20000076293945 353.5 322.20000076293945 Q 353 322.20000076293945 352.5 322.20000076293945 Q 352 322.20000076293945 350.5 322.20000076293945 Q 349 322.20000076293945 348.5 322.20000076293945 Q 348 322.20000076293945 347 322.20000076293945 Q 346 322.20000076293945 345 322.20000076293945 Q 344 322.20000076293945 343.5 321.70000076293945 Q 343 321.20000076293945 341.5 321.20000076293945 Q 340 321.20000076293945 338.5 321.20000076293945 Q 337 321.20000076293945 336.5 321.20000076293945 Q 336 321.20000076293945 334.5 320.70000076293945 Q 333 320.20000076293945 331 320.20000076293945 Q 329 320.20000076293945 328.5 320.20000076293945 Q 328 320.20000076293945 326 320.20000076293945 Q 324 320.20000076293945 323.5 320.20000076293945 Q 323 320.20000076293945 321 320.20000076293945 Q 319 320.20000076293945 318 320.20000076293945 Q 317 320.20000076293945 315.5 320.20000076293945 Q 314 320.20000076293945 313 320.20000076293945 Q 312 320.20000076293945 311 320.20000076293945 Q 310 320.20000076293945 308.5 320.20000076293945 Q 307 320.20000076293945 305.5 320.20000076293945 Q 304 320.20000076293945 303 320.20000076293945 Q 302 320.20000076293945 300.5 320.20000076293945 Q 299 320.20000076293945 296.5 320.20000076293945 Q 294 320.20000076293945 293 320.20000076293945 Q 292 320.20000076293945 290.5 320.20000076293945 Q 289 320.20000076293945 287 320.20000076293945 Q 285 320.20000076293945 284.5 320.20000076293945 Q 284 320.20000076293945 282.5 320.20000076293945 Q 281 320.20000076293945 279.5 320.20000076293945 Q 278 320.20000076293945 276 320.20000076293945 Q 274 320.20000076293945 273 320.20000076293945 Q 272 320.20000076293945 271 320.20000076293945 Q 270 320.20000076293945 268 320.20000076293945 Q 266 320.20000076293945 265 320.20000076293945 Q 264 320.20000076293945 262 320.20000076293945 Q 260 320.20000076293945 258 320.20000076293945 Q 256 320.20000076293945 255 320.20000076293945 Q 254 320.20000076293945 251.5 320.20000076293945 Q 249 320.20000076293945 247 320.20000076293945 Q 245 320.20000076293945 244.5 320.20000076293945 Q 244 320.20000076293945 242 320.20000076293945 Q 240 320.20000076293945 238 320.20000076293945 Q 236 320.20000076293945 234.5 320.20000076293945 Q 233 320.20000076293945 232 320.20000076293945 Q 231 320.20000076293945 229.5 320.20000076293945 Q 228 320.20000076293945 225 320.20000076293945 Q 222 320.20000076293945 221 320.70000076293945 Q 220 321.20000076293945 218.5 321.70000076293945 Q 217 322.20000076293945 214.5 322.70000076293945 Q 212 323.20000076293945 211.5 323.70000076293945 Q 211 324.20000076293945 208.5 324.70000076293945 Q 206 325.20000076293945 204.5 326.20000076293945 Q 203 327.20000076293945 202 327.70000076293945 Q 201 328.20000076293945 198.5 328.70000076293945 Q 196 329.20000076293945 193.5 330.20000076293945 Q 191 331.20000076293945 190.5 331.70000076293945 Q 190 332.20000076293945 188.5 332.70000076293945 Q 187 333.20000076293945 183.5 334.70000076293945 Q 180 336.20000076293945 180 336.70000076293945 Q 180 337.20000076293945 178.5 338.20000076293945 Q 177 339.20000076293945 175.5 339.70000076293945 Q 174 340.20000076293945 173 341.20000076293945 Q 172 342.20000076293945 171 342.20000076293945 Q 170 342.20000076293945 169 343.20000076293945 Q 168 344.20000076293945 166.5 345.20000076293945 Q 165 346.20000076293945 164.5 347.20000076293945 Q 164 348.20000076293945 163.5 348.70000076293945 Q 163 349.20000076293945 161.5 350.70000076293945 Q 160 352.20000076293945 158.5 353.70000076293945 Q 157 355.20000076293945 156.5 356.20000076293945 Q 156 357.20000076293945 155.5 358.20000076293945 Q 155 359.20000076293945 154 360.20000076293945 Q 153 361.20000076293945 152.5 362.70000076293945 Q 152 364.20000076293945 151 365.20000076293945 Q 150 366.20000076293945 149 367.20000076293945 Q 148 368.20000076293945 147.5 369.70000076293945 Q 147 371.20000076293945 146 371.70000076293945 Q 145 372.20000076293945 144.5 373.20000076293945 Q 144 374.20000076293945 144 375.20000076293945 Q 144 376.20000076293945 143.5 377.20000076293945 Q 143 378.20000076293945 142.5 378.70000076293945 Q 142 379.20000076293945 141.5 379.70000076293945 Q 141 380.20000076293945 140.5 381.20000076293945 Q 140 382.20000076293945 140 382.70000076293945 Q 140 383.20000076293945 140 383.70000076293945 Q 140 384.20000076293945 139.5 384.20000076293945 Q 139 384.20000076293945 139 384.70000076293945 Q 139 385.20000076293945 138 385.70000076293945 Q 137 386.20000076293945 137 386.70000076293945 Q 137 387.20000076293945 137 387.70000076293945 Q 137 388.20000076293945 136.5 388.20000076293945 Q 136 388.20000076293945 136 389.70000076293945 Q 136 391.20000076293945 135.5 391.70000076293945 Q 135 392.20000076293945 135 393.70000076293945 Q 135 395.20000076293945 135 395.70000076293945 Q 135 396.20000076293945 134.5 396.70000076293945 Q 134 397.20000076293945 134 397.70000076293945 Q 134 398.20000076293945 133.5 398.70000076293945 Q 133 399.20000076293945 133 399.70000076293945 Q 133 400.20000076293945 132.5 400.20000076293945 Q 132 400.20000076293945 132 400.70000076293945 Q 132 401.20000076293945 132 401.70000076293945 Q 132 402.20000076293945 132 402.70000076293945 Q 132 403.20000076293945 132 403.70000076293945 Q 132 404.20000076293945 131.5 404.70000076293945 Q 131 405.20000076293945 130.5 405.70000076293945 Q 130 406.20000076293945 130 406.70000076293945 Q 130 407.20000076293945 130 407.70000076293945 Q 130 408.20000076293945 129.5 408.70000076293945 Q 129 409.20000076293945 129 409.70000076293945 Q 129 410.20000076293945 128.5 410.70000076293945 Q 128 411.20000076293945 128 411.70000076293945 Q 128 412.20000076293945 128 412.70000076293945 Q 128 413.20000076293945 127 413.70000076293945 Q 126 414.20000076293945 125.5 415.20000076293945 Q 125 416.20000076293945 125 416.70000076293945 Q 125 417.20000076293945 125 417.70000076293945 Q 125 418.20000076293945 125 418.70000076293945 Q 125 419.20000076293945 124.5 419.70000076293945 Q 124 420.20000076293945 124 420.70000076293945 Q 124 421.20000076293945 124 421.70000076293945 Q 124 422.20000076293945 123.5 422.70000076293945 Q 123 423.20000076293945 123 424.20000076293945 Q 123 425.20000076293945 123 425.70000076293945 Q 123 426.20000076293945 122.5 426.70000076293945 Q 122 427.20000076293945 122 427.70000076293945 Q 122 428.20000076293945 121.5 428.20000076293945 Q 121 428.20000076293945 121 428.70000076293945 Q 121 429.20000076293945 121 429.70000076293945 Q 121 430.20000076293945 120.5 431.20000076293945 L 119.993 432.20700076293946" stroke-linecap="round" />
</g>
<g transform="matrix(1 0 0 1 295.5 404.7)"  >
<path style="stroke: rgb(0,0,0); stroke-width: 7; stroke-dasharray: none; stroke-linecap: round; stroke-dashoffset: 0; stroke-linejoin: round; stroke-miterlimit: 10; fill: none; fill-rule: nonzero; opacity: 1;"  transform=" translate(-295.5, -404.7)" d="M 126.993 410.19300076293945 Q 127 410.20000076293945 127.5 410.20000076293945 Q 128 410.20000076293945 128.5 410.70000076293945 Q 129 411.20000076293945 129.5 411.20000076293945 Q 130 411.20000076293945 131 411.70000076293945 Q 132 412.20000076293945 132.5 412.20000076293945 Q 133 412.20000076293945 134 412.20000076293945 Q 135 412.20000076293945 136.5 413.20000076293945 Q 138 414.20000076293945 140 414.70000076293945 Q 142 415.20000076293945 143 415.20000076293945 Q 144 415.20000076293945 146 415.70000076293945 Q 148 416.20000076293945 150.5 416.20000076293945 Q 153 416.20000076293945 154.5 416.70000076293945 Q 156 417.20000076293945 157 417.70000076293945 Q 158 418.20000076293945 160.5 418.70000076293945 Q 163 419.20000076293945 163.5 419.20000076293945 Q 164 419.20000076293945 165.5 419.70000076293945 Q 167 420.20000076293945 168.5 420.20000076293945 Q 170 420.20000076293945 171 420.20000076293945 Q 172 420.20000076293945 172.5 420.20000076293945 Q 173 420.20000076293945 174.5 420.20000076293945 Q 176 420.20000076293945 177.5 420.20000076293945 Q 179 420.20000076293945 179.5 420.20000076293945 Q 180 420.20000076293945 182 420.70000076293945 Q 184 421.20000076293945 185 421.20000076293945 Q 186 421.20000076293945 187 421.20000076293945 Q 188 421.20000076293945 190.5 421.70000076293945 Q 193 422.20000076293945 196 422.20000076293945 Q 199 422.20000076293945 200 422.70000076293945 Q 201 423.20000076293945 203.5 423.20000076293945 Q 206 423.20000076293945 209 423.20000076293945 Q 212 423.20000076293945 213 423.20000076293945 Q 214 423.20000076293945 216 423.20000076293945 Q 218 423.20000076293945 220 423.20000076293945 Q 222 423.20000076293945 224 423.20000076293945 Q 226 423.20000076293945 226.5 423.20000076293945 Q 227 423.20000076293945 227.5 423.20000076293945 Q 228 423.20000076293945 230.5 423.20000076293945 Q 233 423.20000076293945 234.5 423.20000076293945 Q 236 423.20000076293945 237.5 423.20000076293945 Q 239 423.20000076293945 241.5 423.20000076293945 Q 244 423.20000076293945 244.5 423.20000076293945 Q 245 423.20000076293945 247 423.20000076293945 Q 249 423.20000076293945 251 423.20000076293945 Q 253 423.20000076293945 254 423.20000076293945 Q 255 423.20000076293945 257.5 423.20000076293945 Q 260 423.20000076293945 262 422.70000076293945 Q 264 422.20000076293945 265.5 422.20000076293945 Q 267 422.20000076293945 268 421.70000076293945 Q 269 421.20000076293945 269.5 421.20000076293945 Q 270 421.20000076293945 271 421.20000076293945 Q 272 421.20000076293945 273 421.20000076293945 Q 274 421.20000076293945 275.5 421.20000076293945 Q 277 421.20000076293945 278.5 421.20000076293945 Q 280 421.20000076293945 281 421.20000076293945 Q 282 421.20000076293945 284 421.20000076293945 Q 286 421.20000076293945 286.5 421.20000076293945 Q 287 421.20000076293945 289.5 421.20000076293945 Q 292 421.20000076293945 293.5 421.20000076293945 Q 295 421.20000076293945 296.5 421.20000076293945 Q 298 421.20000076293945 299 421.20000076293945 Q 300 421.20000076293945 300.5 421.20000076293945 Q 301 421.20000076293945 302.5 421.20000076293945 Q 304 421.20000076293945 304.5 421.20000076293945 Q 305 421.20000076293945 306.5 421.20000076293945 Q 308 421.20000076293945 310 421.20000076293945 Q 312 421.20000076293945 312.5 421.20000076293945 Q 313 421.20000076293945 315 421.20000076293945 Q 317 421.20000076293945 320 421.20000076293945 Q 323 421.20000076293945 323.5 421.20000076293945 Q 324 421.20000076293945 328.5 421.20000076293945 Q 333 421.20000076293945 335 421.20000076293945 Q 337 421.20000076293945 338 421.20000076293945 Q 339 421.20000076293945 340 421.20000076293945 Q 341 421.20000076293945 342.5 421.20000076293945 Q 344 421.20000076293945 344.5 421.20000076293945 Q 345 421.20000076293945 345.5 421.20000076293945 Q 346 421.20000076293945 347 421.20000076293945 Q 348 421.20000076293945 349 421.20000076293945 Q 350 421.20000076293945 351 421.20000076293945 Q 352 421.20000076293945 353 421.20000076293945 Q 354 421.20000076293945 356.5 420.70000076293945 Q 359 420.20000076293945 359.5 420.20000076293945 Q 360 420.20000076293945 361.5 420.20000076293945 Q 363 420.20000076293945 363.5 420.20000076293945 Q 364 420.20000076293945 365 419.70000076293945 Q 366 419.20000076293945 366.5 419.20000076293945 Q 367 419.20000076293945 367.5 418.70000076293945 Q 368 418.20000076293945 369 418.20000076293945 Q 370 418.20000076293945 370.5 418.20000076293945 Q 371 418.20000076293945 371.5 417.70000076293945 Q 372 417.20000076293945 372.5 417.20000076293945 Q 373 417.20000076293945 376 416.70000076293945 Q 379 416.20000076293945 379.5 416.20000076293945 Q 380 416.20000076293945 381.5 416.20000076293945 Q 383 416.20000076293945 384.5 415.70000076293945 Q 386 415.20000076293945 387 415.20000076293945 Q 388 415.20000076293945 388.5 415.20000076293945 Q 389 415.20000076293945 390 414.70000076293945 Q 391 414.20000076293945 392.5 413.70000076293945 Q 394 413.20000076293945 394.5 413.20000076293945 Q 395 413.20000076293945 395.5 413.20000076293945 Q 396 413.20000076293945 396.5 412.70000076293945 Q 397 412.20000076293945 397.5 412.20000076293945 Q 398 412.20000076293945 399 412.20000076293945 Q 400 412.20000076293945 400.5 411.70000076293945 Q 401 411.20000076293945 401.5 411.20000076293945 Q 402 411.20000076293945 403 410.20000076293945 Q 404 409.20000076293945 405.5 409.20000076293945 Q 407 409.20000076293945 408 408.70000076293945 Q 409 408.20000076293945 410.5 408.20000076293945 Q 412 408.20000076293945 412.5 407.70000076293945 Q 413 407.20000076293945 413.5 407.20000076293945 Q 414 407.20000076293945 415 406.70000076293945 Q 416 406.20000076293945 416 405.70000076293945 Q 416 405.20000076293945 416.5 405.20000076293945 Q 417 405.20000076293945 418 404.70000076293945 Q 419 404.20000076293945 419.5 404.20000076293945 Q 420 404.20000076293945 420 403.70000076293945 Q 420 403.20000076293945 421 403.20000076293945 Q 422 403.20000076293945 422.5 402.70000076293945 Q 423 402.20000076293945 423.5 402.20000076293945 Q 424 402.20000076293945 424 401.70000076293945 Q 424 401.20000076293945 425.5 400.70000076293945 Q 427 400.20000076293945 427.5 400.20000076293945 Q 428 400.20000076293945 429 400.20000076293945 Q 430 400.20000076293945 430.5 399.70000076293945 Q 431 399.20000076293945 431.5 398.70000076293945 Q 432 398.20000076293945 432.5 397.70000076293945 Q 433 397.20000076293945 433.5 397.20000076293945 Q 434 397.20000076293945 434.5 397.20000076293945 Q 435 397.20000076293945 435 396.70000076293945 Q 435 396.20000076293945 435.5 396.20000076293945 Q 436 396.20000076293945 437 396.20000076293945 Q 438 396.20000076293945 439 396.20000076293945 Q 440 396.20000076293945 440.5 396.20000076293945 Q 441 396.20000076293945 442 395.70000076293945 Q 443 395.20000076293945 444 394.70000076293945 Q 445 394.20000076293945 445.5 393.70000076293945 Q 446 393.20000076293945 447 393.20000076293945 Q 448 393.20000076293945 448 392.70000076293945 Q 448 392.20000076293945 448.5 392.20000076293945 Q 449 392.20000076293945 449.5 392.20000076293945 Q 450 392.20000076293945 450.5 392.20000076293945 Q 451 392.20000076293945 451.5 391.70000076293945 Q 452 391.20000076293945 453.5 390.70000076293945 Q 455 390.20000076293945 456 389.70000076293945 Q 457 389.20000076293945 458.5 388.70000076293945 Q 460 388.20000076293945 461 387.70000076293945 Q 462 387.20000076293945 462.5 387.20000076293945 Q 463 387.20000076293945 463.5 386.70000076293945 L 464.007 386.19300076293945" stroke-linecap="round" />
</g>
</svg>