<svg xmlns="http://www.w3.org/2000/svg" xmlns:xlink="http://www.w3.org/1999/xlink" version="1.1" width="600" height="600" viewBox="0 0 600 600" xml:space="preserve">
<desc>Created with Fabric.js 5.2.4</desc>
<defs>
</defs>
<rect x="0" y="0" width="100%" height="100%" fill="#fff"></rect>
<g transform="matrix(1 0 0 1 275 274.7)"  >
<path style="stroke: rgb(0,0,0); stroke-width: 7; stroke-dasharray: none; stroke-linecap: round; stroke-dashoffset: 0; stroke-linejoin: round; stroke-miterlimit: 10; fill: none; fill-rule: nonzero; opacity: 1;"  transform=" translate(-275, -274.7)" d="M 280.007 165.19300076293945 Q 280 165.20000076293945 280 168.70000076293945 Q 280 172.20000076293945 279.5 172.70000076293945 Q 279 173.20000076293945 278 176.70000076293945 Q 277 180.20000076293945 276.5 184.70000076293945 Q 276 189.20000076293945 275 192.70000076293945 Q 274 196.20000076293945 274 197.70000076293945 Q 274 199.20000076293945 273.5 202.20000076293945 Q 273 205.20000076293945 272.5 209.20000076293945 Q 272 213.20000076293945 272 215.20000076293945 Q 272 217.20000076293945 272 220.20000076293945 Q 272 223.20000076293945 272 227.70000076293945 Q 272 232.20000076293945 272 234.20000076293945 Q 272 236.20000076293945 272 239.20000076293945 Q 272 242.20000076293945 272 245.20000076293945 Q 272 248.20000076293945 272 250.20000076293945 Q 272 252.20000076293945 272 254.20000076293945 Q 272 256.20000076293945 272 259.20000076293945 Q 272 262.20000076293945 272 263.70000076293945 Q 272 265.20000076293945 272 268.20000076293945 Q 272 271.20000076293945 272 275.20000076293945 Q 272 279.20000076293945 272 282.70000076293945 Q 272 286.20000076293945 272 287.70000076293945 Q 272 289.20000076293945 272 292.70000076293945 Q 272 296.20000076293945 272 298.70000076293945 Q 272 301.20000076293945 272 302.70000076293945 Q 272 304.20000076293945 272 306.70000076293945 Q 272 309.20000076293945 271.5 313.70000076293945 Q 271 318.20000076293945 271 319.20000076293945 Q 271 320.20000076293945 271 322.20000076293945 Q 271 324.20000076293945 271 327.20000076293945 Q 271 330.20000076293945 271 331.20000076293945 Q 271 332.20000076293945 271 334.70000076293945 Q 271 337.20000076293945 271 340.20000076293945 Q 271 343.20000076293945 271 345.20000076293945 Q 271 347.20000076293945 271 348.20000076293945 Q 271 349.20000076293945 271 351.70000076293945 Q 271 354.20000076293945 271 355.20000076293945 Q 271 356.20000076293945 271 356.70000076293945 Q 271 357.20000076293945 271 358.70000076293945 Q 271 360.20000076293945 271 360.70000076293945 Q 271 361.20000076293945 271 362.20000076293945 Q 271 363.20000076293945 270.5 364.20000076293945 Q 270 365.20000076293945 270 366.20000076293945 Q 270 367.20000076293945 270 368.20000076293945 Q 270 369.20000076293945 270 369.70000076293945 Q 270 370.20000076293945 270 370.70000076293945 Q 270 371.20000076293945 270 371.70000076293945 Q 270 372.20000076293945 270 373.70000076293945 Q 270 375.20000076293945 270 375.70000076293945 Q 270 376.20000076293945 270 376.70000076293945 Q 270 377.20000076293945 270 378.20000076293945 Q 270 379.20000076293945 270 379.70000076293945 Q 270 380.20000076293945 270 381.20000076293945 Q 270 382.20000076293945 270 383.20000076293945 L 270 384.20700076293946" stroke-linecap="round" />
</g>
<g transform="matrix(1 0 0 1 264.5 336.2)"  >
<path style="stroke: rgb(0,0,0); stroke-width: 7; stroke-dasharray: none; stroke-linecap: round; stroke-dashoffset: 0; stroke-linejoin: round; stroke-miterlimit: 10; fill: none; fill-rule: nonzero; opacity: 1;"  transform=" translate(-264.5, -336.2)" d="M 309.007 336.20000076293945 Q 309 336.20000076293945 307 336.20000076293945 Q 305 336.20000076293945 303.5 336.20000076293945 Q 302 336.20000076293945 301.5 336.20000076293945 Q 301 336.20000076293945 299.5 336.20000076293945 Q 298 336.20000076293945 297 336.20000076293945 Q 296 336.20000076293945 295.5 336.20000076293945 Q 295 336.20000076293945 293.5 336.20000076293945 Q 292 336.20000076293945 290.5 336.20000076293945 Q 289 336.20000076293945 288.5 336.20000076293945 Q 288 336.20000076293945 287 336.20000076293945 Q 286 336.20000076293945 285 336.20000076293945 Q 284 336.20000076293945 283 336.20000076293945 Q 282 336.20000076293945 281 336.20000076293945 Q 280 336.20000076293945 279.5 336.20000076293945 Q 279 336.20000076293945 277.5 336.20000076293945 Q 276 336.20000076293945 275.5 336.20000076293945 Q 275 336.20000076293945 273.5 336.20000076293945 Q 272 336.20000076293945 270.5 336.20000076293945 Q 269 336.20000076293945 267.5 336.20000076293945 Q 266 336.20000076293945 265 336.20000076293945 Q 264 336.20000076293945 263.5 336.20000076293945 Q 263 336.20000076293945 261.5 336.20000076293945 Q 260 336.20000076293945 258 336.20000076293945 Q 256 336.20000076293945 255.5 336.20000076293945 Q 255 336.20000076293945 253.5 336.20000076293945 Q 252 336.20000076293945 251 336.20000076293945 Q 250 336.20000076293945 248 336.20000076293945 Q 246 336.20000076293945 245.5 336.20000076293945 Q 245 336.20000076293945 242.5 336.20000076293945 Q 240 336.20000076293945 238.5 336.20000076293945 Q 237 336.20000076293945 236 336.20000076293945 Q 235 336.20000076293945 232.5 336.20000076293945 Q 230 336.20000076293945 228 336.20000076293945 Q 226 336.20000076293945 225 336.20000076293945 Q 224 336.20000076293945 223 336.20000076293945 Q 222 336.20000076293945 221 336.20000076293945 L 219.993 336.20000076293945" stroke-linecap="round" />
</g>
</svg>