<svg xmlns="http://www.w3.org/2000/svg" xmlns:xlink="http://www.w3.org/1999/xlink" version="1.1" width="600" height="600" viewBox="0 0 600 600" xml:space="preserve">
<desc>Created with Fabric.js 5.2.4</desc>
<defs>
</defs>
<rect x="0" y="0" width="100%" height="100%" fill="#fff"></rect>
<g transform="matrix(1 0 0 1 293.5 272.2)"  >
<path style="stroke: rgb(0,0,0); stroke-width: 7; stroke-dasharray: none; stroke-linecap: round; stroke-dashoffset: 0; stroke-linejoin: round; stroke-miterlimit: 10; fill: none; fill-rule: nonzero; opacity: 1;"  transform=" translate(-293.5, -272.2)" d="M 295 89.19300076293945 Q 295 89.20000076293945 295 90.20000076293945 Q 295 91.20000076293945 295 91.70000076293945 Q 295 92.20000076293945 294.5 93.70000076293945 Q 294 95.20000076293945 294 96.20000076293945 Q 294 97.20000076293945 294 98.20000076293945 Q 294 99.20000076293945 294 101.20000076293945 Q 294 103.20000076293945 293.5 104.70000076293945 Q 293 106.20000076293945 293 107.20000076293945 Q 293 108.20000076293945 293 110.20000076293945 Q 293 112.20000076293945 292.5 114.70000076293945 Q 292 117.20000076293945 292 118.70000076293945 Q 292 120.20000076293945 292 122.20000076293945 Q 292 124.20000076293945 292 127.20000076293945 Q 292 130.20000076293945 292 132.20000076293945 Q 292 134.20000076293945 292 135.20000076293945 Q 292 136.20000076293945 292 138.70000076293945 Q 292 141.20000076293945 292 144.70000076293945 Q 292 148.20000076293945 292 149.20000076293945 Q 292 150.20000076293945 292 152.20000076293945 Q 292 154.20000076293945 292 156.20000076293945 Q 292 158.20000076293945 292 159.20000076293945 Q 292 160.20000076293945 292 162.70000076293945 Q 292 165.20000076293945 292 166.70000076293945 Q 292 168.20000076293945 292 169.70000076293945 Q 292 171.20000076293945 292 173.20000076293945 Q 292 175.20000076293945 292 177.20000076293945 Q 292 179.20000076293945 292 181.70000076293945 Q 292 184.20000076293945 292 184.70000076293945 Q 292 185.20000076293945 292 188.70000076293945 Q 292 192.20000076293945 292 195.20000076293945 Q 292 198.20000076293945 292 199.20000076293945 Q 292 200.20000076293945 292 202.70000076293945 Q 292 205.20000076293945 292 208.20000076293945 Q 292 211.20000076293945 292 212.70000076293945 Q 292 214.20000076293945 292 216.20000076293945 Q 292 218.20000076293945 292 221.20000076293945 Q 292 224.20000076293945 292 227.70000076293945 Q 292 231.20000076293945 292 233.70000076293945 Q 292 236.20000076293945 292 237.20000076293945 Q 292 238.20000076293945 292 241.20000076293945 Q 292 244.20000076293945 292 247.20000076293945 Q 292 250.20000076293945 292 253.70000076293945 Q 292 257.20000076293945 292 258.20000076293945 Q 292 259.20000076293945 292 262.20000076293945 Q 292 265.20000076293945 292 268.20000076293945 Q 292 271.20000076293945 292 272.20000076293945 Q 292 273.20000076293945 292 275.20000076293945 Q 292 277.20000076293945 292 279.70000076293945 Q 292 282.20000076293945 292 282.70000076293945 Q 292 283.20000076293945 292 284.70000076293945 Q 292 286.20000076293945 292 287.70000076293945 Q 292 289.20000076293945 292 291.20000076293945 Q 292 293.20000076293945 292 294.20000076293945 Q 292 295.20000076293945 292 296.70000076293945 Q 292 298.20000076293945 292 300.20000076293945 Q 292 302.20000076293945 292 303.20000076293945 Q 292 304.20000076293945 292 307.20000076293945 Q 292 310.20000076293945 292 312.70000076293945 Q 292 315.20000076293945 292 315.70000076293945 Q 292 316.20000076293945 292 318.20000076293945 Q 292 320.20000076293945 292 322.20000076293945 Q 292 324.20000076293945 292 326.20000076293945 Q 292 328.20000076293945 292 328.70000076293945 Q 292 329.20000076293945 292 330.70000076293945 Q 292 332.20000076293945 292 334.70000076293945 Q 292 337.20000076293945 292 338.20000076293945 Q 292 339.20000076293945 292 341.70000076293945 Q 292 344.20000076293945 292 347.20000076293945 Q 292 350.20000076293945 292 351.20000076293945 Q 292 352.20000076293945 292 355.20000076293945 Q 292 358.20000076293945 292 360.20000076293945 Q 292 362.20000076293945 292 363.20000076293945 Q 292 364.20000076293945 292 366.20000076293945 Q 292 368.20000076293945 292 369.70000076293945 Q 292 371.20000076293945 292 371.70000076293945 Q 292 372.20000076293945 292 373.20000076293945 Q 292 374.20000076293945 292 375.20000076293945 Q 292 376.20000076293945 292 376.70000076293945 Q 292 377.20000076293945 292 377.70000076293945 Q 292 378.20000076293945 292 379.70000076293945 Q 292 381.20000076293945 292 381.70000076293945 Q 292 382.20000076293945 292 383.20000076293945 Q 292 384.20000076293945 292 386.20000076293945 Q 292 388.20000076293945 292 388.70000076293945 Q 292 389.20000076293945 292 390.20000076293945 Q 292 391.20000076293945 292 392.70000076293945 Q 292 394.20000076293945 292 394.70000076293945 Q 292 395.20000076293945 292 395.70000076293945 Q 292 396.20000076293945 292 397.20000076293945 Q 292 398.20000076293945 292 399.20000076293945 Q 292 400.20000076293945 292 401.20000076293945 Q 292 402.20000076293945 292 403.20000076293945 Q 292 404.20000076293945 292 404.70000076293945 Q 292 405.20000076293945 292 406.70000076293945 Q 292 408.20000076293945 292 409.20000076293945 Q 292 410.20000076293945 292 410.70000076293945 Q 292 411.20000076293945 292 411.70000076293945 Q 292 412.20000076293945 292 415.70000076293945 Q 292 419.20000076293945 292 419.70000076293945 Q 292 420.20000076293945 292 420.70000076293945 Q 292 421.20000076293945 292 421.70000076293945 Q 292 422.20000076293945 292 422.70000076293945 Q 292 423.20000076293945 292 423.70000076293945 Q 292 424.20000076293945 292 424.70000076293945 Q 292 425.20000076293945 292 426.70000076293945 Q 292 428.20000076293945 292 428.70000076293945 Q 292 429.20000076293945 292 430.20000076293945 Q 292 431.20000076293945 292 431.70000076293945 Q 292 432.20000076293945 292 432.70000076293945 Q 292 433.20000076293945 292 433.70000076293945 Q 292 434.20000076293945 292 435.20000076293945 Q 292 436.20000076293945 292 437.20000076293945 Q 292 438.20000076293945 292 438.70000076293945 Q 292 439.20000076293945 292 439.70000076293945 Q 292 440.20000076293945 292 443.20000076293945 Q 292 446.20000076293945 292 447.20000076293945 Q 292 448.20000076293945 292 449.20000076293945 Q 292 450.20000076293945 292 450.70000076293945 Q 292 451.20000076293945 292 451.70000076293945 Q 292 452.20000076293945 292 452.70000076293945 Q 292 453.20000076293945 292.5 453.70000076293945 Q 293 454.20000076293945 294 454.70000076293945 L 295.007 455.20700076293946" stroke-linecap="round" />
</g>
<g transform="matrix(1 0 0 1 286 382.2)"  >
<path style="stroke: rgb(0,0,0); stroke-width: 7; stroke-dasharray: none; stroke-linecap: round; stroke-dashoffset: 0; stroke-linejoin: round; stroke-miterlimit: 10; fill: none; fill-rule: nonzero; opacity: 1;"  transform=" translate(-286, -382.2)" d="M 328.007 379.20000076293945 Q 328 379.20000076293945 327 379.20000076293945 Q 326 379.20000076293945 324 379.20000076293945 Q 322 379.20000076293945 321 379.20000076293945 Q 320 379.20000076293945 319.5 379.20000076293945 Q 319 379.20000076293945 317.5 379.20000076293945 Q 316 379.20000076293945 314.5 379.20000076293945 Q 313 379.20000076293945 312.5 379.20000076293945 Q 312 379.20000076293945 310.5 379.20000076293945 Q 309 379.20000076293945 308 379.20000076293945 Q 307 379.20000076293945 305.5 379.20000076293945 Q 304 379.20000076293945 303 379.20000076293945 Q 302 379.20000076293945 301 379.20000076293945 Q 300 379.20000076293945 298 379.20000076293945 Q 296 379.20000076293945 294 379.20000076293945 Q 292 379.20000076293945 291.5 379.20000076293945 Q 291 379.20000076293945 288 379.20000076293945 Q 285 379.20000076293945 282.5 379.70000076293945 Q 280 380.20000076293945 277 380.20000076293945 Q 274 380.20000076293945 273.5 380.20000076293945 Q 273 380.20000076293945 271 380.70000076293945 Q 269 381.20000076293945 266.5 381.70000076293945 Q 264 382.20000076293945 262 382.70000076293945 Q 260 383.20000076293945 258.5 383.70000076293945 Q 257 384.20000076293945 256 384.20000076293945 Q 255 384.20000076293945 253.5 384.20000076293945 Q 252 384.20000076293945 251.5 384.20000076293945 Q 251 384.20000076293945 250 384.20000076293945 Q 249 384.20000076293945 248 384.20000076293945 Q 247 384.20000076293945 246.5 384.20000076293945 Q 246 384.20000076293945 245 384.70000076293945 L 243.993 385.20700076293946" stroke-linecap="round" />
</g>
</svg>