<svg xmlns="http://www.w3.org/2000/svg" xmlns:xlink="http://www.w3.org/1999/xlink" version="1.1" width="600" height="600" viewBox="0 0 600 600" xml:space="preserve">
<desc>Created with Fabric.js 5.2.4</desc>
<defs>
</defs>
<rect x="0" y="0" width="100%" height="100%" fill="#fff"></rect>
<g transform="matrix(1 0 0 1 278.5 237.32)"  >
<path style="stroke: rgb(0,0,0); stroke-width: 7; stroke-dasharray: none; stroke-linecap: round; stroke-dashoffset: 0; stroke-linejoin: round; stroke-miterlimit: 10; fill: none; fill-rule: nonzero; opacity: 1;"  transform=" translate(-278.5, -237.32)" d="M 240 333.20700076293946 Q 240 333.20000076293945 241 332.70000076293945 Q 242 332.20000076293945 242 331.20000076293945 Q 242 330.20000076293945 242.5 330.20000076293945 Q 243 330.20000076293945 243.5 329.20000076293945 Q 244 328.20000076293945 244 327.20000076293945 Q 244 326.20000076293945 244 325.20000076293945 Q 244 324.20000076293945 244 323.70000076293945 Q 244 323.20000076293945 244 322.20000076293945 Q 244 321.20000076293945 244.5 320.70000076293945 Q 245 320.20000076293945 245 319.70000076293945 Q 245 319.20000076293945 245.5 318.20000076293945 Q 246 317.20000076293945 246.5 316.70000076293945 Q 247 316.20000076293945 247.5 315.70000076293945 Q 248 315.20000076293945 248 313.70000076293945 Q 248 312.20000076293945 248.5 311.20000076293945 Q 249 310.20000076293945 249.5 309.20000076293945 Q 250 308.20000076293945 250 307.70000076293945 Q 250 307.20000076293945 251 305.70000076293945 Q 252 304.20000076293945 252 303.20000076293945 Q 252 302.20000076293945 253 300.70000076293945 Q 254 299.20000076293945 254 298.20000076293945 Q 254 297.20000076293945 254.5 296.70000076293945 Q 255 296.20000076293945 255.5 294.20000076293945 Q 256 292.20000076293945 256 290.70000076293945 Q 256 289.20000076293945 256.5 288.70000076293945 Q 257 288.20000076293945 257.5 286.70000076293945 Q 258 285.20000076293945 258.5 284.20000076293945 Q 259 283.20000076293945 259 281.70000076293945 Q 259 280.20000076293945 259.5 278.70000076293945 Q 260 277.20000076293945 260.5 276.20000076293945 Q 261 275.20000076293945 261.5 273.70000076293945 Q 262 272.20000076293945 262 271.20000076293945 Q 262 270.20000076293945 263 268.70000076293945 Q 264 267.20000076293945 264 265.70000076293945 Q 264 264.20000076293945 264.5 263.70000076293945 Q 265 263.20000076293945 266 260.20000076293945 Q 267 257.20000076293945 267.5 255.70000076293945 Q 268 254.20000076293945 269 251.20000076293945 Q 270 248.20000076293945 270 247.70000076293945 Q 270 247.20000076293945 271 245.70000076293945 Q 272 244.20000076293945 272 243.70000076293945 Q 272 243.20000076293945 272 241.20000076293945 Q 272 239.20000076293945 272.5 236.70000076293945 Q 273 234.20000076293945 273 232.20000076293945 Q 273 230.20000076293945 273.5 229.20000076293945 Q 274 228.20000076293945 274 226.20000076293945 Q 274 224.20000076293945 274 222.70000076293945 Q 274 221.20000076293945 274 220.70000076293945 Q 274 220.20000076293945 274 218.20000076293945 Q 274 216.20000076293945 274 214.20000076293945 Q 274 212.20000076293945 274 210.70000076293945 Q 274 209.20000076293945 274 206.70000076293945 Q 274 204.20000076293945 274 202.20000076293945 Q 274 200.20000076293945 274 199.20000076293945 Q 274 198.20000076293945 274 195.20000076293945 Q 274 192.20000076293945 274 190.20000076293945 Q 274 188.20000076293945 274 187.70000076293945 Q 274 187.20000076293945 274 185.20000076293945 Q 274 183.20000076293945 275 180.70000076293945 Q 276 178.20000076293945 276 176.70000076293945 Q 276 175.20000076293945 276 174.20000076293945 Q 276 173.20000076293945 276 172.20000076293945 Q 276 171.20000076293945 276 168.70000076293945 Q 276 166.20000076293945 276 165.20000076293945 Q 276 164.20000076293945 276 163.20000076293945 Q 276 162.20000076293945 276 161.20000076293945 Q 276 160.20000076293945 276 159.70000076293945 Q 276 159.20000076293945 276.5 157.70000076293945 Q 277 156.20000076293945 277.5 155.20000076293945 Q 278 154.20000076293945 278 153.20000076293945 Q 278 152.20000076293945 278.5 150.70000076293945 Q 279 149.20000076293945 279 148.70000076293945 Q 279 148.20000076293945 279.5 147.20000076293945 Q 280 146.20000076293945 280 145.20000076293945 Q 280 144.20000076293945 280 143.70000076293945 Q 280 143.20000076293945 280 142.20000076293945 Q 280 141.20000076293945 280 140.70000076293945 Q 280 140.20000076293945 280.5 140.20000076293945 Q 281 140.20000076293945 281 139.70000076293945 Q 281 139.20000076293945 281 138.70000076293945 Q 281 138.20000076293945 281 137.70000076293945 Q 281 137.20000076293945 281 139.70000076293945 Q 281 142.20000076293945 281.5 144.70000076293945 Q 282 147.20000076293945 282 147.70000076293945 Q 282 148.20000076293945 283 151.20000076293945 Q 284 154.20000076293945 284 157.20000076293945 Q 284 160.20000076293945 284.5 162.20000076293945 Q 285 164.20000076293945 285.5 166.70000076293945 Q 286 169.20000076293945 286.5 174.20000076293945 Q 287 179.20000076293945 287.5 180.70000076293945 Q 288 182.20000076293945 289 185.70000076293945 Q 290 189.20000076293945 291 193.20000076293945 Q 292 197.20000076293945 293 202.20000076293945 Q 294 207.20000076293945 295 208.70000076293945 Q 296 210.20000076293945 296.5 214.20000076293945 Q 297 218.20000076293945 298.5 223.20000076293945 Q 300 228.20000076293945 300.5 230.20000076293945 Q 301 232.20000076293945 302.5 236.20000076293945 Q 304 240.20000076293945 305.5 243.70000076293945 Q 307 247.20000076293945 307.5 249.20000076293945 Q 308 251.20000076293945 308 251.70000076293945 Q 308 252.20000076293945 308 254.20000076293945 Q 308 256.20000076293945 308 257.70000076293945 Q 308 259.20000076293945 308.5 259.70000076293945 Q 309 260.20000076293945 309 261.20000076293945 Q 309 262.20000076293945 309.5 263.20000076293945 Q 310 264.20000076293945 310 265.70000076293945 Q 310 267.20000076293945 310.5 269.70000076293945 Q 311 272.20000076293945 311.5 273.20000076293945 Q 312 274.20000076293945 312 277.20000076293945 Q 312 280.20000076293945 312.5 282.20000076293945 Q 313 284.20000076293945 313 285.20000076293945 Q 313 286.20000076293945 313.5 287.20000076293945 Q 314 288.20000076293945 314.5 290.70000076293945 Q 315 293.20000076293945 315.5 294.20000076293945 Q 316 295.20000076293945 316 296.20000076293945 Q 316 297.20000076293945 316 298.70000076293945 Q 316 300.20000076293945 316 301.20000076293945 Q 316 302.20000076293945 316 303.20000076293945 Q 316 304.20000076293945 316 305.20000076293945 Q 316 306.20000076293945 316 307.20000076293945 Q 316 308.20000076293945 316 308.70000076293945 Q 316 309.20000076293945 316 310.70000076293945 Q 316 312.20000076293945 316 313.70000076293945 Q 316 315.20000076293945 316 315.70000076293945 Q 316 316.20000076293945 316 317.20000076293945 Q 316 318.20000076293945 316 319.20000076293945 Q 316 320.20000076293945 316 321.20000076293945 Q 316 322.20000076293945 316 323.20000076293945 Q 316 324.20000076293945 316 325.20000076293945 Q 316 326.20000076293945 316 326.70000076293945 Q 316 327.20000076293945 316 327.70000076293945 Q 316 328.20000076293945 316 328.70000076293945 Q 316 329.20000076293945 316 330.20000076293945 Q 316 331.20000076293945 316 331.70000076293945 Q 316 332.20000076293945 316.5 332.70000076293945 Q 317 333.20000076293945 317 333.70000076293945 Q 317 334.20000076293945 317 334.70000076293945 Q 317 335.20000076293945 317 336.20000076293945 L 317 337.20700076293946" stroke-linecap="round" />
</g>
<g transform="matrix(1 0 0 1 267 335.7)"  >
<path style="stroke: rgb(0,0,0); stroke-width: 7; stroke-dasharray: none; stroke-linecap: round; stroke-dashoffset: 0; stroke-linejoin: round; stroke-miterlimit: 10; fill: none; fill-rule: nonzero; opacity: 1;"  transform=" translate(-267, -335.7)" d="M 357.007 328.20000076293945 Q 357 328.20000076293945 356.5 328.20000076293945 Q 356 328.20000076293945 355 328.20000076293945 Q 354 328.20000076293945 351.5 328.20000076293945 Q 349 328.20000076293945 346.5 328.20000076293945 Q 344 328.20000076293945 341 328.20000076293945 Q 338 328.20000076293945 333 328.20000076293945 Q 328 328.20000076293945 326.5 328.20000076293945 Q 325 328.20000076293945 322.5 328.20000076293945 Q 320 328.20000076293945 316 329.20000076293945 Q 312 330.20000076293945 309 330.70000076293945 Q 306 331.20000076293945 304.5 331.20000076293945 Q 303 331.20000076293945 299.5 331.70000076293945 Q 296 332.20000076293945 293.5 332.70000076293945 Q 291 333.20000076293945 289.5 333.20000076293945 Q 288 333.20000076293945 286 333.70000076293945 Q 284 334.20000076293945 281.5 334.70000076293945 Q 279 335.20000076293945 278 335.70000076293945 Q 277 336.20000076293945 276 336.20000076293945 Q 275 336.20000076293945 274 336.20000076293945 Q 273 336.20000076293945 272.5 336.20000076293945 Q 272 336.20000076293945 272 336.70000076293945 Q 272 337.20000076293945 271 337.20000076293945 Q 270 337.20000076293945 269.5 337.20000076293945 Q 269 337.20000076293945 269 337.70000076293945 Q 269 338.20000076293945 268.5 338.20000076293945 Q 268 338.20000076293945 267.5 338.20000076293945 Q 267 338.20000076293945 266 338.70000076293945 Q 265 339.20000076293945 263.5 339.20000076293945 Q 262 339.20000076293945 260.5 339.20000076293945 Q 259 339.20000076293945 258 339.70000076293945 Q 257 340.20000076293945 255 340.20000076293945 Q 253 340.20000076293945 248.5 340.70000076293945 Q 244 341.20000076293945 243.5 341.20000076293945 Q 243 341.20000076293945 241 341.20000076293945 Q 239 341.20000076293945 236 341.70000076293945 Q 233 342.20000076293945 232 342.20000076293945 Q 231 342.20000076293945 230.5 342.20000076293945 Q 230 342.20000076293945 228.5 342.70000076293945 Q 227 343.20000076293945 226.5 343.20000076293945 Q 226 343.20000076293945 225.5 343.20000076293945 Q 225 343.20000076293945 224.5 343.20000076293945 Q 224 343.20000076293945 223.5 343.20000076293945 Q 223 343.20000076293945 222 343.20000076293945 Q 221 343.20000076293945 220.5 343.20000076293945 Q 220 343.20000076293945 218.5 343.20000076293945 Q 217 343.20000076293945 216 342.70000076293945 Q 215 342.20000076293945 213.5 341.70000076293945 Q 212 341.20000076293945 211 340.70000076293945 Q 210 340.20000076293945 209 340.20000076293945 Q 208 340.20000076293945 206.5 340.20000076293945 Q 205 340.20000076293945 204.5 340.20000076293945 Q 204 340.20000076293945 203 339.70000076293945 Q 202 339.20000076293945 201 338.70000076293945 Q 200 338.20000076293945 199.5 338.20000076293945 Q 199 338.20000076293945 198 338.20000076293945 Q 197 338.20000076293945 196.5 337.70000076293945 Q 196 337.20000076293945 195 337.20000076293945 Q 194 337.20000076293945 193 336.70000076293945 Q 192 336.20000076293945 191 336.20000076293945 Q 190 336.20000076293945 189.5 336.20000076293945 Q 189 336.20000076293945 188.5 336.20000076293945 Q 188 336.20000076293945 187 335.70000076293945 Q 186 335.20000076293945 185.5 335.20000076293945 Q 185 335.20000076293945 184.5 335.20000076293945 Q 184 335.20000076293945 183.5 335.20000076293945 Q 183 335.20000076293945 182.5 335.20000076293945 Q 182 335.20000076293945 181.5 335.20000076293945 Q 181 335.20000076293945 180.5 335.20000076293945 Q 180 335.20000076293945 179.5 335.20000076293945 Q 179 335.20000076293945 178 334.70000076293945 L 176.993 334.19300076293945" stroke-linecap="round" />
</g>
<g transform="matrix(1 0 0 1 282 376.2)"  >
<path style="stroke: rgb(0,0,0); stroke-width: 7; stroke-dasharray: none; stroke-linecap: round; stroke-dashoffset: 0; stroke-linejoin: round; stroke-miterlimit: 10; fill: none; fill-rule: nonzero; opacity: 1;"  transform=" translate(-282, -376.2)" d="M 284 336.19300076293945 Q 284 336.20000076293945 284 336.70000076293945 Q 284 337.20000076293945 284 339.20000076293945 Q 284 341.20000076293945 284 341.70000076293945 Q 284 342.20000076293945 284 343.70000076293945 Q 284 345.20000076293945 284 346.70000076293945 Q 284 348.20000076293945 284 348.70000076293945 Q 284 349.20000076293945 284 350.70000076293945 Q 284 352.20000076293945 284 354.20000076293945 Q 284 356.20000076293945 284 356.70000076293945 Q 284 357.20000076293945 284 358.70000076293945 Q 284 360.20000076293945 284 361.20000076293945 Q 284 362.20000076293945 283.5 363.20000076293945 Q 283 364.20000076293945 283 366.20000076293945 Q 283 368.20000076293945 282.5 370.20000076293945 Q 282 372.20000076293945 282 374.70000076293945 Q 282 377.20000076293945 282 377.70000076293945 Q 282 378.20000076293945 282 380.20000076293945 Q 282 382.20000076293945 282 384.20000076293945 Q 282 386.20000076293945 282 386.70000076293945 Q 282 387.20000076293945 282 388.20000076293945 Q 282 389.20000076293945 282 390.20000076293945 Q 282 391.20000076293945 282 391.70000076293945 Q 282 392.20000076293945 282 393.20000076293945 Q 282 394.20000076293945 282 394.70000076293945 Q 282 395.20000076293945 282 396.20000076293945 Q 282 397.20000076293945 281.5 397.20000076293945 Q 281 397.20000076293945 281 398.70000076293945 Q 281 400.20000076293945 280.5 400.20000076293945 Q 280 400.20000076293945 280 401.20000076293945 Q 280 402.20000076293945 280 403.20000076293945 Q 280 404.20000076293945 280 405.20000076293945 Q 280 406.20000076293945 280 407.20000076293945 Q 280 408.20000076293945 280 409.20000076293945 Q 280 410.20000076293945 280 410.70000076293945 Q 280 411.20000076293945 280 411.70000076293945 Q 280 412.20000076293945 280 412.70000076293945 Q 280 413.20000076293945 280 413.70000076293945 Q 280 414.20000076293945 280 415.20000076293945 L 280 416.20700076293946" stroke-linecap="round" />
</g>
</svg>