<svg xmlns="http://www.w3.org/2000/svg" xmlns:xlink="http://www.w3.org/1999/xlink" version="1.1" width="600" height="600" viewBox="0 0 600 600" xml:space="preserve">
<desc>Created with Fabric.js 5.2.4</desc>
<defs>
</defs>
<rect x="0" y="0" width="100%" height="100%" fill="#fff"></rect>
<g transform="matrix(1 0 0 1 286.4 246.7)"  >
<path style="stroke: rgb(0,0,0); stroke-width: 7; stroke-dasharray: none; stroke-linecap: round; stroke-dashoffset: 0; stroke-linejoin: round; stroke-miterlimit: 10; fill: none; fill-rule: nonzero; opacity: 1;"  transform=" translate(-286.4, -246.7)" d="M 323.4069938964844 156.20000076293945 Q 323.3999938964844 156.20000076293945 322.3999938964844 156.20000076293945 Q 321.3999938964844 156.20000076293945 319.8999938964844 156.20000076293945 Q 318.3999938964844 156.20000076293945 317.3999938964844 156.20000076293945 Q 316.3999938964844 156.20000076293945 315.3999938964844 156.20000076293945 Q 314.3999938964844 156.20000076293945 313.3999938964844 156.20000076293945 Q 312.3999938964844 156.20000076293945 311.3999938964844 156.20000076293945 Q 310.3999938964844 156.20000076293945 309.8999938964844 156.20000076293945 Q 309.3999938964844 156.20000076293945 307.8999938964844 156.20000076293945 Q 306.3999938964844 156.20000076293945 305.8999938964844 156.70000076293945 Q 305.3999938964844 157.20000076293945 303.8999938964844 157.20000076293945 Q 302.3999938964844 157.20000076293945 301.3999938964844 157.70000076293945 Q 300.3999938964844 158.20000076293945 299.3999938964844 158.20000076293945 Q 298.3999938964844 158.20000076293945 296.3999938964844 158.70000076293945 Q 294.3999938964844 159.20000076293945 293.8999938964844 159.70000076293945 Q 293.3999938964844 160.20000076293945 291.8999938964844 160.20000076293945 Q 290.3999938964844 160.20000076293945 288.3999938964844 160.70000076293945 Q 286.3999938964844 161.20000076293945 285.3999938964844 161.70000076293945 Q 284.3999938964844 162.20000076293945 281.8999938964844 162.70000076293945 Q 279.3999938964844 163.20000076293945 276.8999938964844 163.70000076293945 Q 274.3999938964844 164.20000076293945 272.8999938964844 164.70000076293945 Q 271.3999938964844 165.20000076293945 268.8999938964844 166.70000076293945 Q 266.3999938964844 168.20000076293945 264.3999938964844 168.70000076293945 Q 262.3999938964844 169.20000076293945 260.8999938964844 169.70000076293945 Q 259.3999938964844 170.20000076293945 257.3999938964844 171.20000076293945 Q 255.39999389648438 172.20000076293945 252.89999389648438 172.70000076293945 Q 250.39999389648438 173.20000076293945 248.89999389648438 174.20000076293945 Q 247.39999389648438 175.20000076293945 245.89999389648438 175.70000076293945 Q 244.39999389648438 176.20000076293945 241.39999389648438 177.70000076293945 Q 238.39999389648438 179.20000076293945 237.89999389648438 179.70000076293945 Q 237.39999389648438 180.20000076293945 235.39999389648438 181.20000076293945 Q 233.39999389648438 182.20000076293945 230.89999389648438 183.20000076293945 Q 228.39999389648438 184.20000076293945 225.89999389648438 186.20000076293945 Q 223.39999389648438 188.20000076293945 222.89999389648438 189.20000076293945 Q 222.39999389648438 190.20000076293945 220.39999389648438 191.20000076293945 Q 218.39999389648438 192.20000076293945 216.39999389648438 194.20000076293945 Q 214.39999389648438 196.20000076293945 213.89999389648438 196.70000076293945 Q 213.39999389648438 197.20000076293945 211.89999389648438 199.70000076293945 Q 210.39999389648438 202.20000076293945 209.39999389648438 203.70000076293945 Q 208.39999389648438 205.20000076293945 207.89999389648438 206.70000076293945 Q 207.39999389648438 208.20000076293945 206.89999389648438 208.70000076293945 Q 206.39999389648438 209.20000076293945 205.39999389648438 212.20000076293945 Q 204.39999389648438 215.20000076293945 203.39999389648438 215.70000076293945 Q 202.39999389648438 216.20000076293945 202.39999389648438 218.20000076293945 Q 202.39999389648438 220.20000076293945 201.89999389648438 222.20000076293945 Q 201.39999389648438 224.20000076293945 200.89999389648438 225.20000076293945 Q 200.39999389648438 226.20000076293945 199.89999389648438 227.70000076293945 Q 199.39999389648438 229.20000076293945 199.39999389648438 231.20000076293945 Q 199.39999389648438 233.20000076293945 198.89999389648438 235.20000076293945 Q 198.39999389648438 237.20000076293945 198.39999389648438 238.70000076293945 Q 198.39999389648438 240.20000076293945 198.39999389648438 241.70000076293945 Q 198.39999389648438 243.20000076293945 198.39999389648438 245.20000076293945 Q 198.39999389648438 247.20000076293945 198.39999389648438 247.70000076293945 Q 198.39999389648438 248.20000076293945 198.39999389648438 250.20000076293945 Q 198.39999389648438 252.20000076293945 198.39999389648438 254.20000076293945 Q 198.39999389648438 256.20000076293945 198.39999389648438 257.20000076293945 Q 198.39999389648438 258.20000076293945 198.39999389648438 260.20000076293945 Q 198.39999389648438 262.20000076293945 198.39999389648438 264.20000076293945 Q 198.39999389648438 266.20000076293945 198.39999389648438 267.20000076293945 Q 198.39999389648438 268.20000076293945 198.39999389648438 270.70000076293945 Q 198.39999389648438 273.20000076293945 198.39999389648438 275.20000076293945 Q 198.39999389648438 277.20000076293945 198.39999389648438 278.70000076293945 Q 198.39999389648438 280.20000076293945 198.89999389648438 282.20000076293945 Q 199.39999389648438 284.20000076293945 199.89999389648438 285.70000076293945 Q 200.39999389648438 287.20000076293945 200.89999389648438 288.20000076293945 Q 201.39999389648438 289.20000076293945 201.89999389648438 290.20000076293945 Q 202.39999389648438 291.20000076293945 202.89999389648438 291.70000076293945 Q 203.39999389648438 292.20000076293945 203.89999389648438 293.20000076293945 Q 204.39999389648438 294.20000076293945 204.39999389648438 294.70000076293945 Q 204.39999389648438 295.20000076293945 204.89999389648438 295.70000076293945 Q 205.39999389648438 296.20000076293945 205.89999389648438 297.20000076293945 Q 206.39999389648438 298.20000076293945 206.89999389648438 299.20000076293945 Q 207.39999389648438 300.20000076293945 208.89999389648438 301.20000076293945 Q 210.39999389648438 302.20000076293945 211.39999389648438 302.70000076293945 Q 212.39999389648438 303.20000076293945 213.89999389648438 305.20000076293945 Q 215.39999389648438 307.20000076293945 215.89999389648438 307.70000076293945 Q 216.39999389648438 308.20000076293945 217.39999389648438 308.20000076293945 Q 218.39999389648438 308.20000076293945 218.89999389648438 309.20000076293945 Q 219.39999389648438 310.20000076293945 220.89999389648438 311.20000076293945 Q 222.39999389648438 312.20000076293945 223.89999389648438 313.70000076293945 Q 225.39999389648438 315.20000076293945 225.89999389648438 315.70000076293945 Q 226.39999389648438 316.20000076293945 229.89999389648438 318.20000076293945 Q 233.39999389648438 320.20000076293945 235.89999389648438 321.70000076293945 Q 238.39999389648438 323.20000076293945 238.89999389648438 323.70000076293945 Q 239.39999389648438 324.20000076293945 241.89999389648438 325.70000076293945 Q 244.39999389648438 327.20000076293945 247.39999389648438 328.20000076293945 Q 250.39999389648438 329.20000076293945 250.89999389648438 329.70000076293945 Q 251.39999389648438 330.20000076293945 254.39999389648438 331.70000076293945 Q 257.3999938964844 333.20000076293945 258.3999938964844 333.20000076293945 Q 259.3999938964844 333.20000076293945 260.8999938964844 333.70000076293945 Q 262.3999938964844 334.20000076293945 265.3999938964844 335.20000076293945 Q 268.3999938964844 336.20000076293945 269.3999938964844 336.70000076293945 Q 270.3999938964844 337.20000076293945 271.3999938964844 337.20000076293945 Q 272.3999938964844 337.20000076293945 273.3999938964844 337.20000076293945 Q 274.3999938964844 337.20000076293945 274.8999938964844 337.20000076293945 Q 275.3999938964844 337.20000076293945 276.8999938964844 337.70000076293945 Q 278.3999938964844 338.20000076293945 279.3999938964844 338.20000076293945 Q 280.3999938964844 338.20000076293945 281.8999938964844 338.20000076293945 Q 283.3999938964844 338.20000076293945 283.8999938964844 338.20000076293945 Q 284.3999938964844 338.20000076293945 285.3999938964844 338.20000076293945 Q 286.3999938964844 338.20000076293945 287.3999938964844 338.20000076293945 Q 288.3999938964844 338.20000076293945 288.8999938964844 338.20000076293945 Q 289.3999938964844 338.20000076293945 290.8999938964844 338.20000076293945 Q 292.3999938964844 338.20000076293945 293.8999938964844 337.70000076293945 Q 295.3999938964844 337.20000076293945 296.3999938964844 337.20000076293945 Q 297.3999938964844 337.20000076293945 299.3999938964844 336.70000076293945 Q 301.3999938964844 336.20000076293945 301.8999938964844 336.20000076293945 Q 302.3999938964844 336.20000076293945 303.8999938964844 335.20000076293945 Q 305.3999938964844 334.20000076293945 305.8999938964844 334.20000076293945 Q 306.3999938964844 334.20000076293945 308.8999938964844 333.20000076293945 Q 311.3999938964844 332.20000076293945 313.8999938964844 331.20000076293945 Q 316.3999938964844 330.20000076293945 317.3999938964844 329.70000076293945 Q 318.3999938964844 329.20000076293945 321.3999938964844 328.20000076293945 Q 324.3999938964844 327.20000076293945 327.3999938964844 326.20000076293945 Q 330.3999938964844 325.20000076293945 331.3999938964844 324.70000076293945 Q 332.3999938964844 324.20000076293945 334.3999938964844 323.20000076293945 Q 336.3999938964844 322.20000076293945 339.3999938964844 321.20000076293945 Q 342.3999938964844 320.20000076293945 343.3999938964844 319.20000076293945 Q 344.3999938964844 318.20000076293945 345.3999938964844 318.20000076293945 Q 346.3999938964844 318.20000076293945 348.3999938964844 317.20000076293945 Q 350.3999938964844 316.20000076293945 351.8999938964844 315.20000076293945 Q 353.3999938964844 314.20000076293945 354.3999938964844 313.70000076293945 Q 355.3999938964844 313.20000076293945 356.3999938964844 312.70000076293945 Q 357.3999938964844 312.20000076293945 357.8999938964844 311.20000076293945 Q 358.3999938964844 310.20000076293945 359.8999938964844 309.20000076293945 Q 361.3999938964844 308.20000076293945 361.8999938964844 307.70000076293945 Q 362.3999938964844 307.20000076293945 362.8999938964844 305.70000076293945 Q 363.3999938964844 304.20000076293945 364.3999938964844 303.20000076293945 Q 365.3999938964844 302.20000076293945 365.8999938964844 301.70000076293945 Q 366.3999938964844 301.20000076293945 367.3999938964844 300.20000076293945 Q 368.3999938964844 299.20000076293945 369.3999938964844 297.70000076293945 Q 370.3999938964844 296.20000076293945 370.3999938964844 294.70000076293945 Q 370.3999938964844 293.20000076293945 370.8999938964844 292.20000076293945 Q 371.3999938964844 291.20000076293945 371.8999938964844 289.70000076293945 Q 372.3999938964844 288.20000076293945 372.8999938964844 288.20000076293945 Q 373.3999938964844 288.20000076293945 373.3999938964844 286.20000076293945 Q 373.3999938964844 284.20000076293945 373.3999938964844 283.70000076293945 Q 373.3999938964844 283.20000076293945 373.8999938964844 281.70000076293945 Q 374.3999938964844 280.20000076293945 374.3999938964844 279.20000076293945 Q 374.3999938964844 278.20000076293945 374.3999938964844 277.20000076293945 Q 374.3999938964844 276.20000076293945 374.3999938964844 274.70000076293945 Q 374.3999938964844 273.20000076293945 374.3999938964844 272.20000076293945 Q 374.3999938964844 271.20000076293945 374.3999938964844 269.20000076293945 Q 374.3999938964844 267.20000076293945 374.3999938964844 265.70000076293945 Q 374.3999938964844 264.20000076293945 374.3999938964844 263.20000076293945 Q 374.3999938964844 262.20000076293945 374.3999938964844 261.20000076293945 Q 374.3999938964844 260.20000076293945 374.3999938964844 258.20000076293945 Q 374.3999938964844 256.20000076293945 374.3999938964844 255.20000076293945 Q 374.3999938964844 254.20000076293945 374.3999938964844 252.70000076293945 Q 374.3999938964844 251.20000076293945 374.3999938964844 249.20000076293945 Q 374.3999938964844 247.20000076293945 374.3999938964844 246.70000076293945 Q 374.3999938964844 246.20000076293945 374.3999938964844 244.70000076293945 Q 374.3999938964844 243.20000076293945 374.3999938964844 241.70000076293945 Q 374.3999938964844 240.20000076293945 374.3999938964844 238.20000076293945 Q 374.3999938964844 236.20000076293945 374.3999938964844 234.20000076293945 Q 374.3999938964844 232.20000076293945 374.3999938964844 230.20000076293945 Q 374.3999938964844 228.20000076293945 374.3999938964844 227.70000076293945 Q 374.3999938964844 227.20000076293945 374.3999938964844 225.70000076293945 Q 374.3999938964844 224.20000076293945 373.8999938964844 222.70000076293945 Q 373.3999938964844 221.20000076293945 372.8999938964844 220.20000076293945 Q 372.3999938964844 219.20000076293945 371.8999938964844 217.70000076293945 Q 371.3999938964844 216.20000076293945 370.8999938964844 214.70000076293945 Q 370.3999938964844 213.20000076293945 370.3999938964844 212.70000076293945 Q 370.3999938964844 212.20000076293945 369.8999938964844 210.20000076293945 Q 369.3999938964844 208.20000076293945 368.3999938964844 206.70000076293945 Q 367.3999938964844 205.20000076293945 366.8999938964844 204.70000076293945 Q 366.3999938964844 204.20000076293945 366.3999938964844 202.70000076293945 Q 366.3999938964844 201.20000076293945 365.8999938964844 200.70000076293945 Q 365.3999938964844 200.20000076293945 364.8999938964844 198.20000076293945 Q 364.3999938964844 196.20000076293945 363.8999938964844 195.20000076293945 Q 363.3999938964844 194.20000076293945 362.8999938964844 193.20000076293945 Q 362.3999938964844 192.20000076293945 361.8999938964844 191.20000076293945 Q 361.3999938964844 190.20000076293945 360.8999938964844 189.70000076293945 Q 360.3999938964844 189.20000076293945 359.3999938964844 188.20000076293945 Q 358.3999938964844 187.20000076293945 358.3999938964844 186.20000076293945 Q 358.3999938964844 185.20000076293945 357.3999938964844 184.70000076293945 Q 356.3999938964844 184.20000076293945 355.3999938964844 182.70000076293945 Q 354.3999938964844 181.20000076293945 353.3999938964844 180.20000076293945 Q 352.3999938964844 179.20000076293945 351.3999938964844 178.70000076293945 Q 350.3999938964844 178.20000076293945 349.8999938964844 177.20000076293945 Q 349.3999938964844 176.20000076293945 348.8999938964844 175.70000076293945 Q 348.3999938964844 175.20000076293945 347.8999938964844 175.20000076293945 Q 347.3999938964844 175.20000076293945 346.8999938964844 174.70000076293945 Q 346.3999938964844 174.20000076293945 346.3999938964844 173.70000076293945 Q 346.3999938964844 173.20000076293945 345.3999938964844 173.20000076293945 Q 344.3999938964844 173.20000076293945 343.8999938964844 172.70000076293945 Q 343.3999938964844 172.20000076293945 342.8999938964844 172.20000076293945 Q 342.3999938964844 172.20000076293945 341.8999938964844 172.20000076293945 Q 341.3999938964844 172.20000076293945 340.8999938964844 172.20000076293945 Q 340.3999938964844 172.20000076293945 339.3999938964844 171.70000076293945 Q 338.3999938964844 171.20000076293945 338.3999938964844 170.70000076293945 Q 338.3999938964844 170.20000076293945 337.8999938964844 170.20000076293945 Q 337.3999938964844 170.20000076293945 336.8999938964844 169.70000076293945 Q 336.3999938964844 169.20000076293945 335.8999938964844 168.70000076293945 Q 335.3999938964844 168.20000076293945 334.8999938964844 168.20000076293945 Q 334.3999938964844 168.20000076293945 333.3999938964844 167.70000076293945 Q 332.3999938964844 167.20000076293945 331.8999938964844 166.70000076293945 Q 331.3999938964844 166.20000076293945 330.8999938964844 165.70000076293945 Q 330.3999938964844 165.20000076293945 329.8999938964844 164.70000076293945 Q 329.3999938964844 164.20000076293945 328.8999938964844 164.20000076293945 Q 328.3999938964844 164.20000076293945 327.8999938964844 164.20000076293945 Q 327.3999938964844 164.20000076293945 326.8999938964844 163.70000076293945 Q 326.3999938964844 163.20000076293945 326.3999938964844 162.70000076293945 Q 326.3999938964844 162.20000076293945 325.8999938964844 161.70000076293945 Q 325.3999938964844 161.20000076293945 324.8999938964844 160.70000076293945 Q 324.3999938964844 160.20000076293945 323.8999938964844 160.20000076293945 Q 323.3999938964844 160.20000076293945 322.8999938964844 159.70000076293945 Q 322.3999938964844 159.20000076293945 322.3999938964844 158.70000076293945 Q 322.3999938964844 158.20000076293945 322.3999938964844 157.70000076293945 Q 322.3999938964844 157.20000076293945 322.3999938964844 156.70000076293945 Q 322.3999938964844 156.20000076293945 321.8999938964844 156.20000076293945 Q 321.3999938964844 156.20000076293945 320.8999938964844 156.20000076293945 Q 320.3999938964844 156.20000076293945 319.8999938964844 155.70000076293945 L 319.39299389648437 155.19300076293945" stroke-linecap="round" />
</g>
<g transform="matrix(1 0 0 1 396.9 132.7)"  >
<path style="stroke: rgb(0,0,0); stroke-width: 7; stroke-dasharray: none; stroke-linecap: round; stroke-dashoffset: 0; stroke-linejoin: round; stroke-miterlimit: 10; fill: none; fill-rule: nonzero; opacity: 1;"  transform=" translate(-396.9, -132.7)" d="M 378.3999938964844 145.20700076293946 Q 378.3999938964844 145.20000076293945 378.3999938964844 144.70000076293945 Q 378.3999938964844 144.20000076293945 378.3999938964844 143.70000076293945 Q 378.3999938964844 143.20000076293945 378.8999938964844 142.70000076293945 Q 379.3999938964844 142.20000076293945 380.3999938964844 141.70000076293945 Q 381.3999938964844 141.20000076293945 381.3999938964844 140.70000076293945 Q 381.3999938964844 140.20000076293945 381.8999938964844 139.70000076293945 Q 382.3999938964844 139.20000076293945 382.3999938964844 138.70000076293945 Q 382.3999938964844 138.20000076293945 382.8999938964844 137.70000076293945 Q 383.3999938964844 137.20000076293945 383.8999938964844 136.70000076293945 Q 384.3999938964844 136.20000076293945 384.8999938964844 136.20000076293945 Q 385.3999938964844 136.20000076293945 385.8999938964844 135.70000076293945 Q 386.3999938964844 135.20000076293945 386.3999938964844 134.70000076293945 Q 386.3999938964844 134.20000076293945 386.8999938964844 133.70000076293945 Q 387.3999938964844 133.20000076293945 387.3999938964844 132.70000076293945 Q 387.3999938964844 132.20000076293945 387.8999938964844 132.20000076293945 Q 388.3999938964844 132.20000076293945 388.8999938964844 132.20000076293945 Q 389.3999938964844 132.20000076293945 389.3999938964844 131.70000076293945 Q 389.3999938964844 131.20000076293945 389.8999938964844 131.20000076293945 Q 390.3999938964844 131.20000076293945 390.8999938964844 130.20000076293945 Q 391.3999938964844 129.20000076293945 391.8999938964844 128.70000076293945 Q 392.3999938964844 128.20000076293945 393.3999938964844 128.20000076293945 Q 394.3999938964844 128.20000076293945 395.3999938964844 127.70000076293945 Q 396.3999938964844 127.20000076293945 396.3999938964844 126.70000076293945 Q 396.3999938964844 126.20000076293945 396.8999938964844 126.20000076293945 Q 397.3999938964844 126.20000076293945 397.8999938964844 126.20000076293945 Q 398.3999938964844 126.20000076293945 398.3999938964844 125.70000076293945 Q 398.3999938964844 125.20000076293945 398.8999938964844 125.20000076293945 Q 399.3999938964844 125.20000076293945 400.3999938964844 124.70000076293945 Q 401.3999938964844 124.20000076293945 401.8999938964844 123.70000076293945 Q 402.3999938964844 123.20000076293945 403.8999938964844 123.20000076293945 Q 405.3999938964844 123.20000076293945 405.8999938964844 123.20000076293945 Q 406.3999938964844 123.20000076293945 406.3999938964844 122.70000076293945 Q 406.3999938964844 122.20000076293945 406.8999938964844 122.20000076293945 Q 407.3999938964844 122.20000076293945 407.3999938964844 121.70000076293945 Q 407.3999938964844 121.20000076293945 407.8999938964844 121.20000076293945 Q 408.3999938964844 121.20000076293945 408.8999938964844 121.20000076293945 Q 409.3999938964844 121.20000076293945 409.8999938964844 120.70000076293945 Q 410.3999938964844 120.20000076293945 410.8999938964844 120.20000076293945 Q 411.3999938964844 120.20000076293945 411.8999938964844 120.20000076293945 Q 412.3999938964844 120.20000076293945 412.8999938964844 120.20000076293945 Q 413.3999938964844 120.20000076293945 414.3999938964844 120.20000076293945 L 415.4069938964844 120.20000076293945" stroke-linecap="round" />
</g>
<g transform="matrix(1 0 0 1 422.9 212.2)"  >
<path style="stroke: rgb(0,0,0); stroke-width: 7; stroke-dasharray: none; stroke-linecap: round; stroke-dashoffset: 0; stroke-linejoin: round; stroke-miterlimit: 10; fill: none; fill-rule: nonzero; opacity: 1;"  transform=" translate(-422.9, -212.2)" d="M 387.39299389648437 216.20700076293946 Q 387.3999938964844 216.20000076293945 388.3999938964844 216.20000076293945 Q 389.3999938964844 216.20000076293945 389.8999938964844 215.70000076293945 Q 390.3999938964844 215.20000076293945 390.8999938964844 215.20000076293945 Q 391.3999938964844 215.20000076293945 391.8999938964844 215.20000076293945 Q 392.3999938964844 215.20000076293945 393.3999938964844 214.70000076293945 Q 394.3999938964844 214.20000076293945 394.8999938964844 213.70000076293945 Q 395.3999938964844 213.20000076293945 396.8999938964844 212.70000076293945 Q 398.3999938964844 212.20000076293945 398.8999938964844 212.20000076293945 Q 399.3999938964844 212.20000076293945 400.3999938964844 211.70000076293945 Q 401.3999938964844 211.20000076293945 401.8999938964844 211.20000076293945 Q 402.3999938964844 211.20000076293945 403.3999938964844 211.20000076293945 Q 404.3999938964844 211.20000076293945 405.3999938964844 210.70000076293945 Q 406.3999938964844 210.20000076293945 406.8999938964844 210.20000076293945 Q 407.3999938964844 210.20000076293945 408.8999938964844 210.20000076293945 Q 410.3999938964844 210.20000076293945 410.8999938964844 209.70000076293945 Q 411.3999938964844 209.20000076293945 412.3999938964844 209.20000076293945 Q 413.3999938964844 209.20000076293945 413.8999938964844 209.20000076293945 Q 414.3999938964844 209.20000076293945 414.8999938964844 209.20000076293945 Q 415.3999938964844 209.20000076293945 416.3999938964844 208.70000076293945 Q 417.3999938964844 208.20000076293945 418.3999938964844 208.20000076293945 Q 419.3999938964844 208.20000076293945 420.8999938964844 208.20000076293945 Q 422.3999938964844 208.20000076293945 424.3999938964844 208.20000076293945 Q 426.3999938964844 208.20000076293945 427.3999938964844 208.20000076293945 Q 428.3999938964844 208.20000076293945 431.3999938964844 208.20000076293945 Q 434.3999938964844 208.20000076293945 436.3999938964844 208.20000076293945 Q 438.3999938964844 208.20000076293945 439.3999938964844 208.20000076293945 Q 440.3999938964844 208.20000076293945 442.3999938964844 208.20000076293945 Q 444.3999938964844 208.20000076293945 446.8999938964844 208.20000076293945 Q 449.3999938964844 208.20000076293945 450.8999938964844 208.20000076293945 Q 452.3999938964844 208.20000076293945 453.3999938964844 208.20000076293945 Q 454.3999938964844 208.20000076293945 454.8999938964844 208.20000076293945 Q 455.3999938964844 208.20000076293945 455.8999938964844 208.20000076293945 Q 456.3999938964844 208.20000076293945 457.3999938964844 208.20000076293945 L 458.4069938964844 208.20000076293945" stroke-linecap="round" />
</g>
<g transform="matrix(1 0 0 1 428.4 300.7)"  >
<path style="stroke: rgb(0,0,0); stroke-width: 7; stroke-dasharray: none; stroke-linecap: round; stroke-dashoffset: 0; stroke-linejoin: round; stroke-miterlimit: 10; fill: none; fill-rule: nonzero; opacity: 1;"  transform=" translate(-428.4, -300.7)" d="M 405.39299389648437 277.19300076293945 Q 405.3999938964844 277.20000076293945 405.8999938964844 277.70000076293945 Q 406.3999938964844 278.20000076293945 406.8999938964844 278.70000076293945 Q 407.3999938964844 279.20000076293945 408.8999938964844 279.70000076293945 Q 410.3999938964844 280.20000076293945 410.3999938964844 280.70000076293945 Q 410.3999938964844 281.20000076293945 410.8999938964844 281.20000076293945 Q 411.3999938964844 281.20000076293945 411.8999938964844 281.20000076293945 Q 412.3999938964844 281.20000076293945 412.8999938964844 281.70000076293945 Q 413.3999938964844 282.20000076293945 413.8999938964844 282.20000076293945 Q 414.3999938964844 282.20000076293945 414.3999938964844 282.70000076293945 Q 414.3999938964844 283.20000076293945 414.8999938964844 283.70000076293945 Q 415.3999938964844 284.20000076293945 415.8999938964844 284.20000076293945 Q 416.3999938964844 284.20000076293945 417.3999938964844 284.20000076293945 Q 418.3999938964844 284.20000076293945 418.3999938964844 284.70000076293945 Q 418.3999938964844 285.20000076293945 418.8999938964844 285.70000076293945 Q 419.3999938964844 286.20000076293945 420.3999938964844 287.20000076293945 Q 421.3999938964844 288.20000076293945 421.8999938964844 288.20000076293945 Q 422.3999938964844 288.20000076293945 422.8999938964844 289.20000076293945 Q 423.3999938964844 290.20000076293945 423.8999938964844 290.20000076293945 Q 424.3999938964844 290.20000076293945 424.8999938964844 290.70000076293945 Q 425.3999938964844 291.20000076293945 425.8999938964844 291.70000076293945 Q 426.3999938964844 292.20000076293945 426.8999938964844 292.70000076293945 Q 427.3999938964844 293.20000076293945 428.3999938964844 293.70000076293945 Q 429.3999938964844 294.20000076293945 429.8999938964844 294.70000076293945 Q 430.3999938964844 295.20000076293945 430.3999938964844 295.70000076293945 Q 430.3999938964844 296.20000076293945 431.3999938964844 296.20000076293945 Q 432.3999938964844 296.20000076293945 432.3999938964844 296.70000076293945 Q 432.3999938964844 297.20000076293945 432.8999938964844 297.20000076293945 Q 433.3999938964844 297.20000076293945 433.8999938964844 297.70000076293945 Q 434.3999938964844 298.20000076293945 434.3999938964844 299.20000076293945 Q 434.3999938964844 300.20000076293945 435.3999938964844 300.20000076293945 Q 436.3999938964844 300.20000076293945 436.8999938964844 300.70000076293945 Q 437.3999938964844 301.20000076293945 437.8999938964844 302.70000076293945 Q 438.3999938964844 304.20000076293945 439.3999938964844 304.20000076293945 Q 440.3999938964844 304.20000076293945 441.3999938964844 305.70000076293945 Q 442.3999938964844 307.20000076293945 442.3999938964844 307.70000076293945 Q 442.3999938964844 308.20000076293945 443.3999938964844 308.70000076293945 Q 444.3999938964844 309.20000076293945 444.8999938964844 310.20000076293945 Q 445.3999938964844 311.20000076293945 445.8999938964844 311.70000076293945 Q 446.3999938964844 312.20000076293945 446.8999938964844 313.20000076293945 Q 447.3999938964844 314.20000076293945 447.8999938964844 315.20000076293945 Q 448.3999938964844 316.20000076293945 448.8999938964844 316.20000076293945 Q 449.3999938964844 316.20000076293945 449.3999938964844 316.70000076293945 Q 449.3999938964844 317.20000076293945 449.8999938964844 318.20000076293945 Q 450.3999938964844 319.20000076293945 450.3999938964844 319.70000076293945 Q 450.3999938964844 320.20000076293945 450.8999938964844 321.20000076293945 Q 451.3999938964844 322.20000076293945 451.3999938964844 323.20000076293945 L 451.3999938964844 324.20700076293946" stroke-linecap="round" />
</g>
<g transform="matrix(1 0 0 1 357.4 397.7)"  >
<path style="stroke: rgb(0,0,0); stroke-width: 7; stroke-dasharray: none; stroke-linecap: round; stroke-dashoffset: 0; stroke-linejoin: round; stroke-miterlimit: 10; fill: none; fill-rule: nonzero; opacity: 1;"  transform=" translate(-357.4, -397.7)" d="M 348.3999938964844 362.19300076293945 Q 348.3999938964844 362.20000076293945 348.3999938964844 363.20000076293945 Q 348.3999938964844 364.20000076293945 348.3999938964844 365.20000076293945 Q 348.3999938964844 366.20000076293945 348.3999938964844 367.20000076293945 Q 348.3999938964844 368.20000076293945 348.3999938964844 368.70000076293945 Q 348.3999938964844 369.20000076293945 349.3999938964844 370.70000076293945 Q 350.3999938964844 372.20000076293945 350.3999938964844 373.20000076293945 Q 350.3999938964844 374.20000076293945 350.3999938964844 375.20000076293945 Q 350.3999938964844 376.20000076293945 351.3999938964844 378.70000076293945 Q 352.3999938964844 381.20000076293945 352.8999938964844 382.70000076293945 Q 353.3999938964844 384.20000076293945 353.8999938964844 385.70000076293945 Q 354.3999938964844 387.20000076293945 354.8999938964844 389.20000076293945 Q 355.3999938964844 391.20000076293945 355.8999938964844 393.70000076293945 Q 356.3999938964844 396.20000076293945 356.8999938964844 397.70000076293945 Q 357.3999938964844 399.20000076293945 357.8999938964844 400.20000076293945 Q 358.3999938964844 401.20000076293945 358.8999938964844 403.20000076293945 Q 359.3999938964844 405.20000076293945 359.8999938964844 406.70000076293945 Q 360.3999938964844 408.20000076293945 360.8999938964844 409.20000076293945 Q 361.3999938964844 410.20000076293945 361.8999938964844 411.20000076293945 Q 362.3999938964844 412.20000076293945 362.3999938964844 412.70000076293945 Q 362.3999938964844 413.20000076293945 362.3999938964844 414.20000076293945 Q 362.3999938964844 415.20000076293945 362.8999938964844 416.70000076293945 Q 363.3999938964844 418.20000076293945 363.3999938964844 418.70000076293945 Q 363.3999938964844 419.20000076293945 363.8999938964844 420.20000076293945 Q 364.3999938964844 421.20000076293945 364.3999938964844 422.70000076293945 Q 364.3999938964844 424.20000076293945 364.8999938964844 424.70000076293945 Q 365.3999938964844 425.20000076293945 365.3999938964844 426.70000076293945 Q 365.3999938964844 428.20000076293945 365.3999938964844 429.20000076293945 Q 365.3999938964844 430.20000076293945 365.3999938964844 430.70000076293945 Q 365.3999938964844 431.20000076293945 365.8999938964844 432.20000076293945 L 366.4069938964844 433.20700076293946" stroke-linecap="round" />
</g>
<g transform="matrix(1 0 0 1 263.4 403.2)"  >
<path style="stroke: rgb(0,0,0); stroke-width: 7; stroke-dasharray: none; stroke-linecap: round; stroke-dashoffset: 0; stroke-linejoin: round; stroke-miterlimit: 10; fill: none; fill-rule: nonzero; opacity: 1;"  transform=" translate(-263.4, -403.2)" d="M 269.4069938964844 374.19300076293945 Q 269.3999938964844 374.20000076293945 268.8999938964844 375.20000076293945 Q 268.3999938964844 376.20000076293945 267.8999938964844 378.20000076293945 Q 267.3999938964844 380.20000076293945 266.8999938964844 382.70000076293945 Q 266.3999938964844 385.20000076293945 264.8999938964844 388.70000076293945 Q 263.3999938964844 392.20000076293945 262.8999938964844 393.70000076293945 Q 262.3999938964844 395.20000076293945 262.3999938964844 397.70000076293945 Q 262.3999938964844 400.20000076293945 261.8999938964844 402.70000076293945 Q 261.3999938964844 405.20000076293945 260.8999938964844 406.70000076293945 Q 260.3999938964844 408.20000076293945 259.8999938964844 410.20000076293945 Q 259.3999938964844 412.20000076293945 259.3999938964844 414.20000076293945 Q 259.3999938964844 416.20000076293945 258.8999938964844 416.70000076293945 Q 258.3999938964844 417.20000076293945 258.3999938964844 418.20000076293945 Q 258.3999938964844 419.20000076293945 258.3999938964844 420.70000076293945 Q 258.3999938964844 422.20000076293945 258.3999938964844 423.20000076293945 Q 258.3999938964844 424.20000076293945 258.3999938964844 424.70000076293945 Q 258.3999938964844 425.20000076293945 257.8999938964844 425.70000076293945 Q 257.3999938964844 426.20000076293945 257.3999938964844 427.20000076293945 Q 257.3999938964844 428.20000076293945 257.3999938964844 428.70000076293945 Q 257.3999938964844 429.20000076293945 257.3999938964844 429.70000076293945 Q 257.3999938964844 430.20000076293945 257.3999938964844 431.20000076293945 L 257.3999938964844 432.20700076293946" stroke-linecap="round" />
</g>
<g transform="matrix(1 0 0 1 188.9 377.7)"  >
<path style="stroke: rgb(0,0,0); stroke-width: 7; stroke-dasharray: none; stroke-linecap: round; stroke-dashoffset: 0; stroke-linejoin: round; stroke-miterlimit: 10; fill: none; fill-rule: nonzero; opacity: 1;"  transform=" translate(-188.9, -377.7)" d="M 215.40699389648438 359.19300076293945 Q 215.39999389648438 359.20000076293945 214.89999389648438 359.20000076293945 Q 214.39999389648438 359.20000076293945 212.39999389648438 359.70000076293945 Q 210.39999389648438 360.20000076293945 208.89999389648438 360.20000076293945 Q 207.39999389648438 360.20000076293945 205.89999389648438 361.20000076293945 Q 204.39999389648438 362.20000076293945 201.89999389648438 363.70000076293945 Q 199.39999389648438 365.20000076293945 198.89999389648438 365.20000076293945 Q 198.39999389648438 365.20000076293945 196.39999389648438 366.70000076293945 Q 194.39999389648438 368.20000076293945 192.89999389648438 369.20000076293945 Q 191.39999389648438 370.20000076293945 189.89999389648438 371.20000076293945 Q 188.39999389648438 372.20000076293945 186.89999389648438 373.20000076293945 Q 185.39999389648438 374.20000076293945 183.89999389648438 375.20000076293945 Q 182.39999389648438 376.20000076293945 181.89999389648438 376.20000076293945 Q 181.39999389648438 376.20000076293945 180.39999389648438 377.20000076293945 Q 179.39999389648438 378.20000076293945 177.89999389648438 379.20000076293945 Q 176.39999389648438 380.20000076293945 175.39999389648438 381.20000076293945 Q 174.39999389648438 382.20000076293945 173.39999389648438 383.20000076293945 Q 172.39999389648438 384.20000076293945 170.89999389648438 385.20000076293945 Q 169.39999389648438 386.20000076293945 168.39999389648438 387.70000076293945 Q 167.39999389648438 389.20000076293945 166.89999389648438 389.70000076293945 Q 166.39999389648438 390.20000076293945 166.39999389648438 391.20000076293945 Q 166.39999389648438 392.20000076293945 165.39999389648438 392.70000076293945 Q 164.39999389648438 393.20000076293945 164.39999389648438 393.70000076293945 Q 164.39999389648438 394.20000076293945 163.89999389648438 394.70000076293945 Q 163.39999389648438 395.20000076293945 162.89999389648438 395.70000076293945 L 162.39299389648437 396.20700076293946" stroke-linecap="round" />
</g>
<g transform="matrix(1 0 0 1 143.4 301.7)"  >
<path style="stroke: rgb(0,0,0); stroke-width: 7; stroke-dasharray: none; stroke-linecap: round; stroke-dashoffset: 0; stroke-linejoin: round; stroke-miterlimit: 10; fill: none; fill-rule: nonzero; opacity: 1;"  transform=" translate(-143.4, -301.7)" d="M 180.40699389648438 294.20000076293945 Q 180.39999389648438 294.20000076293945 179.89999389648438 294.20000076293945 Q 179.39999389648438 294.20000076293945 178.89999389648438 294.20000076293945 Q 178.39999389648438 294.20000076293945 177.39999389648438 294.20000076293945 Q 176.39999389648438 294.20000076293945 175.39999389648438 294.20000076293945 Q 174.39999389648438 294.20000076293945 170.89999389648438 294.20000076293945 Q 167.39999389648438 294.20000076293945 164.39999389648438 294.70000076293945 Q 161.39999389648438 295.20000076293945 159.89999389648438 295.20000076293945 Q 158.39999389648438 295.20000076293945 154.89999389648438 295.20000076293945 Q 151.39999389648438 295.20000076293945 147.89999389648438 295.70000076293945 Q 144.39999389648438 296.20000076293945 143.39999389648438 296.20000076293945 Q 142.39999389648438 296.20000076293945 139.89999389648438 296.20000076293945 Q 137.39999389648438 296.20000076293945 136.39999389648438 296.20000076293945 Q 135.39999389648438 296.20000076293945 134.89999389648438 296.70000076293945 Q 134.39999389648438 297.20000076293945 132.89999389648438 297.20000076293945 Q 131.39999389648438 297.20000076293945 130.89999389648438 297.70000076293945 Q 130.39999389648438 298.20000076293945 129.39999389648438 298.20000076293945 Q 128.39999389648438 298.20000076293945 127.89999389648438 298.70000076293945 Q 127.39999389648438 299.20000076293945 126.89999389648438 299.20000076293945 Q 126.39999389648438 299.20000076293945 125.89999389648438 299.20000076293945 Q 125.39999389648438 299.20000076293945 124.89999389648438 299.20000076293945 Q 124.39999389648438 299.20000076293945 124.39999389648438 299.70000076293945 Q 124.39999389648438 300.20000076293945 123.89999389648438 300.20000076293945 Q 123.39999389648438 300.20000076293945 122.89999389648438 300.20000076293945 Q 122.39999389648438 300.20000076293945 121.89999389648438 300.20000076293945 Q 121.39999389648438 300.20000076293945 120.89999389648438 300.20000076293945 Q 120.39999389648438 300.20000076293945 120.39999389648438 300.70000076293945 Q 120.39999389648438 301.20000076293945 120.39999389648438 301.70000076293945 Q 120.39999389648438 302.20000076293945 119.39999389648438 302.70000076293945 Q 118.39999389648438 303.20000076293945 117.89999389648438 303.20000076293945 Q 117.39999389648438 303.20000076293945 116.89999389648438 303.70000076293945 Q 116.39999389648438 304.20000076293945 115.89999389648438 304.20000076293945 Q 115.39999389648438 304.20000076293945 114.89999389648438 304.20000076293945 Q 114.39999389648438 304.20000076293945 113.89999389648438 304.20000076293945 Q 113.39999389648438 304.20000076293945 113.39999389648438 304.70000076293945 Q 113.39999389648438 305.20000076293945 112.39999389648438 305.70000076293945 Q 111.39999389648438 306.20000076293945 110.39999389648438 306.70000076293945 Q 109.39999389648438 307.20000076293945 109.39999389648438 307.70000076293945 Q 109.39999389648438 308.20000076293945 108.89999389648438 308.20000076293945 Q 108.39999389648438 308.20000076293945 107.39999389648438 308.70000076293945 L 106.39299389648437 309.20700076293946" stroke-linecap="round" />
</g>
<g transform="matrix(1 0 0 1 150.9 209.7)"  >
<path style="stroke: rgb(0,0,0); stroke-width: 7; stroke-dasharray: none; stroke-linecap: round; stroke-dashoffset: 0; stroke-linejoin: round; stroke-miterlimit: 10; fill: none; fill-rule: nonzero; opacity: 1;"  transform=" translate(-150.9, -209.7)" d="M 171.40699389648438 213.20000076293945 Q 171.39999389648438 213.20000076293945 170.39999389648438 212.70000076293945 Q 169.39999389648438 212.20000076293945 168.39999389648438 212.20000076293945 Q 167.39999389648438 212.20000076293945 166.89999389648438 211.70000076293945 Q 166.39999389648438 211.20000076293945 164.89999389648438 210.70000076293945 Q 163.39999389648438 210.20000076293945 162.89999389648438 210.20000076293945 Q 162.39999389648438 210.20000076293945 160.89999389648438 210.20000076293945 Q 159.39999389648438 210.20000076293945 158.39999389648438 209.70000076293945 Q 157.39999389648438 209.20000076293945 155.89999389648438 209.20000076293945 Q 154.39999389648438 209.20000076293945 153.39999389648438 208.70000076293945 Q 152.39999389648438 208.20000076293945 151.39999389648438 208.20000076293945 Q 150.39999389648438 208.20000076293945 148.39999389648438 208.20000076293945 Q 146.39999389648438 208.20000076293945 145.89999389648438 208.20000076293945 Q 145.39999389648438 208.20000076293945 143.89999389648438 208.20000076293945 Q 142.39999389648438 208.20000076293945 141.89999389648438 208.20000076293945 Q 141.39999389648438 208.20000076293945 140.39999389648438 208.20000076293945 Q 139.39999389648438 208.20000076293945 138.89999389648438 208.20000076293945 Q 138.39999389648438 208.20000076293945 137.39999389648438 208.20000076293945 Q 136.39999389648438 208.20000076293945 135.39999389648438 208.20000076293945 Q 134.39999389648438 208.20000076293945 134.39999389648438 207.70000076293945 Q 134.39999389648438 207.20000076293945 133.89999389648438 207.20000076293945 Q 133.39999389648438 207.20000076293945 132.89999389648438 207.20000076293945 Q 132.39999389648438 207.20000076293945 131.39999389648438 206.70000076293945 L 130.39299389648437 206.19300076293945" stroke-linecap="round" />
</g>
<g transform="matrix(1 0 0 1 191.9 141.2)"  >
<path style="stroke: rgb(0,0,0); stroke-width: 7; stroke-dasharray: none; stroke-linecap: round; stroke-dashoffset: 0; stroke-linejoin: round; stroke-miterlimit: 10; fill: none; fill-rule: nonzero; opacity: 1;"  transform=" translate(-191.9, -141.2)" d="M 212.40699389648438 154.20000076293945 Q 212.39999389648438 154.20000076293945 211.89999389648438 154.20000076293945 Q 211.39999389648438 154.20000076293945 210.89999389648438 154.20000076293945 Q 210.39999389648438 154.20000076293945 209.89999389648438 154.20000076293945 Q 209.39999389648438 154.20000076293945 207.89999389648438 154.20000076293945 Q 206.39999389648438 154.20000076293945 205.89999389648438 154.20000076293945 Q 205.39999389648438 154.20000076293945 204.39999389648438 153.20000076293945 Q 203.39999389648438 152.20000076293945 202.89999389648438 152.20000076293945 Q 202.39999389648438 152.20000076293945 201.39999389648438 152.20000076293945 Q 200.39999389648438 152.20000076293945 199.89999389648438 151.70000076293945 Q 199.39999389648438 151.20000076293945 198.89999389648438 151.20000076293945 Q 198.39999389648438 151.20000076293945 198.39999389648438 150.70000076293945 Q 198.39999389648438 150.20000076293945 197.89999389648438 150.20000076293945 Q 197.39999389648438 150.20000076293945 197.39999389648438 149.70000076293945 Q 197.39999389648438 149.20000076293945 196.89999389648438 149.20000076293945 Q 196.39999389648438 149.20000076293945 195.89999389648438 148.70000076293945 Q 195.39999389648438 148.20000076293945 194.89999389648438 148.20000076293945 Q 194.39999389648438 148.20000076293945 193.89999389648438 148.20000076293945 Q 193.39999389648438 148.20000076293945 192.89999389648438 147.70000076293945 Q 192.39999389648438 147.20000076293945 191.89999389648438 147.20000076293945 Q 191.39999389648438 147.20000076293945 191.39999389648438 146.70000076293945 Q 191.39999389648438 146.20000076293945 190.89999389648438 146.20000076293945 Q 190.39999389648438 146.20000076293945 190.39999389648438 145.70000076293945 Q 190.39999389648438 145.20000076293945 189.89999389648438 144.70000076293945 Q 189.39999389648438 144.20000076293945 188.39999389648438 144.20000076293945 Q 187.39999389648438 144.20000076293945 187.39999389648438 143.70000076293945 Q 187.39999389648438 143.20000076293945 186.89999389648438 143.20000076293945 Q 186.39999389648438 143.20000076293945 186.39999389648438 142.70000076293945 Q 186.39999389648438 142.20000076293945 185.89999389648438 142.20000076293945 Q 185.39999389648438 142.20000076293945 185.39999389648438 141.70000076293945 Q 185.39999389648438 141.20000076293945 184.89999389648438 141.20000076293945 Q 184.39999389648438 141.20000076293945 183.89999389648438 141.20000076293945 Q 183.39999389648438 141.20000076293945 183.39999389648438 140.70000076293945 Q 183.39999389648438 140.20000076293945 182.89999389648438 140.20000076293945 Q 182.39999389648438 140.20000076293945 181.89999389648438 139.70000076293945 Q 181.39999389648438 139.20000076293945 181.39999389648438 138.70000076293945 Q 181.39999389648438 138.20000076293945 180.89999389648438 138.20000076293945 Q 180.39999389648438 138.20000076293945 180.39999389648438 137.70000076293945 Q 180.39999389648438 137.20000076293945 180.39999389648438 136.70000076293945 Q 180.39999389648438 136.20000076293945 179.89999389648438 136.20000076293945 Q 179.39999389648438 136.20000076293945 179.39999389648438 135.70000076293945 Q 179.39999389648438 135.20000076293945 178.89999389648438 134.70000076293945 Q 178.39999389648438 134.20000076293945 178.39999389648438 133.70000076293945 Q 178.39999389648438 133.20000076293945 178.39999389648438 132.70000076293945 Q 178.39999389648438 132.20000076293945 177.89999389648438 132.20000076293945 Q 177.39999389648438 132.20000076293945 176.89999389648438 132.20000076293945 Q 176.39999389648438 132.20000076293945 175.89999389648438 131.70000076293945 Q 175.39999389648438 131.20000076293945 175.39999389648438 130.70000076293945 Q 175.39999389648438 130.20000076293945 174.89999389648438 130.20000076293945 Q 174.39999389648438 130.20000076293945 173.89999389648438 129.70000076293945 Q 173.39999389648438 129.20000076293945 173.39999389648438 128.70000076293945 Q 173.39999389648438 128.20000076293945 172.39999389648438 128.20000076293945 L 171.39299389648437 128.20000076293945" stroke-linecap="round" />
</g>
<g transform="matrix(1 0 0 1 300.4 116.2)"  >
<path style="stroke: rgb(0,0,0); stroke-width: 7; stroke-dasharray: none; stroke-linecap: round; stroke-dashoffset: 0; stroke-linejoin: round; stroke-miterlimit: 10; fill: none; fill-rule: nonzero; opacity: 1;"  transform=" translate(-300.4, -116.2)" d="M 298.3999938964844 136.20700076293946 Q 298.3999938964844 136.20000076293945 298.3999938964844 135.70000076293945 Q 298.3999938964844 135.20000076293945 298.3999938964844 134.70000076293945 Q 298.3999938964844 134.20000076293945 298.3999938964844 133.20000076293945 Q 298.3999938964844 132.20000076293945 298.3999938964844 131.20000076293945 Q 298.3999938964844 130.20000076293945 298.3999938964844 129.70000076293945 Q 298.3999938964844 129.20000076293945 298.3999938964844 128.20000076293945 Q 298.3999938964844 127.20000076293945 298.3999938964844 125.70000076293945 Q 298.3999938964844 124.20000076293945 298.3999938964844 123.20000076293945 Q 298.3999938964844 122.20000076293945 298.3999938964844 120.70000076293945 Q 298.3999938964844 119.20000076293945 298.3999938964844 118.20000076293945 Q 298.3999938964844 117.20000076293945 298.3999938964844 116.70000076293945 Q 298.3999938964844 116.20000076293945 298.3999938964844 115.70000076293945 Q 298.3999938964844 115.20000076293945 298.3999938964844 113.70000076293945 Q 298.3999938964844 112.20000076293945 298.3999938964844 111.70000076293945 Q 298.3999938964844 111.20000076293945 298.3999938964844 110.20000076293945 Q 298.3999938964844 109.20000076293945 298.3999938964844 108.70000076293945 Q 298.3999938964844 108.20000076293945 298.3999938964844 107.20000076293945 Q 298.3999938964844 106.20000076293945 298.3999938964844 105.70000076293945 Q 298.3999938964844 105.20000076293945 298.3999938964844 104.70000076293945 Q 298.3999938964844 104.20000076293945 298.8999938964844 103.70000076293945 Q 299.3999938964844 103.20000076293945 299.3999938964844 102.70000076293945 Q 299.3999938964844 102.20000076293945 299.8999938964844 101.70000076293945 Q 300.3999938964844 101.20000076293945 300.3999938964844 100.70000076293945 Q 300.3999938964844 100.20000076293945 300.3999938964844 99.70000076293945 Q 300.3999938964844 99.20000076293945 300.8999938964844 99.20000076293945 Q 301.3999938964844 99.20000076293945 301.3999938964844 98.70000076293945 Q 301.3999938964844 98.20000076293945 301.8999938964844 97.20000076293945 L 302.4069938964844 96.19300076293945" stroke-linecap="round" />
</g>
<g transform="matrix(1 0 0 1 246.4 114.2)"  >
<path style="stroke: rgb(0,0,0); stroke-width: 7; stroke-dasharray: none; stroke-linecap: round; stroke-dashoffset: 0; stroke-linejoin: round; stroke-miterlimit: 10; fill: none; fill-rule: nonzero; opacity: 1;"  transform=" translate(-246.4, -114.2)" d="M 246.39999389648438 136.20700076293946 Q 246.39999389648438 136.20000076293945 246.39999389648438 135.20000076293945 Q 246.39999389648438 134.20000076293945 246.39999389648438 133.20000076293945 Q 246.39999389648438 132.20000076293945 246.39999389648438 130.20000076293945 Q 246.39999389648438 128.20000076293945 246.39999389648438 127.70000076293945 Q 246.39999389648438 127.20000076293945 246.39999389648438 125.70000076293945 Q 246.39999389648438 124.20000076293945 246.39999389648438 122.70000076293945 Q 246.39999389648438 121.20000076293945 246.39999389648438 119.20000076293945 Q 246.39999389648438 117.20000076293945 246.39999389648438 116.70000076293945 Q 246.39999389648438 116.20000076293945 246.39999389648438 115.20000076293945 Q 246.39999389648438 114.20000076293945 246.39999389648438 112.20000076293945 Q 246.39999389648438 110.20000076293945 246.39999389648438 109.70000076293945 Q 246.39999389648438 109.20000076293945 246.39999389648438 107.20000076293945 Q 246.39999389648438 105.20000076293945 246.39999389648438 104.20000076293945 Q 246.39999389648438 103.20000076293945 246.39999389648438 101.70000076293945 Q 246.39999389648438 100.20000076293945 246.39999389648438 99.70000076293945 Q 246.39999389648438 99.20000076293945 246.39999389648438 98.20000076293945 Q 246.39999389648438 97.20000076293945 246.39999389648438 96.70000076293945 Q 246.39999389648438 96.20000076293945 246.39999389648438 95.70000076293945 Q 246.39999389648438 95.20000076293945 246.39999389648438 94.70000076293945 Q 246.39999389648438 94.20000076293945 246.39999389648438 93.20000076293945 L 246.39999389648438 92.19300076293945" stroke-linecap="round" />
</g>
</svg>