<svg xmlns="http://www.w3.org/2000/svg" xmlns:xlink="http://www.w3.org/1999/xlink" version="1.1" width="600" height="600" viewBox="0 0 600 600" xml:space="preserve">
<desc>Created with Fabric.js 5.2.4</desc>
<defs>
</defs>
<rect x="0" y="0" width="100%" height="100%" fill="#fff"></rect>
<g transform="matrix(1 0 0 1 275.9 235.2)"  >
<path style="stroke: rgb(0,0,0); stroke-width: 7; stroke-dasharray: none; stroke-linecap: round; stroke-dashoffset: 0; stroke-linejoin: round; stroke-miterlimit: 10; fill: none; fill-rule: nonzero; opacity: 1;"  transform=" translate(-275.9, -235.2)" d="M 346.4069938964844 156.20000076293945 Q 346.3999938964844 156.20000076293945 345.8999938964844 155.70000076293945 Q 345.3999938964844 155.20000076293945 344.3999938964844 155.20000076293945 Q 343.3999938964844 155.20000076293945 341.3999938964844 155.20000076293945 Q 339.3999938964844 155.20000076293945 338.8999938964844 154.70000076293945 Q 338.3999938964844 154.20000076293945 336.8999938964844 154.20000076293945 Q 335.3999938964844 154.20000076293945 333.8999938964844 153.70000076293945 Q 332.3999938964844 153.20000076293945 331.3999938964844 153.20000076293945 Q 330.3999938964844 153.20000076293945 327.8999938964844 152.70000076293945 Q 325.3999938964844 152.20000076293945 322.3999938964844 152.20000076293945 Q 319.3999938964844 152.20000076293945 318.8999938964844 152.20000076293945 Q 318.3999938964844 152.20000076293945 316.3999938964844 151.70000076293945 Q 314.3999938964844 151.20000076293945 312.3999938964844 151.20000076293945 Q 310.3999938964844 151.20000076293945 308.3999938964844 150.70000076293945 Q 306.3999938964844 150.20000076293945 304.3999938964844 149.70000076293945 Q 302.3999938964844 149.20000076293945 301.3999938964844 149.20000076293945 Q 300.3999938964844 149.20000076293945 299.3999938964844 149.20000076293945 Q 298.3999938964844 149.20000076293945 296.3999938964844 149.20000076293945 Q 294.3999938964844 149.20000076293945 292.3999938964844 149.20000076293945 Q 290.3999938964844 149.20000076293945 288.8999938964844 149.20000076293945 Q 287.3999938964844 149.20000076293945 286.3999938964844 149.20000076293945 Q 285.3999938964844 149.20000076293945 283.3999938964844 149.20000076293945 Q 281.3999938964844 149.20000076293945 279.8999938964844 149.20000076293945 Q 278.3999938964844 149.20000076293945 275.3999938964844 149.20000076293945 Q 272.3999938964844 149.20000076293945 269.3999938964844 150.20000076293945 Q 266.3999938964844 151.20000076293945 265.3999938964844 151.20000076293945 Q 264.3999938964844 151.20000076293945 260.8999938964844 151.70000076293945 Q 257.3999938964844 152.20000076293945 254.89999389648438 153.20000076293945 Q 252.39999389648438 154.20000076293945 250.89999389648438 154.70000076293945 Q 249.39999389648438 155.20000076293945 247.39999389648438 156.20000076293945 Q 245.39999389648438 157.20000076293945 239.39999389648438 159.20000076293945 Q 233.39999389648438 161.20000076293945 232.39999389648438 161.70000076293945 Q 231.39999389648438 162.20000076293945 228.89999389648438 163.20000076293945 Q 226.39999389648438 164.20000076293945 224.39999389648438 164.70000076293945 Q 222.39999389648438 165.20000076293945 220.89999389648438 166.20000076293945 Q 219.39999389648438 167.20000076293945 217.39999389648438 167.70000076293945 Q 215.39999389648438 168.20000076293945 212.39999389648438 170.20000076293945 Q 209.39999389648438 172.20000076293945 207.89999389648438 173.20000076293945 Q 206.39999389648438 174.20000076293945 204.39999389648438 175.20000076293945 Q 202.39999389648438 176.20000076293945 200.39999389648438 178.20000076293945 Q 198.39999389648438 180.20000076293945 197.89999389648438 180.70000076293945 Q 197.39999389648438 181.20000076293945 195.89999389648438 183.70000076293945 Q 194.39999389648438 186.20000076293945 192.89999389648438 187.70000076293945 Q 191.39999389648438 189.20000076293945 190.89999389648438 190.70000076293945 Q 190.39999389648438 192.20000076293945 188.89999389648438 194.70000076293945 Q 187.39999389648438 197.20000076293945 186.39999389648438 199.70000076293945 Q 185.39999389648438 202.20000076293945 184.89999389648438 203.20000076293945 Q 184.39999389648438 204.20000076293945 183.39999389648438 207.20000076293945 Q 182.39999389648438 210.20000076293945 181.89999389648438 211.70000076293945 Q 181.39999389648438 213.20000076293945 180.89999389648438 214.70000076293945 Q 180.39999389648438 216.20000076293945 179.39999389648438 218.20000076293945 Q 178.39999389648438 220.20000076293945 178.39999389648438 221.70000076293945 Q 178.39999389648438 223.20000076293945 178.39999389648438 223.70000076293945 Q 178.39999389648438 224.20000076293945 178.39999389648438 226.20000076293945 Q 178.39999389648438 228.20000076293945 178.39999389648438 230.20000076293945 Q 178.39999389648438 232.20000076293945 178.39999389648438 232.70000076293945 Q 178.39999389648438 233.20000076293945 178.39999389648438 236.70000076293945 Q 178.39999389648438 240.20000076293945 178.39999389648438 242.20000076293945 Q 178.39999389648438 244.20000076293945 178.39999389648438 245.70000076293945 Q 178.39999389648438 247.20000076293945 178.39999389648438 249.20000076293945 Q 178.39999389648438 251.20000076293945 178.39999389648438 253.70000076293945 Q 178.39999389648438 256.20000076293945 178.39999389648438 258.20000076293945 Q 178.39999389648438 260.20000076293945 178.39999389648438 261.70000076293945 Q 178.39999389648438 263.20000076293945 178.89999389648438 265.70000076293945 Q 179.39999389648438 268.20000076293945 179.89999389648438 269.70000076293945 Q 180.39999389648438 271.20000076293945 180.89999389648438 272.20000076293945 Q 181.39999389648438 273.20000076293945 181.89999389648438 275.20000076293945 Q 182.39999389648438 277.20000076293945 184.39999389648438 279.70000076293945 Q 186.39999389648438 282.20000076293945 186.39999389648438 283.20000076293945 Q 186.39999389648438 284.20000076293945 187.89999389648438 286.20000076293945 Q 189.39999389648438 288.20000076293945 190.89999389648438 289.70000076293945 Q 192.39999389648438 291.20000076293945 192.89999389648438 292.20000076293945 Q 193.39999389648438 293.20000076293945 194.89999389648438 294.70000076293945 Q 196.39999389648438 296.20000076293945 197.39999389648438 297.70000076293945 Q 198.39999389648438 299.20000076293945 199.89999389648438 300.20000076293945 Q 201.39999389648438 301.20000076293945 201.89999389648438 301.70000076293945 Q 202.39999389648438 302.20000076293945 202.89999389648438 302.70000076293945 Q 203.39999389648438 303.20000076293945 204.39999389648438 303.70000076293945 Q 205.39999389648438 304.20000076293945 205.89999389648438 304.70000076293945 Q 206.39999389648438 305.20000076293945 208.39999389648438 306.70000076293945 Q 210.39999389648438 308.20000076293945 212.39999389648438 308.70000076293945 Q 214.39999389648438 309.20000076293945 215.39999389648438 309.70000076293945 Q 216.39999389648438 310.20000076293945 218.39999389648438 311.70000076293945 Q 220.39999389648438 313.20000076293945 222.89999389648438 313.70000076293945 Q 225.39999389648438 314.20000076293945 226.39999389648438 315.20000076293945 Q 227.39999389648438 316.20000076293945 228.89999389648438 316.20000076293945 Q 230.39999389648438 316.20000076293945 232.39999389648438 317.20000076293945 Q 234.39999389648438 318.20000076293945 234.89999389648438 318.20000076293945 Q 235.39999389648438 318.20000076293945 236.89999389648438 318.20000076293945 Q 238.39999389648438 318.20000076293945 239.89999389648438 318.70000076293945 Q 241.39999389648438 319.20000076293945 242.39999389648438 319.70000076293945 Q 243.39999389648438 320.20000076293945 243.89999389648438 320.20000076293945 Q 244.39999389648438 320.20000076293945 245.89999389648438 320.20000076293945 Q 247.39999389648438 320.20000076293945 248.89999389648438 320.20000076293945 Q 250.39999389648438 320.20000076293945 250.89999389648438 320.20000076293945 Q 251.39999389648438 320.20000076293945 253.39999389648438 320.20000076293945 Q 255.39999389648438 320.20000076293945 256.8999938964844 320.70000076293945 Q 258.3999938964844 321.20000076293945 258.8999938964844 321.20000076293945 Q 259.3999938964844 321.20000076293945 260.3999938964844 321.20000076293945 Q 261.3999938964844 321.20000076293945 262.8999938964844 321.20000076293945 Q 264.3999938964844 321.20000076293945 265.3999938964844 321.20000076293945 Q 266.3999938964844 321.20000076293945 267.8999938964844 321.20000076293945 Q 269.3999938964844 321.20000076293945 269.8999938964844 320.70000076293945 Q 270.3999938964844 320.20000076293945 271.8999938964844 320.20000076293945 Q 273.3999938964844 320.20000076293945 274.3999938964844 320.20000076293945 Q 275.3999938964844 320.20000076293945 278.8999938964844 318.70000076293945 Q 282.3999938964844 317.20000076293945 282.8999938964844 316.70000076293945 Q 283.3999938964844 316.20000076293945 286.3999938964844 316.20000076293945 Q 289.3999938964844 316.20000076293945 291.3999938964844 315.70000076293945 Q 293.3999938964844 315.20000076293945 294.8999938964844 314.70000076293945 Q 296.3999938964844 314.20000076293945 299.3999938964844 313.20000076293945 Q 302.3999938964844 312.20000076293945 304.3999938964844 312.20000076293945 Q 306.3999938964844 312.20000076293945 307.3999938964844 312.20000076293945 Q 308.3999938964844 312.20000076293945 310.8999938964844 311.70000076293945 Q 313.3999938964844 311.20000076293945 314.3999938964844 310.70000076293945 Q 315.3999938964844 310.20000076293945 316.8999938964844 309.20000076293945 Q 318.3999938964844 308.20000076293945 318.8999938964844 308.20000076293945 Q 319.3999938964844 308.20000076293945 321.3999938964844 307.20000076293945 Q 323.3999938964844 306.20000076293945 324.8999938964844 305.20000076293945 Q 326.3999938964844 304.20000076293945 326.8999938964844 303.70000076293945 Q 327.3999938964844 303.20000076293945 328.8999938964844 301.70000076293945 Q 330.3999938964844 300.20000076293945 332.3999938964844 299.70000076293945 Q 334.3999938964844 299.20000076293945 334.8999938964844 298.70000076293945 Q 335.3999938964844 298.20000076293945 336.8999938964844 297.20000076293945 Q 338.3999938964844 296.20000076293945 340.3999938964844 294.70000076293945 Q 342.3999938964844 293.20000076293945 342.8999938964844 292.70000076293945 Q 343.3999938964844 292.20000076293945 344.8999938964844 290.70000076293945 Q 346.3999938964844 289.20000076293945 346.8999938964844 288.70000076293945 Q 347.3999938964844 288.20000076293945 348.3999938964844 287.20000076293945 Q 349.3999938964844 286.20000076293945 349.8999938964844 285.20000076293945 Q 350.3999938964844 284.20000076293945 351.3999938964844 283.70000076293945 Q 352.3999938964844 283.20000076293945 354.3999938964844 281.20000076293945 Q 356.3999938964844 279.20000076293945 356.3999938964844 278.70000076293945 Q 356.3999938964844 278.20000076293945 357.3999938964844 277.20000076293945 Q 358.3999938964844 276.20000076293945 359.8999938964844 275.20000076293945 Q 361.3999938964844 274.20000076293945 361.8999938964844 273.20000076293945 Q 362.3999938964844 272.20000076293945 362.3999938964844 271.70000076293945 Q 362.3999938964844 271.20000076293945 363.3999938964844 270.70000076293945 Q 364.3999938964844 270.20000076293945 365.3999938964844 269.20000076293945 Q 366.3999938964844 268.20000076293945 366.8999938964844 267.20000076293945 Q 367.3999938964844 266.20000076293945 367.8999938964844 265.20000076293945 Q 368.3999938964844 264.20000076293945 368.8999938964844 264.20000076293945 Q 369.3999938964844 264.20000076293945 369.8999938964844 262.70000076293945 Q 370.3999938964844 261.20000076293945 370.3999938964844 260.20000076293945 Q 370.3999938964844 259.20000076293945 371.8999938964844 256.20000076293945 Q 373.3999938964844 253.20000076293945 373.3999938964844 252.70000076293945 Q 373.3999938964844 252.20000076293945 373.3999938964844 250.70000076293945 Q 373.3999938964844 249.20000076293945 373.3999938964844 248.20000076293945 Q 373.3999938964844 247.20000076293945 373.3999938964844 246.20000076293945 Q 373.3999938964844 245.20000076293945 373.3999938964844 244.20000076293945 Q 373.3999938964844 243.20000076293945 373.3999938964844 241.20000076293945 Q 373.3999938964844 239.20000076293945 373.3999938964844 238.20000076293945 Q 373.3999938964844 237.20000076293945 373.3999938964844 236.20000076293945 Q 373.3999938964844 235.20000076293945 372.8999938964844 233.20000076293945 Q 372.3999938964844 231.20000076293945 371.8999938964844 229.70000076293945 Q 371.3999938964844 228.20000076293945 370.8999938964844 226.70000076293945 Q 370.3999938964844 225.20000076293945 370.3999938964844 224.20000076293945 Q 370.3999938964844 223.20000076293945 369.8999938964844 222.70000076293945 Q 369.3999938964844 222.20000076293945 368.8999938964844 219.70000076293945 Q 368.3999938964844 217.20000076293945 367.8999938964844 216.70000076293945 Q 367.3999938964844 216.20000076293945 366.8999938964844 213.20000076293945 Q 366.3999938964844 210.20000076293945 365.8999938964844 209.20000076293945 Q 365.3999938964844 208.20000076293945 364.8999938964844 207.20000076293945 Q 364.3999938964844 206.20000076293945 363.8999938964844 205.20000076293945 Q 363.3999938964844 204.20000076293945 362.8999938964844 203.20000076293945 Q 362.3999938964844 202.20000076293945 362.3999938964844 200.70000076293945 Q 362.3999938964844 199.20000076293945 362.3999938964844 198.20000076293945 Q 362.3999938964844 197.20000076293945 362.3999938964844 196.70000076293945 Q 362.3999938964844 196.20000076293945 361.8999938964844 194.70000076293945 Q 361.3999938964844 193.20000076293945 360.8999938964844 191.70000076293945 Q 360.3999938964844 190.20000076293945 360.3999938964844 189.70000076293945 Q 360.3999938964844 189.20000076293945 359.8999938964844 188.20000076293945 Q 359.3999938964844 187.20000076293945 358.8999938964844 186.20000076293945 Q 358.3999938964844 185.20000076293945 358.3999938964844 184.70000076293945 Q 358.3999938964844 184.20000076293945 358.3999938964844 183.20000076293945 Q 358.3999938964844 182.20000076293945 357.8999938964844 181.20000076293945 Q 357.3999938964844 180.20000076293945 357.3999938964844 179.70000076293945 Q 357.3999938964844 179.20000076293945 357.3999938964844 178.70000076293945 Q 357.3999938964844 178.20000076293945 356.8999938964844 177.20000076293945 Q 356.3999938964844 176.20000076293945 355.8999938964844 175.20000076293945 Q 355.3999938964844 174.20000076293945 354.8999938964844 173.20000076293945 Q 354.3999938964844 172.20000076293945 354.3999938964844 171.70000076293945 Q 354.3999938964844 171.20000076293945 353.8999938964844 170.70000076293945 Q 353.3999938964844 170.20000076293945 353.3999938964844 169.20000076293945 Q 353.3999938964844 168.20000076293945 352.8999938964844 168.20000076293945 Q 352.3999938964844 168.20000076293945 352.3999938964844 167.70000076293945 Q 352.3999938964844 167.20000076293945 351.3999938964844 165.70000076293945 Q 350.3999938964844 164.20000076293945 350.3999938964844 163.70000076293945 Q 350.3999938964844 163.20000076293945 350.3999938964844 162.20000076293945 Q 350.3999938964844 161.20000076293945 349.3999938964844 160.20000076293945 Q 348.3999938964844 159.20000076293945 347.8999938964844 158.20000076293945 Q 347.3999938964844 157.20000076293945 346.8999938964844 156.20000076293945 L 346.39299389648437 155.19300076293945" stroke-linecap="round" />
</g>
<g transform="matrix(1 0 0 1 402.9 116.2)"  >
<path style="stroke: rgb(0,0,0); stroke-width: 7; stroke-dasharray: none; stroke-linecap: round; stroke-dashoffset: 0; stroke-linejoin: round; stroke-miterlimit: 10; fill: none; fill-rule: nonzero; opacity: 1;"  transform=" translate(-402.9, -116.2)" d="M 375.39299389648437 132.20000076293945 Q 375.3999938964844 132.20000076293945 375.8999938964844 132.20000076293945 Q 376.3999938964844 132.20000076293945 377.3999938964844 132.20000076293945 Q 378.3999938964844 132.20000076293945 380.3999938964844 131.20000076293945 Q 382.3999938964844 130.20000076293945 382.3999938964844 129.70000076293945 Q 382.3999938964844 129.20000076293945 384.3999938964844 128.70000076293945 Q 386.3999938964844 128.20000076293945 387.8999938964844 126.20000076293945 Q 389.3999938964844 124.20000076293945 389.8999938964844 124.20000076293945 Q 390.3999938964844 124.20000076293945 392.8999938964844 122.20000076293945 Q 395.3999938964844 120.20000076293945 397.8999938964844 119.20000076293945 Q 400.3999938964844 118.20000076293945 402.3999938964844 116.70000076293945 Q 404.3999938964844 115.20000076293945 405.3999938964844 114.20000076293945 Q 406.3999938964844 113.20000076293945 409.3999938964844 112.20000076293945 Q 412.3999938964844 111.20000076293945 415.3999938964844 109.70000076293945 Q 418.3999938964844 108.20000076293945 418.8999938964844 107.70000076293945 Q 419.3999938964844 107.20000076293945 421.3999938964844 105.70000076293945 Q 423.3999938964844 104.20000076293945 424.8999938964844 103.70000076293945 Q 426.3999938964844 103.20000076293945 426.8999938964844 102.70000076293945 Q 427.3999938964844 102.20000076293945 428.8999938964844 101.20000076293945 L 430.4069938964844 100.19300076293945" stroke-linecap="round" />
</g>
<g transform="matrix(1 0 0 1 425.9 185.7)"  >
<path style="stroke: rgb(0,0,0); stroke-width: 7; stroke-dasharray: none; stroke-linecap: round; stroke-dashoffset: 0; stroke-linejoin: round; stroke-miterlimit: 10; fill: none; fill-rule: nonzero; opacity: 1;"  transform=" translate(-425.9, -185.7)" d="M 394.39299389648437 188.20000076293945 Q 394.3999938964844 188.20000076293945 394.8999938964844 188.20000076293945 Q 395.3999938964844 188.20000076293945 397.8999938964844 188.20000076293945 Q 400.3999938964844 188.20000076293945 401.3999938964844 188.20000076293945 Q 402.3999938964844 188.20000076293945 406.3999938964844 188.20000076293945 Q 410.3999938964844 188.20000076293945 414.3999938964844 188.20000076293945 Q 418.3999938964844 188.20000076293945 419.8999938964844 188.20000076293945 Q 421.3999938964844 188.20000076293945 424.8999938964844 187.70000076293945 Q 428.3999938964844 187.20000076293945 432.3999938964844 187.20000076293945 Q 436.3999938964844 187.20000076293945 437.8999938964844 186.70000076293945 Q 439.3999938964844 186.20000076293945 442.3999938964844 186.20000076293945 Q 445.3999938964844 186.20000076293945 447.8999938964844 185.20000076293945 Q 450.3999938964844 184.20000076293945 452.3999938964844 183.70000076293945 Q 454.3999938964844 183.20000076293945 455.8999938964844 183.20000076293945 L 457.4069938964844 183.20000076293945" stroke-linecap="round" />
</g>
<g transform="matrix(1 0 0 1 446.9 275.2)"  >
<path style="stroke: rgb(0,0,0); stroke-width: 7; stroke-dasharray: none; stroke-linecap: round; stroke-dashoffset: 0; stroke-linejoin: round; stroke-miterlimit: 10; fill: none; fill-rule: nonzero; opacity: 1;"  transform=" translate(-446.9, -275.2)" d="M 403.39299389648437 262.19300076293945 Q 403.3999938964844 262.20000076293945 403.8999938964844 262.70000076293945 Q 404.3999938964844 263.20000076293945 405.3999938964844 263.70000076293945 Q 406.3999938964844 264.20000076293945 408.8999938964844 265.20000076293945 Q 411.3999938964844 266.20000076293945 412.8999938964844 267.20000076293945 Q 414.3999938964844 268.20000076293945 416.8999938964844 268.70000076293945 Q 419.3999938964844 269.20000076293945 422.8999938964844 270.70000076293945 Q 426.3999938964844 272.20000076293945 428.3999938964844 272.20000076293945 Q 430.3999938964844 272.20000076293945 434.3999938964844 272.70000076293945 Q 438.3999938964844 273.20000076293945 442.3999938964844 274.70000076293945 Q 446.3999938964844 276.20000076293945 448.3999938964844 276.20000076293945 Q 450.3999938964844 276.20000076293945 453.8999938964844 277.70000076293945 Q 457.3999938964844 279.20000076293945 461.8999938964844 280.20000076293945 Q 466.3999938964844 281.20000076293945 469.8999938964844 281.70000076293945 Q 473.3999938964844 282.20000076293945 475.3999938964844 283.20000076293945 Q 477.3999938964844 284.20000076293945 479.8999938964844 284.20000076293945 Q 482.3999938964844 284.20000076293945 484.3999938964844 285.70000076293945 Q 486.3999938964844 287.20000076293945 488.3999938964844 287.70000076293945 L 490.4069938964844 288.20700076293946" stroke-linecap="round" />
</g>
<g transform="matrix(1 0 0 1 395.4 328.7)"  >
<path style="stroke: rgb(0,0,0); stroke-width: 7; stroke-dasharray: none; stroke-linecap: round; stroke-dashoffset: 0; stroke-linejoin: round; stroke-miterlimit: 10; fill: none; fill-rule: nonzero; opacity: 1;"  transform=" translate(-395.4, -328.7)" d="M 372.39299389648437 308.19300076293945 Q 372.3999938964844 308.20000076293945 372.3999938964844 308.70000076293945 Q 372.3999938964844 309.20000076293945 372.8999938964844 310.20000076293945 Q 373.3999938964844 311.20000076293945 374.3999938964844 312.70000076293945 Q 375.3999938964844 314.20000076293945 376.8999938964844 315.20000076293945 Q 378.3999938964844 316.20000076293945 380.3999938964844 317.70000076293945 Q 382.3999938964844 319.20000076293945 384.3999938964844 321.20000076293945 Q 386.3999938964844 323.20000076293945 387.3999938964844 323.70000076293945 Q 388.3999938964844 324.20000076293945 390.8999938964844 325.70000076293945 Q 393.3999938964844 327.20000076293945 395.3999938964844 329.20000076293945 Q 397.3999938964844 331.20000076293945 397.8999938964844 331.70000076293945 Q 398.3999938964844 332.20000076293945 400.3999938964844 333.20000076293945 Q 402.3999938964844 334.20000076293945 404.3999938964844 335.70000076293945 Q 406.3999938964844 337.20000076293945 406.8999938964844 338.70000076293945 Q 407.3999938964844 340.20000076293945 408.8999938964844 341.20000076293945 Q 410.3999938964844 342.20000076293945 411.8999938964844 343.20000076293945 Q 413.3999938964844 344.20000076293945 414.3999938964844 345.70000076293945 Q 415.3999938964844 347.20000076293945 415.8999938964844 347.20000076293945 Q 416.3999938964844 347.20000076293945 417.3999938964844 348.20000076293945 L 418.4069938964844 349.20700076293946" stroke-linecap="round" />
</g>
<g transform="matrix(1 0 0 1 310.4 359.2)"  >
<path style="stroke: rgb(0,0,0); stroke-width: 7; stroke-dasharray: none; stroke-linecap: round; stroke-dashoffset: 0; stroke-linejoin: round; stroke-miterlimit: 10; fill: none; fill-rule: nonzero; opacity: 1;"  transform=" translate(-310.4, -359.2)" d="M 307.3999938964844 327.19300076293945 Q 307.3999938964844 327.20000076293945 307.3999938964844 327.70000076293945 Q 307.3999938964844 328.20000076293945 307.3999938964844 329.20000076293945 Q 307.3999938964844 330.20000076293945 307.3999938964844 331.70000076293945 Q 307.3999938964844 333.20000076293945 307.3999938964844 334.20000076293945 Q 307.3999938964844 335.20000076293945 307.3999938964844 337.70000076293945 Q 307.3999938964844 340.20000076293945 307.3999938964844 341.70000076293945 Q 307.3999938964844 343.20000076293945 307.3999938964844 344.20000076293945 Q 307.3999938964844 345.20000076293945 307.3999938964844 347.20000076293945 Q 307.3999938964844 349.20000076293945 307.3999938964844 352.20000076293945 Q 307.3999938964844 355.20000076293945 307.8999938964844 356.70000076293945 Q 308.3999938964844 358.20000076293945 308.3999938964844 359.20000076293945 Q 308.3999938964844 360.20000076293945 308.3999938964844 361.70000076293945 Q 308.3999938964844 363.20000076293945 308.8999938964844 365.20000076293945 Q 309.3999938964844 367.20000076293945 309.3999938964844 367.70000076293945 Q 309.3999938964844 368.20000076293945 309.3999938964844 368.70000076293945 Q 309.3999938964844 369.20000076293945 309.8999938964844 370.20000076293945 Q 310.3999938964844 371.20000076293945 310.3999938964844 371.70000076293945 Q 310.3999938964844 372.20000076293945 310.3999938964844 373.20000076293945 Q 310.3999938964844 374.20000076293945 310.3999938964844 375.20000076293945 Q 310.3999938964844 376.20000076293945 310.8999938964844 376.20000076293945 Q 311.3999938964844 376.20000076293945 311.3999938964844 376.70000076293945 Q 311.3999938964844 377.20000076293945 311.3999938964844 378.20000076293945 Q 311.3999938964844 379.20000076293945 311.3999938964844 379.70000076293945 Q 311.3999938964844 380.20000076293945 311.8999938964844 381.20000076293945 Q 312.3999938964844 382.20000076293945 312.3999938964844 383.20000076293945 Q 312.3999938964844 384.20000076293945 312.8999938964844 385.70000076293945 Q 313.3999938964844 387.20000076293945 313.3999938964844 389.20000076293945 L 313.3999938964844 391.20700076293946" stroke-linecap="round" />
</g>
<g transform="matrix(1 0 0 1 224.4 366.2)"  >
<path style="stroke: rgb(0,0,0); stroke-width: 7; stroke-dasharray: none; stroke-linecap: round; stroke-dashoffset: 0; stroke-linejoin: round; stroke-miterlimit: 10; fill: none; fill-rule: nonzero; opacity: 1;"  transform=" translate(-224.4, -366.2)" d="M 234.40699389648438 344.19300076293945 Q 234.39999389648438 344.20000076293945 232.89999389648438 345.70000076293945 Q 231.39999389648438 347.20000076293945 230.39999389648438 349.20000076293945 Q 229.39999389648438 351.20000076293945 227.89999389648438 353.70000076293945 Q 226.39999389648438 356.20000076293945 225.39999389648438 357.70000076293945 Q 224.39999389648438 359.20000076293945 223.89999389648438 359.70000076293945 Q 223.39999389648438 360.20000076293945 222.39999389648438 362.70000076293945 Q 221.39999389648438 365.20000076293945 220.89999389648438 366.70000076293945 Q 220.39999389648438 368.20000076293945 219.89999389648438 368.20000076293945 Q 219.39999389648438 368.20000076293945 218.89999389648438 370.20000076293945 Q 218.39999389648438 372.20000076293945 217.89999389648438 373.20000076293945 Q 217.39999389648438 374.20000076293945 217.39999389648438 374.70000076293945 Q 217.39999389648438 375.20000076293945 216.89999389648438 375.70000076293945 Q 216.39999389648438 376.20000076293945 215.89999389648438 377.20000076293945 Q 215.39999389648438 378.20000076293945 215.39999389648438 379.20000076293945 Q 215.39999389648438 380.20000076293945 214.89999389648438 380.20000076293945 Q 214.39999389648438 380.20000076293945 214.39999389648438 380.70000076293945 Q 214.39999389648438 381.20000076293945 214.39999389648438 382.20000076293945 Q 214.39999389648438 383.20000076293945 214.39999389648438 383.70000076293945 Q 214.39999389648438 384.20000076293945 214.39999389648438 384.70000076293945 Q 214.39999389648438 385.20000076293945 214.39999389648438 385.70000076293945 Q 214.39999389648438 386.20000076293945 214.39999389648438 387.20000076293945 L 214.39999389648438 388.20700076293946" stroke-linecap="round" />
</g>
<g transform="matrix(1 0 0 1 150.4 310.2)"  >
<path style="stroke: rgb(0,0,0); stroke-width: 7; stroke-dasharray: none; stroke-linecap: round; stroke-dashoffset: 0; stroke-linejoin: round; stroke-miterlimit: 10; fill: none; fill-rule: nonzero; opacity: 1;"  transform=" translate(-150.4, -310.2)" d="M 174.40699389648438 296.20000076293945 Q 174.39999389648438 296.20000076293945 173.89999389648438 296.20000076293945 Q 173.39999389648438 296.20000076293945 172.89999389648438 296.20000076293945 Q 172.39999389648438 296.20000076293945 171.39999389648438 296.70000076293945 Q 170.39999389648438 297.20000076293945 168.39999389648438 297.70000076293945 Q 166.39999389648438 298.20000076293945 165.89999389648438 298.70000076293945 Q 165.39999389648438 299.20000076293945 164.39999389648438 299.20000076293945 Q 163.39999389648438 299.20000076293945 162.39999389648438 299.70000076293945 Q 161.39999389648438 300.20000076293945 160.39999389648438 300.70000076293945 Q 159.39999389648438 301.20000076293945 158.89999389648438 301.70000076293945 Q 158.39999389648438 302.20000076293945 156.89999389648438 302.70000076293945 Q 155.39999389648438 303.20000076293945 155.39999389648438 303.70000076293945 Q 155.39999389648438 304.20000076293945 153.39999389648438 304.70000076293945 Q 151.39999389648438 305.20000076293945 150.39999389648438 305.70000076293945 Q 149.39999389648438 306.20000076293945 148.39999389648438 307.20000076293945 Q 147.39999389648438 308.20000076293945 145.89999389648438 308.70000076293945 Q 144.39999389648438 309.20000076293945 142.39999389648438 310.70000076293945 Q 140.39999389648438 312.20000076293945 139.89999389648438 312.70000076293945 Q 139.39999389648438 313.20000076293945 137.89999389648438 314.20000076293945 Q 136.39999389648438 315.20000076293945 134.89999389648438 316.20000076293945 Q 133.39999389648438 317.20000076293945 132.39999389648438 318.20000076293945 Q 131.39999389648438 319.20000076293945 131.39999389648438 319.70000076293945 Q 131.39999389648438 320.20000076293945 130.89999389648438 320.20000076293945 Q 130.39999389648438 320.20000076293945 129.39999389648438 321.20000076293945 Q 128.39999389648438 322.20000076293945 127.89999389648438 322.20000076293945 Q 127.39999389648438 322.20000076293945 127.39999389648438 322.70000076293945 Q 127.39999389648438 323.20000076293945 126.89999389648438 323.70000076293945 L 126.39299389648437 324.20700076293946" stroke-linecap="round" />
</g>
<g transform="matrix(1 0 0 1 130.9 212.2)"  >
<path style="stroke: rgb(0,0,0); stroke-width: 7; stroke-dasharray: none; stroke-linecap: round; stroke-dashoffset: 0; stroke-linejoin: round; stroke-miterlimit: 10; fill: none; fill-rule: nonzero; opacity: 1;"  transform=" translate(-130.9, -212.2)" d="M 148.40699389648438 214.20700076293946 Q 148.39999389648438 214.20000076293945 147.39999389648438 213.70000076293945 Q 146.39999389648438 213.20000076293945 145.89999389648438 212.70000076293945 Q 145.39999389648438 212.20000076293945 143.89999389648438 212.20000076293945 Q 142.39999389648438 212.20000076293945 141.89999389648438 211.70000076293945 Q 141.39999389648438 211.20000076293945 140.39999389648438 211.20000076293945 Q 139.39999389648438 211.20000076293945 138.89999389648438 211.20000076293945 Q 138.39999389648438 211.20000076293945 137.89999389648438 211.20000076293945 Q 137.39999389648438 211.20000076293945 136.89999389648438 211.20000076293945 Q 136.39999389648438 211.20000076293945 135.89999389648438 211.20000076293945 Q 135.39999389648438 211.20000076293945 134.89999389648438 211.20000076293945 Q 134.39999389648438 211.20000076293945 133.89999389648438 211.20000076293945 Q 133.39999389648438 211.20000076293945 132.89999389648438 211.20000076293945 Q 132.39999389648438 211.20000076293945 131.89999389648438 211.20000076293945 Q 131.39999389648438 211.20000076293945 130.89999389648438 211.20000076293945 Q 130.39999389648438 211.20000076293945 129.89999389648438 211.20000076293945 Q 129.39999389648438 211.20000076293945 128.89999389648438 211.20000076293945 Q 128.39999389648438 211.20000076293945 127.89999389648438 211.20000076293945 Q 127.39999389648438 211.20000076293945 126.89999389648438 211.20000076293945 Q 126.39999389648438 211.20000076293945 125.89999389648438 211.20000076293945 Q 125.39999389648438 211.20000076293945 125.39999389648438 210.70000076293945 Q 125.39999389648438 210.20000076293945 124.89999389648438 210.20000076293945 Q 124.39999389648438 210.20000076293945 123.39999389648438 210.20000076293945 Q 122.39999389648438 210.20000076293945 121.89999389648438 210.20000076293945 Q 121.39999389648438 210.20000076293945 120.89999389648438 210.20000076293945 Q 120.39999389648438 210.20000076293945 119.89999389648438 210.20000076293945 Q 119.39999389648438 210.20000076293945 118.89999389648438 210.20000076293945 Q 118.39999389648438 210.20000076293945 117.89999389648438 210.20000076293945 Q 117.39999389648438 210.20000076293945 116.89999389648438 210.20000076293945 Q 116.39999389648438 210.20000076293945 115.89999389648438 210.20000076293945 Q 115.39999389648438 210.20000076293945 114.39999389648438 210.20000076293945 L 113.39299389648437 210.20000076293945" stroke-linecap="round" />
</g>
<g transform="matrix(1 0 0 1 166.4 149.7)"  >
<path style="stroke: rgb(0,0,0); stroke-width: 7; stroke-dasharray: none; stroke-linecap: round; stroke-dashoffset: 0; stroke-linejoin: round; stroke-miterlimit: 10; fill: none; fill-rule: nonzero; opacity: 1;"  transform=" translate(-166.4, -149.7)" d="M 183.39999389648438 160.20700076293946 Q 183.39999389648438 160.20000076293945 183.39999389648438 159.70000076293945 Q 183.39999389648438 159.20000076293945 183.39999389648438 158.70000076293945 Q 183.39999389648438 158.20000076293945 183.39999389648438 157.70000076293945 Q 183.39999389648438 157.20000076293945 182.89999389648438 156.70000076293945 Q 182.39999389648438 156.20000076293945 181.89999389648438 156.20000076293945 Q 181.39999389648438 156.20000076293945 180.89999389648438 155.70000076293945 Q 180.39999389648438 155.20000076293945 179.89999389648438 154.70000076293945 Q 179.39999389648438 154.20000076293945 178.89999389648438 153.70000076293945 Q 178.39999389648438 153.20000076293945 177.39999389648438 152.70000076293945 Q 176.39999389648438 152.20000076293945 175.39999389648438 151.70000076293945 Q 174.39999389648438 151.20000076293945 173.89999389648438 150.70000076293945 Q 173.39999389648438 150.20000076293945 172.89999389648438 149.70000076293945 Q 172.39999389648438 149.20000076293945 171.89999389648438 149.20000076293945 Q 171.39999389648438 149.20000076293945 170.89999389648438 149.20000076293945 Q 170.39999389648438 149.20000076293945 169.89999389648438 148.70000076293945 Q 169.39999389648438 148.20000076293945 168.89999389648438 148.20000076293945 Q 168.39999389648438 148.20000076293945 167.89999389648438 148.20000076293945 Q 167.39999389648438 148.20000076293945 166.89999389648438 147.70000076293945 Q 166.39999389648438 147.20000076293945 165.89999389648438 147.20000076293945 Q 165.39999389648438 147.20000076293945 165.39999389648438 146.70000076293945 Q 165.39999389648438 146.20000076293945 163.89999389648438 145.70000076293945 Q 162.39999389648438 145.20000076293945 162.39999389648438 144.70000076293945 Q 162.39999389648438 144.20000076293945 161.89999389648438 144.20000076293945 Q 161.39999389648438 144.20000076293945 160.89999389648438 144.20000076293945 Q 160.39999389648438 144.20000076293945 159.89999389648438 144.20000076293945 Q 159.39999389648438 144.20000076293945 158.89999389648438 144.20000076293945 Q 158.39999389648438 144.20000076293945 158.39999389648438 143.70000076293945 Q 158.39999389648438 143.20000076293945 157.39999389648438 143.20000076293945 Q 156.39999389648438 143.20000076293945 156.39999389648438 142.70000076293945 Q 156.39999389648438 142.20000076293945 155.89999389648438 141.70000076293945 Q 155.39999389648438 141.20000076293945 155.39999389648438 140.70000076293945 Q 155.39999389648438 140.20000076293945 154.89999389648438 140.20000076293945 Q 154.39999389648438 140.20000076293945 153.89999389648438 140.20000076293945 Q 153.39999389648438 140.20000076293945 152.89999389648438 140.20000076293945 Q 152.39999389648438 140.20000076293945 151.89999389648438 140.20000076293945 Q 151.39999389648438 140.20000076293945 151.39999389648438 139.70000076293945 Q 151.39999389648438 139.20000076293945 150.39999389648438 139.20000076293945 L 149.39299389648437 139.20000076293945" stroke-linecap="round" />
</g>
<g transform="matrix(1 0 0 1 223.4 102.2)"  >
<path style="stroke: rgb(0,0,0); stroke-width: 7; stroke-dasharray: none; stroke-linecap: round; stroke-dashoffset: 0; stroke-linejoin: round; stroke-miterlimit: 10; fill: none; fill-rule: nonzero; opacity: 1;"  transform=" translate(-223.4, -102.2)" d="M 227.40699389648438 128.20700076293946 Q 227.39999389648438 128.20000076293945 227.39999389648438 127.70000076293945 Q 227.39999389648438 127.20000076293945 226.89999389648438 125.70000076293945 Q 226.39999389648438 124.20000076293945 226.39999389648438 123.20000076293945 Q 226.39999389648438 122.20000076293945 226.39999389648438 121.20000076293945 Q 226.39999389648438 120.20000076293945 225.89999389648438 119.20000076293945 Q 225.39999389648438 118.20000076293945 225.39999389648438 117.20000076293945 Q 225.39999389648438 116.20000076293945 224.89999389648438 115.70000076293945 Q 224.39999389648438 115.20000076293945 223.39999389648438 112.70000076293945 Q 222.39999389648438 110.20000076293945 221.89999389648438 108.70000076293945 Q 221.39999389648438 107.20000076293945 221.39999389648438 106.70000076293945 Q 221.39999389648438 106.20000076293945 221.39999389648438 105.20000076293945 Q 221.39999389648438 104.20000076293945 220.89999389648438 103.70000076293945 Q 220.39999389648438 103.20000076293945 219.89999389648438 103.20000076293945 Q 219.39999389648438 103.20000076293945 219.39999389648438 102.20000076293945 Q 219.39999389648438 101.20000076293945 219.39999389648438 100.70000076293945 Q 219.39999389648438 100.20000076293945 219.39999389648438 99.70000076293945 Q 219.39999389648438 99.20000076293945 219.39999389648438 98.70000076293945 Q 219.39999389648438 98.20000076293945 219.39999389648438 97.20000076293945 Q 219.39999389648438 96.20000076293945 219.39999389648438 95.70000076293945 Q 219.39999389648438 95.20000076293945 219.39999389648438 94.70000076293945 Q 219.39999389648438 94.20000076293945 219.39999389648438 93.70000076293945 Q 219.39999389648438 93.20000076293945 219.39999389648438 92.20000076293945 Q 219.39999389648438 91.20000076293945 219.39999389648438 90.70000076293945 Q 219.39999389648438 90.20000076293945 219.39999389648438 89.20000076293945 Q 219.39999389648438 88.20000076293945 219.39999389648438 87.20000076293945 Q 219.39999389648438 86.20000076293945 219.39999389648438 85.20000076293945 Q 219.39999389648438 84.20000076293945 219.89999389648438 83.20000076293945 Q 220.39999389648438 82.20000076293945 220.39999389648438 81.70000076293945 Q 220.39999389648438 81.20000076293945 220.39999389648438 80.70000076293945 Q 220.39999389648438 80.20000076293945 220.39999389648438 79.20000076293945 Q 220.39999389648438 78.20000076293945 220.39999389648438 77.70000076293945 Q 220.39999389648438 77.20000076293945 220.89999389648438 76.70000076293945 L 221.40699389648438 76.19300076293945" stroke-linecap="round" />
</g>
<g transform="matrix(1 0 0 1 306.9 88.2)"  >
<path style="stroke: rgb(0,0,0); stroke-width: 7; stroke-dasharray: none; stroke-linecap: round; stroke-dashoffset: 0; stroke-linejoin: round; stroke-miterlimit: 10; fill: none; fill-rule: nonzero; opacity: 1;"  transform=" translate(-306.9, -88.2)" d="M 298.39299389648437 105.20700076293946 Q 298.3999938964844 105.20000076293945 298.3999938964844 104.70000076293945 Q 298.3999938964844 104.20000076293945 298.8999938964844 103.20000076293945 Q 299.3999938964844 102.20000076293945 299.8999938964844 101.20000076293945 Q 300.3999938964844 100.20000076293945 300.8999938964844 99.70000076293945 Q 301.3999938964844 99.20000076293945 301.8999938964844 97.70000076293945 Q 302.3999938964844 96.20000076293945 302.8999938964844 95.20000076293945 Q 303.3999938964844 94.20000076293945 303.8999938964844 93.70000076293945 Q 304.3999938964844 93.20000076293945 305.3999938964844 91.20000076293945 Q 306.3999938964844 89.20000076293945 306.8999938964844 87.70000076293945 Q 307.3999938964844 86.20000076293945 307.8999938964844 85.70000076293945 Q 308.3999938964844 85.20000076293945 309.3999938964844 83.70000076293945 Q 310.3999938964844 82.20000076293945 310.8999938964844 81.20000076293945 Q 311.3999938964844 80.20000076293945 311.8999938964844 79.20000076293945 Q 312.3999938964844 78.20000076293945 313.3999938964844 77.20000076293945 Q 314.3999938964844 76.20000076293945 314.3999938964844 74.70000076293945 Q 314.3999938964844 73.20000076293945 314.3999938964844 72.70000076293945 Q 314.3999938964844 72.20000076293945 314.8999938964844 71.70000076293945 L 315.4069938964844 71.19300076293945" stroke-linecap="round" />
</g>
<g transform="matrix(1 0 0 1 349.4 97.7)"  >
<path style="stroke: rgb(0,0,0); stroke-width: 7; stroke-dasharray: none; stroke-linecap: round; stroke-dashoffset: 0; stroke-linejoin: round; stroke-miterlimit: 10; fill: none; fill-rule: nonzero; opacity: 1;"  transform=" translate(-349.4, -97.7)" d="M 336.39299389648437 116.20700076293946 Q 336.3999938964844 116.20000076293945 337.3999938964844 115.70000076293945 Q 338.3999938964844 115.20000076293945 338.8999938964844 113.70000076293945 Q 339.3999938964844 112.20000076293945 340.3999938964844 112.20000076293945 Q 341.3999938964844 112.20000076293945 342.3999938964844 110.20000076293945 Q 343.3999938964844 108.20000076293945 344.3999938964844 106.20000076293945 Q 345.3999938964844 104.20000076293945 345.8999938964844 104.20000076293945 Q 346.3999938964844 104.20000076293945 348.3999938964844 101.70000076293945 Q 350.3999938964844 99.20000076293945 351.8999938964844 96.70000076293945 Q 353.3999938964844 94.20000076293945 353.8999938964844 93.20000076293945 Q 354.3999938964844 92.20000076293945 355.8999938964844 90.20000076293945 Q 357.3999938964844 88.20000076293945 358.3999938964844 86.70000076293945 Q 359.3999938964844 85.20000076293945 360.3999938964844 84.20000076293945 Q 361.3999938964844 83.20000076293945 361.8999938964844 81.20000076293945 L 362.4069938964844 79.19300076293945" stroke-linecap="round" />
</g>
</svg>