<svg xmlns="http://www.w3.org/2000/svg" xmlns:xlink="http://www.w3.org/1999/xlink" version="1.1" width="600" height="600" viewBox="0 0 600 600" xml:space="preserve">
<desc>Created with Fabric.js 5.2.4</desc>
<defs>
</defs>
<rect x="0" y="0" width="100%" height="100%" fill="#fff"></rect>
<g transform="matrix(1 0 0 1 282.4 275.2)"  >
<path style="stroke: rgb(0,0,0); stroke-width: 7; stroke-dasharray: none; stroke-linecap: round; stroke-dashoffset: 0; stroke-linejoin: round; stroke-miterlimit: 10; fill: none; fill-rule: nonzero; opacity: 1;"  transform=" translate(-282.4, -275.2)" d="M 362.4069938964844 112.20000076293945 Q 362.3999938964844 112.20000076293945 361.8999938964844 112.20000076293945 Q 361.3999938964844 112.20000076293945 360.8999938964844 112.20000076293945 Q 360.3999938964844 112.20000076293945 359.8999938964844 112.20000076293945 Q 359.3999938964844 112.20000076293945 358.8999938964844 112.20000076293945 Q 358.3999938964844 112.20000076293945 356.8999938964844 111.70000076293945 Q 355.3999938964844 111.20000076293945 354.8999938964844 111.20000076293945 Q 354.3999938964844 111.20000076293945 353.8999938964844 111.20000076293945 Q 353.3999938964844 111.20000076293945 351.8999938964844 111.20000076293945 Q 350.3999938964844 111.20000076293945 349.8999938964844 111.20000076293945 Q 349.3999938964844 111.20000076293945 347.8999938964844 110.70000076293945 Q 346.3999938964844 110.20000076293945 344.8999938964844 110.20000076293945 Q 343.3999938964844 110.20000076293945 342.3999938964844 110.20000076293945 Q 341.3999938964844 110.20000076293945 340.3999938964844 110.20000076293945 Q 339.3999938964844 110.20000076293945 338.3999938964844 110.20000076293945 Q 337.3999938964844 110.20000076293945 335.8999938964844 110.20000076293945 Q 334.3999938964844 110.20000076293945 333.8999938964844 110.20000076293945 Q 333.3999938964844 110.20000076293945 331.8999938964844 110.20000076293945 Q 330.3999938964844 110.20000076293945 327.8999938964844 110.20000076293945 Q 325.3999938964844 110.20000076293945 324.3999938964844 110.20000076293945 Q 323.3999938964844 110.20000076293945 322.3999938964844 110.20000076293945 Q 321.3999938964844 110.20000076293945 319.3999938964844 110.20000076293945 Q 317.3999938964844 110.20000076293945 314.8999938964844 110.20000076293945 Q 312.3999938964844 110.20000076293945 311.3999938964844 110.20000076293945 Q 310.3999938964844 110.20000076293945 308.3999938964844 110.20000076293945 Q 306.3999938964844 110.20000076293945 303.3999938964844 110.20000076293945 Q 300.3999938964844 110.20000076293945 299.3999938964844 110.20000076293945 Q 298.3999938964844 110.20000076293945 296.3999938964844 110.70000076293945 Q 294.3999938964844 111.20000076293945 292.8999938964844 111.70000076293945 Q 291.3999938964844 112.20000076293945 290.8999938964844 112.20000076293945 Q 290.3999938964844 112.20000076293945 287.8999938964844 112.20000076293945 Q 285.3999938964844 112.20000076293945 282.3999938964844 112.20000076293945 Q 279.3999938964844 112.20000076293945 278.3999938964844 112.70000076293945 Q 277.3999938964844 113.20000076293945 273.8999938964844 114.70000076293945 Q 270.3999938964844 116.20000076293945 267.3999938964844 116.20000076293945 Q 264.3999938964844 116.20000076293945 262.8999938964844 116.70000076293945 Q 261.3999938964844 117.20000076293945 257.8999938964844 117.70000076293945 Q 254.39999389648438 118.20000076293945 248.89999389648438 119.20000076293945 Q 243.39999389648438 120.20000076293945 238.89999389648438 122.20000076293945 Q 234.39999389648438 124.20000076293945 232.39999389648438 124.20000076293945 Q 230.39999389648438 124.20000076293945 225.89999389648438 126.20000076293945 Q 221.39999389648438 128.20000076293945 215.89999389648438 129.70000076293945 Q 210.39999389648438 131.20000076293945 206.39999389648438 132.70000076293945 Q 202.39999389648438 134.20000076293945 200.39999389648438 135.20000076293945 Q 198.39999389648438 136.20000076293945 196.39999389648438 136.20000076293945 Q 194.39999389648438 136.20000076293945 193.89999389648438 137.20000076293945 Q 193.39999389648438 138.20000076293945 192.39999389648438 138.70000076293945 Q 191.39999389648438 139.20000076293945 190.39999389648438 140.20000076293945 Q 189.39999389648438 141.20000076293945 188.39999389648438 141.70000076293945 Q 187.39999389648438 142.20000076293945 186.39999389648438 143.20000076293945 Q 185.39999389648438 144.20000076293945 183.89999389648438 145.70000076293945 Q 182.39999389648438 147.20000076293945 181.39999389648438 147.70000076293945 Q 180.39999389648438 148.20000076293945 179.39999389648438 149.70000076293945 Q 178.39999389648438 151.20000076293945 176.39999389648438 152.70000076293945 Q 174.39999389648438 154.20000076293945 173.39999389648438 156.20000076293945 Q 172.39999389648438 158.20000076293945 171.39999389648438 159.20000076293945 Q 170.39999389648438 160.20000076293945 169.39999389648438 162.20000076293945 Q 168.39999389648438 164.20000076293945 166.89999389648438 166.70000076293945 Q 165.39999389648438 169.20000076293945 164.39999389648438 170.70000076293945 Q 163.39999389648438 172.20000076293945 162.39999389648438 173.70000076293945 Q 161.39999389648438 175.20000076293945 159.89999389648438 176.70000076293945 Q 158.39999389648438 178.20000076293945 158.39999389648438 179.20000076293945 Q 158.39999389648438 180.20000076293945 157.39999389648438 182.20000076293945 Q 156.39999389648438 184.20000076293945 155.39999389648438 185.70000076293945 Q 154.39999389648438 187.20000076293945 153.39999389648438 188.20000076293945 Q 152.39999389648438 189.20000076293945 150.89999389648438 192.70000076293945 Q 149.39999389648438 196.20000076293945 147.89999389648438 198.70000076293945 Q 146.39999389648438 201.20000076293945 145.89999389648438 203.20000076293945 Q 145.39999389648438 205.20000076293945 143.89999389648438 208.20000076293945 Q 142.39999389648438 211.20000076293945 140.89999389648438 214.70000076293945 Q 139.39999389648438 218.20000076293945 137.89999389648438 222.20000076293945 Q 136.39999389648438 226.20000076293945 136.39999389648438 227.20000076293945 Q 136.39999389648438 228.20000076293945 134.39999389648438 234.70000076293945 Q 132.39999389648438 241.20000076293945 131.89999389648438 244.20000076293945 Q 131.39999389648438 247.20000076293945 130.89999389648438 248.70000076293945 Q 130.39999389648438 250.20000076293945 130.39999389648438 253.20000076293945 Q 130.39999389648438 256.20000076293945 130.39999389648438 257.20000076293945 Q 130.39999389648438 258.20000076293945 129.39999389648438 260.70000076293945 Q 128.39999389648438 263.20000076293945 128.39999389648438 265.70000076293945 Q 128.39999389648438 268.20000076293945 128.39999389648438 271.20000076293945 Q 128.39999389648438 274.20000076293945 128.39999389648438 275.70000076293945 Q 128.39999389648438 277.20000076293945 128.39999389648438 279.20000076293945 Q 128.39999389648438 281.20000076293945 128.39999389648438 285.20000076293945 Q 128.39999389648438 289.20000076293945 128.39999389648438 290.20000076293945 Q 128.39999389648438 291.20000076293945 128.39999389648438 294.70000076293945 Q 128.39999389648438 298.20000076293945 128.89999389648438 301.20000076293945 Q 129.39999389648438 304.20000076293945 129.89999389648438 305.70000076293945 Q 130.39999389648438 307.20000076293945 130.39999389648438 310.70000076293945 Q 130.39999389648438 314.20000076293945 130.89999389648438 317.20000076293945 Q 131.39999389648438 320.20000076293945 131.39999389648438 321.70000076293945 Q 131.39999389648438 323.20000076293945 132.39999389648438 325.70000076293945 Q 133.39999389648438 328.20000076293945 133.89999389648438 331.20000076293945 Q 134.39999389648438 334.20000076293945 134.39999389648438 335.20000076293945 Q 134.39999389648438 336.20000076293945 135.89999389648438 338.20000076293945 Q 137.39999389648438 340.20000076293945 137.89999389648438 342.20000076293945 Q 138.39999389648438 344.20000076293945 139.89999389648438 347.70000076293945 Q 141.39999389648438 351.20000076293945 141.89999389648438 352.20000076293945 Q 142.39999389648438 353.20000076293945 143.39999389648438 355.20000076293945 Q 144.39999389648438 357.20000076293945 145.39999389648438 358.70000076293945 Q 146.39999389648438 360.20000076293945 146.39999389648438 361.70000076293945 Q 146.39999389648438 363.20000076293945 147.89999389648438 364.70000076293945 Q 149.39999389648438 366.20000076293945 151.89999389648438 369.20000076293945 Q 154.39999389648438 372.20000076293945 154.39999389648438 373.20000076293945 Q 154.39999389648438 374.20000076293945 156.39999389648438 376.70000076293945 Q 158.39999389648438 379.20000076293945 160.89999389648438 380.70000076293945 Q 163.39999389648438 382.20000076293945 164.89999389648438 383.20000076293945 Q 166.39999389648438 384.20000076293945 168.89999389648438 386.20000076293945 Q 171.39999389648438 388.20000076293945 174.89999389648438 391.20000076293945 Q 178.39999389648438 394.20000076293945 179.89999389648438 394.70000076293945 Q 181.39999389648438 395.20000076293945 183.89999389648438 396.70000076293945 Q 186.39999389648438 398.20000076293945 188.89999389648438 399.70000076293945 Q 191.39999389648438 401.20000076293945 194.39999389648438 402.70000076293945 Q 197.39999389648438 404.20000076293945 199.39999389648438 405.70000076293945 Q 201.39999389648438 407.20000076293945 203.39999389648438 407.70000076293945 Q 205.39999389648438 408.20000076293945 210.39999389648438 410.70000076293945 Q 215.39999389648438 413.20000076293945 217.39999389648438 413.70000076293945 Q 219.39999389648438 414.20000076293945 223.39999389648438 415.70000076293945 Q 227.39999389648438 417.20000076293945 232.39999389648438 418.20000076293945 Q 237.39999389648438 419.20000076293945 238.89999389648438 419.70000076293945 Q 240.39999389648438 420.20000076293945 247.39999389648438 422.20000076293945 Q 254.39999389648438 424.20000076293945 259.3999938964844 426.20000076293945 Q 264.3999938964844 428.20000076293945 266.3999938964844 428.70000076293945 Q 268.3999938964844 429.20000076293945 272.8999938964844 430.70000076293945 Q 277.3999938964844 432.20000076293945 283.3999938964844 433.70000076293945 Q 289.3999938964844 435.20000076293945 290.3999938964844 435.70000076293945 Q 291.3999938964844 436.20000076293945 294.8999938964844 436.70000076293945 Q 298.3999938964844 437.20000076293945 300.8999938964844 437.70000076293945 Q 303.3999938964844 438.20000076293945 305.3999938964844 439.20000076293945 Q 307.3999938964844 440.20000076293945 308.8999938964844 440.20000076293945 Q 310.3999938964844 440.20000076293945 312.3999938964844 440.20000076293945 Q 314.3999938964844 440.20000076293945 316.3999938964844 440.20000076293945 Q 318.3999938964844 440.20000076293945 318.8999938964844 440.20000076293945 Q 319.3999938964844 440.20000076293945 321.3999938964844 440.20000076293945 Q 323.3999938964844 440.20000076293945 326.8999938964844 440.20000076293945 Q 330.3999938964844 440.20000076293945 331.8999938964844 440.20000076293945 Q 333.3999938964844 440.20000076293945 335.3999938964844 439.20000076293945 Q 337.3999938964844 438.20000076293945 339.3999938964844 437.20000076293945 Q 341.3999938964844 436.20000076293945 341.8999938964844 436.20000076293945 Q 342.3999938964844 436.20000076293945 345.3999938964844 434.70000076293945 Q 348.3999938964844 433.20000076293945 351.3999938964844 432.70000076293945 Q 354.3999938964844 432.20000076293945 355.8999938964844 431.20000076293945 Q 357.3999938964844 430.20000076293945 359.8999938964844 428.20000076293945 Q 362.3999938964844 426.20000076293945 366.8999938964844 423.70000076293945 Q 371.3999938964844 421.20000076293945 372.8999938964844 420.20000076293945 Q 374.3999938964844 419.20000076293945 378.3999938964844 417.20000076293945 Q 382.3999938964844 415.20000076293945 387.3999938964844 411.70000076293945 Q 392.3999938964844 408.20000076293945 396.8999938964844 405.70000076293945 Q 401.3999938964844 403.20000076293945 402.8999938964844 401.70000076293945 Q 404.3999938964844 400.20000076293945 407.8999938964844 396.70000076293945 Q 411.3999938964844 393.20000076293945 415.3999938964844 388.70000076293945 Q 419.3999938964844 384.20000076293945 420.8999938964844 383.20000076293945 Q 422.3999938964844 382.20000076293945 426.3999938964844 377.20000076293945 Q 430.3999938964844 372.20000076293945 430.8999938964844 370.20000076293945 Q 431.3999938964844 368.20000076293945 431.8999938964844 367.20000076293945 Q 432.3999938964844 366.20000076293945 432.8999938964844 364.20000076293945 Q 433.3999938964844 362.20000076293945 433.8999938964844 360.70000076293945 Q 434.3999938964844 359.20000076293945 434.3999938964844 358.20000076293945 Q 434.3999938964844 357.20000076293945 434.8999938964844 355.20000076293945 Q 435.3999938964844 353.20000076293945 435.3999938964844 349.20000076293945 Q 435.3999938964844 345.20000076293945 435.3999938964844 344.20000076293945 Q 435.3999938964844 343.20000076293945 435.3999938964844 340.70000076293945 Q 435.3999938964844 338.20000076293945 435.3999938964844 335.20000076293945 Q 435.3999938964844 332.20000076293945 435.3999938964844 330.70000076293945 Q 435.3999938964844 329.20000076293945 435.3999938964844 325.70000076293945 Q 435.3999938964844 322.20000076293945 435.3999938964844 319.20000076293945 Q 435.3999938964844 316.20000076293945 435.3999938964844 315.20000076293945 Q 435.3999938964844 314.20000076293945 435.3999938964844 311.20000076293945 Q 435.3999938964844 308.20000076293945 435.3999938964844 305.70000076293945 Q 435.3999938964844 303.20000076293945 435.8999938964844 301.20000076293945 Q 436.3999938964844 299.20000076293945 436.3999938964844 292.20000076293945 Q 436.3999938964844 285.20000076293945 436.3999938964844 281.70000076293945 Q 436.3999938964844 278.20000076293945 436.3999938964844 277.20000076293945 Q 436.3999938964844 276.20000076293945 436.3999938964844 272.70000076293945 Q 436.3999938964844 269.20000076293945 436.3999938964844 265.70000076293945 Q 436.3999938964844 262.20000076293945 436.3999938964844 261.20000076293945 Q 436.3999938964844 260.20000076293945 436.3999938964844 256.70000076293945 Q 436.3999938964844 253.20000076293945 436.3999938964844 250.70000076293945 Q 436.3999938964844 248.20000076293945 436.3999938964844 246.20000076293945 Q 436.3999938964844 244.20000076293945 436.3999938964844 242.20000076293945 Q 436.3999938964844 240.20000076293945 435.3999938964844 235.70000076293945 Q 434.3999938964844 231.20000076293945 433.3999938964844 229.20000076293945 Q 432.3999938964844 227.20000076293945 431.8999938964844 224.20000076293945 Q 431.3999938964844 221.20000076293945 430.8999938964844 220.70000076293945 Q 430.3999938964844 220.20000076293945 429.8999938964844 218.20000076293945 Q 429.3999938964844 216.20000076293945 428.8999938964844 214.20000076293945 Q 428.3999938964844 212.20000076293945 427.3999938964844 209.70000076293945 Q 426.3999938964844 207.20000076293945 426.3999938964844 206.70000076293945 Q 426.3999938964844 206.20000076293945 425.8999938964844 204.70000076293945 Q 425.3999938964844 203.20000076293945 424.8999938964844 201.70000076293945 Q 424.3999938964844 200.20000076293945 423.8999938964844 199.20000076293945 Q 423.3999938964844 198.20000076293945 422.8999938964844 196.70000076293945 Q 422.3999938964844 195.20000076293945 421.3999938964844 193.70000076293945 Q 420.3999938964844 192.20000076293945 420.3999938964844 191.20000076293945 Q 420.3999938964844 190.20000076293945 419.3999938964844 188.70000076293945 Q 418.3999938964844 187.20000076293945 416.8999938964844 185.20000076293945 Q 415.3999938964844 183.20000076293945 414.8999938964844 181.70000076293945 Q 414.3999938964844 180.20000076293945 414.3999938964844 178.70000076293945 Q 414.3999938964844 177.20000076293945 412.8999938964844 175.70000076293945 Q 411.3999938964844 174.20000076293945 411.3999938964844 173.20000076293945 Q 411.3999938964844 172.20000076293945 410.3999938964844 170.70000076293945 Q 409.3999938964844 169.20000076293945 408.3999938964844 168.20000076293945 Q 407.3999938964844 167.20000076293945 406.8999938964844 165.70000076293945 Q 406.3999938964844 164.20000076293945 405.8999938964844 163.20000076293945 Q 405.3999938964844 162.20000076293945 404.8999938964844 161.70000076293945 Q 404.3999938964844 161.20000076293945 403.3999938964844 160.20000076293945 Q 402.3999938964844 159.20000076293945 402.3999938964844 158.70000076293945 Q 402.3999938964844 158.20000076293945 401.3999938964844 157.70000076293945 Q 400.3999938964844 157.20000076293945 400.3999938964844 156.20000076293945 Q 400.3999938964844 155.20000076293945 399.8999938964844 154.70000076293945 Q 399.3999938964844 154.20000076293945 398.8999938964844 153.70000076293945 Q 398.3999938964844 153.20000076293945 398.3999938964844 152.70000076293945 Q 398.3999938964844 152.20000076293945 397.3999938964844 151.20000076293945 Q 396.3999938964844 150.20000076293945 395.8999938964844 149.20000076293945 Q 395.3999938964844 148.20000076293945 394.8999938964844 148.20000076293945 Q 394.3999938964844 148.20000076293945 394.3999938964844 147.20000076293945 Q 394.3999938964844 146.20000076293945 394.3999938964844 145.20000076293945 Q 394.3999938964844 144.20000076293945 393.3999938964844 143.20000076293945 Q 392.3999938964844 142.20000076293945 391.8999938964844 141.70000076293945 Q 391.3999938964844 141.20000076293945 390.8999938964844 140.70000076293945 Q 390.3999938964844 140.20000076293945 390.3999938964844 138.70000076293945 Q 390.3999938964844 137.20000076293945 389.8999938964844 136.70000076293945 Q 389.3999938964844 136.20000076293945 388.8999938964844 136.20000076293945 Q 388.3999938964844 136.20000076293945 387.3999938964844 135.20000076293945 Q 386.3999938964844 134.20000076293945 386.3999938964844 133.70000076293945 Q 386.3999938964844 133.20000076293945 385.8999938964844 132.70000076293945 Q 385.3999938964844 132.20000076293945 384.8999938964844 131.70000076293945 Q 384.3999938964844 131.20000076293945 383.8999938964844 131.20000076293945 Q 383.3999938964844 131.20000076293945 383.3999938964844 130.70000076293945 Q 383.3999938964844 130.20000076293945 382.8999938964844 130.20000076293945 Q 382.3999938964844 130.20000076293945 381.8999938964844 129.20000076293945 Q 381.3999938964844 128.20000076293945 380.3999938964844 128.20000076293945 Q 379.3999938964844 128.20000076293945 379.3999938964844 127.70000076293945 Q 379.3999938964844 127.20000076293945 378.8999938964844 126.70000076293945 Q 378.3999938964844 126.20000076293945 377.8999938964844 125.20000076293945 Q 377.3999938964844 124.20000076293945 376.8999938964844 124.20000076293945 Q 376.3999938964844 124.20000076293945 375.8999938964844 124.20000076293945 Q 375.3999938964844 124.20000076293945 374.8999938964844 123.70000076293945 Q 374.3999938964844 123.20000076293945 374.3999938964844 122.20000076293945 Q 374.3999938964844 121.20000076293945 373.8999938964844 121.20000076293945 Q 373.3999938964844 121.20000076293945 372.8999938964844 121.20000076293945 Q 372.3999938964844 121.20000076293945 372.3999938964844 120.70000076293945 Q 372.3999938964844 120.20000076293945 371.3999938964844 119.70000076293945 Q 370.3999938964844 119.20000076293945 369.8999938964844 119.20000076293945 Q 369.3999938964844 119.20000076293945 368.8999938964844 119.20000076293945 Q 368.3999938964844 119.20000076293945 368.3999938964844 118.70000076293945 Q 368.3999938964844 118.20000076293945 367.8999938964844 118.20000076293945 Q 367.3999938964844 118.20000076293945 367.3999938964844 117.70000076293945 Q 367.3999938964844 117.20000076293945 366.8999938964844 117.20000076293945 Q 366.3999938964844 117.20000076293945 366.3999938964844 116.70000076293945 Q 366.3999938964844 116.20000076293945 365.8999938964844 115.70000076293945 Q 365.3999938964844 115.20000076293945 364.8999938964844 115.20000076293945 Q 364.3999938964844 115.20000076293945 363.8999938964844 115.20000076293945 Q 363.3999938964844 115.20000076293945 363.3999938964844 114.70000076293945 Q 363.3999938964844 114.20000076293945 363.3999938964844 113.70000076293945 Q 363.3999938964844 113.20000076293945 362.8999938964844 113.20000076293945 Q 362.3999938964844 113.20000076293945 362.3999938964844 112.70000076293945 Q 362.3999938964844 112.20000076293945 361.8999938964844 112.20000076293945 Q 361.3999938964844 112.20000076293945 360.3999938964844 112.20000076293945 L 359.39299389648437 112.20000076293945" stroke-linecap="round" />
</g>
<g transform="matrix(1 0 0 1 427.4 91.2)"  >
<path style="stroke: rgb(0,0,0); stroke-width: 7; stroke-dasharray: none; stroke-linecap: round; stroke-dashoffset: 0; stroke-linejoin: round; stroke-miterlimit: 10; fill: none; fill-rule: nonzero; opacity: 1;"  transform=" translate(-427.4, -91.2)" d="M 378.39299389648437 127.20700076293946 Q 378.3999938964844 127.20000076293945 379.3999938964844 127.20000076293945 Q 380.3999938964844 127.20000076293945 382.8999938964844 124.20000076293945 Q 385.3999938964844 121.20000076293945 386.8999938964844 120.70000076293945 Q 388.3999938964844 120.20000076293945 389.8999938964844 118.70000076293945 Q 391.3999938964844 117.20000076293945 393.3999938964844 115.20000076293945 Q 395.3999938964844 113.20000076293945 396.8999938964844 112.20000076293945 Q 398.3999938964844 111.20000076293945 399.8999938964844 109.70000076293945 Q 401.3999938964844 108.20000076293945 402.3999938964844 106.20000076293945 Q 403.3999938964844 104.20000076293945 404.8999938964844 103.70000076293945 Q 406.3999938964844 103.20000076293945 408.3999938964844 101.20000076293945 Q 410.3999938964844 99.20000076293945 412.3999938964844 97.70000076293945 Q 414.3999938964844 96.20000076293945 415.8999938964844 95.70000076293945 Q 417.3999938964844 95.20000076293945 419.8999938964844 93.20000076293945 Q 422.3999938964844 91.20000076293945 424.8999938964844 89.70000076293945 Q 427.3999938964844 88.20000076293945 428.8999938964844 87.70000076293945 Q 430.3999938964844 87.20000076293945 432.3999938964844 85.70000076293945 Q 434.3999938964844 84.20000076293945 436.3999938964844 82.70000076293945 Q 438.3999938964844 81.20000076293945 440.3999938964844 80.70000076293945 Q 442.3999938964844 80.20000076293945 443.3999938964844 79.20000076293945 Q 444.3999938964844 78.20000076293945 445.3999938964844 77.20000076293945 Q 446.3999938964844 76.20000076293945 447.8999938964844 75.70000076293945 Q 449.3999938964844 75.20000076293945 449.8999938964844 74.70000076293945 Q 450.3999938964844 74.20000076293945 451.8999938964844 73.70000076293945 Q 453.3999938964844 73.20000076293945 453.8999938964844 72.20000076293945 Q 454.3999938964844 71.20000076293945 454.8999938964844 70.70000076293945 Q 455.3999938964844 70.20000076293945 456.8999938964844 69.20000076293945 Q 458.3999938964844 68.20000076293945 460.3999938964844 67.20000076293945 Q 462.3999938964844 66.20000076293945 462.8999938964844 65.70000076293945 Q 463.3999938964844 65.20000076293945 464.8999938964844 64.70000076293945 Q 466.3999938964844 64.20000076293945 467.8999938964844 62.20000076293945 Q 469.3999938964844 60.20000076293945 469.8999938964844 60.20000076293945 Q 470.3999938964844 60.20000076293945 471.3999938964844 59.70000076293945 Q 472.3999938964844 59.20000076293945 473.3999938964844 58.20000076293945 Q 474.3999938964844 57.20000076293945 474.8999938964844 56.70000076293945 Q 475.3999938964844 56.20000076293945 475.8999938964844 55.70000076293945 L 476.4069938964844 55.193000762939455" stroke-linecap="round" />
</g>
<g transform="matrix(1 0 0 1 479.4 161.7)"  >
<path style="stroke: rgb(0,0,0); stroke-width: 7; stroke-dasharray: none; stroke-linecap: round; stroke-dashoffset: 0; stroke-linejoin: round; stroke-miterlimit: 10; fill: none; fill-rule: nonzero; opacity: 1;"  transform=" translate(-479.4, -161.7)" d="M 442.39299389648437 182.20700076293946 Q 442.3999938964844 182.20000076293945 444.3999938964844 181.20000076293945 Q 446.3999938964844 180.20000076293945 447.3999938964844 179.20000076293945 Q 448.3999938964844 178.20000076293945 449.3999938964844 177.70000076293945 Q 450.3999938964844 177.20000076293945 450.8999938964844 176.70000076293945 Q 451.3999938964844 176.20000076293945 452.3999938964844 176.20000076293945 Q 453.3999938964844 176.20000076293945 453.8999938964844 175.70000076293945 Q 454.3999938964844 175.20000076293945 454.3999938964844 174.70000076293945 Q 454.3999938964844 174.20000076293945 454.8999938964844 173.70000076293945 Q 455.3999938964844 173.20000076293945 455.8999938964844 172.70000076293945 Q 456.3999938964844 172.20000076293945 456.8999938964844 172.20000076293945 Q 457.3999938964844 172.20000076293945 457.8999938964844 171.70000076293945 Q 458.3999938964844 171.20000076293945 458.8999938964844 170.70000076293945 Q 459.3999938964844 170.20000076293945 460.3999938964844 170.20000076293945 Q 461.3999938964844 170.20000076293945 461.8999938964844 169.70000076293945 Q 462.3999938964844 169.20000076293945 462.8999938964844 168.70000076293945 Q 463.3999938964844 168.20000076293945 464.3999938964844 167.70000076293945 Q 465.3999938964844 167.20000076293945 465.8999938964844 166.70000076293945 Q 466.3999938964844 166.20000076293945 467.3999938964844 165.70000076293945 Q 468.3999938964844 165.20000076293945 469.3999938964844 164.70000076293945 Q 470.3999938964844 164.20000076293945 470.8999938964844 163.70000076293945 Q 471.3999938964844 163.20000076293945 472.8999938964844 162.70000076293945 Q 474.3999938964844 162.20000076293945 475.3999938964844 161.70000076293945 Q 476.3999938964844 161.20000076293945 478.3999938964844 160.20000076293945 Q 480.3999938964844 159.20000076293945 481.3999938964844 158.70000076293945 Q 482.3999938964844 158.20000076293945 484.3999938964844 157.20000076293945 Q 486.3999938964844 156.20000076293945 488.8999938964844 154.70000076293945 Q 491.3999938964844 153.20000076293945 494.3999938964844 152.70000076293945 Q 497.3999938964844 152.20000076293945 498.3999938964844 151.70000076293945 Q 499.3999938964844 151.20000076293945 500.3999938964844 150.70000076293945 Q 501.3999938964844 150.20000076293945 502.8999938964844 149.70000076293945 Q 504.3999938964844 149.20000076293945 505.3999938964844 148.70000076293945 Q 506.3999938964844 148.20000076293945 506.8999938964844 148.20000076293945 Q 507.3999938964844 148.20000076293945 507.3999938964844 147.70000076293945 Q 507.3999938964844 147.20000076293945 507.8999938964844 146.70000076293945 Q 508.3999938964844 146.20000076293945 509.3999938964844 146.20000076293945 Q 510.3999938964844 146.20000076293945 510.3999938964844 145.70000076293945 Q 510.3999938964844 145.20000076293945 510.8999938964844 145.20000076293945 Q 511.3999938964844 145.20000076293945 511.8999938964844 144.70000076293945 Q 512.3999938964844 144.20000076293945 512.8999938964844 144.20000076293945 Q 513.3999938964844 144.20000076293945 513.8999938964844 143.70000076293945 Q 514.3999938964844 143.20000076293945 514.3999938964844 142.70000076293945 Q 514.3999938964844 142.20000076293945 514.3999938964844 141.70000076293945 Q 514.3999938964844 141.20000076293945 515.3999938964844 141.20000076293945 L 516.4069938964843 141.20000076293945" stroke-linecap="round" />
</g>
<g transform="matrix(1 0 0 1 500.4 279.7)"  >
<path style="stroke: rgb(0,0,0); stroke-width: 7; stroke-dasharray: none; stroke-linecap: round; stroke-dashoffset: 0; stroke-linejoin: round; stroke-miterlimit: 10; fill: none; fill-rule: nonzero; opacity: 1;"  transform=" translate(-500.4, -279.7)" d="M 458.39299389648437 279.20000076293945 Q 458.3999938964844 279.20000076293945 458.8999938964844 279.20000076293945 Q 459.3999938964844 279.20000076293945 461.3999938964844 279.20000076293945 Q 463.3999938964844 279.20000076293945 464.8999938964844 279.70000076293945 Q 466.3999938964844 280.20000076293945 468.3999938964844 280.20000076293945 Q 470.3999938964844 280.20000076293945 472.3999938964844 280.70000076293945 Q 474.3999938964844 281.20000076293945 475.3999938964844 281.20000076293945 Q 476.3999938964844 281.20000076293945 478.3999938964844 281.70000076293945 Q 480.3999938964844 282.20000076293945 482.3999938964844 282.20000076293945 Q 484.3999938964844 282.20000076293945 485.3999938964844 282.20000076293945 Q 486.3999938964844 282.20000076293945 487.8999938964844 282.20000076293945 Q 489.3999938964844 282.20000076293945 490.3999938964844 282.20000076293945 Q 491.3999938964844 282.20000076293945 492.3999938964844 282.20000076293945 Q 493.3999938964844 282.20000076293945 493.8999938964844 282.20000076293945 Q 494.3999938964844 282.20000076293945 495.8999938964844 282.20000076293945 Q 497.3999938964844 282.20000076293945 498.3999938964844 282.20000076293945 Q 499.3999938964844 282.20000076293945 500.8999938964844 282.20000076293945 Q 502.3999938964844 282.20000076293945 503.3999938964844 282.20000076293945 Q 504.3999938964844 282.20000076293945 505.3999938964844 282.20000076293945 Q 506.3999938964844 282.20000076293945 507.3999938964844 282.20000076293945 Q 508.3999938964844 282.20000076293945 509.3999938964844 282.20000076293945 Q 510.3999938964844 282.20000076293945 511.3999938964844 281.70000076293945 Q 512.3999938964844 281.20000076293945 512.8999938964844 281.20000076293945 Q 513.3999938964844 281.20000076293945 514.3999938964844 281.20000076293945 Q 515.3999938964844 281.20000076293945 516.8999938964844 280.70000076293945 Q 518.3999938964844 280.20000076293945 518.8999938964844 280.20000076293945 Q 519.3999938964844 280.20000076293945 520.8999938964844 280.20000076293945 Q 522.3999938964844 280.20000076293945 524.3999938964844 279.70000076293945 Q 526.3999938964844 279.20000076293945 526.8999938964844 279.20000076293945 Q 527.3999938964844 279.20000076293945 528.8999938964844 279.20000076293945 Q 530.3999938964844 279.20000076293945 531.8999938964844 279.20000076293945 Q 533.3999938964844 279.20000076293945 533.8999938964844 278.70000076293945 Q 534.3999938964844 278.20000076293945 534.8999938964844 278.20000076293945 Q 535.3999938964844 278.20000076293945 535.8999938964844 278.20000076293945 Q 536.3999938964844 278.20000076293945 536.3999938964844 277.70000076293945 Q 536.3999938964844 277.20000076293945 537.3999938964844 277.20000076293945 Q 538.3999938964844 277.20000076293945 538.8999938964844 277.20000076293945 Q 539.3999938964844 277.20000076293945 539.8999938964844 277.20000076293945 Q 540.3999938964844 277.20000076293945 541.3999938964844 277.20000076293945 L 542.4069938964843 277.20000076293945" stroke-linecap="round" />
</g>
<g transform="matrix(1 0 0 1 500.9 346.2)"  >
<path style="stroke: rgb(0,0,0); stroke-width: 7; stroke-dasharray: none; stroke-linecap: round; stroke-dashoffset: 0; stroke-linejoin: round; stroke-miterlimit: 10; fill: none; fill-rule: nonzero; opacity: 1;"  transform=" translate(-500.9, -346.2)" d="M 453.39299389648437 336.19300076293945 Q 453.3999938964844 336.20000076293945 453.8999938964844 336.70000076293945 Q 454.3999938964844 337.20000076293945 455.3999938964844 337.70000076293945 Q 456.3999938964844 338.20000076293945 458.3999938964844 338.70000076293945 Q 460.3999938964844 339.20000076293945 464.3999938964844 339.70000076293945 Q 468.3999938964844 340.20000076293945 471.3999938964844 341.70000076293945 Q 474.3999938964844 343.20000076293945 475.3999938964844 343.20000076293945 Q 476.3999938964844 343.20000076293945 479.8999938964844 344.20000076293945 Q 483.3999938964844 345.20000076293945 488.3999938964844 346.70000076293945 Q 493.3999938964844 348.20000076293945 495.3999938964844 348.20000076293945 Q 497.3999938964844 348.20000076293945 501.8999938964844 349.70000076293945 Q 506.3999938964844 351.20000076293945 511.3999938964844 351.70000076293945 Q 516.3999938964844 352.20000076293945 518.3999938964844 352.20000076293945 Q 520.3999938964844 352.20000076293945 525.8999938964844 353.20000076293945 Q 531.3999938964844 354.20000076293945 534.3999938964844 354.70000076293945 Q 537.3999938964844 355.20000076293945 538.8999938964844 355.20000076293945 Q 540.3999938964844 355.20000076293945 542.3999938964844 355.70000076293945 Q 544.3999938964844 356.20000076293945 545.3999938964844 356.20000076293945 Q 546.3999938964844 356.20000076293945 547.3999938964844 356.20000076293945 L 548.4069938964843 356.20000076293945" stroke-linecap="round" />
</g>
<g transform="matrix(1 0 0 1 471.9 446.7)"  >
<path style="stroke: rgb(0,0,0); stroke-width: 7; stroke-dasharray: none; stroke-linecap: round; stroke-dashoffset: 0; stroke-linejoin: round; stroke-miterlimit: 10; fill: none; fill-rule: nonzero; opacity: 1;"  transform=" translate(-471.9, -446.7)" d="M 433.39299389648437 409.19300076293945 Q 433.3999938964844 409.20000076293945 433.3999938964844 409.70000076293945 Q 433.3999938964844 410.20000076293945 435.8999938964844 413.20000076293945 Q 438.3999938964844 416.20000076293945 441.3999938964844 418.20000076293945 Q 444.3999938964844 420.20000076293945 445.3999938964844 421.20000076293945 Q 446.3999938964844 422.20000076293945 449.3999938964844 424.70000076293945 Q 452.3999938964844 427.20000076293945 454.8999938964844 429.70000076293945 Q 457.3999938964844 432.20000076293945 458.8999938964844 434.20000076293945 Q 460.3999938964844 436.20000076293945 463.3999938964844 438.20000076293945 Q 466.3999938964844 440.20000076293945 468.8999938964844 442.70000076293945 Q 471.3999938964844 445.20000076293945 472.8999938964844 446.70000076293945 Q 474.3999938964844 448.20000076293945 476.3999938964844 450.20000076293945 Q 478.3999938964844 452.20000076293945 480.3999938964844 453.70000076293945 Q 482.3999938964844 455.20000076293945 482.8999938964844 455.70000076293945 Q 483.3999938964844 456.20000076293945 484.8999938964844 457.20000076293945 Q 486.3999938964844 458.20000076293945 487.3999938964844 459.20000076293945 Q 488.3999938964844 460.20000076293945 488.8999938964844 461.20000076293945 Q 489.3999938964844 462.20000076293945 489.8999938964844 463.20000076293945 Q 490.3999938964844 464.20000076293945 491.8999938964844 464.70000076293945 Q 493.3999938964844 465.20000076293945 493.3999938964844 465.70000076293945 Q 493.3999938964844 466.20000076293945 493.8999938964844 466.70000076293945 Q 494.3999938964844 467.20000076293945 494.8999938964844 467.70000076293945 Q 495.3999938964844 468.20000076293945 495.8999938964844 469.20000076293945 Q 496.3999938964844 470.20000076293945 496.8999938964844 470.20000076293945 Q 497.3999938964844 470.20000076293945 497.8999938964844 471.20000076293945 Q 498.3999938964844 472.20000076293945 499.3999938964844 472.20000076293945 Q 500.3999938964844 472.20000076293945 501.3999938964844 473.70000076293945 Q 502.3999938964844 475.20000076293945 502.8999938964844 475.70000076293945 Q 503.3999938964844 476.20000076293945 503.8999938964844 477.20000076293945 Q 504.3999938964844 478.20000076293945 505.3999938964844 478.70000076293945 Q 506.3999938964844 479.20000076293945 506.3999938964844 479.70000076293945 Q 506.3999938964844 480.20000076293945 506.8999938964844 481.20000076293945 Q 507.3999938964844 482.20000076293945 507.8999938964844 482.20000076293945 Q 508.3999938964844 482.20000076293945 509.3999938964844 483.20000076293945 L 510.4069938964844 484.20700076293946" stroke-linecap="round" />
</g>
<g transform="matrix(1 0 0 1 367.9 503.2)"  >
<path style="stroke: rgb(0,0,0); stroke-width: 7; stroke-dasharray: none; stroke-linecap: round; stroke-dashoffset: 0; stroke-linejoin: round; stroke-miterlimit: 10; fill: none; fill-rule: nonzero; opacity: 1;"  transform=" translate(-367.9, -503.2)" d="M 349.39299389648437 461.19300076293945 Q 349.3999938964844 461.20000076293945 349.3999938964844 462.70000076293945 Q 349.3999938964844 464.20000076293945 349.8999938964844 464.70000076293945 Q 350.3999938964844 465.20000076293945 350.8999938964844 467.20000076293945 Q 351.3999938964844 469.20000076293945 352.8999938964844 471.70000076293945 Q 354.3999938964844 474.20000076293945 354.8999938964844 475.70000076293945 Q 355.3999938964844 477.20000076293945 356.8999938964844 480.20000076293945 Q 358.3999938964844 483.20000076293945 359.3999938964844 487.70000076293945 Q 360.3999938964844 492.20000076293945 361.3999938964844 493.70000076293945 Q 362.3999938964844 495.20000076293945 363.8999938964844 499.20000076293945 Q 365.3999938964844 503.20000076293945 366.8999938964844 506.70000076293945 Q 368.3999938964844 510.20000076293945 369.8999938964844 513.7000007629395 Q 371.3999938964844 517.2000007629395 372.3999938964844 518.7000007629395 Q 373.3999938964844 520.2000007629395 373.8999938964844 522.2000007629395 Q 374.3999938964844 524.2000007629395 374.8999938964844 525.7000007629395 Q 375.3999938964844 527.2000007629395 375.3999938964844 527.7000007629395 Q 375.3999938964844 528.2000007629395 375.8999938964844 528.2000007629395 Q 376.3999938964844 528.2000007629395 376.3999938964844 529.2000007629395 Q 376.3999938964844 530.2000007629395 376.8999938964844 530.7000007629395 Q 377.3999938964844 531.2000007629395 377.8999938964844 531.2000007629395 Q 378.3999938964844 531.2000007629395 378.3999938964844 531.7000007629395 Q 378.3999938964844 532.2000007629395 378.3999938964844 532.7000007629395 Q 378.3999938964844 533.2000007629395 378.8999938964844 534.2000007629395 Q 379.3999938964844 535.2000007629395 379.8999938964844 535.7000007629395 Q 380.3999938964844 536.2000007629395 380.8999938964844 537.2000007629395 Q 381.3999938964844 538.2000007629395 381.8999938964844 539.2000007629395 Q 382.3999938964844 540.2000007629395 382.8999938964844 541.2000007629395 Q 383.3999938964844 542.2000007629395 383.8999938964844 542.7000007629395 Q 384.3999938964844 543.2000007629395 385.3999938964844 544.2000007629395 L 386.4069938964844 545.2070007629394" stroke-linecap="round" />
</g>
<g transform="matrix(1 0 0 1 268.9 510.2)"  >
<path style="stroke: rgb(0,0,0); stroke-width: 7; stroke-dasharray: none; stroke-linecap: round; stroke-dashoffset: 0; stroke-linejoin: round; stroke-miterlimit: 10; fill: none; fill-rule: nonzero; opacity: 1;"  transform=" translate(-268.9, -510.2)" d="M 281.3999938964844 471.19300076293945 Q 281.3999938964844 471.20000076293945 279.8999938964844 473.20000076293945 Q 278.3999938964844 475.20000076293945 278.3999938964844 475.70000076293945 Q 278.3999938964844 476.20000076293945 277.3999938964844 477.70000076293945 Q 276.3999938964844 479.20000076293945 275.3999938964844 480.20000076293945 Q 274.3999938964844 481.20000076293945 273.8999938964844 482.20000076293945 Q 273.3999938964844 483.20000076293945 271.8999938964844 485.70000076293945 Q 270.3999938964844 488.20000076293945 269.8999938964844 490.20000076293945 Q 269.3999938964844 492.20000076293945 268.3999938964844 493.70000076293945 Q 267.3999938964844 495.20000076293945 266.8999938964844 496.70000076293945 Q 266.3999938964844 498.20000076293945 265.3999938964844 501.20000076293945 Q 264.3999938964844 504.20000076293945 264.3999938964844 505.20000076293945 Q 264.3999938964844 506.20000076293945 264.3999938964844 506.70000076293945 Q 264.3999938964844 507.20000076293945 263.8999938964844 509.20000076293945 Q 263.3999938964844 511.20000076293945 262.8999938964844 513.7000007629395 Q 262.3999938964844 516.2000007629395 262.3999938964844 517.2000007629395 Q 262.3999938964844 518.2000007629395 262.3999938964844 519.2000007629395 Q 262.3999938964844 520.2000007629395 261.8999938964844 520.2000007629395 Q 261.3999938964844 520.2000007629395 261.3999938964844 521.2000007629395 Q 261.3999938964844 522.2000007629395 261.3999938964844 522.7000007629395 Q 261.3999938964844 523.2000007629395 260.8999938964844 524.2000007629395 Q 260.3999938964844 525.2000007629395 260.3999938964844 526.7000007629395 Q 260.3999938964844 528.2000007629395 260.3999938964844 528.7000007629395 Q 260.3999938964844 529.2000007629395 260.3999938964844 530.2000007629395 Q 260.3999938964844 531.2000007629395 259.8999938964844 532.2000007629395 Q 259.3999938964844 533.2000007629395 259.3999938964844 534.7000007629395 Q 259.3999938964844 536.2000007629395 258.8999938964844 536.2000007629395 Q 258.3999938964844 536.2000007629395 258.3999938964844 536.7000007629395 Q 258.3999938964844 537.2000007629395 258.3999938964844 538.2000007629395 Q 258.3999938964844 539.2000007629395 258.3999938964844 539.7000007629395 Q 258.3999938964844 540.2000007629395 258.3999938964844 540.7000007629395 Q 258.3999938964844 541.2000007629395 258.3999938964844 542.2000007629395 Q 258.3999938964844 543.2000007629395 258.3999938964844 543.7000007629395 Q 258.3999938964844 544.2000007629395 257.8999938964844 544.2000007629395 Q 257.3999938964844 544.2000007629395 257.3999938964844 544.7000007629395 Q 257.3999938964844 545.2000007629395 257.3999938964844 545.7000007629395 Q 257.3999938964844 546.2000007629395 256.8999938964844 546.7000007629395 Q 256.3999938964844 547.2000007629395 256.3999938964844 548.2000007629395 L 256.3999938964844 549.2070007629394" stroke-linecap="round" />
</g>
<g transform="matrix(1 0 0 1 183.9 480.7)"  >
<path style="stroke: rgb(0,0,0); stroke-width: 7; stroke-dasharray: none; stroke-linecap: round; stroke-dashoffset: 0; stroke-linejoin: round; stroke-miterlimit: 10; fill: none; fill-rule: nonzero; opacity: 1;"  transform=" translate(-183.9, -480.7)" d="M 211.39999389648438 443.19300076293945 Q 211.39999389648438 443.20000076293945 210.89999389648438 443.20000076293945 Q 210.39999389648438 443.20000076293945 210.39999389648438 443.70000076293945 Q 210.39999389648438 444.20000076293945 208.89999389648438 444.70000076293945 Q 207.39999389648438 445.20000076293945 206.39999389648438 445.70000076293945 Q 205.39999389648438 446.20000076293945 203.89999389648438 448.20000076293945 Q 202.39999389648438 450.20000076293945 200.39999389648438 451.70000076293945 Q 198.39999389648438 453.20000076293945 196.89999389648438 454.70000076293945 Q 195.39999389648438 456.20000076293945 193.39999389648438 458.20000076293945 Q 191.39999389648438 460.20000076293945 189.39999389648438 462.70000076293945 Q 187.39999389648438 465.20000076293945 185.39999389648438 468.70000076293945 Q 183.39999389648438 472.20000076293945 182.39999389648438 473.70000076293945 Q 181.39999389648438 475.20000076293945 179.89999389648438 476.70000076293945 Q 178.39999389648438 478.20000076293945 177.39999389648438 480.20000076293945 Q 176.39999389648438 482.20000076293945 175.39999389648438 483.20000076293945 Q 174.39999389648438 484.20000076293945 173.39999389648438 486.20000076293945 Q 172.39999389648438 488.20000076293945 171.39999389648438 489.70000076293945 Q 170.39999389648438 491.20000076293945 170.39999389648438 491.70000076293945 Q 170.39999389648438 492.20000076293945 169.39999389648438 492.70000076293945 Q 168.39999389648438 493.20000076293945 167.39999389648438 494.70000076293945 Q 166.39999389648438 496.20000076293945 166.39999389648438 497.20000076293945 Q 166.39999389648438 498.20000076293945 166.39999389648438 499.20000076293945 Q 166.39999389648438 500.20000076293945 165.89999389648438 500.70000076293945 Q 165.39999389648438 501.20000076293945 165.39999389648438 501.70000076293945 Q 165.39999389648438 502.20000076293945 164.39999389648438 503.20000076293945 Q 163.39999389648438 504.20000076293945 162.89999389648438 505.20000076293945 Q 162.39999389648438 506.20000076293945 162.39999389648438 506.70000076293945 Q 162.39999389648438 507.20000076293945 161.89999389648438 507.70000076293945 Q 161.39999389648438 508.20000076293945 160.89999389648438 509.70000076293945 Q 160.39999389648438 511.20000076293945 160.39999389648438 511.70000076293945 Q 160.39999389648438 512.2000007629395 159.39999389648438 512.2000007629395 Q 158.39999389648438 512.2000007629395 158.39999389648438 513.7000007629395 Q 158.39999389648438 515.2000007629395 157.89999389648438 515.7000007629395 Q 157.39999389648438 516.2000007629395 157.39999389648438 516.7000007629395 Q 157.39999389648438 517.2000007629395 156.89999389648438 517.7000007629395 L 156.39299389648437 518.2070007629394" stroke-linecap="round" />
</g>
<g transform="matrix(1 0 0 1 97.4 430.2)"  >
<path style="stroke: rgb(0,0,0); stroke-width: 7; stroke-dasharray: none; stroke-linecap: round; stroke-dashoffset: 0; stroke-linejoin: round; stroke-miterlimit: 10; fill: none; fill-rule: nonzero; opacity: 1;"  transform=" translate(-97.4, -430.2)" d="M 132.40699389648438 404.19300076293945 Q 132.39999389648438 404.20000076293945 131.89999389648438 404.20000076293945 Q 131.39999389648438 404.20000076293945 130.39999389648438 405.20000076293945 Q 129.39999389648438 406.20000076293945 126.89999389648438 407.20000076293945 Q 124.39999389648438 408.20000076293945 121.89999389648438 410.20000076293945 Q 119.39999389648438 412.20000076293945 118.89999389648438 412.20000076293945 Q 118.39999389648438 412.20000076293945 114.89999389648438 414.20000076293945 Q 111.39999389648438 416.20000076293945 108.39999389648438 417.20000076293945 Q 105.39999389648438 418.20000076293945 103.89999389648438 419.20000076293945 Q 102.39999389648438 420.20000076293945 98.39999389648438 422.20000076293945 Q 94.39999389648438 424.20000076293945 91.89999389648438 426.20000076293945 Q 89.39999389648438 428.20000076293945 87.89999389648438 428.70000076293945 Q 86.39999389648438 429.20000076293945 84.89999389648438 430.70000076293945 Q 83.39999389648438 432.20000076293945 80.39999389648438 434.20000076293945 Q 77.39999389648438 436.20000076293945 76.39999389648438 436.70000076293945 Q 75.39999389648438 437.20000076293945 73.89999389648438 438.70000076293945 Q 72.39999389648438 440.20000076293945 71.39999389648438 441.70000076293945 Q 70.39999389648438 443.20000076293945 69.89999389648438 443.70000076293945 Q 69.39999389648438 444.20000076293945 69.39999389648438 444.70000076293945 Q 69.39999389648438 445.20000076293945 68.89999389648438 445.70000076293945 Q 68.39999389648438 446.20000076293945 67.89999389648438 447.20000076293945 Q 67.39999389648438 448.20000076293945 66.89999389648438 448.20000076293945 Q 66.39999389648438 448.20000076293945 66.39999389648438 448.70000076293945 Q 66.39999389648438 449.20000076293945 66.39999389648438 449.70000076293945 Q 66.39999389648438 450.20000076293945 65.89999389648438 450.70000076293945 Q 65.39999389648438 451.20000076293945 64.89999389648438 451.70000076293945 Q 64.39999389648438 452.20000076293945 64.39999389648438 452.70000076293945 Q 64.39999389648438 453.20000076293945 63.899993896484375 453.20000076293945 Q 63.399993896484375 453.20000076293945 62.899993896484375 453.70000076293945 Q 62.399993896484375 454.20000076293945 62.399993896484375 455.20000076293945 L 62.399993896484375 456.20700076293946" stroke-linecap="round" />
</g>
<g transform="matrix(1 0 0 1 68.9 349.7)"  >
<path style="stroke: rgb(0,0,0); stroke-width: 7; stroke-dasharray: none; stroke-linecap: round; stroke-dashoffset: 0; stroke-linejoin: round; stroke-miterlimit: 10; fill: none; fill-rule: nonzero; opacity: 1;"  transform=" translate(-68.9, -349.7)" d="M 109.40699389648438 340.20000076293945 Q 109.39999389648438 340.20000076293945 108.39999389648438 340.20000076293945 Q 107.39999389648438 340.20000076293945 104.89999389648438 340.20000076293945 Q 102.39999389648438 340.20000076293945 99.39999389648438 340.20000076293945 Q 96.39999389648438 340.20000076293945 95.39999389648438 340.20000076293945 Q 94.39999389648438 340.20000076293945 91.39999389648438 340.20000076293945 Q 88.39999389648438 340.20000076293945 85.39999389648438 340.20000076293945 Q 82.39999389648438 340.20000076293945 80.89999389648438 340.20000076293945 Q 79.39999389648438 340.20000076293945 77.89999389648438 340.20000076293945 Q 76.39999389648438 340.20000076293945 73.89999389648438 340.20000076293945 Q 71.39999389648438 340.20000076293945 70.89999389648438 340.70000076293945 Q 70.39999389648438 341.20000076293945 68.39999389648438 341.20000076293945 Q 66.39999389648438 341.20000076293945 64.89999389648438 341.70000076293945 Q 63.399993896484375 342.20000076293945 62.399993896484375 342.70000076293945 Q 61.399993896484375 343.20000076293945 59.899993896484375 343.70000076293945 Q 58.399993896484375 344.20000076293945 56.899993896484375 344.20000076293945 Q 55.399993896484375 344.20000076293945 54.899993896484375 344.20000076293945 Q 54.399993896484375 344.20000076293945 53.399993896484375 344.70000076293945 Q 52.399993896484375 345.20000076293945 51.399993896484375 345.20000076293945 Q 50.399993896484375 345.20000076293945 49.899993896484375 345.20000076293945 Q 49.399993896484375 345.20000076293945 48.899993896484375 345.70000076293945 Q 48.399993896484375 346.20000076293945 47.899993896484375 346.20000076293945 Q 47.399993896484375 346.20000076293945 46.899993896484375 346.70000076293945 Q 46.399993896484375 347.20000076293945 45.399993896484375 347.70000076293945 Q 44.399993896484375 348.20000076293945 43.399993896484375 348.20000076293945 Q 42.399993896484375 348.20000076293945 42.399993896484375 348.70000076293945 Q 42.399993896484375 349.20000076293945 41.899993896484375 349.70000076293945 Q 41.399993896484375 350.20000076293945 39.899993896484375 351.20000076293945 Q 38.399993896484375 352.20000076293945 37.399993896484375 352.70000076293945 Q 36.399993896484375 353.20000076293945 35.399993896484375 354.20000076293945 Q 34.399993896484375 355.20000076293945 33.899993896484375 355.70000076293945 Q 33.399993896484375 356.20000076293945 32.399993896484375 356.20000076293945 Q 31.399993896484375 356.20000076293945 30.899993896484375 357.20000076293945 Q 30.399993896484375 358.20000076293945 29.899993896484375 358.20000076293945 Q 29.399993896484375 358.20000076293945 28.899993896484375 358.70000076293945 L 28.392993896484374 359.20700076293946" stroke-linecap="round" />
</g>
<g transform="matrix(1 0 0 1 78.4 249.2)"  >
<path style="stroke: rgb(0,0,0); stroke-width: 7; stroke-dasharray: none; stroke-linecap: round; stroke-dashoffset: 0; stroke-linejoin: round; stroke-miterlimit: 10; fill: none; fill-rule: nonzero; opacity: 1;"  transform=" translate(-78.4, -249.2)" d="M 114.40699389648438 248.20000076293945 Q 114.39999389648438 248.20000076293945 113.89999389648438 248.20000076293945 Q 113.39999389648438 248.20000076293945 112.39999389648438 248.20000076293945 Q 111.39999389648438 248.20000076293945 110.89999389648438 248.20000076293945 Q 110.39999389648438 248.20000076293945 109.89999389648438 248.20000076293945 Q 109.39999389648438 248.20000076293945 108.89999389648438 248.20000076293945 Q 108.39999389648438 248.20000076293945 107.89999389648438 248.20000076293945 Q 107.39999389648438 248.20000076293945 106.39999389648438 247.70000076293945 Q 105.39999389648438 247.20000076293945 104.89999389648438 247.20000076293945 Q 104.39999389648438 247.20000076293945 101.39999389648438 247.20000076293945 Q 98.39999389648438 247.20000076293945 95.39999389648438 247.20000076293945 Q 92.39999389648438 247.20000076293945 90.39999389648438 247.20000076293945 Q 88.39999389648438 247.20000076293945 84.89999389648438 247.20000076293945 Q 81.39999389648438 247.20000076293945 76.89999389648438 247.20000076293945 Q 72.39999389648438 247.20000076293945 71.39999389648438 247.20000076293945 Q 70.39999389648438 247.20000076293945 68.39999389648438 247.20000076293945 Q 66.39999389648438 247.20000076293945 65.89999389648438 247.20000076293945 Q 65.39999389648438 247.20000076293945 64.89999389648438 247.20000076293945 Q 64.39999389648438 247.20000076293945 63.899993896484375 247.20000076293945 Q 63.399993896484375 247.20000076293945 62.899993896484375 247.20000076293945 Q 62.399993896484375 247.20000076293945 61.899993896484375 247.20000076293945 Q 61.399993896484375 247.20000076293945 60.899993896484375 247.20000076293945 Q 60.399993896484375 247.20000076293945 59.899993896484375 247.20000076293945 Q 59.399993896484375 247.20000076293945 58.899993896484375 247.20000076293945 Q 58.399993896484375 247.20000076293945 57.399993896484375 247.20000076293945 Q 56.399993896484375 247.20000076293945 55.899993896484375 247.70000076293945 Q 55.399993896484375 248.20000076293945 54.899993896484375 248.20000076293945 Q 54.399993896484375 248.20000076293945 53.899993896484375 248.20000076293945 Q 53.399993896484375 248.20000076293945 52.899993896484375 248.20000076293945 Q 52.399993896484375 248.20000076293945 51.899993896484375 248.20000076293945 Q 51.399993896484375 248.20000076293945 50.899993896484375 248.20000076293945 Q 50.399993896484375 248.20000076293945 49.899993896484375 248.20000076293945 Q 49.399993896484375 248.20000076293945 48.899993896484375 248.20000076293945 Q 48.399993896484375 248.20000076293945 47.899993896484375 248.70000076293945 Q 47.399993896484375 249.20000076293945 46.899993896484375 249.70000076293945 Q 46.399993896484375 250.20000076293945 45.899993896484375 250.20000076293945 Q 45.399993896484375 250.20000076293945 44.899993896484375 250.20000076293945 Q 44.399993896484375 250.20000076293945 43.399993896484375 250.70000076293945 L 42.39299389648438 251.20700076293946" stroke-linecap="round" />
</g>
<g transform="matrix(1 0 0 1 95.9 166.2)"  >
<path style="stroke: rgb(0,0,0); stroke-width: 7; stroke-dasharray: none; stroke-linecap: round; stroke-dashoffset: 0; stroke-linejoin: round; stroke-miterlimit: 10; fill: none; fill-rule: nonzero; opacity: 1;"  transform=" translate(-95.9, -166.2)" d="M 132.40699389648438 176.20700076293946 Q 132.39999389648438 176.20000076293945 131.89999389648438 176.20000076293945 Q 131.39999389648438 176.20000076293945 130.89999389648438 175.70000076293945 Q 130.39999389648438 175.20000076293945 128.89999389648438 174.70000076293945 Q 127.39999389648438 174.20000076293945 125.89999389648438 173.70000076293945 Q 124.39999389648438 173.20000076293945 123.39999389648438 172.70000076293945 Q 122.39999389648438 172.20000076293945 120.39999389648438 172.20000076293945 Q 118.39999389648438 172.20000076293945 117.39999389648438 172.20000076293945 Q 116.39999389648438 172.20000076293945 115.39999389648438 171.70000076293945 Q 114.39999389648438 171.20000076293945 112.89999389648438 170.70000076293945 Q 111.39999389648438 170.20000076293945 110.89999389648438 170.20000076293945 Q 110.39999389648438 170.20000076293945 108.89999389648438 169.70000076293945 Q 107.39999389648438 169.20000076293945 106.89999389648438 168.70000076293945 Q 106.39999389648438 168.20000076293945 105.39999389648438 168.20000076293945 Q 104.39999389648438 168.20000076293945 103.89999389648438 168.20000076293945 Q 103.39999389648438 168.20000076293945 102.39999389648438 168.20000076293945 Q 101.39999389648438 168.20000076293945 100.39999389648438 167.70000076293945 Q 99.39999389648438 167.20000076293945 98.89999389648438 167.20000076293945 Q 98.39999389648438 167.20000076293945 97.89999389648438 167.20000076293945 Q 97.39999389648438 167.20000076293945 96.89999389648438 167.20000076293945 Q 96.39999389648438 167.20000076293945 95.89999389648438 166.70000076293945 Q 95.39999389648438 166.20000076293945 94.89999389648438 166.20000076293945 Q 94.39999389648438 166.20000076293945 92.89999389648438 165.70000076293945 Q 91.39999389648438 165.20000076293945 90.89999389648438 165.20000076293945 Q 90.39999389648438 165.20000076293945 89.89999389648438 164.70000076293945 Q 89.39999389648438 164.20000076293945 88.39999389648438 164.20000076293945 Q 87.39999389648438 164.20000076293945 86.89999389648438 163.70000076293945 Q 86.39999389648438 163.20000076293945 84.89999389648438 163.20000076293945 Q 83.39999389648438 163.20000076293945 82.89999389648438 163.20000076293945 Q 82.39999389648438 163.20000076293945 80.89999389648438 162.70000076293945 Q 79.39999389648438 162.20000076293945 78.89999389648438 161.70000076293945 Q 78.39999389648438 161.20000076293945 77.89999389648438 160.70000076293945 Q 77.39999389648438 160.20000076293945 76.89999389648438 160.20000076293945 Q 76.39999389648438 160.20000076293945 75.89999389648438 160.20000076293945 Q 75.39999389648438 160.20000076293945 74.89999389648438 160.20000076293945 Q 74.39999389648438 160.20000076293945 73.89999389648438 159.70000076293945 Q 73.39999389648438 159.20000076293945 72.39999389648438 159.20000076293945 Q 71.39999389648438 159.20000076293945 70.89999389648438 159.20000076293945 Q 70.39999389648438 159.20000076293945 69.89999389648438 159.20000076293945 Q 69.39999389648438 159.20000076293945 68.89999389648438 159.20000076293945 Q 68.39999389648438 159.20000076293945 67.89999389648438 158.70000076293945 Q 67.39999389648438 158.20000076293945 66.89999389648438 158.20000076293945 Q 66.39999389648438 158.20000076293945 65.89999389648438 157.70000076293945 Q 65.39999389648438 157.20000076293945 64.89999389648438 157.20000076293945 Q 64.39999389648438 157.20000076293945 63.899993896484375 157.20000076293945 Q 63.399993896484375 157.20000076293945 63.399993896484375 156.70000076293945 Q 63.399993896484375 156.20000076293945 62.899993896484375 156.20000076293945 Q 62.399993896484375 156.20000076293945 61.899993896484375 156.20000076293945 Q 61.399993896484375 156.20000076293945 60.399993896484375 156.20000076293945 L 59.39299389648438 156.20000076293945" stroke-linecap="round" />
</g>
<g transform="matrix(1 0 0 1 132.9 111.2)"  >
<path style="stroke: rgb(0,0,0); stroke-width: 7; stroke-dasharray: none; stroke-linecap: round; stroke-dashoffset: 0; stroke-linejoin: round; stroke-miterlimit: 10; fill: none; fill-rule: nonzero; opacity: 1;"  transform=" translate(-132.9, -111.2)" d="M 161.40699389648438 130.20700076293946 Q 161.39999389648438 130.20000076293945 159.39999389648438 128.70000076293945 Q 157.39999389648438 127.20000076293945 152.89999389648438 125.70000076293945 Q 148.39999389648438 124.20000076293945 144.89999389648438 122.20000076293945 Q 141.39999389648438 120.20000076293945 139.89999389648438 119.20000076293945 Q 138.39999389648438 118.20000076293945 135.39999389648438 116.70000076293945 Q 132.39999389648438 115.20000076293945 129.89999389648438 113.70000076293945 Q 127.39999389648438 112.20000076293945 126.39999389648438 111.70000076293945 Q 125.39999389648438 111.20000076293945 123.39999389648438 109.70000076293945 Q 121.39999389648438 108.20000076293945 119.89999389648438 107.70000076293945 Q 118.39999389648438 107.20000076293945 117.39999389648438 106.20000076293945 Q 116.39999389648438 105.20000076293945 115.39999389648438 104.70000076293945 Q 114.39999389648438 104.20000076293945 113.39999389648438 103.20000076293945 Q 112.39999389648438 102.20000076293945 111.39999389648438 101.70000076293945 Q 110.39999389648438 101.20000076293945 110.39999389648438 100.70000076293945 Q 110.39999389648438 100.20000076293945 109.89999389648438 100.20000076293945 Q 109.39999389648438 100.20000076293945 108.89999389648438 99.20000076293945 Q 108.39999389648438 98.20000076293945 107.89999389648438 97.70000076293945 Q 107.39999389648438 97.20000076293945 107.39999389648438 96.70000076293945 Q 107.39999389648438 96.20000076293945 106.89999389648438 96.20000076293945 Q 106.39999389648438 96.20000076293945 106.39999389648438 95.70000076293945 Q 106.39999389648438 95.20000076293945 105.39999389648438 94.70000076293945 Q 104.39999389648438 94.20000076293945 104.39999389648438 93.20000076293945 L 104.39999389648438 92.19300076293945" stroke-linecap="round" />
</g>
<g transform="matrix(1 0 0 1 172.9 81.7)"  >
<path style="stroke: rgb(0,0,0); stroke-width: 7; stroke-dasharray: none; stroke-linecap: round; stroke-dashoffset: 0; stroke-linejoin: round; stroke-miterlimit: 10; fill: none; fill-rule: nonzero; opacity: 1;"  transform=" translate(-172.9, -81.7)" d="M 194.40699389648438 103.20700076293946 Q 194.39999389648438 103.20000076293945 191.89999389648438 100.70000076293945 Q 189.39999389648438 98.20000076293945 187.89999389648438 97.20000076293945 Q 186.39999389648438 96.20000076293945 184.39999389648438 94.20000076293945 Q 182.39999389648438 92.20000076293945 179.89999389648438 90.20000076293945 Q 177.39999389648438 88.20000076293945 176.39999389648438 88.20000076293945 Q 175.39999389648438 88.20000076293945 172.89999389648438 86.20000076293945 Q 170.39999389648438 84.20000076293945 168.89999389648438 82.70000076293945 Q 167.39999389648438 81.20000076293945 165.39999389648438 80.20000076293945 Q 163.39999389648438 79.20000076293945 163.39999389648438 78.20000076293945 Q 163.39999389648438 77.20000076293945 162.39999389648438 76.20000076293945 Q 161.39999389648438 75.20000076293945 159.89999389648438 74.20000076293945 Q 158.39999389648438 73.20000076293945 158.39999389648438 72.70000076293945 Q 158.39999389648438 72.20000076293945 157.39999389648438 71.70000076293945 Q 156.39999389648438 71.20000076293945 155.89999389648438 70.20000076293945 Q 155.39999389648438 69.20000076293945 155.39999389648438 68.70000076293945 Q 155.39999389648438 68.20000076293945 154.89999389648438 67.70000076293945 Q 154.39999389648438 67.20000076293945 153.89999389648438 65.70000076293945 Q 153.39999389648438 64.20000076293945 152.89999389648438 64.20000076293945 Q 152.39999389648438 64.20000076293945 151.89999389648438 63.70000076293945 Q 151.39999389648438 63.20000076293945 151.39999389648438 61.70000076293945 L 151.39999389648438 60.193000762939455" stroke-linecap="round" />
</g>
<g transform="matrix(1 0 0 1 260.9 77.2)"  >
<path style="stroke: rgb(0,0,0); stroke-width: 7; stroke-dasharray: none; stroke-linecap: round; stroke-dashoffset: 0; stroke-linejoin: round; stroke-miterlimit: 10; fill: none; fill-rule: nonzero; opacity: 1;"  transform=" translate(-260.9, -77.2)" d="M 255.39999389648438 104.20700076293946 Q 255.39999389648438 104.20000076293945 255.39999389648438 103.70000076293945 Q 255.39999389648438 103.20000076293945 255.39999389648438 102.70000076293945 Q 255.39999389648438 102.20000076293945 255.39999389648438 101.70000076293945 Q 255.39999389648438 101.20000076293945 255.39999389648438 100.70000076293945 Q 255.39999389648438 100.20000076293945 255.39999389648438 99.70000076293945 Q 255.39999389648438 99.20000076293945 255.39999389648438 98.70000076293945 Q 255.39999389648438 98.20000076293945 255.89999389648438 97.20000076293945 Q 256.3999938964844 96.20000076293945 256.3999938964844 95.70000076293945 Q 256.3999938964844 95.20000076293945 256.3999938964844 94.20000076293945 Q 256.3999938964844 93.20000076293945 256.3999938964844 92.70000076293945 Q 256.3999938964844 92.20000076293945 256.3999938964844 91.70000076293945 Q 256.3999938964844 91.20000076293945 256.3999938964844 90.70000076293945 Q 256.3999938964844 90.20000076293945 256.3999938964844 89.20000076293945 Q 256.3999938964844 88.20000076293945 256.3999938964844 87.70000076293945 Q 256.3999938964844 87.20000076293945 256.3999938964844 85.70000076293945 Q 256.3999938964844 84.20000076293945 256.8999938964844 83.70000076293945 Q 257.3999938964844 83.20000076293945 257.3999938964844 81.70000076293945 Q 257.3999938964844 80.20000076293945 257.8999938964844 80.20000076293945 Q 258.3999938964844 80.20000076293945 258.3999938964844 79.20000076293945 Q 258.3999938964844 78.20000076293945 258.3999938964844 77.20000076293945 Q 258.3999938964844 76.20000076293945 258.3999938964844 75.70000076293945 Q 258.3999938964844 75.20000076293945 258.8999938964844 73.20000076293945 Q 259.3999938964844 71.20000076293945 259.8999938964844 70.20000076293945 Q 260.3999938964844 69.20000076293945 260.8999938964844 68.70000076293945 Q 261.3999938964844 68.20000076293945 261.3999938964844 67.70000076293945 Q 261.3999938964844 67.20000076293945 261.3999938964844 66.70000076293945 Q 261.3999938964844 66.20000076293945 261.3999938964844 65.70000076293945 Q 261.3999938964844 65.20000076293945 261.3999938964844 64.70000076293945 Q 261.3999938964844 64.20000076293945 261.8999938964844 64.20000076293945 Q 262.3999938964844 64.20000076293945 262.3999938964844 63.70000076293945 Q 262.3999938964844 63.20000076293945 262.3999938964844 62.70000076293945 Q 262.3999938964844 62.20000076293945 262.8999938964844 61.70000076293945 Q 263.3999938964844 61.20000076293945 263.3999938964844 60.70000076293945 Q 263.3999938964844 60.20000076293945 263.3999938964844 59.70000076293945 Q 263.3999938964844 59.20000076293945 263.3999938964844 58.70000076293945 Q 263.3999938964844 58.20000076293945 263.8999938964844 57.70000076293945 Q 264.3999938964844 57.20000076293945 264.3999938964844 56.70000076293945 Q 264.3999938964844 56.20000076293945 264.8999938964844 56.20000076293945 Q 265.3999938964844 56.20000076293945 265.3999938964844 55.70000076293945 Q 265.3999938964844 55.20000076293945 265.3999938964844 54.70000076293945 Q 265.3999938964844 54.20000076293945 265.8999938964844 54.20000076293945 Q 266.3999938964844 54.20000076293945 266.3999938964844 53.70000076293945 Q 266.3999938964844 53.20000076293945 266.3999938964844 52.70000076293945 Q 266.3999938964844 52.20000076293945 266.3999938964844 51.20000076293945 L 266.3999938964844 50.193000762939455" stroke-linecap="round" />
</g>
<g transform="matrix(1 0 0 1 318.4 66.7)"  >
<path style="stroke: rgb(0,0,0); stroke-width: 7; stroke-dasharray: none; stroke-linecap: round; stroke-dashoffset: 0; stroke-linejoin: round; stroke-miterlimit: 10; fill: none; fill-rule: nonzero; opacity: 1;"  transform=" translate(-318.4, -66.7)" d="M 312.39299389648437 88.20700076293946 Q 312.3999938964844 88.20000076293945 312.8999938964844 87.70000076293945 Q 313.3999938964844 87.20000076293945 313.8999938964844 86.70000076293945 Q 314.3999938964844 86.20000076293945 314.3999938964844 85.20000076293945 Q 314.3999938964844 84.20000076293945 314.8999938964844 83.20000076293945 Q 315.3999938964844 82.20000076293945 315.3999938964844 81.70000076293945 Q 315.3999938964844 81.20000076293945 315.3999938964844 80.70000076293945 Q 315.3999938964844 80.20000076293945 315.3999938964844 78.20000076293945 Q 315.3999938964844 76.20000076293945 315.8999938964844 75.20000076293945 Q 316.3999938964844 74.20000076293945 316.8999938964844 73.70000076293945 Q 317.3999938964844 73.20000076293945 317.8999938964844 71.20000076293945 Q 318.3999938964844 69.20000076293945 318.3999938964844 68.20000076293945 Q 318.3999938964844 67.20000076293945 318.8999938964844 66.20000076293945 Q 319.3999938964844 65.20000076293945 319.8999938964844 63.70000076293945 Q 320.3999938964844 62.20000076293945 320.8999938964844 60.70000076293945 Q 321.3999938964844 59.20000076293945 321.8999938964844 57.70000076293945 Q 322.3999938964844 56.20000076293945 322.3999938964844 55.20000076293945 Q 322.3999938964844 54.20000076293945 322.3999938964844 53.70000076293945 Q 322.3999938964844 53.20000076293945 322.3999938964844 52.70000076293945 Q 322.3999938964844 52.20000076293945 322.3999938964844 51.70000076293945 Q 322.3999938964844 51.20000076293945 322.3999938964844 50.70000076293945 Q 322.3999938964844 50.20000076293945 322.3999938964844 49.70000076293945 Q 322.3999938964844 49.20000076293945 322.8999938964844 48.70000076293945 Q 323.3999938964844 48.20000076293945 323.8999938964844 48.20000076293945 Q 324.3999938964844 48.20000076293945 324.3999938964844 47.70000076293945 Q 324.3999938964844 47.20000076293945 324.3999938964844 46.20000076293945 L 324.3999938964844 45.193000762939455" stroke-linecap="round" />
</g>
<g transform="matrix(1 0 0 1 373.9 70.2)"  >
<path style="stroke: rgb(0,0,0); stroke-width: 7; stroke-dasharray: none; stroke-linecap: round; stroke-dashoffset: 0; stroke-linejoin: round; stroke-miterlimit: 10; fill: none; fill-rule: nonzero; opacity: 1;"  transform=" translate(-373.9, -70.2)" d="M 361.39299389648437 94.20700076293946 Q 361.3999938964844 94.20000076293945 361.8999938964844 92.20000076293945 Q 362.3999938964844 90.20000076293945 362.8999938964844 88.70000076293945 Q 363.3999938964844 87.20000076293945 363.8999938964844 86.20000076293945 Q 364.3999938964844 85.20000076293945 365.3999938964844 82.70000076293945 Q 366.3999938964844 80.20000076293945 367.8999938964844 78.20000076293945 Q 369.3999938964844 76.20000076293945 369.8999938964844 74.20000076293945 Q 370.3999938964844 72.20000076293945 371.3999938964844 70.20000076293945 Q 372.3999938964844 68.20000076293945 373.3999938964844 66.20000076293945 Q 374.3999938964844 64.20000076293945 375.8999938964844 63.20000076293945 Q 377.3999938964844 62.20000076293945 377.8999938964844 60.70000076293945 Q 378.3999938964844 59.20000076293945 379.3999938964844 57.70000076293945 Q 380.3999938964844 56.20000076293945 380.3999938964844 55.70000076293945 Q 380.3999938964844 55.20000076293945 381.3999938964844 53.70000076293945 Q 382.3999938964844 52.20000076293945 382.8999938964844 51.20000076293945 Q 383.3999938964844 50.20000076293945 383.8999938964844 49.20000076293945 Q 384.3999938964844 48.20000076293945 384.8999938964844 48.20000076293945 Q 385.3999938964844 48.20000076293945 385.8999938964844 47.20000076293945 L 386.4069938964844 46.193000762939455" stroke-linecap="round" />
</g>
</svg>