<svg xmlns="http://www.w3.org/2000/svg" xmlns:xlink="http://www.w3.org/1999/xlink" version="1.1" width="600" height="600" viewBox="0 0 600 600" xml:space="preserve">
<desc>Created with Fabric.js 5.2.4</desc>
<defs>
</defs>
<rect x="0" y="0" width="100%" height="100%" fill="#fff"></rect>
<g transform="matrix(1 0 0 1 174 423.7)"  >
<path style="stroke: rgb(0,0,0); stroke-width: 7; stroke-dasharray: none; stroke-linecap: round; stroke-dashoffset: 0; stroke-linejoin: round; stroke-miterlimit: 10; fill: none; fill-rule: nonzero; opacity: 1;"  transform=" translate(-174, -423.7)" d="M 214.007 387.20000076293945 Q 214 387.20000076293945 212.5 387.20000076293945 Q 211 387.20000076293945 209.5 387.20000076293945 Q 208 387.20000076293945 206.5 387.20000076293945 Q 205 387.20000076293945 203 387.20000076293945 Q 201 387.20000076293945 199 387.20000076293945 Q 197 387.20000076293945 196.5 387.20000076293945 Q 196 387.20000076293945 193 387.20000076293945 Q 190 387.20000076293945 187 387.20000076293945 Q 184 387.20000076293945 182.5 387.20000076293945 Q 181 387.20000076293945 178.5 387.20000076293945 Q 176 387.20000076293945 174.5 387.20000076293945 Q 173 387.20000076293945 170.5 387.70000076293945 Q 168 388.20000076293945 166 388.20000076293945 Q 164 388.20000076293945 162 388.70000076293945 Q 160 389.20000076293945 156.5 390.20000076293945 Q 153 391.20000076293945 152.5 391.70000076293945 Q 152 392.20000076293945 149.5 392.20000076293945 Q 147 392.20000076293945 145.5 392.70000076293945 Q 144 393.20000076293945 143 393.70000076293945 Q 142 394.20000076293945 141 395.20000076293945 Q 140 396.20000076293945 139 396.70000076293945 Q 138 397.20000076293945 137 397.70000076293945 Q 136 398.20000076293945 135.5 399.70000076293945 Q 135 401.20000076293945 135 401.70000076293945 Q 135 402.20000076293945 134 403.20000076293945 Q 133 404.20000076293945 132.5 406.20000076293945 Q 132 408.20000076293945 132 409.70000076293945 Q 132 411.20000076293945 132 411.70000076293945 Q 132 412.20000076293945 131.5 414.20000076293945 Q 131 416.20000076293945 131 418.20000076293945 Q 131 420.20000076293945 131 420.70000076293945 Q 131 421.20000076293945 131 422.70000076293945 Q 131 424.20000076293945 131 426.20000076293945 Q 131 428.20000076293945 131 429.20000076293945 Q 131 430.20000076293945 131.5 432.20000076293945 Q 132 434.20000076293945 132.5 435.70000076293945 Q 133 437.20000076293945 133.5 438.20000076293945 Q 134 439.20000076293945 134.5 439.70000076293945 Q 135 440.20000076293945 135.5 441.20000076293945 Q 136 442.20000076293945 136.5 443.20000076293945 Q 137 444.20000076293945 138 445.20000076293945 Q 139 446.20000076293945 139.5 446.70000076293945 Q 140 447.20000076293945 140 447.70000076293945 Q 140 448.20000076293945 140 448.70000076293945 Q 140 449.20000076293945 141.5 450.70000076293945 Q 143 452.20000076293945 143.5 452.20000076293945 Q 144 452.20000076293945 145 452.70000076293945 Q 146 453.20000076293945 147 454.70000076293945 Q 148 456.20000076293945 148.5 456.20000076293945 Q 149 456.20000076293945 150 456.70000076293945 Q 151 457.20000076293945 152 458.20000076293945 Q 153 459.20000076293945 153.5 459.70000076293945 Q 154 460.20000076293945 157 461.20000076293945 Q 160 462.20000076293945 162.5 462.20000076293945 Q 165 462.20000076293945 166 462.20000076293945 Q 167 462.20000076293945 168 462.20000076293945 Q 169 462.20000076293945 171 462.20000076293945 Q 173 462.20000076293945 174.5 462.20000076293945 Q 176 462.20000076293945 177.5 461.70000076293945 Q 179 461.20000076293945 179.5 461.20000076293945 Q 180 461.20000076293945 181.5 460.20000076293945 Q 183 459.20000076293945 183.5 458.70000076293945 Q 184 458.20000076293945 186 457.70000076293945 Q 188 457.20000076293945 189 456.70000076293945 Q 190 456.20000076293945 190.5 455.70000076293945 Q 191 455.20000076293945 191.5 455.20000076293945 Q 192 455.20000076293945 193.5 454.70000076293945 Q 195 454.20000076293945 195.5 453.20000076293945 Q 196 452.20000076293945 197 451.70000076293945 Q 198 451.20000076293945 199 450.20000076293945 Q 200 449.20000076293945 201 448.20000076293945 Q 202 447.20000076293945 202.5 446.70000076293945 Q 203 446.20000076293945 203.5 445.20000076293945 Q 204 444.20000076293945 206.5 440.20000076293945 Q 209 436.20000076293945 209.5 435.70000076293945 Q 210 435.20000076293945 211 433.70000076293945 Q 212 432.20000076293945 212 430.20000076293945 Q 212 428.20000076293945 212.5 428.20000076293945 Q 213 428.20000076293945 214 426.70000076293945 Q 215 425.20000076293945 215.5 424.20000076293945 Q 216 423.20000076293945 216 421.70000076293945 Q 216 420.20000076293945 216 419.70000076293945 Q 216 419.20000076293945 216 417.70000076293945 Q 216 416.20000076293945 216 415.20000076293945 Q 216 414.20000076293945 216.5 413.20000076293945 Q 217 412.20000076293945 217 411.20000076293945 Q 217 410.20000076293945 217 409.20000076293945 Q 217 408.20000076293945 217 407.70000076293945 Q 217 407.20000076293945 217 406.70000076293945 Q 217 406.20000076293945 217 405.20000076293945 Q 217 404.20000076293945 217 403.70000076293945 Q 217 403.20000076293945 217 401.70000076293945 Q 217 400.20000076293945 217 399.70000076293945 Q 217 399.20000076293945 217 398.70000076293945 Q 217 398.20000076293945 217 397.70000076293945 Q 217 397.20000076293945 217 396.70000076293945 Q 217 396.20000076293945 217 395.70000076293945 Q 217 395.20000076293945 217 394.70000076293945 Q 217 394.20000076293945 217 393.70000076293945 Q 217 393.20000076293945 217 392.70000076293945 Q 217 392.20000076293945 216.5 392.20000076293945 Q 216 392.20000076293945 216 391.70000076293945 Q 216 391.20000076293945 216 390.20000076293945 Q 216 389.20000076293945 215.5 389.20000076293945 Q 215 389.20000076293945 215 388.70000076293945 Q 215 388.20000076293945 215 387.70000076293945 Q 215 387.20000076293945 215 386.70000076293945 Q 215 386.20000076293945 214.5 386.20000076293945 Q 214 386.20000076293945 213.5 385.70000076293945 L 212.993 385.19300076293945" stroke-linecap="round" />
</g>
<g transform="matrix(1 0 0 1 252.93 309.2)"  >
<path style="stroke: rgb(0,0,0); stroke-width: 7; stroke-dasharray: none; stroke-linecap: round; stroke-dashoffset: 0; stroke-linejoin: round; stroke-miterlimit: 10; fill: none; fill-rule: nonzero; opacity: 1;"  transform=" translate(-252.93, -309.2)" d="M 123.993 379.20700076293946 Q 124 379.20000076293945 124 378.70000076293945 Q 124 378.20000076293945 126 375.70000076293945 Q 128 373.20000076293945 128 372.70000076293945 Q 128 372.20000076293945 129.5 371.70000076293945 Q 131 371.20000076293945 131.5 369.70000076293945 Q 132 368.20000076293945 132.5 368.20000076293945 Q 133 368.20000076293945 134.5 366.70000076293945 Q 136 365.20000076293945 137 364.70000076293945 Q 138 364.20000076293945 138.5 363.70000076293945 Q 139 363.20000076293945 139.5 362.20000076293945 Q 140 361.20000076293945 141 360.70000076293945 Q 142 360.20000076293945 143 359.20000076293945 Q 144 358.20000076293945 144 357.70000076293945 Q 144 357.20000076293945 145 356.70000076293945 Q 146 356.20000076293945 147 355.20000076293945 Q 148 354.20000076293945 148.5 353.70000076293945 Q 149 353.20000076293945 150 352.70000076293945 Q 151 352.20000076293945 151.5 351.70000076293945 Q 152 351.20000076293945 152.5 350.20000076293945 Q 153 349.20000076293945 154.5 348.70000076293945 Q 156 348.20000076293945 156.5 347.70000076293945 Q 157 347.20000076293945 158 346.70000076293945 Q 159 346.20000076293945 159.5 345.70000076293945 Q 160 345.20000076293945 162 344.70000076293945 Q 164 344.20000076293945 164 343.70000076293945 Q 164 343.20000076293945 165 342.70000076293945 Q 166 342.20000076293945 167.5 341.20000076293945 Q 169 340.20000076293945 171 339.20000076293945 Q 173 338.20000076293945 174.5 338.20000076293945 Q 176 338.20000076293945 178 337.20000076293945 Q 180 336.20000076293945 182.5 334.20000076293945 Q 185 332.20000076293945 186 331.70000076293945 Q 187 331.20000076293945 189.5 329.70000076293945 Q 192 328.20000076293945 194 326.20000076293945 Q 196 324.20000076293945 196.5 324.20000076293945 Q 197 324.20000076293945 200 322.20000076293945 Q 203 320.20000076293945 204.5 319.20000076293945 Q 206 318.20000076293945 207 317.20000076293945 Q 208 316.20000076293945 210 315.20000076293945 Q 212 314.20000076293945 214 312.20000076293945 Q 216 310.20000076293945 217.5 309.20000076293945 Q 219 308.20000076293945 219.5 307.20000076293945 Q 220 306.20000076293945 221.5 305.20000076293945 Q 223 304.20000076293945 224.5 302.20000076293945 Q 226 300.20000076293945 227 299.70000076293945 Q 228 299.20000076293945 229.5 297.70000076293945 Q 231 296.20000076293945 233.5 294.20000076293945 Q 236 292.20000076293945 236.5 291.20000076293945 Q 237 290.20000076293945 238.5 289.20000076293945 Q 240 288.20000076293945 242 286.20000076293945 Q 244 284.20000076293945 244.5 283.70000076293945 Q 245 283.20000076293945 246.5 281.70000076293945 Q 248 280.20000076293945 250 278.70000076293945 Q 252 277.20000076293945 252 276.70000076293945 Q 252 276.20000076293945 254.5 274.20000076293945 Q 257 272.20000076293945 258.5 270.20000076293945 Q 260 268.20000076293945 262 266.20000076293945 Q 264 264.20000076293945 264.5 264.20000076293945 Q 265 264.20000076293945 266.5 262.20000076293945 Q 268 260.20000076293945 269.5 259.70000076293945 Q 271 259.20000076293945 272 257.20000076293945 Q 273 255.20000076293945 273.5 255.20000076293945 Q 274 255.20000076293945 275 254.20000076293945 Q 276 253.20000076293945 276.5 252.70000076293945 Q 277 252.20000076293945 277.5 251.70000076293945 Q 278 251.20000076293945 279 250.20000076293945 Q 280 249.20000076293945 280.5 248.70000076293945 Q 281 248.20000076293945 281.5 248.20000076293945 Q 282 248.20000076293945 283 247.20000076293945 Q 284 246.20000076293945 284 245.70000076293945 Q 284 245.20000076293945 285 245.20000076293945 Q 286 245.20000076293945 287 244.70000076293945 Q 288 244.20000076293945 289 244.20000076293945 Q 290 244.20000076293945 290.5 243.70000076293945 Q 291 243.20000076293945 291.5 242.70000076293945 Q 292 242.20000076293945 293.5 241.20000076293945 Q 295 240.20000076293945 295.5 239.70000076293945 Q 296 239.20000076293945 296.5 239.20000076293945 Q 297 239.20000076293945 298 239.20000076293945 Q 299 239.20000076293945 300 238.70000076293945 Q 301 238.20000076293945 301 237.70000076293945 Q 301 237.20000076293945 302 236.70000076293945 Q 303 236.20000076293945 304.5 235.70000076293945 Q 306 235.20000076293945 306.5 235.20000076293945 Q 307 235.20000076293945 308 234.70000076293945 Q 309 234.20000076293945 310.5 233.70000076293945 Q 312 233.20000076293945 312.5 232.70000076293945 Q 313 232.20000076293945 315 232.20000076293945 Q 317 232.20000076293945 317.5 231.70000076293945 Q 318 231.20000076293945 318 230.70000076293945 Q 318 230.20000076293945 318.5 230.20000076293945 Q 319 230.20000076293945 319.5 230.20000076293945 Q 320 230.20000076293945 321 230.20000076293945 Q 322 230.20000076293945 322.5 230.20000076293945 Q 323 230.20000076293945 323.5 230.20000076293945 Q 324 230.20000076293945 324.5 230.70000076293945 Q 325 231.20000076293945 326.5 231.70000076293945 Q 328 232.20000076293945 328.5 232.70000076293945 Q 329 233.20000076293945 330.5 234.20000076293945 Q 332 235.20000076293945 332 235.70000076293945 Q 332 236.20000076293945 334 237.70000076293945 Q 336 239.20000076293945 336.5 239.70000076293945 Q 337 240.20000076293945 338.5 241.20000076293945 Q 340 242.20000076293945 341 244.20000076293945 Q 342 246.20000076293945 344.5 248.70000076293945 Q 347 251.20000076293945 348 252.20000076293945 Q 349 253.20000076293945 350 254.20000076293945 Q 351 255.20000076293945 353.5 257.70000076293945 Q 356 260.20000076293945 358.5 263.70000076293945 Q 361 267.20000076293945 362 268.20000076293945 Q 363 269.20000076293945 365.5 271.20000076293945 Q 368 273.20000076293945 370 275.70000076293945 Q 372 278.20000076293945 372 279.20000076293945 Q 372 280.20000076293945 373.5 282.20000076293945 Q 375 284.20000076293945 376 285.20000076293945 Q 377 286.20000076293945 378 287.20000076293945 Q 379 288.20000076293945 379.5 289.20000076293945 Q 380 290.20000076293945 380.5 290.20000076293945 Q 381 290.20000076293945 381 290.70000076293945 Q 381 291.20000076293945 381.5 291.70000076293945 Q 382 292.20000076293945 381.5 292.20000076293945 Q 381 292.20000076293945 380.5 292.20000076293945 Q 380 292.20000076293945 378 292.20000076293945 Q 376 292.20000076293945 374 292.20000076293945 Q 372 292.20000076293945 369.5 292.70000076293945 Q 367 293.20000076293945 365.5 293.20000076293945 Q 364 293.20000076293945 360 293.70000076293945 Q 356 294.20000076293945 352 295.70000076293945 Q 348 297.20000076293945 346 297.20000076293945 Q 344 297.20000076293945 338 298.70000076293945 Q 332 300.20000076293945 326 301.70000076293945 Q 320 303.20000076293945 318.5 303.70000076293945 Q 317 304.20000076293945 312.5 305.70000076293945 Q 308 307.20000076293945 303 308.20000076293945 Q 298 309.20000076293945 296.5 309.70000076293945 Q 295 310.20000076293945 292 311.20000076293945 Q 289 312.20000076293945 286.5 312.70000076293945 Q 284 313.20000076293945 282.5 314.20000076293945 Q 281 315.20000076293945 278.5 316.70000076293945 Q 276 318.20000076293945 274.5 318.70000076293945 Q 273 319.20000076293945 272.5 319.70000076293945 Q 272 320.20000076293945 271 320.70000076293945 Q 270 321.20000076293945 268.5 322.20000076293945 Q 267 323.20000076293945 265.5 324.20000076293945 Q 264 325.20000076293945 263.5 325.20000076293945 Q 263 325.20000076293945 261 326.70000076293945 Q 259 328.20000076293945 257.5 328.70000076293945 Q 256 329.20000076293945 254.5 330.20000076293945 Q 253 331.20000076293945 252 332.20000076293945 Q 251 333.20000076293945 250 333.20000076293945 Q 249 333.20000076293945 248.5 334.70000076293945 Q 248 336.20000076293945 247 336.70000076293945 Q 246 337.20000076293945 245 338.20000076293945 Q 244 339.20000076293945 243.5 339.20000076293945 Q 243 339.20000076293945 242 339.70000076293945 Q 241 340.20000076293945 240.5 341.20000076293945 Q 240 342.20000076293945 239.5 342.20000076293945 Q 239 342.20000076293945 238 343.20000076293945 Q 237 344.20000076293945 236.5 344.20000076293945 Q 236 344.20000076293945 235.5 344.20000076293945 Q 235 344.20000076293945 234.5 345.20000076293945 Q 234 346.20000076293945 233.5 346.70000076293945 Q 233 347.20000076293945 232.5 347.20000076293945 Q 232 347.20000076293945 231.5 347.70000076293945 Q 231 348.20000076293945 230.5 348.20000076293945 Q 230 348.20000076293945 229.5 348.20000076293945 Q 229 348.20000076293945 228.5 348.70000076293945 Q 228 349.20000076293945 228 349.70000076293945 Q 228 350.20000076293945 226.5 350.20000076293945 Q 225 350.20000076293945 224.5 350.70000076293945 Q 224 351.20000076293945 222 351.70000076293945 Q 220 352.20000076293945 218.5 352.20000076293945 Q 217 352.20000076293945 216 352.20000076293945 Q 215 352.20000076293945 212.5 352.70000076293945 Q 210 353.20000076293945 207.5 353.70000076293945 Q 205 354.20000076293945 204 354.20000076293945 Q 203 354.20000076293945 201 354.70000076293945 Q 199 355.20000076293945 196 355.70000076293945 Q 193 356.20000076293945 191.5 356.20000076293945 Q 190 356.20000076293945 188 357.20000076293945 Q 186 358.20000076293945 182.5 359.20000076293945 Q 179 360.20000076293945 178 360.20000076293945 Q 177 360.20000076293945 176 360.70000076293945 Q 175 361.20000076293945 173.5 361.70000076293945 Q 172 362.20000076293945 170 362.70000076293945 Q 168 363.20000076293945 167 363.70000076293945 Q 166 364.20000076293945 165 364.20000076293945 Q 164 364.20000076293945 162.5 365.70000076293945 Q 161 367.20000076293945 160.5 367.20000076293945 Q 160 367.20000076293945 159 367.70000076293945 Q 158 368.20000076293945 157 368.20000076293945 Q 156 368.20000076293945 156 368.70000076293945 Q 156 369.20000076293945 155.5 369.20000076293945 Q 155 369.20000076293945 154.5 369.70000076293945 Q 154 370.20000076293945 153.5 370.20000076293945 Q 153 370.20000076293945 152.5 370.70000076293945 Q 152 371.20000076293945 151.5 371.70000076293945 Q 151 372.20000076293945 150 372.20000076293945 Q 149 372.20000076293945 148.5 372.70000076293945 Q 148 373.20000076293945 147.5 374.20000076293945 Q 147 375.20000076293945 146.5 375.70000076293945 Q 146 376.20000076293945 145.5 376.20000076293945 Q 145 376.20000076293945 144.5 376.70000076293945 Q 144 377.20000076293945 143 378.20000076293945 Q 142 379.20000076293945 141 379.70000076293945 Q 140 380.20000076293945 139.5 380.70000076293945 Q 139 381.20000076293945 138.5 381.70000076293945 Q 138 382.20000076293945 137.5 382.70000076293945 Q 137 383.20000076293945 136.5 383.70000076293945 Q 136 384.20000076293945 135.5 384.20000076293945 Q 135 384.20000076293945 134.5 384.70000076293945 Q 134 385.20000076293945 133.5 385.70000076293945 Q 133 386.20000076293945 132.5 386.70000076293945 Q 132 387.20000076293945 131 387.70000076293945 Q 130 388.20000076293945 129.5 388.20000076293945 Q 129 388.20000076293945 128.5 388.20000076293945 Q 128 388.20000076293945 128 387.20000076293945 Q 128 386.20000076293945 127.5 385.70000076293945 Q 127 385.20000076293945 127 384.70000076293945 Q 127 384.20000076293945 127 383.20000076293945 Q 127 382.20000076293945 127 381.70000076293945 Q 127 381.20000076293945 127 380.70000076293945 Q 127 380.20000076293945 127 379.20000076293945 Q 127 378.20000076293945 127 377.70000076293945 Q 127 377.20000076293945 127 376.70000076293945 Q 127 376.20000076293945 127 375.70000076293945 Q 127 375.20000076293945 127 374.70000076293945 Q 127 374.20000076293945 127 373.70000076293945 Q 127 373.20000076293945 127 372.20000076293945 L 127 371.19300076293945" stroke-linecap="round" />
</g>
<g transform="matrix(1 0 0 1 347.5 261.7)"  >
<path style="stroke: rgb(0,0,0); stroke-width: 7; stroke-dasharray: none; stroke-linecap: round; stroke-dashoffset: 0; stroke-linejoin: round; stroke-miterlimit: 10; fill: none; fill-rule: nonzero; opacity: 1;"  transform=" translate(-347.5, -261.7)" d="M 319 232.19300076293945 Q 319 232.20000076293945 319 232.70000076293945 Q 319 233.20000076293945 319 233.70000076293945 Q 319 234.20000076293945 319 234.70000076293945 Q 319 235.20000076293945 319 235.70000076293945 Q 319 236.20000076293945 319.5 236.20000076293945 Q 320 236.20000076293945 320 237.20000076293945 Q 320 238.20000076293945 320 239.20000076293945 Q 320 240.20000076293945 320 240.70000076293945 Q 320 241.20000076293945 320 242.20000076293945 Q 320 243.20000076293945 320 243.70000076293945 Q 320 244.20000076293945 320 244.70000076293945 Q 320 245.20000076293945 320.5 246.20000076293945 Q 321 247.20000076293945 321 247.70000076293945 Q 321 248.20000076293945 321 248.70000076293945 Q 321 249.20000076293945 321 249.70000076293945 Q 321 250.20000076293945 321 250.70000076293945 Q 321 251.20000076293945 321.5 251.20000076293945 Q 322 251.20000076293945 322 251.70000076293945 Q 322 252.20000076293945 322.5 252.70000076293945 Q 323 253.20000076293945 323.5 254.20000076293945 Q 324 255.20000076293945 324 255.70000076293945 Q 324 256.20000076293945 324 256.70000076293945 Q 324 257.20000076293945 325 258.20000076293945 Q 326 259.20000076293945 326.5 259.70000076293945 Q 327 260.20000076293945 327 260.70000076293945 Q 327 261.20000076293945 327.5 261.70000076293945 Q 328 262.20000076293945 328 262.70000076293945 Q 328 263.20000076293945 328.5 263.70000076293945 Q 329 264.20000076293945 329 264.70000076293945 Q 329 265.20000076293945 329.5 265.70000076293945 Q 330 266.20000076293945 330.5 266.20000076293945 Q 331 266.20000076293945 331 266.70000076293945 Q 331 267.20000076293945 331 267.70000076293945 Q 331 268.20000076293945 331.5 268.20000076293945 Q 332 268.20000076293945 332 268.70000076293945 Q 332 269.20000076293945 332.5 269.70000076293945 Q 333 270.20000076293945 333 270.70000076293945 Q 333 271.20000076293945 333.5 271.70000076293945 Q 334 272.20000076293945 334.5 272.20000076293945 Q 335 272.20000076293945 335 272.70000076293945 Q 335 273.20000076293945 335.5 273.70000076293945 Q 336 274.20000076293945 336 274.70000076293945 Q 336 275.20000076293945 336.5 275.70000076293945 Q 337 276.20000076293945 337.5 276.20000076293945 Q 338 276.20000076293945 338.5 276.70000076293945 Q 339 277.20000076293945 339.5 277.70000076293945 Q 340 278.20000076293945 340 278.70000076293945 Q 340 279.20000076293945 341 279.70000076293945 Q 342 280.20000076293945 342.5 280.20000076293945 Q 343 280.20000076293945 343.5 280.70000076293945 Q 344 281.20000076293945 344 281.70000076293945 Q 344 282.20000076293945 344.5 282.20000076293945 Q 345 282.20000076293945 346 283.20000076293945 Q 347 284.20000076293945 347.5 284.20000076293945 Q 348 284.20000076293945 348 284.70000076293945 Q 348 285.20000076293945 348.5 285.20000076293945 Q 349 285.20000076293945 349.5 285.20000076293945 Q 350 285.20000076293945 350.5 285.20000076293945 Q 351 285.20000076293945 351.5 285.70000076293945 Q 352 286.20000076293945 352 286.70000076293945 Q 352 287.20000076293945 353.5 287.70000076293945 Q 355 288.20000076293945 355.5 288.20000076293945 Q 356 288.20000076293945 356.5 288.20000076293945 Q 357 288.20000076293945 358.5 288.20000076293945 Q 360 288.20000076293945 361 288.70000076293945 Q 362 289.20000076293945 363 289.70000076293945 Q 364 290.20000076293945 365 290.20000076293945 Q 366 290.20000076293945 367 290.70000076293945 Q 368 291.20000076293945 368.5 291.20000076293945 Q 369 291.20000076293945 369.5 291.20000076293945 Q 370 291.20000076293945 370.5 291.20000076293945 Q 371 291.20000076293945 371.5 291.20000076293945 Q 372 291.20000076293945 372.5 291.20000076293945 Q 373 291.20000076293945 373.5 291.20000076293945 Q 374 291.20000076293945 375 291.20000076293945 L 376.007 291.20000076293945" stroke-linecap="round" />
</g>
<g transform="matrix(1 0 0 1 480.5 185.2)"  >
<path style="stroke: rgb(0,0,0); stroke-width: 7; stroke-dasharray: none; stroke-linecap: round; stroke-dashoffset: 0; stroke-linejoin: round; stroke-miterlimit: 10; fill: none; fill-rule: nonzero; opacity: 1;"  transform=" translate(-480.5, -185.2)" d="M 460.007 172.19300076293945 Q 460 172.20000076293945 460 172.70000076293945 Q 460 173.20000076293945 459.5 173.70000076293945 Q 459 174.20000076293945 459 174.70000076293945 Q 459 175.20000076293945 458.5 176.20000076293945 Q 458 177.20000076293945 458 177.70000076293945 Q 458 178.20000076293945 457.5 178.20000076293945 Q 457 178.20000076293945 457 179.20000076293945 Q 457 180.20000076293945 457 180.70000076293945 Q 457 181.20000076293945 457 181.70000076293945 Q 457 182.20000076293945 457 182.70000076293945 Q 457 183.20000076293945 457 183.70000076293945 Q 457 184.20000076293945 457 184.70000076293945 Q 457 185.20000076293945 457.5 186.20000076293945 Q 458 187.20000076293945 458.5 187.20000076293945 Q 459 187.20000076293945 459 187.70000076293945 Q 459 188.20000076293945 459.5 188.20000076293945 Q 460 188.20000076293945 460.5 188.70000076293945 Q 461 189.20000076293945 461.5 190.20000076293945 Q 462 191.20000076293945 462.5 191.70000076293945 Q 463 192.20000076293945 463.5 192.20000076293945 Q 464 192.20000076293945 464 192.70000076293945 Q 464 193.20000076293945 464.5 193.70000076293945 Q 465 194.20000076293945 465.5 194.20000076293945 Q 466 194.20000076293945 467 195.20000076293945 Q 468 196.20000076293945 468.5 196.20000076293945 Q 469 196.20000076293945 469.5 196.70000076293945 Q 470 197.20000076293945 471 198.20000076293945 Q 472 199.20000076293945 473 199.20000076293945 Q 474 199.20000076293945 474 199.70000076293945 Q 474 200.20000076293945 475 200.20000076293945 Q 476 200.20000076293945 476 200.70000076293945 Q 476 201.20000076293945 476.5 201.20000076293945 Q 477 201.20000076293945 478 201.20000076293945 Q 479 201.20000076293945 480 199.70000076293945 Q 481 198.20000076293945 482 197.20000076293945 Q 483 196.20000076293945 483.5 195.70000076293945 Q 484 195.20000076293945 484.5 193.70000076293945 Q 485 192.20000076293945 486.5 190.70000076293945 Q 488 189.20000076293945 489 188.70000076293945 Q 490 188.20000076293945 491.5 186.20000076293945 Q 493 184.20000076293945 494.5 182.70000076293945 Q 496 181.20000076293945 496.5 180.70000076293945 Q 497 180.20000076293945 498 179.20000076293945 Q 499 178.20000076293945 499.5 177.20000076293945 Q 500 176.20000076293945 500.5 176.20000076293945 Q 501 176.20000076293945 501.5 175.70000076293945 Q 502 175.20000076293945 502.5 174.20000076293945 Q 503 173.20000076293945 503 172.70000076293945 Q 503 172.20000076293945 503.5 172.20000076293945 Q 504 172.20000076293945 504 171.70000076293945 Q 504 171.20000076293945 504 170.20000076293945 L 504 169.19300076293945" stroke-linecap="round" />
</g>
<g transform="matrix(1 0 0 1 498 167.2)"  >
<path style="stroke: rgb(0,0,0); stroke-width: 7; stroke-dasharray: none; stroke-linecap: round; stroke-dashoffset: 0; stroke-linejoin: round; stroke-miterlimit: 10; fill: none; fill-rule: nonzero; opacity: 1;"  transform=" translate(-498, -167.2)" d="M 504.007 169.20000076293945 Q 504 169.20000076293945 504 168.70000076293945 Q 504 168.20000076293945 503.5 168.20000076293945 Q 503 168.20000076293945 502.5 168.20000076293945 Q 502 168.20000076293945 501.5 167.70000076293945 Q 501 167.20000076293945 500.5 167.20000076293945 Q 500 167.20000076293945 499.5 167.20000076293945 Q 499 167.20000076293945 499 166.70000076293945 Q 499 166.20000076293945 498.5 166.20000076293945 Q 498 166.20000076293945 497.5 166.20000076293945 Q 497 166.20000076293945 496.5 166.20000076293945 Q 496 166.20000076293945 496 165.70000076293945 Q 496 165.20000076293945 495.5 165.20000076293945 Q 495 165.20000076293945 493.5 165.20000076293945 L 491.993 165.20000076293945" stroke-linecap="round" />
</g>
<g transform="matrix(1 0 0 1 465 167.7)"  >
<path style="stroke: rgb(0,0,0); stroke-width: 7; stroke-dasharray: none; stroke-linecap: round; stroke-dashoffset: 0; stroke-linejoin: round; stroke-miterlimit: 10; fill: none; fill-rule: nonzero; opacity: 1;"  transform=" translate(-465, -167.7)" d="M 475.007 165.20000076293945 Q 475 165.20000076293945 473.5 165.20000076293945 Q 472 165.20000076293945 471.5 165.20000076293945 Q 471 165.20000076293945 470.5 165.70000076293945 Q 470 166.20000076293945 469 166.20000076293945 Q 468 166.20000076293945 467.5 166.70000076293945 Q 467 167.20000076293945 466 167.20000076293945 Q 465 167.20000076293945 464.5 167.20000076293945 Q 464 167.20000076293945 464 167.70000076293945 Q 464 168.20000076293945 463 168.20000076293945 Q 462 168.20000076293945 461.5 168.20000076293945 Q 461 168.20000076293945 460.5 168.20000076293945 Q 460 168.20000076293945 459 168.70000076293945 Q 458 169.20000076293945 457.5 169.20000076293945 Q 457 169.20000076293945 456.5 169.20000076293945 Q 456 169.20000076293945 455.5 169.70000076293945 L 454.993 170.20700076293946" stroke-linecap="round" />
</g>
<g transform="matrix(1 0 0 1 478 165.2)"  >
<path style="stroke: rgb(0,0,0); stroke-width: 7; stroke-dasharray: none; stroke-linecap: round; stroke-dashoffset: 0; stroke-linejoin: round; stroke-miterlimit: 10; fill: none; fill-rule: nonzero; opacity: 1;"  transform=" translate(-478, -165.2)" d="M 463.993 166.20700076293946 Q 464 166.20000076293945 464.5 166.20000076293945 Q 465 166.20000076293945 466.5 165.70000076293945 Q 468 165.20000076293945 469 165.20000076293945 Q 470 165.20000076293945 470.5 165.20000076293945 Q 471 165.20000076293945 471.5 165.20000076293945 Q 472 165.20000076293945 472.5 165.20000076293945 Q 473 165.20000076293945 474 165.20000076293945 Q 475 165.20000076293945 475.5 165.20000076293945 Q 476 165.20000076293945 476.5 165.20000076293945 Q 477 165.20000076293945 477.5 165.20000076293945 Q 478 165.20000076293945 478.5 164.70000076293945 Q 479 164.20000076293945 479.5 164.20000076293945 Q 480 164.20000076293945 480.5 164.20000076293945 Q 481 164.20000076293945 481.5 164.20000076293945 Q 482 164.20000076293945 483 164.20000076293945 Q 484 164.20000076293945 484.5 164.20000076293945 Q 485 164.20000076293945 486 164.20000076293945 Q 487 164.20000076293945 487.5 164.20000076293945 Q 488 164.20000076293945 489 164.20000076293945 Q 490 164.20000076293945 491 164.20000076293945 L 492.007 164.20000076293945" stroke-linecap="round" />
</g>
<g transform="matrix(1 0 0 1 432.5 189.2)"  >
<path style="stroke: rgb(0,0,0); stroke-width: 7; stroke-dasharray: none; stroke-linecap: round; stroke-dashoffset: 0; stroke-linejoin: round; stroke-miterlimit: 10; fill: none; fill-rule: nonzero; opacity: 1;"  transform=" translate(-432.5, -189.2)" d="M 445.007 180.19300076293945 Q 445 180.20000076293945 444.5 180.20000076293945 Q 444 180.20000076293945 443 180.70000076293945 Q 442 181.20000076293945 441.5 181.70000076293945 Q 441 182.20000076293945 440.5 182.70000076293945 Q 440 183.20000076293945 438.5 183.70000076293945 Q 437 184.20000076293945 436.5 184.70000076293945 Q 436 185.20000076293945 435.5 185.70000076293945 Q 435 186.20000076293945 434 187.20000076293945 Q 433 188.20000076293945 432 188.20000076293945 Q 431 188.20000076293945 430.5 188.70000076293945 Q 430 189.20000076293945 429.5 189.70000076293945 Q 429 190.20000076293945 428.5 190.20000076293945 Q 428 190.20000076293945 428 191.20000076293945 Q 428 192.20000076293945 427.5 192.20000076293945 Q 427 192.20000076293945 426.5 192.20000076293945 Q 426 192.20000076293945 426 192.70000076293945 Q 426 193.20000076293945 425.5 193.20000076293945 Q 425 193.20000076293945 425 193.70000076293945 Q 425 194.20000076293945 424.5 194.20000076293945 Q 424 194.20000076293945 424 194.70000076293945 Q 424 195.20000076293945 423.5 195.70000076293945 Q 423 196.20000076293945 422.5 196.20000076293945 Q 422 196.20000076293945 421.5 196.70000076293945 Q 421 197.20000076293945 420.5 197.70000076293945 L 419.993 198.20700076293946" stroke-linecap="round" />
</g>
<g transform="matrix(1 0 0 1 452.5 215.2)"  >
<path style="stroke: rgb(0,0,0); stroke-width: 7; stroke-dasharray: none; stroke-linecap: round; stroke-dashoffset: 0; stroke-linejoin: round; stroke-miterlimit: 10; fill: none; fill-rule: nonzero; opacity: 1;"  transform=" translate(-452.5, -215.2)" d="M 465 201.19300076293945 Q 465 201.20000076293945 465 201.70000076293945 Q 465 202.20000076293945 465 202.70000076293945 Q 465 203.20000076293945 464.5 203.70000076293945 Q 464 204.20000076293945 464 204.70000076293945 Q 464 205.20000076293945 463.5 205.70000076293945 Q 463 206.20000076293945 462.5 207.20000076293945 Q 462 208.20000076293945 461 208.70000076293945 Q 460 209.20000076293945 460 210.20000076293945 Q 460 211.20000076293945 459 211.70000076293945 Q 458 212.20000076293945 457 212.70000076293945 Q 456 213.20000076293945 455.5 214.20000076293945 Q 455 215.20000076293945 454.5 215.70000076293945 Q 454 216.20000076293945 453.5 216.20000076293945 Q 453 216.20000076293945 452.5 216.70000076293945 Q 452 217.20000076293945 452 217.70000076293945 Q 452 218.20000076293945 452 218.70000076293945 Q 452 219.20000076293945 451.5 219.70000076293945 Q 451 220.20000076293945 450 220.20000076293945 Q 449 220.20000076293945 448.5 220.70000076293945 Q 448 221.20000076293945 448 221.70000076293945 Q 448 222.20000076293945 447.5 222.70000076293945 Q 447 223.20000076293945 446.5 223.70000076293945 Q 446 224.20000076293945 445 224.70000076293945 Q 444 225.20000076293945 444 225.70000076293945 Q 444 226.20000076293945 443.5 226.70000076293945 Q 443 227.20000076293945 442.5 227.70000076293945 Q 442 228.20000076293945 441 228.70000076293945 L 439.993 229.20700076293946" stroke-linecap="round" />
</g>
<g transform="matrix(1 0 0 1 480 225.7)"  >
<path style="stroke: rgb(0,0,0); stroke-width: 7; stroke-dasharray: none; stroke-linecap: round; stroke-dashoffset: 0; stroke-linejoin: round; stroke-miterlimit: 10; fill: none; fill-rule: nonzero; opacity: 1;"  transform=" translate(-480, -225.7)" d="M 488 211.19300076293945 Q 488 211.20000076293945 488 211.70000076293945 Q 488 212.20000076293945 488 212.70000076293945 Q 488 213.20000076293945 488 213.70000076293945 Q 488 214.20000076293945 487 215.20000076293945 Q 486 216.20000076293945 485.5 216.20000076293945 Q 485 216.20000076293945 484.5 217.70000076293945 Q 484 219.20000076293945 483.5 219.70000076293945 Q 483 220.20000076293945 483 220.70000076293945 Q 483 221.20000076293945 482.5 222.20000076293945 Q 482 223.20000076293945 481.5 223.20000076293945 Q 481 223.20000076293945 480.5 223.70000076293945 Q 480 224.20000076293945 480 224.70000076293945 Q 480 225.20000076293945 479.5 225.70000076293945 Q 479 226.20000076293945 478.5 226.70000076293945 Q 478 227.20000076293945 478 227.70000076293945 Q 478 228.20000076293945 477.5 228.70000076293945 Q 477 229.20000076293945 476.5 229.20000076293945 Q 476 229.20000076293945 476 230.20000076293945 Q 476 231.20000076293945 476 231.70000076293945 Q 476 232.20000076293945 475.5 232.20000076293945 Q 475 232.20000076293945 474.5 232.20000076293945 Q 474 232.20000076293945 473.5 232.20000076293945 Q 473 232.20000076293945 473 232.70000076293945 Q 473 233.20000076293945 473 234.70000076293945 Q 473 236.20000076293945 473 236.70000076293945 Q 473 237.20000076293945 473 237.70000076293945 Q 473 238.20000076293945 472.5 238.20000076293945 Q 472 238.20000076293945 472 239.20000076293945 L 472 240.20700076293946" stroke-linecap="round" />
</g>
<g transform="matrix(1 0 0 1 469 243.7)"  >
<path style="stroke: rgb(0,0,0); stroke-width: 7; stroke-dasharray: none; stroke-linecap: round; stroke-dashoffset: 0; stroke-linejoin: round; stroke-miterlimit: 10; fill: none; fill-rule: nonzero; opacity: 1;"  transform=" translate(-469, -243.7)" d="M 472.007 240.19300076293945 Q 472 240.20000076293945 471.5 240.70000076293945 Q 471 241.20000076293945 470.5 241.70000076293945 Q 470 242.20000076293945 470 242.70000076293945 Q 470 243.20000076293945 469.5 243.20000076293945 Q 469 243.20000076293945 468.5 243.70000076293945 Q 468 244.20000076293945 468 244.70000076293945 Q 468 245.20000076293945 468 245.70000076293945 Q 468 246.20000076293945 467 246.70000076293945 L 465.993 247.20700076293946" stroke-linecap="round" />
</g>
</svg>