<svg xmlns="http://www.w3.org/2000/svg" xmlns:xlink="http://www.w3.org/1999/xlink" version="1.1" width="600" height="600" viewBox="0 0 600 600" xml:space="preserve">
<desc>Created with Fabric.js 5.2.4</desc>
<defs>
</defs>
<rect x="0" y="0" width="100%" height="100%" fill="#fff"></rect>
<g transform="matrix(1 0 0 1 259.41 247.2)"  >
<path style="stroke: rgb(0,0,0); stroke-width: 7; stroke-dasharray: none; stroke-linecap: round; stroke-dashoffset: 0; stroke-linejoin: round; stroke-miterlimit: 10; fill: none; fill-rule: nonzero; opacity: 1;"  transform=" translate(-259.41, -247.2)" d="M 200.007 237.20000076293945 Q 200 237.20000076293945 198.5 237.20000076293945 Q 197 237.20000076293945 196 237.20000076293945 Q 195 237.20000076293945 194 237.20000076293945 Q 193 237.20000076293945 192.5 237.20000076293945 Q 192 237.20000076293945 190 237.20000076293945 Q 188 237.20000076293945 186.5 237.20000076293945 Q 185 237.20000076293945 184.5 237.20000076293945 Q 184 237.20000076293945 183 237.20000076293945 Q 182 237.20000076293945 181 237.20000076293945 Q 180 237.20000076293945 178 237.70000076293945 Q 176 238.20000076293945 175.5 238.20000076293945 Q 175 238.20000076293945 174.5 238.70000076293945 Q 174 239.20000076293945 173.5 239.20000076293945 Q 173 239.20000076293945 172.5 239.20000076293945 Q 172 239.20000076293945 172 239.70000076293945 Q 172 240.20000076293945 171.5 240.20000076293945 Q 171 240.20000076293945 170.5 240.20000076293945 Q 170 240.20000076293945 169.5 240.20000076293945 Q 169 240.20000076293945 168.5 240.20000076293945 Q 168 240.20000076293945 167 240.70000076293945 Q 166 241.20000076293945 165 241.70000076293945 Q 164 242.20000076293945 163 242.20000076293945 Q 162 242.20000076293945 161 242.20000076293945 Q 160 242.20000076293945 160 242.70000076293945 Q 160 243.20000076293945 158.5 243.70000076293945 Q 157 244.20000076293945 156.5 244.20000076293945 Q 156 244.20000076293945 155.5 244.70000076293945 Q 155 245.20000076293945 153.5 246.20000076293945 Q 152 247.20000076293945 152 247.70000076293945 Q 152 248.20000076293945 151.5 248.20000076293945 Q 151 248.20000076293945 150.5 248.70000076293945 Q 150 249.20000076293945 149.5 249.20000076293945 Q 149 249.20000076293945 148.5 249.70000076293945 Q 148 250.20000076293945 148 250.70000076293945 Q 148 251.20000076293945 148 251.70000076293945 Q 148 252.20000076293945 147 252.20000076293945 Q 146 252.20000076293945 145.5 253.20000076293945 Q 145 254.20000076293945 144.5 255.20000076293945 Q 144 256.20000076293945 144 256.70000076293945 Q 144 257.20000076293945 143.5 257.20000076293945 Q 143 257.20000076293945 143 258.20000076293945 Q 143 259.20000076293945 142.5 259.70000076293945 Q 142 260.20000076293945 141.5 261.70000076293945 Q 141 263.20000076293945 141 263.70000076293945 Q 141 264.20000076293945 141 265.20000076293945 Q 141 266.20000076293945 141 267.20000076293945 Q 141 268.20000076293945 140.5 268.20000076293945 Q 140 268.20000076293945 140 268.70000076293945 Q 140 269.20000076293945 140 270.70000076293945 Q 140 272.20000076293945 140 272.70000076293945 Q 140 273.20000076293945 140 274.20000076293945 Q 140 275.20000076293945 140 275.70000076293945 Q 140 276.20000076293945 140 276.70000076293945 Q 140 277.20000076293945 140 277.70000076293945 Q 140 278.20000076293945 140 278.70000076293945 Q 140 279.20000076293945 140 279.70000076293945 Q 140 280.20000076293945 139.5 280.20000076293945 Q 139 280.20000076293945 139 280.70000076293945 Q 139 281.20000076293945 139 282.70000076293945 Q 139 284.20000076293945 139 284.70000076293945 Q 139 285.20000076293945 139 285.70000076293945 Q 139 286.20000076293945 139 287.20000076293945 Q 139 288.20000076293945 139 289.70000076293945 Q 139 291.20000076293945 139 291.70000076293945 Q 139 292.20000076293945 139 293.20000076293945 Q 139 294.20000076293945 139 295.20000076293945 Q 139 296.20000076293945 139 297.20000076293945 Q 139 298.20000076293945 139 299.20000076293945 Q 139 300.20000076293945 139 301.20000076293945 Q 139 302.20000076293945 139 302.70000076293945 Q 139 303.20000076293945 139 303.70000076293945 Q 139 304.20000076293945 139.5 305.20000076293945 Q 140 306.20000076293945 140 306.70000076293945 Q 140 307.20000076293945 140 307.70000076293945 Q 140 308.20000076293945 140.5 309.20000076293945 Q 141 310.20000076293945 141.5 311.20000076293945 Q 142 312.20000076293945 142.5 312.70000076293945 Q 143 313.20000076293945 143 314.20000076293945 Q 143 315.20000076293945 143.5 315.70000076293945 Q 144 316.20000076293945 145 317.20000076293945 Q 146 318.20000076293945 147 319.20000076293945 Q 148 320.20000076293945 149 320.70000076293945 Q 150 321.20000076293945 151 322.70000076293945 Q 152 324.20000076293945 153.5 324.70000076293945 Q 155 325.20000076293945 156 326.20000076293945 Q 157 327.20000076293945 158 327.70000076293945 Q 159 328.20000076293945 159.5 328.20000076293945 Q 160 328.20000076293945 161 328.20000076293945 Q 162 328.20000076293945 162 328.70000076293945 Q 162 329.20000076293945 163 329.70000076293945 Q 164 330.20000076293945 164.5 330.20000076293945 Q 165 330.20000076293945 165.5 330.70000076293945 Q 166 331.20000076293945 167 331.20000076293945 Q 168 331.20000076293945 169 331.70000076293945 Q 170 332.20000076293945 171 332.20000076293945 Q 172 332.20000076293945 174 332.20000076293945 Q 176 332.20000076293945 176.5 332.20000076293945 Q 177 332.20000076293945 179.5 332.20000076293945 Q 182 332.20000076293945 185 332.20000076293945 Q 188 332.20000076293945 189 332.20000076293945 Q 190 332.20000076293945 191.5 332.20000076293945 Q 193 332.20000076293945 196 332.20000076293945 Q 199 332.20000076293945 200 332.20000076293945 Q 201 332.20000076293945 203 332.20000076293945 Q 205 332.20000076293945 206.5 332.20000076293945 Q 208 332.20000076293945 209 332.20000076293945 Q 210 332.20000076293945 211.5 332.20000076293945 Q 213 332.20000076293945 214 332.20000076293945 Q 215 332.20000076293945 215.5 332.20000076293945 Q 216 332.20000076293945 216.5 332.20000076293945 Q 217 332.20000076293945 217.5 332.20000076293945 Q 218 332.20000076293945 218.5 332.20000076293945 Q 219 332.20000076293945 219.5 332.20000076293945 Q 220 332.20000076293945 220.5 332.20000076293945 Q 221 332.20000076293945 221.5 332.20000076293945 Q 222 332.20000076293945 222.5 331.70000076293945 Q 223 331.20000076293945 223.5 331.20000076293945 Q 224 331.20000076293945 224.5 330.70000076293945 Q 225 330.20000076293945 225.5 330.20000076293945 Q 226 330.20000076293945 226.5 330.20000076293945 Q 227 330.20000076293945 227.5 330.20000076293945 Q 228 330.20000076293945 228.5 329.70000076293945 Q 229 329.20000076293945 229.5 328.70000076293945 Q 230 328.20000076293945 230.5 328.20000076293945 Q 231 328.20000076293945 231.5 328.20000076293945 Q 232 328.20000076293945 233 327.70000076293945 Q 234 327.20000076293945 234 326.70000076293945 Q 234 326.20000076293945 234.5 326.20000076293945 Q 235 326.20000076293945 235.5 325.70000076293945 Q 236 325.20000076293945 236 324.70000076293945 Q 236 324.20000076293945 236.5 324.20000076293945 Q 237 324.20000076293945 237.5 323.70000076293945 Q 238 323.20000076293945 238 322.70000076293945 Q 238 322.20000076293945 238.5 321.70000076293945 Q 239 321.20000076293945 239 320.70000076293945 Q 239 320.20000076293945 239.5 319.20000076293945 Q 240 318.20000076293945 240 317.70000076293945 Q 240 317.20000076293945 240 316.70000076293945 Q 240 316.20000076293945 240 315.70000076293945 Q 240 315.20000076293945 240 314.70000076293945 Q 240 314.20000076293945 240 313.70000076293945 Q 240 313.20000076293945 240 312.70000076293945 Q 240 312.20000076293945 240 311.70000076293945 Q 240 311.20000076293945 240 310.70000076293945 Q 240 310.20000076293945 240 309.70000076293945 Q 240 309.20000076293945 240 308.70000076293945 Q 240 308.20000076293945 240 307.20000076293945 Q 240 306.20000076293945 240 305.20000076293945 Q 240 304.20000076293945 240 303.70000076293945 Q 240 303.20000076293945 240 302.70000076293945 Q 240 302.20000076293945 240 301.70000076293945 Q 240 301.20000076293945 240 300.70000076293945 Q 240 300.20000076293945 240 299.70000076293945 Q 240 299.20000076293945 240 298.70000076293945 Q 240 298.20000076293945 240 297.70000076293945 Q 240 297.20000076293945 240 296.70000076293945 Q 240 296.20000076293945 240 295.70000076293945 Q 240 295.20000076293945 239.5 294.70000076293945 Q 239 294.20000076293945 238.5 294.20000076293945 Q 238 294.20000076293945 237.5 294.20000076293945 Q 237 294.20000076293945 237 293.70000076293945 Q 237 293.20000076293945 235.5 293.20000076293945 Q 234 293.20000076293945 234 292.70000076293945 Q 234 292.20000076293945 233.5 292.20000076293945 Q 233 292.20000076293945 232.5 292.20000076293945 Q 232 292.20000076293945 232 291.70000076293945 Q 232 291.20000076293945 232 290.70000076293945 Q 232 290.20000076293945 232 289.70000076293945 Q 232 289.20000076293945 232 288.70000076293945 Q 232 288.20000076293945 234 286.20000076293945 Q 236 284.20000076293945 238 282.70000076293945 Q 240 281.20000076293945 240.5 281.20000076293945 Q 241 281.20000076293945 242 280.70000076293945 Q 243 280.20000076293945 244 278.70000076293945 Q 245 277.20000076293945 245.5 276.70000076293945 Q 246 276.20000076293945 247 275.70000076293945 Q 248 275.20000076293945 248.5 274.20000076293945 Q 249 273.20000076293945 250 272.70000076293945 Q 251 272.20000076293945 251.5 271.70000076293945 Q 252 271.20000076293945 253 270.20000076293945 Q 254 269.20000076293945 254.5 268.70000076293945 Q 255 268.20000076293945 256 267.20000076293945 Q 257 266.20000076293945 258 265.70000076293945 Q 259 265.20000076293945 259.5 264.70000076293945 Q 260 264.20000076293945 261.5 263.20000076293945 Q 263 262.20000076293945 263.5 261.20000076293945 Q 264 260.20000076293945 265.5 259.20000076293945 Q 267 258.20000076293945 267.5 257.70000076293945 Q 268 257.20000076293945 269 256.20000076293945 Q 270 255.20000076293945 271 254.70000076293945 Q 272 254.20000076293945 272 253.70000076293945 Q 272 253.20000076293945 273 252.70000076293945 Q 274 252.20000076293945 275 251.20000076293945 Q 276 250.20000076293945 276 249.70000076293945 Q 276 249.20000076293945 276.5 248.70000076293945 Q 277 248.20000076293945 278.5 247.70000076293945 Q 280 247.20000076293945 281 246.20000076293945 Q 282 245.20000076293945 283 244.70000076293945 Q 284 244.20000076293945 284.5 243.70000076293945 Q 285 243.20000076293945 286.5 241.70000076293945 Q 288 240.20000076293945 288.5 240.20000076293945 Q 289 240.20000076293945 290 239.70000076293945 Q 291 239.20000076293945 291.5 238.70000076293945 Q 292 238.20000076293945 292.5 237.20000076293945 Q 293 236.20000076293945 294 236.20000076293945 Q 295 236.20000076293945 295.5 236.20000076293945 Q 296 236.20000076293945 296.5 235.20000076293945 Q 297 234.20000076293945 298.5 233.70000076293945 Q 300 233.20000076293945 300 232.70000076293945 Q 300 232.20000076293945 301.5 232.20000076293945 Q 303 232.20000076293945 304.5 231.20000076293945 Q 306 230.20000076293945 306.5 230.20000076293945 Q 307 230.20000076293945 309 229.20000076293945 Q 311 228.20000076293945 312.5 227.20000076293945 Q 314 226.20000076293945 315 225.70000076293945 Q 316 225.20000076293945 316.5 224.70000076293945 Q 317 224.20000076293945 318.5 223.20000076293945 Q 320 222.20000076293945 321.5 221.20000076293945 Q 323 220.20000076293945 323.5 220.20000076293945 Q 324 220.20000076293945 324.5 220.20000076293945 Q 325 220.20000076293945 326.5 218.70000076293945 Q 328 217.20000076293945 328.5 216.70000076293945 Q 329 216.20000076293945 330.5 215.70000076293945 Q 332 215.20000076293945 334.5 213.70000076293945 Q 337 212.20000076293945 338 211.20000076293945 Q 339 210.20000076293945 340.5 209.20000076293945 Q 342 208.20000076293945 344.5 207.20000076293945 Q 347 206.20000076293945 348 205.70000076293945 Q 349 205.20000076293945 352 204.20000076293945 Q 355 203.20000076293945 357.5 201.70000076293945 Q 360 200.20000076293945 360.5 199.70000076293945 Q 361 199.20000076293945 362.5 198.20000076293945 Q 364 197.20000076293945 365.5 196.20000076293945 Q 367 195.20000076293945 368 194.70000076293945 Q 369 194.20000076293945 370 194.20000076293945 Q 371 194.20000076293945 371.5 193.20000076293945 Q 372 192.20000076293945 372.5 192.20000076293945 Q 373 192.20000076293945 373.5 191.70000076293945 Q 374 191.20000076293945 374.5 191.20000076293945 Q 375 191.20000076293945 375.5 190.70000076293945 Q 376 190.20000076293945 376.5 189.70000076293945 Q 377 189.20000076293945 377.5 188.70000076293945 Q 378 188.20000076293945 378.5 187.70000076293945 Q 379 187.20000076293945 379.5 187.20000076293945 Q 380 187.20000076293945 379 186.20000076293945 Q 378 185.20000076293945 377.5 184.70000076293945 Q 377 184.20000076293945 376 184.20000076293945 Q 375 184.20000076293945 374 182.70000076293945 Q 373 181.20000076293945 372.5 180.70000076293945 Q 372 180.20000076293945 370.5 179.20000076293945 Q 369 178.20000076293945 368 177.20000076293945 Q 367 176.20000076293945 366 176.20000076293945 Q 365 176.20000076293945 364.5 176.20000076293945 Q 364 176.20000076293945 363.5 175.20000076293945 Q 363 174.20000076293945 362.5 174.20000076293945 Q 362 174.20000076293945 361.5 173.20000076293945 Q 361 172.20000076293945 359 170.20000076293945 Q 357 168.20000076293945 356.5 167.20000076293945 Q 356 166.20000076293945 355.5 166.20000076293945 Q 355 166.20000076293945 354.5 166.20000076293945 Q 354 166.20000076293945 353.5 166.20000076293945 Q 353 166.20000076293945 353 165.70000076293945 Q 353 165.20000076293945 352.5 165.20000076293945 Q 352 165.20000076293945 351.5 165.20000076293945 Q 351 165.20000076293945 351 164.70000076293945 Q 351 164.20000076293945 350.5 164.20000076293945 Q 350 164.20000076293945 349.5 163.70000076293945 Q 349 163.20000076293945 348.5 163.20000076293945 Q 348 163.20000076293945 348 162.70000076293945 Q 348 162.20000076293945 347.5 162.20000076293945 Q 347 162.20000076293945 346.5 162.20000076293945 Q 346 162.20000076293945 345 162.20000076293945 Q 344 162.20000076293945 343.5 162.20000076293945 Q 343 162.20000076293945 342 162.20000076293945 Q 341 162.20000076293945 340.5 162.70000076293945 Q 340 163.20000076293945 338 163.70000076293945 Q 336 164.20000076293945 336 164.70000076293945 Q 336 165.20000076293945 334 165.70000076293945 Q 332 166.20000076293945 330.5 166.70000076293945 Q 329 167.20000076293945 328.5 167.70000076293945 Q 328 168.20000076293945 327.5 168.20000076293945 Q 327 168.20000076293945 326 168.70000076293945 Q 325 169.20000076293945 324.5 169.20000076293945 Q 324 169.20000076293945 323 169.70000076293945 Q 322 170.20000076293945 321 171.20000076293945 Q 320 172.20000076293945 319 172.20000076293945 Q 318 172.20000076293945 317 172.70000076293945 Q 316 173.20000076293945 315.5 173.70000076293945 Q 315 174.20000076293945 313.5 174.70000076293945 Q 312 175.20000076293945 312 175.70000076293945 Q 312 176.20000076293945 311 176.20000076293945 Q 310 176.20000076293945 309 176.70000076293945 Q 308 177.20000076293945 307 177.70000076293945 Q 306 178.20000076293945 304.5 178.70000076293945 Q 303 179.20000076293945 302.5 179.70000076293945 Q 302 180.20000076293945 301 180.20000076293945 Q 300 180.20000076293945 299.5 181.20000076293945 Q 299 182.20000076293945 297.5 183.20000076293945 Q 296 184.20000076293945 295 184.70000076293945 Q 294 185.20000076293945 293 185.70000076293945 Q 292 186.20000076293945 290.5 187.20000076293945 Q 289 188.20000076293945 287 189.20000076293945 Q 285 190.20000076293945 284.5 190.70000076293945 Q 284 191.20000076293945 283 191.70000076293945 Q 282 192.20000076293945 280.5 193.20000076293945 Q 279 194.20000076293945 278.5 194.20000076293945 Q 278 194.20000076293945 277 195.20000076293945 Q 276 196.20000076293945 275 196.20000076293945 Q 274 196.20000076293945 273.5 196.20000076293945 Q 273 196.20000076293945 272 197.20000076293945 Q 271 198.20000076293945 270.5 198.20000076293945 Q 270 198.20000076293945 269.5 198.70000076293945 Q 269 199.20000076293945 268.5 199.20000076293945 Q 268 199.20000076293945 267.5 199.20000076293945 Q 267 199.20000076293945 266 199.70000076293945 Q 265 200.20000076293945 264.5 200.20000076293945 Q 264 200.20000076293945 262.5 200.70000076293945 Q 261 201.20000076293945 260.5 201.70000076293945 Q 260 202.20000076293945 259.5 202.20000076293945 Q 259 202.20000076293945 257.5 203.20000076293945 Q 256 204.20000076293945 255 204.20000076293945 Q 254 204.20000076293945 253.5 204.70000076293945 Q 253 205.20000076293945 252 206.20000076293945 Q 251 207.20000076293945 250 207.70000076293945 Q 249 208.20000076293945 248.5 208.20000076293945 Q 248 208.20000076293945 247.5 208.20000076293945 Q 247 208.20000076293945 246.5 208.20000076293945 Q 246 208.20000076293945 245.5 208.70000076293945 Q 245 209.20000076293945 244.5 209.20000076293945 Q 244 209.20000076293945 244 209.70000076293945 Q 244 210.20000076293945 243.5 210.70000076293945 Q 243 211.20000076293945 242 211.20000076293945 Q 241 211.20000076293945 240.5 211.20000076293945 Q 240 211.20000076293945 239 211.70000076293945 Q 238 212.20000076293945 237 212.70000076293945 Q 236 213.20000076293945 235.5 213.70000076293945 Q 235 214.20000076293945 233.5 214.70000076293945 Q 232 215.20000076293945 231 215.70000076293945 Q 230 216.20000076293945 229.5 216.70000076293945 Q 229 217.20000076293945 228.5 217.70000076293945 Q 228 218.20000076293945 226.5 218.20000076293945 Q 225 218.20000076293945 224.5 218.70000076293945 Q 224 219.20000076293945 223.5 219.70000076293945 Q 223 220.20000076293945 221.5 220.20000076293945 Q 220 220.20000076293945 220 221.20000076293945 Q 220 222.20000076293945 218.5 222.70000076293945 Q 217 223.20000076293945 216.5 223.70000076293945 Q 216 224.20000076293945 215.5 225.20000076293945 Q 215 226.20000076293945 214.5 226.20000076293945 Q 214 226.20000076293945 213.5 226.70000076293945 Q 213 227.20000076293945 213 227.70000076293945 Q 213 228.20000076293945 212.5 228.70000076293945 Q 212 229.20000076293945 212 229.70000076293945 Q 212 230.20000076293945 211.5 230.70000076293945 Q 211 231.20000076293945 211 231.70000076293945 Q 211 232.20000076293945 210.5 232.70000076293945 Q 210 233.20000076293945 209.5 234.20000076293945 Q 209 235.20000076293945 208.5 235.70000076293945 Q 208 236.20000076293945 207 236.70000076293945 Q 206 237.20000076293945 206 237.70000076293945 Q 206 238.20000076293945 206 238.70000076293945 Q 206 239.20000076293945 205.5 239.20000076293945 Q 205 239.20000076293945 204.5 239.70000076293945 Q 204 240.20000076293945 203.5 240.70000076293945 Q 203 241.20000076293945 202.5 241.20000076293945 Q 202 241.20000076293945 201.5 241.70000076293945 Q 201 242.20000076293945 200.5 242.70000076293945 Q 200 243.20000076293945 199.5 243.20000076293945 Q 199 243.20000076293945 198.5 243.70000076293945 L 197.993 244.20700076293946" stroke-linecap="round" />
</g>
<g transform="matrix(1 0 0 1 436 118.7)"  >
<path style="stroke: rgb(0,0,0); stroke-width: 7; stroke-dasharray: none; stroke-linecap: round; stroke-dashoffset: 0; stroke-linejoin: round; stroke-miterlimit: 10; fill: none; fill-rule: nonzero; opacity: 1;"  transform=" translate(-436, -118.7)" d="M 440.007 103.20000076293945 Q 440 103.20000076293945 439 103.70000076293945 Q 438 104.20000076293945 437 104.20000076293945 Q 436 104.20000076293945 436 104.70000076293945 Q 436 105.20000076293945 434.5 105.70000076293945 Q 433 106.20000076293945 432.5 106.70000076293945 Q 432 107.20000076293945 432 107.70000076293945 Q 432 108.20000076293945 430.5 108.20000076293945 Q 429 108.20000076293945 428.5 108.70000076293945 Q 428 109.20000076293945 428 109.70000076293945 Q 428 110.20000076293945 427 110.20000076293945 Q 426 110.20000076293945 426 110.70000076293945 Q 426 111.20000076293945 425.5 111.70000076293945 Q 425 112.20000076293945 424.5 112.20000076293945 Q 424 112.20000076293945 424 112.70000076293945 Q 424 113.20000076293945 423.5 113.20000076293945 Q 423 113.20000076293945 422.5 113.70000076293945 Q 422 114.20000076293945 422 114.70000076293945 Q 422 115.20000076293945 422 115.70000076293945 Q 422 116.20000076293945 421.5 116.20000076293945 Q 421 116.20000076293945 420.5 116.70000076293945 Q 420 117.20000076293945 420 117.70000076293945 Q 420 118.20000076293945 420 118.70000076293945 Q 420 119.20000076293945 420 119.70000076293945 Q 420 120.20000076293945 420 120.70000076293945 Q 420 121.20000076293945 420 121.70000076293945 Q 420 122.20000076293945 420 123.20000076293945 Q 420 124.20000076293945 420 125.20000076293945 Q 420 126.20000076293945 420.5 126.70000076293945 Q 421 127.20000076293945 421 127.70000076293945 Q 421 128.20000076293945 421.5 128.70000076293945 Q 422 129.20000076293945 422.5 129.20000076293945 Q 423 129.20000076293945 423.5 129.70000076293945 Q 424 130.20000076293945 424 130.70000076293945 Q 424 131.20000076293945 424 131.70000076293945 Q 424 132.20000076293945 424.5 132.20000076293945 Q 425 132.20000076293945 425.5 132.20000076293945 Q 426 132.20000076293945 426.5 132.20000076293945 Q 427 132.20000076293945 427.5 132.20000076293945 Q 428 132.20000076293945 428 132.70000076293945 Q 428 133.20000076293945 428.5 133.20000076293945 Q 429 133.20000076293945 429.5 133.20000076293945 Q 430 133.20000076293945 430.5 133.20000076293945 Q 431 133.20000076293945 431.5 133.20000076293945 Q 432 133.20000076293945 432 133.70000076293945 Q 432 134.20000076293945 432.5 134.20000076293945 Q 433 134.20000076293945 433.5 134.20000076293945 Q 434 134.20000076293945 435 134.20000076293945 Q 436 134.20000076293945 436.5 134.20000076293945 Q 437 134.20000076293945 437.5 134.20000076293945 Q 438 134.20000076293945 438.5 134.20000076293945 Q 439 134.20000076293945 439.5 134.20000076293945 Q 440 134.20000076293945 440.5 134.20000076293945 Q 441 134.20000076293945 441.5 133.70000076293945 Q 442 133.20000076293945 442.5 132.70000076293945 Q 443 132.20000076293945 443.5 132.20000076293945 Q 444 132.20000076293945 445 132.20000076293945 Q 446 132.20000076293945 447 130.70000076293945 Q 448 129.20000076293945 448 128.70000076293945 Q 448 128.20000076293945 448.5 128.20000076293945 Q 449 128.20000076293945 449.5 127.70000076293945 Q 450 127.20000076293945 450 126.70000076293945 Q 450 126.20000076293945 450 125.70000076293945 Q 450 125.20000076293945 450 124.70000076293945 Q 450 124.20000076293945 450 123.70000076293945 Q 450 123.20000076293945 450.5 122.20000076293945 Q 451 121.20000076293945 451 120.70000076293945 Q 451 120.20000076293945 451 119.70000076293945 Q 451 119.20000076293945 451 118.70000076293945 Q 451 118.20000076293945 451.5 117.20000076293945 Q 452 116.20000076293945 452 115.70000076293945 Q 452 115.20000076293945 452 114.70000076293945 Q 452 114.20000076293945 452 113.70000076293945 Q 452 113.20000076293945 452 112.70000076293945 Q 452 112.20000076293945 452 111.70000076293945 Q 452 111.20000076293945 452 110.70000076293945 Q 452 110.20000076293945 451.5 109.70000076293945 Q 451 109.20000076293945 450.5 109.20000076293945 Q 450 109.20000076293945 449.5 109.20000076293945 Q 449 109.20000076293945 449 108.70000076293945 Q 449 108.20000076293945 448.5 108.20000076293945 Q 448 108.20000076293945 447.5 108.20000076293945 Q 447 108.20000076293945 446.5 108.20000076293945 Q 446 108.20000076293945 446 107.70000076293945 Q 446 107.20000076293945 445.5 107.20000076293945 Q 445 107.20000076293945 444.5 107.20000076293945 Q 444 107.20000076293945 444 106.70000076293945 Q 444 106.20000076293945 443.5 106.20000076293945 Q 443 106.20000076293945 442.5 106.20000076293945 Q 442 106.20000076293945 441.5 106.20000076293945 Q 441 106.20000076293945 440.5 106.20000076293945 Q 440 106.20000076293945 439.5 106.20000076293945 Q 439 106.20000076293945 438 106.20000076293945 L 436.993 106.20000076293945" stroke-linecap="round" />
</g>
</svg>