<svg xmlns="http://www.w3.org/2000/svg" xmlns:xlink="http://www.w3.org/1999/xlink" version="1.1" width="600" height="600" viewBox="0 0 600 600" xml:space="preserve">
<desc>Created with Fabric.js 5.2.4</desc>
<defs>
</defs>
<rect x="0" y="0" width="100%" height="100%" fill="#fff"></rect>
<g transform="matrix(1 0 0 1 280.5 297.7)"  >
<path style="stroke: rgb(0,0,0); stroke-width: 7; stroke-dasharray: none; stroke-linecap: round; stroke-dashoffset: 0; stroke-linejoin: round; stroke-miterlimit: 10; fill: none; fill-rule: nonzero; opacity: 1;"  transform=" translate(-280.5, -297.7)" d="M 121 255.19300076293945 Q 121 255.20000076293945 121.5 255.20000076293945 Q 122 255.20000076293945 122 255.70000076293945 Q 122 256.20000076293945 123 256.20000076293945 Q 124 256.20000076293945 124 256.70000076293945 Q 124 257.20000076293945 124 257.70000076293945 Q 124 258.20000076293945 124 258.70000076293945 Q 124 259.20000076293945 124 259.70000076293945 Q 124 260.20000076293945 124 260.70000076293945 Q 124 261.20000076293945 124 261.70000076293945 Q 124 262.20000076293945 124 262.70000076293945 Q 124 263.20000076293945 124 263.70000076293945 Q 124 264.20000076293945 124 264.70000076293945 Q 124 265.20000076293945 124 265.70000076293945 Q 124 266.20000076293945 124 267.20000076293945 Q 124 268.20000076293945 124 269.20000076293945 Q 124 270.20000076293945 124 270.70000076293945 Q 124 271.20000076293945 124 271.70000076293945 Q 124 272.20000076293945 124 272.70000076293945 Q 124 273.20000076293945 124 274.20000076293945 Q 124 275.20000076293945 124 275.70000076293945 Q 124 276.20000076293945 123.5 276.70000076293945 Q 123 277.20000076293945 123 277.70000076293945 Q 123 278.20000076293945 123 279.20000076293945 Q 123 280.20000076293945 123 280.70000076293945 Q 123 281.20000076293945 122.5 282.20000076293945 Q 122 283.20000076293945 121.5 283.70000076293945 Q 121 284.20000076293945 121 284.70000076293945 Q 121 285.20000076293945 121 285.70000076293945 Q 121 286.20000076293945 121 286.70000076293945 Q 121 287.20000076293945 120.5 287.70000076293945 Q 120 288.20000076293945 120 289.20000076293945 Q 120 290.20000076293945 120 291.20000076293945 Q 120 292.20000076293945 119.5 292.20000076293945 Q 119 292.20000076293945 119 292.70000076293945 Q 119 293.20000076293945 119 294.20000076293945 Q 119 295.20000076293945 118.5 295.70000076293945 Q 118 296.20000076293945 117.5 297.20000076293945 Q 117 298.20000076293945 116.5 298.20000076293945 Q 116 298.20000076293945 116 298.70000076293945 Q 116 299.20000076293945 116 299.70000076293945 Q 116 300.20000076293945 116 300.70000076293945 Q 116 301.20000076293945 116 301.70000076293945 Q 116 302.20000076293945 116 302.70000076293945 Q 116 303.20000076293945 116 303.70000076293945 Q 116 304.20000076293945 115.5 304.20000076293945 Q 115 304.20000076293945 115 304.70000076293945 Q 115 305.20000076293945 115 305.70000076293945 Q 115 306.20000076293945 115 307.20000076293945 Q 115 308.20000076293945 115 308.70000076293945 Q 115 309.20000076293945 115 309.70000076293945 Q 115 310.20000076293945 115 310.70000076293945 Q 115 311.20000076293945 114.5 311.70000076293945 Q 114 312.20000076293945 114 313.20000076293945 Q 114 314.20000076293945 113.5 314.70000076293945 Q 113 315.20000076293945 113 315.70000076293945 Q 113 316.20000076293945 113 316.70000076293945 Q 113 317.20000076293945 113 317.70000076293945 Q 113 318.20000076293945 113 319.20000076293945 Q 113 320.20000076293945 113 320.70000076293945 Q 113 321.20000076293945 113 321.70000076293945 Q 113 322.20000076293945 113 322.70000076293945 Q 113 323.20000076293945 113 323.70000076293945 Q 113 324.20000076293945 113 324.70000076293945 Q 113 325.20000076293945 113 325.70000076293945 Q 113 326.20000076293945 113 326.70000076293945 Q 113 327.20000076293945 113 327.70000076293945 Q 113 328.20000076293945 113 328.70000076293945 Q 113 329.20000076293945 113 329.70000076293945 Q 113 330.20000076293945 113 331.20000076293945 Q 113 332.20000076293945 113 332.70000076293945 Q 113 333.20000076293945 113 333.70000076293945 Q 113 334.20000076293945 113 334.70000076293945 Q 113 335.20000076293945 113 335.70000076293945 Q 113 336.20000076293945 113 336.70000076293945 Q 113 337.20000076293945 113 337.70000076293945 Q 113 338.20000076293945 113 338.70000076293945 Q 113 339.20000076293945 113 339.70000076293945 Q 113 340.20000076293945 113 340.70000076293945 Q 113 341.20000076293945 113.5 342.20000076293945 Q 114 343.20000076293945 115 343.20000076293945 Q 116 343.20000076293945 116 343.70000076293945 Q 116 344.20000076293945 117 344.20000076293945 Q 118 344.20000076293945 119 344.20000076293945 Q 120 344.20000076293945 121 344.70000076293945 Q 122 345.20000076293945 123 345.20000076293945 Q 124 345.20000076293945 125 345.20000076293945 Q 126 345.20000076293945 127 345.70000076293945 Q 128 346.20000076293945 129.5 346.20000076293945 Q 131 346.20000076293945 132 346.20000076293945 Q 133 346.20000076293945 134.5 346.70000076293945 Q 136 347.20000076293945 137.5 347.20000076293945 Q 139 347.20000076293945 139.5 347.20000076293945 Q 140 347.20000076293945 141 347.20000076293945 Q 142 347.20000076293945 142.5 347.20000076293945 Q 143 347.20000076293945 144 347.20000076293945 Q 145 347.20000076293945 145.5 347.20000076293945 Q 146 347.20000076293945 146.5 347.20000076293945 Q 147 347.20000076293945 148 347.20000076293945 Q 149 347.20000076293945 149.5 347.20000076293945 Q 150 347.20000076293945 151 347.20000076293945 Q 152 347.20000076293945 153 347.20000076293945 Q 154 347.20000076293945 154.5 347.20000076293945 Q 155 347.20000076293945 156 347.20000076293945 Q 157 347.20000076293945 158.5 347.20000076293945 Q 160 347.20000076293945 161.5 347.20000076293945 Q 163 347.20000076293945 164.5 346.70000076293945 Q 166 346.20000076293945 166.5 346.20000076293945 Q 167 346.20000076293945 167.5 345.70000076293945 Q 168 345.20000076293945 169.5 345.20000076293945 Q 171 345.20000076293945 171.5 345.20000076293945 Q 172 345.20000076293945 172.5 345.20000076293945 Q 173 345.20000076293945 174 345.20000076293945 Q 175 345.20000076293945 175.5 345.20000076293945 Q 176 345.20000076293945 176.5 345.20000076293945 Q 177 345.20000076293945 178 345.20000076293945 Q 179 345.20000076293945 179.5 345.20000076293945 Q 180 345.20000076293945 181.5 344.70000076293945 Q 183 344.20000076293945 183.5 344.20000076293945 Q 184 344.20000076293945 185.5 344.20000076293945 Q 187 344.20000076293945 187.5 344.20000076293945 Q 188 344.20000076293945 188.5 344.20000076293945 Q 189 344.20000076293945 189.5 344.20000076293945 Q 190 344.20000076293945 191.5 344.20000076293945 Q 193 344.20000076293945 194 344.20000076293945 Q 195 344.20000076293945 196.5 344.20000076293945 Q 198 344.20000076293945 199 344.20000076293945 Q 200 344.20000076293945 202 344.20000076293945 Q 204 344.20000076293945 205 344.20000076293945 Q 206 344.20000076293945 207 344.20000076293945 Q 208 344.20000076293945 209.5 344.20000076293945 Q 211 344.20000076293945 211.5 344.20000076293945 Q 212 344.20000076293945 213.5 343.70000076293945 Q 215 343.20000076293945 215.5 343.20000076293945 Q 216 343.20000076293945 217 343.20000076293945 Q 218 343.20000076293945 219.5 342.70000076293945 Q 221 342.20000076293945 222.5 342.20000076293945 Q 224 342.20000076293945 225 342.20000076293945 Q 226 342.20000076293945 228 342.20000076293945 Q 230 342.20000076293945 230.5 342.20000076293945 Q 231 342.20000076293945 233 342.20000076293945 Q 235 342.20000076293945 236 342.20000076293945 Q 237 342.20000076293945 237.5 342.20000076293945 Q 238 342.20000076293945 239.5 342.20000076293945 Q 241 342.20000076293945 242.5 342.20000076293945 Q 244 342.20000076293945 245 342.20000076293945 Q 246 342.20000076293945 247 342.20000076293945 Q 248 342.20000076293945 250.5 342.20000076293945 Q 253 342.20000076293945 255 342.20000076293945 Q 257 342.20000076293945 257.5 342.20000076293945 Q 258 342.20000076293945 260 342.20000076293945 Q 262 342.20000076293945 263.5 342.20000076293945 Q 265 342.20000076293945 266.5 342.20000076293945 Q 268 342.20000076293945 269 342.20000076293945 Q 270 342.20000076293945 272 342.20000076293945 Q 274 342.20000076293945 275 342.20000076293945 Q 276 342.20000076293945 277.5 341.70000076293945 Q 279 341.20000076293945 280 341.20000076293945 Q 281 341.20000076293945 282 341.20000076293945 Q 283 341.20000076293945 283.5 340.70000076293945 Q 284 340.20000076293945 285.5 340.20000076293945 Q 287 340.20000076293945 287.5 340.20000076293945 Q 288 340.20000076293945 289 340.20000076293945 Q 290 340.20000076293945 291 340.20000076293945 Q 292 340.20000076293945 294 340.20000076293945 Q 296 340.20000076293945 296.5 340.20000076293945 Q 297 340.20000076293945 299 340.20000076293945 Q 301 340.20000076293945 303 340.20000076293945 Q 305 340.20000076293945 306.5 340.20000076293945 Q 308 340.20000076293945 310 340.20000076293945 Q 312 340.20000076293945 314 340.20000076293945 Q 316 340.20000076293945 318 340.20000076293945 Q 320 340.20000076293945 321 340.20000076293945 Q 322 340.20000076293945 323 340.20000076293945 Q 324 340.20000076293945 325.5 340.20000076293945 Q 327 340.20000076293945 328 340.20000076293945 Q 329 340.20000076293945 330 340.20000076293945 Q 331 340.20000076293945 331.5 340.20000076293945 Q 332 340.20000076293945 332.5 340.20000076293945 Q 333 340.20000076293945 334 340.20000076293945 Q 335 340.20000076293945 336.5 340.20000076293945 Q 338 340.20000076293945 338.5 340.20000076293945 Q 339 340.20000076293945 339.5 339.70000076293945 Q 340 339.20000076293945 342 338.70000076293945 Q 344 338.20000076293945 344.5 338.20000076293945 Q 345 338.20000076293945 346.5 338.20000076293945 Q 348 338.20000076293945 350 337.70000076293945 Q 352 337.20000076293945 353.5 337.20000076293945 Q 355 337.20000076293945 356 336.70000076293945 Q 357 336.20000076293945 358.5 336.20000076293945 Q 360 336.20000076293945 362 335.70000076293945 Q 364 335.20000076293945 365 335.20000076293945 Q 366 335.20000076293945 367.5 334.70000076293945 Q 369 334.20000076293945 370.5 334.20000076293945 Q 372 334.20000076293945 372.5 334.20000076293945 Q 373 334.20000076293945 375 333.70000076293945 Q 377 333.20000076293945 379 333.20000076293945 Q 381 333.20000076293945 382.5 333.20000076293945 Q 384 333.20000076293945 386 333.20000076293945 Q 388 333.20000076293945 390.5 332.70000076293945 Q 393 332.20000076293945 393.5 332.20000076293945 Q 394 332.20000076293945 396 332.20000076293945 Q 398 332.20000076293945 399 332.20000076293945 Q 400 332.20000076293945 402 332.20000076293945 Q 404 332.20000076293945 404.5 331.70000076293945 Q 405 331.20000076293945 406 331.20000076293945 Q 407 331.20000076293945 408 330.70000076293945 Q 409 330.20000076293945 410.5 329.70000076293945 Q 412 329.20000076293945 414.5 328.70000076293945 Q 417 328.20000076293945 417.5 328.20000076293945 Q 418 328.20000076293945 419.5 327.70000076293945 Q 421 327.20000076293945 422.5 326.70000076293945 Q 424 326.20000076293945 425.5 325.70000076293945 Q 427 325.20000076293945 427.5 324.70000076293945 Q 428 324.20000076293945 428.5 324.20000076293945 Q 429 324.20000076293945 429.5 324.20000076293945 Q 430 324.20000076293945 430.5 324.20000076293945 Q 431 324.20000076293945 431.5 324.20000076293945 Q 432 324.20000076293945 433 323.70000076293945 Q 434 323.20000076293945 434.5 322.70000076293945 Q 435 322.20000076293945 435.5 321.70000076293945 Q 436 321.20000076293945 436.5 321.20000076293945 Q 437 321.20000076293945 437.5 320.70000076293945 Q 438 320.20000076293945 439 320.20000076293945 Q 440 320.20000076293945 440 319.70000076293945 Q 440 319.20000076293945 440.5 319.20000076293945 Q 441 319.20000076293945 441.5 318.20000076293945 Q 442 317.20000076293945 442.5 316.70000076293945 Q 443 316.20000076293945 443.5 315.70000076293945 Q 444 315.20000076293945 444.5 314.20000076293945 Q 445 313.20000076293945 445.5 312.70000076293945 Q 446 312.20000076293945 446.5 310.70000076293945 Q 447 309.20000076293945 447.5 308.70000076293945 Q 448 308.20000076293945 448 307.70000076293945 Q 448 307.20000076293945 448 306.20000076293945 Q 448 305.20000076293945 448 304.20000076293945 Q 448 303.20000076293945 448 302.20000076293945 Q 448 301.20000076293945 448 300.70000076293945 Q 448 300.20000076293945 448 299.70000076293945 Q 448 299.20000076293945 448 298.20000076293945 Q 448 297.20000076293945 448 296.70000076293945 Q 448 296.20000076293945 448 295.20000076293945 Q 448 294.20000076293945 448 293.20000076293945 Q 448 292.20000076293945 448 291.20000076293945 Q 448 290.20000076293945 448 289.20000076293945 Q 448 288.20000076293945 447.5 287.20000076293945 Q 447 286.20000076293945 447 285.70000076293945 Q 447 285.20000076293945 447 284.70000076293945 Q 447 284.20000076293945 447 283.20000076293945 Q 447 282.20000076293945 446.5 281.70000076293945 Q 446 281.20000076293945 445.5 280.70000076293945 Q 445 280.20000076293945 444.5 278.70000076293945 Q 444 277.20000076293945 444 276.70000076293945 Q 444 276.20000076293945 443 275.70000076293945 Q 442 275.20000076293945 441.5 273.70000076293945 Q 441 272.20000076293945 441 271.70000076293945 Q 441 271.20000076293945 440.5 270.20000076293945 Q 440 269.20000076293945 439 268.70000076293945 Q 438 268.20000076293945 437.5 268.20000076293945 Q 437 268.20000076293945 436.5 266.70000076293945 Q 436 265.20000076293945 436 264.70000076293945 Q 436 264.20000076293945 435 263.70000076293945 Q 434 263.20000076293945 433.5 262.70000076293945 Q 433 262.20000076293945 432.5 261.70000076293945 Q 432 261.20000076293945 432 260.70000076293945 Q 432 260.20000076293945 431.5 260.20000076293945 Q 431 260.20000076293945 430 259.70000076293945 Q 429 259.20000076293945 428.5 258.70000076293945 Q 428 258.20000076293945 428 257.70000076293945 Q 428 257.20000076293945 427.5 256.70000076293945 Q 427 256.20000076293945 425.5 256.20000076293945 Q 424 256.20000076293945 424 255.70000076293945 Q 424 255.20000076293945 423.5 254.70000076293945 Q 423 254.20000076293945 422 253.70000076293945 Q 421 253.20000076293945 420.5 253.20000076293945 Q 420 253.20000076293945 419.5 253.20000076293945 Q 419 253.20000076293945 418 252.70000076293945 Q 417 252.20000076293945 416.5 252.20000076293945 Q 416 252.20000076293945 415.5 251.70000076293945 Q 415 251.20000076293945 414 250.70000076293945 Q 413 250.20000076293945 410.5 249.70000076293945 Q 408 249.20000076293945 406.5 248.70000076293945 Q 405 248.20000076293945 403 248.20000076293945 Q 401 248.20000076293945 400 248.20000076293945 Q 399 248.20000076293945 398 248.20000076293945 Q 397 248.20000076293945 395.5 248.20000076293945 Q 394 248.20000076293945 392.5 248.20000076293945 Q 391 248.20000076293945 390 248.20000076293945 Q 389 248.20000076293945 388 248.20000076293945 Q 387 248.20000076293945 385.5 248.20000076293945 Q 384 248.20000076293945 383 248.20000076293945 Q 382 248.20000076293945 381.5 248.20000076293945 Q 381 248.20000076293945 380.5 248.20000076293945 Q 380 248.20000076293945 378 248.20000076293945 Q 376 248.20000076293945 375 248.20000076293945 Q 374 248.20000076293945 373 248.20000076293945 Q 372 248.20000076293945 371 248.20000076293945 Q 370 248.20000076293945 369 248.20000076293945 Q 368 248.20000076293945 366 248.20000076293945 Q 364 248.20000076293945 363.5 248.20000076293945 Q 363 248.20000076293945 361.5 248.20000076293945 Q 360 248.20000076293945 358 248.20000076293945 Q 356 248.20000076293945 354.5 248.20000076293945 Q 353 248.20000076293945 352.5 248.20000076293945 Q 352 248.20000076293945 351 248.20000076293945 Q 350 248.20000076293945 348 248.20000076293945 Q 346 248.20000076293945 345 248.20000076293945 Q 344 248.20000076293945 342.5 248.20000076293945 Q 341 248.20000076293945 340.5 248.20000076293945 Q 340 248.20000076293945 338.5 248.20000076293945 Q 337 248.20000076293945 334.5 248.20000076293945 Q 332 248.20000076293945 330 248.20000076293945 Q 328 248.20000076293945 326.5 248.20000076293945 Q 325 248.20000076293945 324 248.20000076293945 Q 323 248.20000076293945 321.5 248.20000076293945 Q 320 248.20000076293945 318 248.20000076293945 Q 316 248.20000076293945 315 248.20000076293945 Q 314 248.20000076293945 312.5 248.20000076293945 Q 311 248.20000076293945 309 248.20000076293945 Q 307 248.20000076293945 305.5 248.20000076293945 Q 304 248.20000076293945 303.5 248.20000076293945 Q 303 248.20000076293945 301.5 248.20000076293945 Q 300 248.20000076293945 298 248.20000076293945 Q 296 248.20000076293945 294 248.20000076293945 Q 292 248.20000076293945 289.5 248.20000076293945 Q 287 248.20000076293945 286 248.20000076293945 Q 285 248.20000076293945 282 248.20000076293945 Q 279 248.20000076293945 277 248.20000076293945 Q 275 248.20000076293945 273.5 248.20000076293945 Q 272 248.20000076293945 268.5 248.20000076293945 Q 265 248.20000076293945 263 248.20000076293945 Q 261 248.20000076293945 260.5 248.20000076293945 Q 260 248.20000076293945 257 248.20000076293945 Q 254 248.20000076293945 252 248.20000076293945 Q 250 248.20000076293945 249 248.20000076293945 Q 248 248.20000076293945 246 248.20000076293945 Q 244 248.20000076293945 241.5 248.20000076293945 Q 239 248.20000076293945 237 248.20000076293945 Q 235 248.20000076293945 234 248.20000076293945 Q 233 248.20000076293945 231.5 248.20000076293945 Q 230 248.20000076293945 228.5 248.20000076293945 Q 227 248.20000076293945 226.5 248.20000076293945 Q 226 248.20000076293945 224 248.20000076293945 Q 222 248.20000076293945 221 248.20000076293945 Q 220 248.20000076293945 219 248.20000076293945 Q 218 248.20000076293945 216.5 248.20000076293945 Q 215 248.20000076293945 213.5 248.20000076293945 Q 212 248.20000076293945 211 248.20000076293945 Q 210 248.20000076293945 209 248.20000076293945 Q 208 248.20000076293945 207.5 248.20000076293945 Q 207 248.20000076293945 206 248.20000076293945 Q 205 248.20000076293945 204.5 248.20000076293945 Q 204 248.20000076293945 203.5 248.20000076293945 Q 203 248.20000076293945 202 248.20000076293945 Q 201 248.20000076293945 199.5 248.20000076293945 Q 198 248.20000076293945 197.5 248.20000076293945 Q 197 248.20000076293945 196 248.20000076293945 Q 195 248.20000076293945 193.5 248.20000076293945 Q 192 248.20000076293945 191 248.20000076293945 Q 190 248.20000076293945 189.5 248.20000076293945 Q 189 248.20000076293945 186.5 248.20000076293945 Q 184 248.20000076293945 183 248.20000076293945 Q 182 248.20000076293945 181 248.20000076293945 Q 180 248.20000076293945 179 248.20000076293945 Q 178 248.20000076293945 177 248.20000076293945 Q 176 248.20000076293945 175.5 248.20000076293945 Q 175 248.20000076293945 173.5 248.20000076293945 Q 172 248.20000076293945 171 248.20000076293945 Q 170 248.20000076293945 169.5 248.20000076293945 Q 169 248.20000076293945 168.5 248.20000076293945 Q 168 248.20000076293945 167 248.20000076293945 Q 166 248.20000076293945 165.5 248.20000076293945 Q 165 248.20000076293945 164 248.20000076293945 Q 163 248.20000076293945 162.5 248.20000076293945 Q 162 248.20000076293945 161 248.20000076293945 Q 160 248.20000076293945 159.5 248.20000076293945 Q 159 248.20000076293945 157.5 248.70000076293945 Q 156 249.20000076293945 155 249.70000076293945 Q 154 250.20000076293945 153 250.20000076293945 Q 152 250.20000076293945 151.5 250.20000076293945 Q 151 250.20000076293945 150 250.20000076293945 Q 149 250.20000076293945 148 250.70000076293945 Q 147 251.20000076293945 146.5 251.20000076293945 Q 146 251.20000076293945 145 251.20000076293945 Q 144 251.20000076293945 142.5 251.70000076293945 Q 141 252.20000076293945 140.5 252.20000076293945 Q 140 252.20000076293945 139.5 252.20000076293945 Q 139 252.20000076293945 138.5 252.20000076293945 Q 138 252.20000076293945 137.5 252.20000076293945 Q 137 252.20000076293945 136.5 252.20000076293945 Q 136 252.20000076293945 135.5 252.20000076293945 Q 135 252.20000076293945 134.5 252.20000076293945 Q 134 252.20000076293945 133 252.20000076293945 L 131.993 252.20000076293945" stroke-linecap="round" />
</g>
<g transform="matrix(1 0 0 1 394.5 386.2)"  >
<path style="stroke: rgb(0,0,0); stroke-width: 7; stroke-dasharray: none; stroke-linecap: round; stroke-dashoffset: 0; stroke-linejoin: round; stroke-miterlimit: 10; fill: none; fill-rule: nonzero; opacity: 1;"  transform=" translate(-394.5, -386.2)" d="M 404.007 340.20000076293945 Q 404 340.20000076293945 403 340.20000076293945 Q 402 340.20000076293945 401.5 340.20000076293945 Q 401 340.20000076293945 400.5 340.20000076293945 Q 400 340.20000076293945 399.5 340.20000076293945 Q 399 340.20000076293945 398.5 340.20000076293945 Q 398 340.20000076293945 397.5 340.20000076293945 Q 397 340.20000076293945 396.5 340.20000076293945 Q 396 340.20000076293945 395 340.20000076293945 Q 394 340.20000076293945 393.5 340.20000076293945 Q 393 340.20000076293945 392.5 340.20000076293945 Q 392 340.20000076293945 391.5 340.20000076293945 Q 391 340.20000076293945 390.5 340.20000076293945 Q 390 340.20000076293945 389.5 340.20000076293945 Q 389 340.20000076293945 388.5 340.20000076293945 Q 388 340.20000076293945 387 340.20000076293945 Q 386 340.20000076293945 385 340.20000076293945 Q 384 340.20000076293945 383.5 340.20000076293945 Q 383 340.20000076293945 381.5 340.20000076293945 Q 380 340.20000076293945 379 340.20000076293945 Q 378 340.20000076293945 377 340.20000076293945 Q 376 340.20000076293945 375.5 340.70000076293945 Q 375 341.20000076293945 373.5 341.20000076293945 Q 372 341.20000076293945 372 341.70000076293945 Q 372 342.20000076293945 371.5 342.20000076293945 Q 371 342.20000076293945 369.5 342.70000076293945 Q 368 343.20000076293945 367.5 343.70000076293945 Q 367 344.20000076293945 366 344.20000076293945 Q 365 344.20000076293945 364 345.20000076293945 Q 363 346.20000076293945 362.5 346.20000076293945 Q 362 346.20000076293945 361.5 346.70000076293945 Q 361 347.20000076293945 360 348.20000076293945 Q 359 349.20000076293945 358 349.70000076293945 Q 357 350.20000076293945 356.5 350.70000076293945 Q 356 351.20000076293945 355 351.70000076293945 Q 354 352.20000076293945 353.5 352.70000076293945 Q 353 353.20000076293945 352.5 353.70000076293945 Q 352 354.20000076293945 351.5 355.20000076293945 Q 351 356.20000076293945 350 356.70000076293945 Q 349 357.20000076293945 348.5 357.70000076293945 Q 348 358.20000076293945 348 358.70000076293945 Q 348 359.20000076293945 348 359.70000076293945 Q 348 360.20000076293945 347.5 361.20000076293945 Q 347 362.20000076293945 346 363.20000076293945 Q 345 364.20000076293945 344.5 365.20000076293945 Q 344 366.20000076293945 344 366.70000076293945 Q 344 367.20000076293945 344 367.70000076293945 Q 344 368.20000076293945 344 368.70000076293945 Q 344 369.20000076293945 344 369.70000076293945 Q 344 370.20000076293945 344 370.70000076293945 Q 344 371.20000076293945 344 371.70000076293945 Q 344 372.20000076293945 344 373.20000076293945 Q 344 374.20000076293945 344 375.20000076293945 Q 344 376.20000076293945 344 377.70000076293945 Q 344 379.20000076293945 344 379.70000076293945 Q 344 380.20000076293945 344 380.70000076293945 Q 344 381.20000076293945 344 382.70000076293945 Q 344 384.20000076293945 344 384.70000076293945 Q 344 385.20000076293945 344 386.20000076293945 Q 344 387.20000076293945 344 387.70000076293945 Q 344 388.20000076293945 344 391.20000076293945 Q 344 394.20000076293945 344 394.70000076293945 Q 344 395.20000076293945 344 396.20000076293945 Q 344 397.20000076293945 344.5 398.70000076293945 Q 345 400.20000076293945 345.5 400.70000076293945 Q 346 401.20000076293945 346.5 402.20000076293945 Q 347 403.20000076293945 347.5 404.20000076293945 Q 348 405.20000076293945 348.5 406.20000076293945 Q 349 407.20000076293945 349.5 407.70000076293945 Q 350 408.20000076293945 350.5 408.20000076293945 Q 351 408.20000076293945 351 408.70000076293945 Q 351 409.20000076293945 351 409.70000076293945 Q 351 410.20000076293945 351.5 410.70000076293945 Q 352 411.20000076293945 352 411.70000076293945 Q 352 412.20000076293945 352 412.70000076293945 Q 352 413.20000076293945 352.5 413.70000076293945 Q 353 414.20000076293945 353 414.70000076293945 Q 353 415.20000076293945 353.5 415.70000076293945 Q 354 416.20000076293945 354.5 416.20000076293945 Q 355 416.20000076293945 355.5 416.70000076293945 Q 356 417.20000076293945 356 417.70000076293945 Q 356 418.20000076293945 356 418.70000076293945 Q 356 419.20000076293945 356.5 419.70000076293945 Q 357 420.20000076293945 357.5 420.70000076293945 Q 358 421.20000076293945 359 421.70000076293945 Q 360 422.20000076293945 360.5 422.70000076293945 Q 361 423.20000076293945 361.5 423.70000076293945 Q 362 424.20000076293945 362.5 424.20000076293945 Q 363 424.20000076293945 363.5 424.20000076293945 Q 364 424.20000076293945 364.5 424.70000076293945 Q 365 425.20000076293945 365.5 425.20000076293945 Q 366 425.20000076293945 366 425.70000076293945 Q 366 426.20000076293945 366.5 426.20000076293945 Q 367 426.20000076293945 369 426.70000076293945 Q 371 427.20000076293945 371 427.70000076293945 Q 371 428.20000076293945 373.5 428.20000076293945 Q 376 428.20000076293945 378 428.70000076293945 Q 380 429.20000076293945 381 429.70000076293945 Q 382 430.20000076293945 383 430.70000076293945 Q 384 431.20000076293945 384.5 431.20000076293945 Q 385 431.20000076293945 386.5 431.70000076293945 Q 388 432.20000076293945 390 432.20000076293945 Q 392 432.20000076293945 393.5 432.20000076293945 Q 395 432.20000076293945 395.5 432.20000076293945 Q 396 432.20000076293945 396.5 432.20000076293945 Q 397 432.20000076293945 398.5 432.20000076293945 Q 400 432.20000076293945 400.5 432.20000076293945 Q 401 432.20000076293945 402 432.20000076293945 Q 403 432.20000076293945 404 432.20000076293945 Q 405 432.20000076293945 405.5 432.20000076293945 Q 406 432.20000076293945 406.5 432.20000076293945 Q 407 432.20000076293945 407.5 432.20000076293945 Q 408 432.20000076293945 408.5 432.20000076293945 Q 409 432.20000076293945 409.5 432.20000076293945 Q 410 432.20000076293945 410.5 431.70000076293945 Q 411 431.20000076293945 411.5 430.70000076293945 Q 412 430.20000076293945 412 429.70000076293945 Q 412 429.20000076293945 412.5 428.70000076293945 Q 413 428.20000076293945 413.5 427.70000076293945 Q 414 427.20000076293945 414.5 426.70000076293945 Q 415 426.20000076293945 415.5 425.70000076293945 Q 416 425.20000076293945 416 424.70000076293945 Q 416 424.20000076293945 416.5 423.70000076293945 Q 417 423.20000076293945 417.5 423.20000076293945 Q 418 423.20000076293945 418.5 422.70000076293945 Q 419 422.20000076293945 419.5 421.20000076293945 Q 420 420.20000076293945 420.5 419.70000076293945 Q 421 419.20000076293945 421.5 419.20000076293945 Q 422 419.20000076293945 422.5 418.20000076293945 Q 423 417.20000076293945 423.5 416.70000076293945 Q 424 416.20000076293945 425 415.20000076293945 Q 426 414.20000076293945 426.5 413.20000076293945 Q 427 412.20000076293945 427.5 412.20000076293945 Q 428 412.20000076293945 428.5 411.20000076293945 Q 429 410.20000076293945 430 409.20000076293945 Q 431 408.20000076293945 432 406.20000076293945 Q 433 404.20000076293945 433.5 403.70000076293945 Q 434 403.20000076293945 434.5 402.70000076293945 Q 435 402.20000076293945 435 401.70000076293945 Q 435 401.20000076293945 435 400.70000076293945 Q 435 400.20000076293945 435.5 400.20000076293945 Q 436 400.20000076293945 436 399.70000076293945 Q 436 399.20000076293945 436 398.20000076293945 Q 436 397.20000076293945 436.5 396.70000076293945 Q 437 396.20000076293945 437.5 396.20000076293945 Q 438 396.20000076293945 438.5 395.70000076293945 Q 439 395.20000076293945 439 393.70000076293945 Q 439 392.20000076293945 439.5 391.70000076293945 Q 440 391.20000076293945 440 390.70000076293945 Q 440 390.20000076293945 440.5 389.70000076293945 Q 441 389.20000076293945 441.5 388.70000076293945 Q 442 388.20000076293945 442.5 387.70000076293945 Q 443 387.20000076293945 443 386.70000076293945 Q 443 386.20000076293945 443 385.20000076293945 Q 443 384.20000076293945 443.5 384.20000076293945 Q 444 384.20000076293945 444 383.20000076293945 Q 444 382.20000076293945 444 381.20000076293945 Q 444 380.20000076293945 444.5 379.20000076293945 Q 445 378.20000076293945 445 377.70000076293945 Q 445 377.20000076293945 445 376.70000076293945 Q 445 376.20000076293945 445 375.20000076293945 Q 445 374.20000076293945 445 373.70000076293945 Q 445 373.20000076293945 445 372.20000076293945 Q 445 371.20000076293945 444.5 369.70000076293945 Q 444 368.20000076293945 444 367.20000076293945 Q 444 366.20000076293945 443.5 365.20000076293945 Q 443 364.20000076293945 442 363.70000076293945 Q 441 363.20000076293945 440.5 362.20000076293945 Q 440 361.20000076293945 440 360.70000076293945 Q 440 360.20000076293945 440 359.70000076293945 Q 440 359.20000076293945 439.5 359.20000076293945 Q 439 359.20000076293945 439 358.70000076293945 Q 439 358.20000076293945 438.5 358.20000076293945 Q 438 358.20000076293945 438 357.70000076293945 Q 438 357.20000076293945 437.5 356.70000076293945 Q 437 356.20000076293945 436.5 356.20000076293945 Q 436 356.20000076293945 436 355.70000076293945 Q 436 355.20000076293945 435.5 354.70000076293945 Q 435 354.20000076293945 434.5 354.20000076293945 Q 434 354.20000076293945 433.5 353.70000076293945 Q 433 353.20000076293945 432.5 352.70000076293945 Q 432 352.20000076293945 431.5 352.20000076293945 Q 431 352.20000076293945 430 351.20000076293945 Q 429 350.20000076293945 427 349.70000076293945 Q 425 349.20000076293945 424.5 349.20000076293945 Q 424 349.20000076293945 422.5 348.70000076293945 Q 421 348.20000076293945 420 347.70000076293945 Q 419 347.20000076293945 418 347.20000076293945 Q 417 347.20000076293945 415 346.70000076293945 Q 413 346.20000076293945 412.5 345.70000076293945 Q 412 345.20000076293945 411.5 344.70000076293945 Q 411 344.20000076293945 410.5 344.20000076293945 Q 410 344.20000076293945 409 344.20000076293945 Q 408 344.20000076293945 407.5 344.20000076293945 Q 407 344.20000076293945 405.5 344.20000076293945 L 403.993 344.20000076293945" stroke-linecap="round" />
</g>
<g transform="matrix(1 0 0 1 439 236.7)"  >
<path style="stroke: rgb(0,0,0); stroke-width: 7; stroke-dasharray: none; stroke-linecap: round; stroke-dashoffset: 0; stroke-linejoin: round; stroke-miterlimit: 10; fill: none; fill-rule: nonzero; opacity: 1;"  transform=" translate(-439, -236.7)" d="M 423.993 258.20000076293945 Q 424 258.20000076293945 425.5 258.20000076293945 Q 427 258.20000076293945 428 258.20000076293945 Q 429 258.20000076293945 430 257.70000076293945 Q 431 257.20000076293945 432 257.20000076293945 Q 433 257.20000076293945 434 256.70000076293945 Q 435 256.20000076293945 435.5 256.20000076293945 Q 436 256.20000076293945 436.5 256.20000076293945 Q 437 256.20000076293945 438 256.20000076293945 Q 439 256.20000076293945 439.5 256.20000076293945 Q 440 256.20000076293945 440.5 255.70000076293945 Q 441 255.20000076293945 441.5 255.20000076293945 Q 442 255.20000076293945 442.5 255.20000076293945 Q 443 255.20000076293945 443.5 254.70000076293945 Q 444 254.20000076293945 444.5 253.70000076293945 Q 445 253.20000076293945 445.5 253.20000076293945 Q 446 253.20000076293945 446.5 253.20000076293945 Q 447 253.20000076293945 447.5 252.70000076293945 Q 448 252.20000076293945 448 251.70000076293945 Q 448 251.20000076293945 448.5 251.20000076293945 Q 449 251.20000076293945 449.5 250.70000076293945 Q 450 250.20000076293945 450.5 249.20000076293945 Q 451 248.20000076293945 451.5 248.20000076293945 Q 452 248.20000076293945 452 247.70000076293945 Q 452 247.20000076293945 452 246.70000076293945 Q 452 246.20000076293945 452.5 245.70000076293945 Q 453 245.20000076293945 453 244.70000076293945 Q 453 244.20000076293945 453.5 243.20000076293945 Q 454 242.20000076293945 454 241.20000076293945 Q 454 240.20000076293945 454 239.70000076293945 Q 454 239.20000076293945 454 238.70000076293945 Q 454 238.20000076293945 454 237.20000076293945 Q 454 236.20000076293945 454 235.70000076293945 Q 454 235.20000076293945 454 233.70000076293945 Q 454 232.20000076293945 454 231.70000076293945 Q 454 231.20000076293945 454 230.20000076293945 Q 454 229.20000076293945 454 228.70000076293945 Q 454 228.20000076293945 454 226.70000076293945 Q 454 225.20000076293945 454 224.70000076293945 Q 454 224.20000076293945 454 223.70000076293945 Q 454 223.20000076293945 454 222.70000076293945 Q 454 222.20000076293945 454 221.20000076293945 Q 454 220.20000076293945 454 219.70000076293945 Q 454 219.20000076293945 454 218.70000076293945 Q 454 218.20000076293945 454 217.70000076293945 Q 454 217.20000076293945 454 216.20000076293945 L 454 215.19300076293945" stroke-linecap="round" />
</g>
</svg>